<svg xmlns="http://www.w3.org/2000/svg" xmlns:xlink="http://www.w3.org/1999/xlink" xmlns:lucid="lucid" width="1977.68" height="2512.35"><g transform="translate(2.75 191.845500133467)" lucid:page-tab-id="xeX7O8S9w3jx"><path d="M0-500h2000v3000H0z" fill="#fff"/><path d="M673.96-162.85a8 8 0 0 1 8-8H1352a8 8 0 0 1 8 8V2292a8 8 0 0 1-8 8H681.96a8 8 0 0 1-8-8z" stroke="#000" fill-opacity="0"/><use xlink:href="#a" transform="matrix(1,0,0,1,681.9635809938179,-162.845500133467) translate(143.28827160493836 17.95555555555555)"/><use xlink:href="#b" transform="matrix(1,0,0,1,681.9635809938179,-162.845500133467) translate(189.42407407407416 17.95555555555555)"/><use xlink:href="#c" transform="matrix(1,0,0,1,681.9635809938179,-162.845500133467) translate(264.0518518518519 17.95555555555555)"/><use xlink:href="#d" transform="matrix(1,0,0,1,681.9635809938179,-162.845500133467) translate(407.13518518518515 17.95555555555555)"/><use xlink:href="#e" transform="matrix(1,0,0,1,681.9635809938179,-162.845500133467) translate(484.2567901234567 17.95555555555555)"/><path d="M379.75 539.75c0 10.9-8.84 19.75-19.75 19.75-10.9 0-19.75-8.84-19.75-19.75 0-10.9 8.84-19.75 19.75-19.75 10.9 0 19.75 8.84 19.75 19.75z" stroke="#333" fill="#fff"/><path d="M360 559.5v49.3a20.7 20.7 0 0 0 3.2 11.07L400 678m-40-63.2L320 678m0-98.75h80" stroke="#333" fill="none"/><path d="M320 526a6 6 0 0 1 6-6h68a6 6 0 0 1 6 6v168a6 6 0 0 1-6 6h-68a6 6 0 0 1-6-6z" fill="none"/><use xlink:href="#f" transform="matrix(1,0,0,1,240,678) translate(96.60493827160494 17.77777777777778)"/><path d="M18.25-158.85a12 12 0 0 1 12-12h316a12 12 0 0 1 12 12v296a12 12 0 0 1-12 12h-316a12 12 0 0 1-12-12z" stroke="#dfe3e8" stroke-width="2" fill="#fff"/><path d="M152.5-7.82c0 15.88-12.88 28.77-28.77 28.77-15.88 0-28.76-12.88-28.76-28.77 0-15.9 12.88-28.77 28.77-28.77 15.88 0 28.76 12.9 28.76 28.78z" stroke="#000" stroke-opacity=".25" fill="#ffd9d9"/><path d="M129.06 50.25c0 2.94-2.38 5.32-5.33 5.32-2.94 0-5.32-2.38-5.32-5.32 0-2.95 2.4-5.33 5.33-5.33 2.95 0 5.33 2.38 5.33 5.33z" stroke="#333" fill="#fff"/><path d="M123.73 55.57V72.1c0 1.1.25 2.02.78 2.98l9.9 17.8m-10.67-19.2l-10.65 19.2m0-31.98h21.3" stroke="#333" fill="none"/><path d="M113.08 46.52c0-.9.72-1.6 1.6-1.6h18.1c.9 0 1.6.7 1.6 1.6v44.75c0 .88-.7 1.6-1.6 1.6h-18.1c-.88 0-1.6-.72-1.6-1.6z" fill="none"/><use xlink:href="#g" transform="matrix(1,0,0,1,94.96624529176718,-113.30831616464161) translate(0 32.57981659350689)"/><use xlink:href="#h" transform="matrix(1,0,0,1,181.27202124500525,-36.592070872874416) translate(0 32.57981659350689)"/><use xlink:href="#i" transform="matrix(1,0,0,1,181.27202124500525,-36.592070872874416) translate(36.74283975835543 32.57981659350689)"/><use xlink:href="#j" transform="matrix(1,0,0,1,181.27202124500525,40.12417441889278) translate(0 32.57981659350689)"/><path d="M1200 0c0 33.14-89.54 60-200 60S800 33.14 800 0s89.54-60 200-60 200 26.86 200 60z" stroke="#000" fill="#ffd9d9"/><use xlink:href="#k" transform="matrix(1,0,0,1,800,-59.99999999999999) translate(94.67999999999999 63.15)"/><use xlink:href="#l" transform="matrix(1,0,0,1,800,-59.99999999999999) translate(126.67999999999998 63.15)"/><use xlink:href="#m" transform="matrix(1,0,0,1,800,-59.99999999999999) translate(218.53 63.15)"/><path d="M1200 220c0 33.14-89.54 60-200 60s-200-26.86-200-60 89.54-60 200-60 200 26.86 200 60z" stroke="#000" fill="#ffd9d9"/><use xlink:href="#n" transform="matrix(1,0,0,1,800,160) translate(75.705 63.15)"/><use xlink:href="#l" transform="matrix(1,0,0,1,800,160) translate(145.655 63.15)"/><use xlink:href="#m" transform="matrix(1,0,0,1,800,160) translate(237.505 63.15)"/><path d="M1200 440c0 33.14-89.54 60-200 60s-200-26.86-200-60 89.54-60 200-60 200 26.86 200 60z" stroke="#000" fill="#ffd9d9"/><use xlink:href="#o" transform="matrix(1,0,0,1,800,380) translate(88.73 63.15)"/><use xlink:href="#p" transform="matrix(1,0,0,1,800,380) translate(139.63 63.15)"/><use xlink:href="#q" transform="matrix(1,0,0,1,800,380) translate(231.48000000000002 63.15)"/><path d="M1000.5 158.6h-1v-4.66h1zm0-9.3h-1V140h1zm0-13.95h-1V129h1zm0-27.88h-1v-9.3h1zm0-13.94h-1v-9.3h1zm0-13.94h-1v-9.3h1zm0-13.95h-1V61h1z" stroke="#3a414a" stroke-width=".05" fill="#3a414a"/><path d="M1000 60.5h.5v.5h-1v-.5z" fill="#3a414a"/><path d="M1000 60.48h.52v.56h-1.04v-.58zm-.48.5h.96v-.46h-.96zM1010.6 141.56L1000 159.5l-10.6-17.94.85-.5 9.75 16.48 9.75-16.5z" stroke="#3a414a" stroke-width=".05" fill="#3a414a"/><use xlink:href="#r" transform="matrix(1,0,0,1,948.2222222222222,107.66929244153751) translate(0 14.222222222222223)"/><path d="M730.5 433.98l.07.88.2.84.33.8.45.73.56.66.67.55.73.45.8.33.84.2.88.07h5.2v1h-5.24l-1-.08-1-.24-.93-.4-.87-.52-.78-.66-.66-.78-.53-.87-.38-.94-.24-.98-.08-1v-4.94h1zm26.36 6.52h-10.43v-1h10.43zm15.65 0H762.1v-1h10.43zm15.66 0h-10.43v-1h10.43zm10.43 0h-5.23v-1h5.22zm-68.1-16.34h-1v-9.84h1zm0-14.76h-1v-9.84h1zm0-14.76h-1v-9.83h1zm0-14.75h-1v-9.85h1zm0-14.77h-1v-9.84h1zm0-14.76h-1v-9.84h1zm0-14.76h-1v-9.83h1zm0-14.75h-1V311h1zm0-14.76h-1v-9.85h1zm0-14.77h-1v-9.84h1zm0-14.75h-1v-9.84h1zm0-14.76h-1v-9.84h1zm0-14.76h-1v-9.84h1zm0-14.76h-1v-1.63h1zm0-22.97h-1v-1.63h1zm0-6.55h-1v-9.84h1zm0-14.76h-1v-9.84h1zm0-14.76h-1v-9.83h1zm0-14.75h-1v-9.83h1zm0-14.75h-1v-9.84h1zm0-14.76h-1v-9.85h1zm0-14.77h-1v-9.84h1zm0-14.76h-1v-9.84h1zm0-14.76h-1v-9.83h1zm0-14.75h-1V60.1l1 .02zm0-14.76h-1v-9.84h1zm0-14.76h-1V30.6h1zm0-14.76h-1v-9.84h1zM741.25.5h-5.23l-.88.07-.84.2-.8.33-.73.45-.66.56-.55.67-.45.73-.33.8-.2.84-.07.88v4.9h-1V5.98l.08-1 .24-1 .4-.93.52-.87.66-.78.78-.66.87-.53.94-.38.98-.24 1-.08h5.27zM799 .5h-5.25v-1H799zm-10.5 0H778v-1h10.5zm-15.75 0h-10.5v-1h10.5zM757 .5h-10.5v-1H757z" stroke="#3a414a" stroke-width=".05" fill="#3a414a"/><path d="M799.5 0v.5h-.5v-1h.5z" fill="#3a414a"/><path d="M799.52 0v.53h-.56V-.54h.58zm-.5-.47v.94h.46v-.94zM799.5 440l-17.94 10.6-.5-.85 16.48-9.75-16.5-9.75.52-.86z" stroke="#3a414a" stroke-width=".05" fill="#3a414a"/><use xlink:href="#s" transform="matrix(1,0,0,1,680.6913580246913,209.33333333333277) translate(0 14.222222222222223)"/><path d="M1200 680c0 33.14-89.54 60-200 60s-200-26.86-200-60 89.54-60 200-60 200 26.86 200 60z" stroke="#000" fill="#ffd9d9"/><use xlink:href="#t" transform="matrix(1,0,0,1,800.0000000000001,620) translate(101.52999999999999 63.15)"/><use xlink:href="#u" transform="matrix(1,0,0,1,800.0000000000001,620) translate(170.38 63.15)"/><use xlink:href="#v" transform="matrix(1,0,0,1,800.0000000000001,620) translate(248.53 63.15)"/><use xlink:href="#w" transform="matrix(1,0,0,1,800.0000000000001,620) translate(265.53 63.15)"/><path d="M1200 900c0 33.14-89.54 60-200 60s-200-26.86-200-60 89.54-60 200-60 200 26.86 200 60z" stroke="#000" fill="#ffd9d9"/><use xlink:href="#t" transform="matrix(1,0,0,1,800,840) translate(98.40499999999999 63.15)"/><use xlink:href="#x" transform="matrix(1,0,0,1,800,840) translate(167.255 63.15)"/><use xlink:href="#y" transform="matrix(1,0,0,1,800,840) translate(215.10500000000002 63.15)"/><use xlink:href="#w" transform="matrix(1,0,0,1,800,840) translate(268.65500000000003 63.15)"/><path d="M1200 1120c0 33.14-89.54 60-200 60s-200-26.86-200-60 89.54-60 200-60 200 26.86 200 60z" fill="#ffd9d9"/><path d="M1197.58 1129.34l-.25.5-.56.96-.63 1-.73 1.04-.82 1.1-.95 1.15-1.1 1.2-.8.8m-3.58 3.3l-.08.06-2 1.6-2.36 1.7-2.8 1.85-.7.44m-4.2 2.45l-2.42 1.32-4.82 2.4-1.46.64m-4.45 1.98l-7.1 2.8-2 .7m-4.6 1.6l-2.18.76-7.13 2.14m-4.68 1.36l-9.44 2.42m-4.74 1.12l-9.54 2.02m-4.77 1l-9.6 1.6m-4.8.82l-4.1.7-5.56.7m-4.83.6l-9.67 1.2m-4.84.5l-9.72.8m-4.86.42l-7.46.62-2.25.1m-4.87.2l-9.74.4m-4.87.2l-5.4.23-4.35.05m-4.88.05l-4.87.05-4.87-.1m-4.88-.1l-9.74-.2m-4.86-.1l-3.57-.08-6.17-.4m-4.86-.3l-9.73-.6m-4.85-.3l-.48-.03-9.22-.98m-4.85-.5l-9.46-1-.23-.03m-4.8-.72l-9.65-1.42m-4.82-.7l-1-.16-8.6-1.63m-4.78-.9l-4.04-.78-5.47-1.3m-4.75-1.1l-4.26-1-5.17-1.44m-4.7-1.3l-2.02-.57-7.27-2.37m-4.6-1.6l-5.77-2.13-3.33-1.4m-4.47-1.93l-4-1.88-4.38-2.3-.34-.2m-4.2-2.47l-2.15-1.37-2.57-1.78-2.17-1.64-1.04-.86m-3.6-3.28l-.18-.16-1.18-1.25-1.02-1.2-.9-1.12-.77-1.07-.67-1-.6-1-.5-.93-.02-.02m-1.76-4.53l-.14-.55-.17-.8-.13-.77-.1-.77-.06-.78-.04-.77v-.38l.02-.77.05-.77.08-.77.1-.8.16-.78.2-.8.04-.14m1.78-4.52l.25-.5.56-.96.63-1 .73-1.04.82-1.1.96-1.15 1.1-1.2.77-.8m3.6-3.3l.08-.06 2-1.6 2.36-1.7 2.8-1.85.68-.44m4.2-2.45l2.44-1.32 4.82-2.4 1.46-.64m4.45-1.98l7.1-2.8 2-.7m4.6-1.6l2.18-.76 7.13-2.14m4.68-1.36l9.44-2.42m4.74-1.12l9.54-2.02m4.77-1l9.6-1.6m4.82-.82l4.07-.7 5.57-.7m4.83-.6l9.67-1.2m4.85-.5l9.7-.8m4.87-.42l7.46-.62 2.25-.1m4.87-.2l9.74-.4m4.87-.2l5.4-.23 4.35-.05m4.88-.05l4.87-.05 4.87.1m4.88.1l9.74.2m4.86.1l3.57.08 6.17.4m4.86.3l9.73.6m4.85.3l.48.03 9.22.98m4.85.5l9.46 1 .23.03m4.8.72l9.65 1.42m4.82.7l1 .16 8.6 1.63m4.77.9l4.05.78 5.47 1.3m4.75 1.1l4.26 1 5.17 1.44m4.7 1.3l2.03.57 7.26 2.37m4.6 1.6l5.77 2.13 3.33 1.4m4.47 1.93l4 1.88 4.38 2.3.34.2m4.2 2.47l2.15 1.37 2.57 1.78 2.17 1.64 1.05.86m3.6 3.28l.17.16 1.18 1.25 1.02 1.2.9 1.12.77 1.07.66 1 .6 1 .52.93v.02m1.78 4.53l.14.55.17.8.13.77.1.77.06.78.04.77v.38l-.02.77-.05.77-.08.77-.1.8-.16.78-.2.8-.04.14" stroke="#000" fill="none"/><use xlink:href="#t" transform="matrix(1,0,0,1,800.0000000000001,1060) translate(93.22999999999998 63.15)"/><use xlink:href="#z" transform="matrix(1,0,0,1,800.0000000000001,1060) translate(162.07999999999998 63.15)"/><use xlink:href="#A" transform="matrix(1,0,0,1,800.0000000000001,1060) translate(215.93 63.15)"/><path d="M799.6.7L361.2 598.82l-.8-.6L798.8.13z" stroke="#3a414a" stroke-width=".05" fill="#3a414a"/><path d="M361.2 598.8l-2.07 2.85-.8-.6 2.07-2.83z" stroke="#3a414a" stroke-width=".05" fill="#3a414a"/><path d="M799.52-.8l-.02.8v.65l-.7-.53.72-1z" fill="#3a414a"/><path d="M799.54-.8V.7l-.78-.58.8-1.08zm-.7.9l.65.5-.02-.2V-.8zM799.45 220.7L361.2 599l-.65-.75L798.8 219.95z" stroke="#3a414a" stroke-width=".05" fill="#3a414a"/><path d="M361.2 598.98l-2.64 2.3-.66-.77 2.66-2.28z" stroke="#3a414a" stroke-width=".05" fill="#3a414a"/><path d="M799.5 220v.65l-.72-.7.73-.62z" fill="#3a414a"/><path d="M799.52 220v.4l.02.3-.8-.74.8-.7zm-.7-.04l.67.63-.02-.2v-1.02z" stroke="#3a414a" stroke-width=".05" fill="#3a414a"/><path d="M360.97 598.76l438.06-158.6M360.98 598.76l-3.3 1.2" stroke="#3a414a" fill="none"/><path d="M799.5 440v.53l-.3.12-.35-.95.66-.24z" stroke="#3a414a" stroke-width=".05" fill="#3a414a"/><path d="M361 599.02l438 80.9M361 599.02l-3.45-.63" stroke="#3a414a" fill="none"/><path d="M799.5 679.5v1l-.6-.1.2-1z" stroke="#3a414a" stroke-width=".05" fill="#3a414a"/><path d="M360.9 599.2l438.2 300.52M360.92 599.22l-2.9-2" stroke="#3a414a" fill="none"/><path d="M799.5 899.4v1.22l-.7-.5.56-.82z" stroke="#3a414a" stroke-width=".05" fill="#3a414a"/><path d="M360.82 599.3l438.36 520.32M360.83 599.32l-2.26-2.68" stroke="#3a414a" fill="none"/><path d="M799.5 1120v.4l.02.4-.73-.87.7-.6z" stroke="#3a414a" stroke-width=".05" fill="#3a414a"/><path d="M1879.75 119.75c0 10.9-8.84 19.75-19.75 19.75-10.9 0-19.75-8.84-19.75-19.75 0-10.9 8.84-19.75 19.75-19.75 10.9 0 19.75 8.84 19.75 19.75z" stroke="#333" fill="#fff"/><path d="M1860 139.5v49.3a20.7 20.7 0 0 0 3.2 11.07L1900 258m-40-63.2l-40 63.2m0-98.75h80" stroke="#333" fill="none"/><path d="M1820 106a6 6 0 0 1 6-6h68a6 6 0 0 1 6 6v168a6 6 0 0 1-6 6h-68a6 6 0 0 1-6-6z" fill="none"/><use xlink:href="#B" transform="matrix(1,0,0,1,1740,258) translate(25.12345679012344 17.77777777777778)"/><use xlink:href="#C" transform="matrix(1,0,0,1,1740,258) translate(140.92592592592592 17.77777777777778)"/><path d="M1879.75 699.75c0 10.9-8.84 19.75-19.75 19.75-10.9 0-19.75-8.84-19.75-19.75 0-10.9 8.84-19.75 19.75-19.75 10.9 0 19.75 8.84 19.75 19.75z" stroke="#333" fill="#fff"/><path d="M1860 719.5v49.3a20.7 20.7 0 0 0 3.2 11.07L1900 838m-40-63.2l-40 63.2m0-98.75h80" stroke="#333" fill="none"/><path d="M1820 686a6 6 0 0 1 6-6h68a6 6 0 0 1 6 6v168a6 6 0 0 1-6 6h-68a6 6 0 0 1-6-6z" fill="none"/><use xlink:href="#D" transform="matrix(1,0,0,1,1740,838) translate(72.5 17.77777777777778)"/><path d="M1859.17 758.55L1200.83.38M1859.16 758.54l2.3 2.66" stroke="#3a414a" fill="none"/><path d="M1201.2.06l-.7.63V-.4l-.02-.4z" stroke="#3a414a" stroke-width=".05" fill="#3a414a"/><path d="M1859.1 758.6l-658.2-538.28M1859.1 758.6l2.72 2.23" stroke="#3a414a" fill="none"/><path d="M1201.2 219.94l-.62.77-.1-.06.02-.64v-.4l-.02-.26z" stroke="#3a414a" stroke-width=".05" fill="#3a414a"/><path d="M1859.04 179.12l-658.08 260.7M1859.02 179.12l3.27-1.3" stroke="#3a414a" fill="none"/><path d="M1201.16 440.28l-.67.26v-1.07l.3-.12z" stroke="#3a414a" stroke-width=".05" fill="#3a414a"/><path d="M1200 1560c0 33.14-89.54 60-200 60s-200-26.86-200-60 89.54-60 200-60 200 26.86 200 60z" stroke="#000" fill="#ffd9d9"/><use xlink:href="#E" transform="matrix(1,0,0,1,800,1500) translate(129.30499999999998 63.15)"/><use xlink:href="#F" transform="matrix(1,0,0,1,800,1500) translate(172.855 63.15)"/><use xlink:href="#G" transform="matrix(1,0,0,1,800,1500) translate(210.805 63.15)"/><path d="M1859.57 759.63l-658.37 800.3-.77-.63L1858.8 759z" stroke="#3a414a" stroke-width=".05" fill="#3a414a"/><path d="M1861.8 756.93l-2.24 2.72-.77-.64 2.22-2.7z" stroke="#3a414a" stroke-width=".05" fill="#3a414a"/><path d="M1201.2 1559.92l-.72.9.02-.82v-.4l-.02-.28z" fill="#3a414a"/><path d="M1201.25 1559.92l-.8.96.02-.88v-.73zm-.73-.32V1560.74l.66-.82-.67-.54z" stroke="#3a414a" stroke-width=".05" fill="#3a414a"/><path d="M360.7 599.4l438.6 960.15M360.7 599.4l-1.45-3.2" stroke="#3a414a" fill="none"/><path d="M799.5 1560v.4l.04.8v.1l-.7-1.56.67-.3z" stroke="#3a414a" stroke-width=".05" fill="#3a414a"/><path d="M1200 1340c0 33.14-89.54 60-200 60s-200-26.86-200-60 89.54-60 200-60 200 26.86 200 60z" stroke="#000" fill="#ffd9d9"/><use xlink:href="#H" transform="matrix(1,0,0,1,800,1280) translate(127.105 63.15)"/><use xlink:href="#F" transform="matrix(1,0,0,1,800,1280) translate(175.055 63.15)"/><use xlink:href="#G" transform="matrix(1,0,0,1,800,1280) translate(213.005 63.15)"/><path d="M1859.46 759.64l-658.25 580.4-.66-.75 658.25-580.4z" stroke="#3a414a" stroke-width=".05" fill="#3a414a"/><path d="M1862.08 757.32l-2.63 2.33-.66-.75 2.62-2.33z" stroke="#3a414a" stroke-width=".05" fill="#3a414a"/><path d="M1201.2 1340.04l-.7.64v-1.08l-.02-.25z" fill="#3a414a"/><path d="M1201.25 1340.04l-.8.7.02-.74v-.7zm-.73-.44v1.02l.66-.58-.67-.63zM1000.5 1278.6h-1v-5.52h1zm0-11.04h-1v-11.03h1zm10.58-27.56h-5.06l-.88.07-.84.2-.8.33-.73.45-.66.56-.55.67-.45.73-.33.8-.2.84-.07.88v5.5h-1v-5.54l.08-1 .24-1 .4-.93.52-.87.66-.78.78-.66.87-.53.94-.38.98-.24 1-.08h5.1zm229.92-6.48l-.08 1-.24 1-.4.93-.52.87-.66.78-.78.66-.87.53-.94.38-.98.24-1 .08h-5.1v-1h5.06l.88-.07.84-.2.8-.33.73-.45.66-.56.55-.67.45-.73.33-.8.2-.84.07-.88v-5.1h1zm-16.66 6.48h-10.15v-1h10.14zm-15.23 0h-10.14v-1h10.15zm-15.22 0h-10.16v-1h10.16zm-15.24 0h-10.15v-1h10.14zm-15.23 0h-10.14v-1h10.15zm-15.22 0h-10.16v-1h10.16zm-15.24 0h-10.15v-1h10.14zm-15.23 0h-10.14v-1h10.15zm-15.22 0h-10.16v-1h10.16zm-15.24 0h-10.15v-1h10.14zm-15.23 0h-10.14v-1H1072zm-15.22 0h-10.16v-1h10.16zm-15.24 0h-10.15v-1h10.14zm-15.23 0h-10.14v-1h10.15zm214.7-16.74h-1v-10.24h1zm0-15.36h-1v-7.23h1zm0-30.7h-1v-10.25h1zm0-15.37h-1v-10.23h1zm0-15.35h-1v-10.24h1zm-5.48-26.9l1 .24.93.4.87.52.78.66.66.78.53.87.38.94.24.98.08 1v5.14h-1v-5.1l-.07-.88-.2-.84-.33-.8-.45-.73-.56-.66-.67-.55-.73-.45-.8-.33-.84-.2-.88-.07h-5.56v-1h5.6zm-28.94.92H1201v-1h5.58zm16.75 0h-11.16v-1h11.16z" stroke="#3a414a" stroke-width=".05" fill="#3a414a"/><path d="M1201 1120.5h-.5v-1h.5z" fill="#3a414a"/><path d="M1201.04 1120.53h-.58v-1.06h.58zm-.52-1v.94h.47v-.94zM1010.6 1261.56l-10.6 17.94-10.6-17.94.85-.5 9.75 16.48 9.75-16.5z" stroke="#3a414a" stroke-width=".05" fill="#3a414a"/><path d="M1000.5 1278.6h-1v-5.52h1zm0-11.04h-1v-11.03h1zm10.58-27.56h-5.06l-.88.07-.84.2-.8.33-.73.45-.66.56-.55.67-.45.73-.33.8-.2.84-.07.88v5.5h-1v-5.54l.08-1 .24-1 .4-.93.52-.87.66-.78.78-.66.87-.53.94-.38.98-.24 1-.08h5.1zm229.92-6.48l-.08 1-.24 1-.4.93-.52.87-.66.78-.78.66-.87.53-.94.38-.98.24-1 .08h-5.1v-1h5.06l.88-.07.84-.2.8-.33.73-.45.66-.56.55-.67.45-.73.33-.8.2-.84.07-.88v-4.94h1zm-16.66 6.48h-10.15v-1h10.14zm-15.23 0h-10.14v-1h10.15zm-15.22 0h-10.16v-1h10.16zm-15.24 0h-10.15v-1h10.14zm-15.23 0h-10.14v-1h10.15zm-15.22 0h-10.16v-1h10.16zm-15.24 0h-10.15v-1h10.14zm-15.23 0h-10.14v-1h10.15zm-15.22 0h-10.16v-1h10.16zm-15.24 0h-10.15v-1h10.14zm-15.23 0h-10.14v-1H1072zm-15.22 0h-10.16v-1h10.16zm-15.24 0h-10.15v-1h10.14zm-15.23 0h-10.14v-1h10.15zm214.7-16.42h-1v-9.93h1zm0-14.9h-1v-8h1zm0-29.76h-1V1169h1zm0-14.9h-1v-9.9h1zm0-14.88h-1v-9.92h1zm0-14.88h-1v-9.93h1zm0-14.9h-1v-9.9h1zm0-14.88h-1v-9.92h1zm0-14.88h-1v-9.93h1zm0-14.9h-1v-9.9h1zm0-14.87h-1v-9.93h1zm0-14.9h-1v-9.9h1zm0-14.88h-1v-7.38h1zm0-29.77h-1v-9.92h1zm0-14.9h-1v-9.9h1zm0-14.87h-1v-9.92h1zm0-14.88h-1v-9.92h1zm0-14.88h-1v-9.93h1zm0-14.9h-1v-9.92h1zm-5.48-26.26l1 .24.93.4.87.52.78.66.66.78.53.87.38.94.24.98.08 1v4.98h-1v-4.94l-.07-.88-.2-.84-.33-.8-.45-.73-.56-.66-.67-.55-.73-.45-.8-.33-.84-.2-.88-.07h-5.56v-1h5.6zm-28.94.92H1201v-1h5.58zm16.75 0h-11.16v-1h11.16z" stroke="#3a414a" stroke-width=".05" fill="#3a414a"/><path d="M1201 900.5h-.5v-1h.5z" fill="#3a414a"/><path d="M1201.04 900.52h-.58v-1.05h.58zm-.52-1v.96h.47v-.96zM1010.6 1261.56l-10.6 17.94-10.6-17.94.85-.5 9.75 16.48 9.75-16.5z" stroke="#3a414a" stroke-width=".05" fill="#3a414a"/><g><use xlink:href="#r" transform="matrix(1,0,0,1,1188.7222496223203,1001.3333333333334) translate(0 14.222222222222223)"/></g><g><use xlink:href="#r" transform="matrix(1,0,0,1,1188.7222496223203,1179.3333334863764) translate(0 14.222222222222223)"/></g><path d="M1200 1780c0 33.14-89.54 60-200 60s-200-26.86-200-60 89.54-60 200-60 200 26.86 200 60z" stroke="#000" fill="#ffd9d9"/><g><use xlink:href="#I" transform="matrix(1,0,0,1,800.0000000000001,1720) translate(105.60499999999999 63.15)"/><use xlink:href="#J" transform="matrix(1,0,0,1,800.0000000000001,1720) translate(155.55499999999998 63.15)"/><use xlink:href="#F" transform="matrix(1,0,0,1,800.0000000000001,1720) translate(196.555 63.15)"/><use xlink:href="#G" transform="matrix(1,0,0,1,800.0000000000001,1720) translate(234.505 63.15)"/></g><path d="M1200 2000c0 33.14-89.54 60-200 60s-200-26.86-200-60 89.54-60 200-60 200 26.86 200 60z" stroke="#000" fill="#ffd9d9"/><g><use xlink:href="#I" transform="matrix(1,0,0,1,800,1940) translate(30.479999999999997 63.15)"/><use xlink:href="#F" transform="matrix(1,0,0,1,800,1940) translate(80.43 63.15)"/><use xlink:href="#K" transform="matrix(1,0,0,1,800,1940) translate(118.38 63.15)"/><use xlink:href="#L" transform="matrix(1,0,0,1,800,1940) translate(176.28 63.15)"/><use xlink:href="#M" transform="matrix(1,0,0,1,800,1940) translate(195.23 63.15)"/><use xlink:href="#N" transform="matrix(1,0,0,1,800,1940) translate(300.67999999999995 63.15)"/></g><path d="M1200 2220c0 33.14-89.54 60-200 60s-200-26.86-200-60 89.54-60 200-60 200 26.86 200 60z" stroke="#000" fill="#ffd9d9"/><g><use xlink:href="#O" transform="matrix(1,0,0,1,800,2160) translate(102.58 63.15)"/><use xlink:href="#P" transform="matrix(1,0,0,1,800,2160) translate(171.53 63.15)"/><use xlink:href="#Q" transform="matrix(1,0,0,1,800,2160) translate(210.53 63.15)"/><use xlink:href="#R" transform="matrix(1,0,0,1,800,2160) translate(244.53 63.15)"/></g><path d="M1000.5 1938.6h-1v-4.66h1zm0-9.3h-1v-9.3h1zm0-13.94h-1v-9.3h1zm0-13.95h-1v-8.73h1zm0-30.07h-1v-7.1h1zm0-11.74h-1v-9.3h1zm0-13.95h-1V1841h1z" stroke="#3a414a" stroke-width=".05" fill="#3a414a"/><path d="M1000 1840.5h.5v.5h-1v-.5z" fill="#3a414a"/><path d="M1000 1840.47h.52v.57h-1.04v-.58zm-.48.52h.96v-.48h-.96zM1010.6 1921.56l-10.6 17.94-10.6-17.94.85-.5 9.75 16.48 9.75-16.5z" stroke="#3a414a" stroke-width=".05" fill="#3a414a"/><g><use xlink:href="#s" transform="matrix(1,0,0,1,950.6913580246915,1871.3333333333333) translate(0 14.222222222222223)"/></g><path d="M1000.5 2158.6h-1v-4.66h1zm0-9.3h-1v-9.3h1zm0-13.95h-1v-9.3h1zm0-13.94h-1v-9.28h1zm0-13.93h-1v-.8h1zm0-22.14h-1v-1.1h1zm0-5.74h-1v-9.3h1zm0-13.95h-1V2061h1z" stroke="#3a414a" stroke-width=".05" fill="#3a414a"/><path d="M1000 2060.5h.5v.5h-1v-.5z" fill="#3a414a"/><path d="M1000 2060.47h.52v.57h-1.04v-.58zm-.48.52h.96v-.48h-.96zM1010.6 2141.56l-10.6 17.94-10.6-17.94.85-.5 9.75 16.48 9.75-16.5z" stroke="#3a414a" stroke-width=".05" fill="#3a414a"/><g><use xlink:href="#s" transform="matrix(1,0,0,1,950.6913580246913,2085.3333333333335) translate(0 14.222222222222223)"/></g><path d="M1000.5 1718.6h-1v-4.66h1zm0-9.3h-1v-9.3h1zm0-13.94h-1v-9.3h1zm0-13.95h-1v-6.73h1zm0-28.07h-1v-9.1h1zm0-13.74h-1v-9.3h1zm0-13.95h-1V1621h1z" stroke="#3a414a" stroke-width=".05" fill="#3a414a"/><path d="M1000 1620.5h.5v.5h-1v-.5z" fill="#3a414a"/><path d="M1000 1620.47h.52v.57h-1.04v-.58zm-.48.52h.96v-.48h-.96zM1010.6 1701.56l-10.6 17.94-10.6-17.94.85-.5 9.75 16.48 9.75-16.5z" stroke="#3a414a" stroke-width=".05" fill="#3a414a"/><g><use xlink:href="#r" transform="matrix(1,0,0,1,948.2222222222222,1653.3333333333333) translate(0 14.222222222222223)"/></g><defs><path fill="#3a414a" d="M24 0v-248h195v40H76v63h132v40H76v65h150V0H24" id="S"/><path fill="#3a414a" d="M123 10C108 53 80 86 19 72V37c35 8 53-11 59-39L3-190h52l48 148c12-52 28-100 44-148h51" id="T"/><path fill="#3a414a" d="M185-48c-13 30-37 53-82 52C43 2 14-33 14-96s30-98 90-98c62 0 83 45 84 108H66c0 31 8 55 39 56 18 0 30-7 34-22zm-45-69c5-46-57-63-70-21-2 6-4 13-4 21h74" id="U"/><g id="a"><use transform="matrix(0.06234567901234565,0,0,0.06234567901234565,0,0)" xlink:href="#S"/><use transform="matrix(0.06234567901234565,0,0,0.06234567901234565,14.962962962962957,0)" xlink:href="#T"/><use transform="matrix(0.06234567901234565,0,0,0.06234567901234565,27.432098765432087,0)" xlink:href="#U"/></g><path fill="#3a414a" d="M186 0v-106H76V0H24v-248h52v99h110v-99h50V0h-50" id="V"/><path fill="#3a414a" d="M133-34C117-15 103 5 69 4 32 3 11-16 11-54c-1-60 55-63 116-61 1-26-3-47-28-47-18 1-26 9-28 27l-52-2c7-38 36-58 82-57s74 22 75 68l1 82c-1 14 12 18 25 15v27c-30 8-71 5-69-32zm-48 3c29 0 43-24 42-57-32 0-66-3-65 30 0 17 8 27 23 27" id="W"/><path fill="#3a414a" d="M25 0v-261h50V0H25" id="X"/><path fill="#3a414a" d="M115-3C79 11 28 4 28-45v-112H4v-33h27l15-45h31v45h36v33H77v99c-1 23 16 31 38 25v30" id="Y"/><path fill="#3a414a" d="M114-157C55-157 80-60 75 0H25v-261h50l-1 109c12-26 28-41 61-42 86-1 58 113 63 194h-50c-7-57 23-157-34-157" id="Z"/><g id="b"><use transform="matrix(0.06234567901234565,0,0,0.06234567901234565,0,0)" xlink:href="#V"/><use transform="matrix(0.06234567901234565,0,0,0.06234567901234565,16.147530864197524,0)" xlink:href="#U"/><use transform="matrix(0.06234567901234565,0,0,0.06234567901234565,28.616666666666653,0)" xlink:href="#W"/><use transform="matrix(0.06234567901234565,0,0,0.06234567901234565,41.085802469135785,0)" xlink:href="#X"/><use transform="matrix(0.06234567901234565,0,0,0.06234567901234565,47.32037037037035,0)" xlink:href="#Y"/><use transform="matrix(0.06234567901234565,0,0,0.06234567901234565,54.739506172839484,0)" xlink:href="#Z"/></g><path fill="#3a414a" d="M230 0l2-204L168 0h-37L68-204 70 0H24v-248h70l56 185 57-185h69V0h-46" id="aa"/><path fill="#3a414a" d="M135-194c87-1 58 113 63 194h-50c-7-57 23-157-34-157-59 0-34 97-39 157H25l-1-190h47c2 12-1 28 3 38 12-26 28-41 61-42" id="ab"/><path fill="#3a414a" d="M195-6C206 82 75 100 31 46c-4-6-6-13-8-21l49-6c3 16 16 24 34 25 40 0 42-37 40-79-11 22-30 35-61 35-53 0-70-43-70-97 0-56 18-96 73-97 30 0 46 14 59 34l2-30h47zm-90-29c32 0 41-27 41-63 0-35-9-62-40-62-32 0-39 29-40 63 0 36 9 62 39 62" id="ac"/><path fill="#3a414a" d="M220-157c-53 9-28 100-34 157h-49v-107c1-27-5-49-29-50C55-147 81-57 75 0H25l-1-190h47c2 12-1 28 3 38 10-53 101-56 108 0 13-22 24-43 59-42 82 1 51 116 57 194h-49v-107c-1-25-5-48-29-50" id="ad"/><g id="c"><use transform="matrix(0.06234567901234565,0,0,0.06234567901234565,0,0)" xlink:href="#aa"/><use transform="matrix(0.06234567901234565,0,0,0.06234567901234565,18.64135802469135,0)" xlink:href="#W"/><use transform="matrix(0.06234567901234565,0,0,0.06234567901234565,31.110493827160482,0)" xlink:href="#ab"/><use transform="matrix(0.06234567901234565,0,0,0.06234567901234565,44.76419753086418,0)" xlink:href="#W"/><use transform="matrix(0.06234567901234565,0,0,0.06234567901234565,57.23333333333331,0)" xlink:href="#ac"/><use transform="matrix(0.06234567901234565,0,0,0.06234567901234565,70.887037037037,0)" xlink:href="#U"/><use transform="matrix(0.06234567901234565,0,0,0.06234567901234565,83.35617283950613,0)" xlink:href="#ad"/><use transform="matrix(0.06234567901234565,0,0,0.06234567901234565,103.30679012345674,0)" xlink:href="#U"/><use transform="matrix(0.06234567901234565,0,0,0.06234567901234565,115.77592592592586,0)" xlink:href="#ab"/><use transform="matrix(0.06234567901234565,0,0,0.06234567901234565,129.42962962962957,0)" xlink:href="#Y"/></g><path fill="#3a414a" d="M110-194c64 0 96 36 96 99 0 64-35 99-97 99-61 0-95-36-95-99 0-62 34-99 96-99zm-1 164c35 0 45-28 45-65 0-40-10-65-43-65-34 0-45 26-45 65 0 36 10 65 43 65" id="ae"/><path fill="#3a414a" d="M135-194c52 0 70 43 70 98 0 56-19 99-73 100-30 1-46-15-58-35L72 0H24l1-261h50v104c11-23 29-37 60-37zM114-30c31 0 40-27 40-66 0-37-7-63-39-63s-41 28-41 65c0 36 8 64 40 64" id="af"/><path fill="#3a414a" d="M25-224v-37h50v37H25zM25 0v-190h50V0H25" id="ag"/><g id="d"><use transform="matrix(0.06234567901234565,0,0,0.06234567901234565,0,0)" xlink:href="#aa"/><use transform="matrix(0.06234567901234565,0,0,0.06234567901234565,18.64135802469135,0)" xlink:href="#ae"/><use transform="matrix(0.06234567901234565,0,0,0.06234567901234565,32.29506172839505,0)" xlink:href="#af"/><use transform="matrix(0.06234567901234565,0,0,0.06234567901234565,45.948765432098746,0)" xlink:href="#ag"/><use transform="matrix(0.06234567901234565,0,0,0.06234567901234565,52.18333333333331,0)" xlink:href="#X"/><use transform="matrix(0.06234567901234565,0,0,0.06234567901234565,58.41790123456787,0)" xlink:href="#U"/></g><path fill="#3a414a" d="M199 0l-22-63H83L61 0H9l90-248h61L250 0h-51zm-33-102l-36-108c-10 38-24 72-36 108h72" id="ah"/><path fill="#3a414a" d="M135-194c53 0 70 44 70 98 0 56-19 98-73 100-31 1-45-17-59-34 3 33 2 69 2 105H25l-1-265h48c2 10 0 23 3 31 11-24 29-35 60-35zM114-30c33 0 39-31 40-66 0-38-9-64-40-64-56 0-55 130 0 130" id="ai"/><g id="e"><use transform="matrix(0.06234567901234565,0,0,0.06234567901234565,0,0)" xlink:href="#ah"/><use transform="matrix(0.06234567901234565,0,0,0.06234567901234565,16.147530864197524,0)" xlink:href="#ai"/><use transform="matrix(0.06234567901234565,0,0,0.06234567901234565,29.801234567901222,0)" xlink:href="#ai"/></g><path fill="#3a414a" d="M232-93c-1 65-40 97-104 97C67 4 28-28 28-90v-158h33c8 89-33 224 67 224 102 0 64-133 71-224h33v155" id="aj"/><path fill="#3a414a" d="M135-143c-3-34-86-38-87 0 15 53 115 12 119 90S17 21 10-45l28-5c4 36 97 45 98 0-10-56-113-15-118-90-4-57 82-63 122-42 12 7 21 19 24 35" id="ak"/><path fill="#3a414a" d="M100-194c63 0 86 42 84 106H49c0 40 14 67 53 68 26 1 43-12 49-29l28 8c-11 28-37 45-77 45C44 4 14-33 15-96c1-61 26-98 85-98zm52 81c6-60-76-77-97-28-3 7-6 17-6 28h103" id="al"/><path fill="#3a414a" d="M114-163C36-179 61-72 57 0H25l-1-190h30c1 12-1 29 2 39 6-27 23-49 58-41v29" id="am"/><g id="f"><use transform="matrix(0.06172839506172839,0,0,0.06172839506172839,0,0)" xlink:href="#aj"/><use transform="matrix(0.06172839506172839,0,0,0.06172839506172839,15.987654320987653,0)" xlink:href="#ak"/><use transform="matrix(0.06172839506172839,0,0,0.06172839506172839,27.098765432098766,0)" xlink:href="#al"/><use transform="matrix(0.06172839506172839,0,0,0.06172839506172839,39.44444444444444,0)" xlink:href="#am"/></g><path d="M195 0l-88-114-31 24V0H24v-248h52v113l112-113h60L142-143 257 0h-62" id="an"/><path d="M185-48c-13 30-37 53-82 52C43 2 14-33 14-96s30-98 90-98c62 0 83 45 84 108H66c0 31 8 55 39 56 18 0 30-7 34-22zm-45-69c5-46-57-63-70-21-2 6-4 13-4 21h74" id="ao"/><path d="M123 10C108 53 80 86 19 72V37c35 8 53-11 59-39L3-190h52l48 148c12-52 28-100 44-148h51" id="ap"/><g id="g"><use transform="matrix(0.0497196749098179,0,0,0.0497196749098179,0,0)" xlink:href="#an"/><use transform="matrix(0.0497196749098179,0,0,0.0497196749098179,12.877395801642836,0)" xlink:href="#ao"/><use transform="matrix(0.0497196749098179,0,0,0.0497196749098179,22.821330783606413,0)" xlink:href="#ap"/></g><path d="M232-93c-1 65-40 97-104 97C67 4 28-28 28-90v-158h33c8 89-33 224 67 224 102 0 64-133 71-224h33v155" id="aq"/><path d="M135-143c-3-34-86-38-87 0 15 53 115 12 119 90S17 21 10-45l28-5c4 36 97 45 98 0-10-56-113-15-118-90-4-57 82-63 122-42 12 7 21 19 24 35" id="ar"/><path d="M100-194c63 0 86 42 84 106H49c0 40 14 67 53 68 26 1 43-12 49-29l28 8c-11 28-37 45-77 45C44 4 14-33 15-96c1-61 26-98 85-98zm52 81c6-60-76-77-97-28-3 7-6 17-6 28h103" id="as"/><g id="h"><use transform="matrix(0.0497196749098179,0,0,0.0497196749098179,0,0)" xlink:href="#aq"/><use transform="matrix(0.0497196749098179,0,0,0.0497196749098179,12.877395801642836,0)" xlink:href="#ar"/><use transform="matrix(0.0497196749098179,0,0,0.0497196749098179,21.826937285410057,0)" xlink:href="#as"/></g><path d="M212-179c-10-28-35-45-73-45-59 0-87 40-87 99 0 60 29 101 89 101 43 0 62-24 78-52l27 14C228-24 195 4 139 4 59 4 22-46 18-125c-6-104 99-153 187-111 19 9 31 26 39 46" id="at"/><path d="M141-36C126-15 110 5 73 4 37 3 15-17 15-53c-1-64 63-63 125-63 3-35-9-54-41-54-24 1-41 7-42 31l-33-3c5-37 33-52 76-52 45 0 72 20 72 64v82c-1 20 7 32 28 27v20c-31 9-61-2-59-35zM48-53c0 20 12 33 32 33 41-3 63-29 60-74-43 2-92-5-92 41" id="au"/><g id="i"><use transform="matrix(0.0497196749098179,0,0,0.0497196749098179,0,0)" xlink:href="#at"/><use transform="matrix(0.0497196749098179,0,0,0.0497196749098179,12.877395801642836,0)" xlink:href="#au"/><use transform="matrix(0.0497196749098179,0,0,0.0497196749098179,22.821330783606413,0)" xlink:href="#ar"/><use transform="matrix(0.0497196749098179,0,0,0.0497196749098179,31.770872267373633,0)" xlink:href="#as"/></g><path d="M205 0l-28-72H64L36 0H1l101-248h38L239 0h-34zm-38-99l-47-123c-12 45-31 82-46 123h93" id="av"/><path d="M96-169c-40 0-48 33-48 73s9 75 48 75c24 0 41-14 43-38l32 2c-6 37-31 61-74 61-59 0-76-41-82-99-10-93 101-131 147-64 4 7 5 14 7 22l-32 3c-4-21-16-35-41-35" id="aw"/><path d="M59-47c-2 24 18 29 38 22v24C64 9 27 4 27-40v-127H5v-23h24l9-43h21v43h35v23H59v120" id="ax"/><path d="M100-194c62-1 85 37 85 99 1 63-27 99-86 99S16-35 15-95c0-66 28-99 85-99zM99-20c44 1 53-31 53-75 0-43-8-75-51-75s-53 32-53 75 10 74 51 75" id="ay"/><path d="M114-163C36-179 61-72 57 0H25l-1-190h30c1 12-1 29 2 39 6-27 23-49 58-41v29" id="az"/><g id="j"><use transform="matrix(0.0497196749098179,0,0,0.0497196749098179,0,0)" xlink:href="#av"/><use transform="matrix(0.0497196749098179,0,0,0.0497196749098179,11.932721978356296,0)" xlink:href="#aw"/><use transform="matrix(0.0497196749098179,0,0,0.0497196749098179,20.882263462123518,0)" xlink:href="#ax"/><use transform="matrix(0.0497196749098179,0,0,0.0497196749098179,25.854230953105308,0)" xlink:href="#ay"/><use transform="matrix(0.0497196749098179,0,0,0.0497196749098179,35.79816593506889,0)" xlink:href="#az"/></g><path d="M185-189c-5-48-123-54-124 2 14 75 158 14 163 119 3 78-121 87-175 55-17-10-28-26-33-46l33-7c5 56 141 63 141-1 0-78-155-14-162-118-5-82 145-84 179-34 5 7 8 16 11 25" id="aA"/><g id="k"><use transform="matrix(0.05,0,0,0.05,0,0)" xlink:href="#aA"/><use transform="matrix(0.05,0,0,0.05,12,0)" xlink:href="#as"/><use transform="matrix(0.05,0,0,0.05,22,0)" xlink:href="#ax"/></g><path d="M240 0l2-218c-23 76-54 145-80 218h-23L58-218 59 0H30v-248h44l77 211c21-75 51-140 76-211h43V0h-30" id="aB"/><path d="M85-194c31 0 48 13 60 33l-1-100h32l1 261h-30c-2-10 0-23-3-31C134-8 116 4 85 4 32 4 16-35 15-94c0-66 23-100 70-100zm9 24c-40 0-46 34-46 75 0 40 6 74 45 74 42 0 51-32 51-76 0-42-9-74-50-73" id="aC"/><path d="M24-231v-30h32v30H24zM24 0v-190h32V0H24" id="aD"/><path d="M117-194c89-4 53 116 60 194h-32v-121c0-31-8-49-39-48C34-167 62-67 57 0H25l-1-190h30c1 10-1 24 2 32 11-22 29-35 61-36" id="aE"/><g id="l"><use transform="matrix(0.05,0,0,0.05,0,0)" xlink:href="#aB"/><use transform="matrix(0.05,0,0,0.05,14.950000000000001,0)" xlink:href="#as"/><use transform="matrix(0.05,0,0,0.05,24.950000000000003,0)" xlink:href="#aC"/><use transform="matrix(0.05,0,0,0.05,34.95,0)" xlink:href="#aD"/><use transform="matrix(0.05,0,0,0.05,38.900000000000006,0)" xlink:href="#aw"/><use transform="matrix(0.05,0,0,0.05,47.900000000000006,0)" xlink:href="#au"/><use transform="matrix(0.05,0,0,0.05,57.900000000000006,0)" xlink:href="#ax"/><use transform="matrix(0.05,0,0,0.05,62.900000000000006,0)" xlink:href="#aD"/><use transform="matrix(0.05,0,0,0.05,66.85000000000001,0)" xlink:href="#ay"/><use transform="matrix(0.05,0,0,0.05,76.85000000000001,0)" xlink:href="#aE"/></g><path d="M233-177c-1 41-23 64-60 70L243 0h-38l-65-103H63V0H30v-248c88 3 205-21 203 71zM63-129c60-2 137 13 137-47 0-61-80-42-137-45v92" id="aF"/><path d="M210-169c-67 3-38 105-44 169h-31v-121c0-29-5-50-35-48C34-165 62-65 56 0H25l-1-190h30c1 10-1 24 2 32 10-44 99-50 107 0 11-21 27-35 58-36 85-2 47 119 55 194h-31v-121c0-29-5-49-35-48" id="aG"/><g id="m"><use transform="matrix(0.05,0,0,0.05,0,0)" xlink:href="#aF"/><use transform="matrix(0.05,0,0,0.05,12.950000000000001,0)" xlink:href="#as"/><use transform="matrix(0.05,0,0,0.05,22.950000000000003,0)" xlink:href="#aG"/><use transform="matrix(0.05,0,0,0.05,37.900000000000006,0)" xlink:href="#aD"/><use transform="matrix(0.05,0,0,0.05,41.85000000000001,0)" xlink:href="#aE"/><use transform="matrix(0.05,0,0,0.05,51.85,0)" xlink:href="#aC"/><use transform="matrix(0.05,0,0,0.05,61.85,0)" xlink:href="#as"/><use transform="matrix(0.05,0,0,0.05,71.85000000000001,0)" xlink:href="#az"/><use transform="matrix(0.05,0,0,0.05,77.80000000000001,0)" xlink:href="#ar"/></g><path d="M177-190C167-65 218 103 67 71c-23-6-38-20-44-43l32-5c15 47 100 32 89-28v-30C133-14 115 1 83 1 29 1 15-40 15-95c0-56 16-97 71-98 29-1 48 16 59 35 1-10 0-23 2-32h30zM94-22c36 0 50-32 50-73 0-42-14-75-50-75-39 0-46 34-46 75s6 73 46 73" id="aH"/><g id="n"><use transform="matrix(0.05,0,0,0.05,0,0)" xlink:href="#aB"/><use transform="matrix(0.05,0,0,0.05,14.950000000000001,0)" xlink:href="#au"/><use transform="matrix(0.05,0,0,0.05,24.950000000000003,0)" xlink:href="#aE"/><use transform="matrix(0.05,0,0,0.05,34.95,0)" xlink:href="#au"/><use transform="matrix(0.05,0,0,0.05,44.95,0)" xlink:href="#aH"/><use transform="matrix(0.05,0,0,0.05,54.95,0)" xlink:href="#as"/></g><path d="M190 0L58-211 59 0H30v-248h39L202-35l-2-213h31V0h-41" id="aI"/><path d="M101-234c-31-9-42 10-38 44h38v23H63V0H32v-167H5v-23h27c-7-52 17-82 69-68v24" id="aJ"/><path d="M179-190L93 31C79 59 56 82 12 73V49c39 6 53-20 64-50L1-190h34L92-34l54-156h33" id="aK"/><g id="o"><use transform="matrix(0.05,0,0,0.05,0,0)" xlink:href="#aI"/><use transform="matrix(0.05,0,0,0.05,12.950000000000001,0)" xlink:href="#ay"/><use transform="matrix(0.05,0,0,0.05,22.950000000000003,0)" xlink:href="#ax"/><use transform="matrix(0.05,0,0,0.05,27.950000000000003,0)" xlink:href="#aD"/><use transform="matrix(0.05,0,0,0.05,31.900000000000002,0)" xlink:href="#aJ"/><use transform="matrix(0.05,0,0,0.05,36.900000000000006,0)" xlink:href="#aK"/></g><g id="p"><use transform="matrix(0.05,0,0,0.05,0,0)" xlink:href="#aG"/><use transform="matrix(0.05,0,0,0.05,14.950000000000001,0)" xlink:href="#as"/><use transform="matrix(0.05,0,0,0.05,24.950000000000003,0)" xlink:href="#aC"/><use transform="matrix(0.05,0,0,0.05,34.95,0)" xlink:href="#aD"/><use transform="matrix(0.05,0,0,0.05,38.900000000000006,0)" xlink:href="#aw"/><use transform="matrix(0.05,0,0,0.05,47.900000000000006,0)" xlink:href="#au"/><use transform="matrix(0.05,0,0,0.05,57.900000000000006,0)" xlink:href="#ax"/><use transform="matrix(0.05,0,0,0.05,62.900000000000006,0)" xlink:href="#aD"/><use transform="matrix(0.05,0,0,0.05,66.85000000000001,0)" xlink:href="#ay"/><use transform="matrix(0.05,0,0,0.05,76.85000000000001,0)" xlink:href="#aE"/></g><g id="q"><use transform="matrix(0.05,0,0,0.05,0,0)" xlink:href="#az"/><use transform="matrix(0.05,0,0,0.05,5.95,0)" xlink:href="#as"/><use transform="matrix(0.05,0,0,0.05,15.949999999999998,0)" xlink:href="#aG"/><use transform="matrix(0.05,0,0,0.05,30.899999999999995,0)" xlink:href="#aD"/><use transform="matrix(0.05,0,0,0.05,34.85,0)" xlink:href="#aE"/><use transform="matrix(0.05,0,0,0.05,44.85,0)" xlink:href="#aC"/><use transform="matrix(0.05,0,0,0.05,54.85,0)" xlink:href="#as"/><use transform="matrix(0.05,0,0,0.05,64.85,0)" xlink:href="#az"/><use transform="matrix(0.05,0,0,0.05,70.8,0)" xlink:href="#ar"/></g><path fill="#333" d="M15-91v-56l181-69v40L49-119l147 57v40" id="aL"/><path fill="#333" d="M25-224v-37h50v37H25zM25 0v-190h50V0H25" id="aM"/><path fill="#333" d="M135-194c87-1 58 113 63 194h-50c-7-57 23-157-34-157-59 0-34 97-39 157H25l-1-190h47c2 12-1 28 3 38 12-26 28-41 61-42" id="aN"/><path fill="#333" d="M190-63c-7 42-38 67-86 67-59 0-84-38-90-98-12-110 154-137 174-36l-49 2c-2-19-15-32-35-32-30 0-35 28-38 64-6 74 65 87 74 30" id="aO"/><path fill="#333" d="M25 0v-261h50V0H25" id="aP"/><path fill="#333" d="M85 4C-2 5 27-109 22-190h50c7 57-23 150 33 157 60-5 35-97 40-157h50l1 190h-47c-2-12 1-28-3-38-12 25-28 42-61 42" id="aQ"/><path fill="#333" d="M88-194c31-1 46 15 58 34l-1-101h50l1 261h-48c-2-10 0-23-3-31C134-8 116 4 84 4 32 4 16-41 15-95c0-56 19-97 73-99zm17 164c33 0 40-30 41-66 1-37-9-64-41-64s-38 30-39 65c0 43 13 65 39 65" id="aR"/><path fill="#333" d="M185-48c-13 30-37 53-82 52C43 2 14-33 14-96s30-98 90-98c62 0 83 45 84 108H66c0 31 8 55 39 56 18 0 30-7 34-22zm-45-69c5-46-57-63-70-21-2 6-4 13-4 21h74" id="aS"/><path fill="#333" d="M15-22v-40l146-57-146-57v-40l181 69v56" id="aT"/><g id="r"><use transform="matrix(0.04938271604938272,0,0,0.04938271604938272,0,0)" xlink:href="#aL"/><use transform="matrix(0.04938271604938272,0,0,0.04938271604938272,10.370370370370372,0)" xlink:href="#aL"/><use transform="matrix(0.04938271604938272,0,0,0.04938271604938272,20.740740740740744,0)" xlink:href="#aM"/><use transform="matrix(0.04938271604938272,0,0,0.04938271604938272,25.679012345679016,0)" xlink:href="#aN"/><use transform="matrix(0.04938271604938272,0,0,0.04938271604938272,36.49382716049383,0)" xlink:href="#aO"/><use transform="matrix(0.04938271604938272,0,0,0.04938271604938272,46.370370370370374,0)" xlink:href="#aP"/><use transform="matrix(0.04938271604938272,0,0,0.04938271604938272,51.308641975308646,0)" xlink:href="#aQ"/><use transform="matrix(0.04938271604938272,0,0,0.04938271604938272,62.12345679012346,0)" xlink:href="#aR"/><use transform="matrix(0.04938271604938272,0,0,0.04938271604938272,72.93827160493828,0)" xlink:href="#aS"/><use transform="matrix(0.04938271604938272,0,0,0.04938271604938272,82.81481481481482,0)" xlink:href="#aT"/><use transform="matrix(0.04938271604938272,0,0,0.04938271604938272,93.18518518518519,0)" xlink:href="#aT"/></g><path fill="#333" d="M144 0l-44-69L55 0H2l70-98-66-92h53l41 62 40-62h54l-67 91 71 99h-54" id="aU"/><path fill="#333" d="M115-3C79 11 28 4 28-45v-112H4v-33h27l15-45h31v45h36v33H77v99c-1 23 16 31 38 25v30" id="aV"/><g id="s"><use transform="matrix(0.04938271604938272,0,0,0.04938271604938272,0,0)" xlink:href="#aL"/><use transform="matrix(0.04938271604938272,0,0,0.04938271604938272,10.370370370370372,0)" xlink:href="#aL"/><use transform="matrix(0.04938271604938272,0,0,0.04938271604938272,20.740740740740744,0)" xlink:href="#aS"/><use transform="matrix(0.04938271604938272,0,0,0.04938271604938272,30.617283950617285,0)" xlink:href="#aU"/><use transform="matrix(0.04938271604938272,0,0,0.04938271604938272,40.49382716049384,0)" xlink:href="#aV"/><use transform="matrix(0.04938271604938272,0,0,0.04938271604938272,46.37037037037038,0)" xlink:href="#aS"/><use transform="matrix(0.04938271604938272,0,0,0.04938271604938272,56.24691358024693,0)" xlink:href="#aN"/><use transform="matrix(0.04938271604938272,0,0,0.04938271604938272,67.06172839506173,0)" xlink:href="#aR"/><use transform="matrix(0.04938271604938272,0,0,0.04938271604938272,77.87654320987654,0)" xlink:href="#aT"/><use transform="matrix(0.04938271604938272,0,0,0.04938271604938272,88.24691358024691,0)" xlink:href="#aT"/></g><path d="M30-248c87 1 191-15 191 75 0 78-77 80-158 76V0H30v-248zm33 125c57 0 124 11 124-50 0-59-68-47-124-48v98" id="aW"/><g id="t"><use transform="matrix(0.05,0,0,0.05,0,0)" xlink:href="#aW"/><use transform="matrix(0.05,0,0,0.05,12,0)" xlink:href="#as"/><use transform="matrix(0.05,0,0,0.05,22,0)" xlink:href="#az"/><use transform="matrix(0.05,0,0,0.05,27.950000000000003,0)" xlink:href="#aJ"/><use transform="matrix(0.05,0,0,0.05,32.95,0)" xlink:href="#ay"/><use transform="matrix(0.05,0,0,0.05,42.95,0)" xlink:href="#az"/><use transform="matrix(0.05,0,0,0.05,48.900000000000006,0)" xlink:href="#aG"/></g><path d="M127-220V0H93v-220H8v-28h204v28h-85" id="aX"/><path d="M84 4C-5 8 30-112 23-190h32v120c0 31 7 50 39 49 72-2 45-101 50-169h31l1 190h-30c-1-10 1-25-2-33-11 22-28 36-60 37" id="aY"/><path d="M115-194c53 0 69 39 70 98 0 66-23 100-70 100C84 3 66-7 56-30L54 0H23l1-261h32v101c10-23 28-34 59-34zm-8 174c40 0 45-34 45-75 0-40-5-75-45-74-42 0-51 32-51 76 0 43 10 73 51 73" id="aZ"/><path d="M24 0v-261h32V0H24" id="ba"/><g id="u"><use transform="matrix(0.05,0,0,0.05,0,0)" xlink:href="#aX"/><use transform="matrix(0.05,0,0,0.05,10.3,0)" xlink:href="#aY"/><use transform="matrix(0.05,0,0,0.05,20.3,0)" xlink:href="#aG"/><use transform="matrix(0.05,0,0,0.05,35.25,0)" xlink:href="#aZ"/><use transform="matrix(0.05,0,0,0.05,45.25,0)" xlink:href="#ba"/><use transform="matrix(0.05,0,0,0.05,49.2,0)" xlink:href="#aD"/><use transform="matrix(0.05,0,0,0.05,53.150000000000006,0)" xlink:href="#aE"/><use transform="matrix(0.05,0,0,0.05,63.150000000000006,0)" xlink:href="#aH"/></g><path d="M30 0v-248h187v28H63v79h144v27H63v87h162V0H30" id="bb"/><use transform="matrix(0.05,0,0,0.05,0,0)" xlink:href="#bb" id="v"/><g id="w"><use transform="matrix(0.05,0,0,0.05,0,0)" xlink:href="#aX"/><use transform="matrix(0.05,0,0,0.05,8.950000000000001,0)" xlink:href="#as"/><use transform="matrix(0.05,0,0,0.05,18.950000000000003,0)" xlink:href="#ar"/><use transform="matrix(0.05,0,0,0.05,27.950000000000003,0)" xlink:href="#ax"/></g><g id="x"><use transform="matrix(0.05,0,0,0.05,0,0)" xlink:href="#at"/><use transform="matrix(0.05,0,0,0.05,12.950000000000001,0)" xlink:href="#ay"/><use transform="matrix(0.05,0,0,0.05,22.950000000000003,0)" xlink:href="#ba"/><use transform="matrix(0.05,0,0,0.05,26.900000000000002,0)" xlink:href="#ay"/><use transform="matrix(0.05,0,0,0.05,36.900000000000006,0)" xlink:href="#az"/></g><path d="M137 0h-34L2-248h35l83 218 83-218h36" id="bc"/><g id="y"><use transform="matrix(0.05,0,0,0.05,0,0)" xlink:href="#bc"/><use transform="matrix(0.05,0,0,0.05,11.65,0)" xlink:href="#aD"/><use transform="matrix(0.05,0,0,0.05,15.600000000000001,0)" xlink:href="#ar"/><use transform="matrix(0.05,0,0,0.05,24.6,0)" xlink:href="#aD"/><use transform="matrix(0.05,0,0,0.05,28.55,0)" xlink:href="#ay"/><use transform="matrix(0.05,0,0,0.05,38.55,0)" xlink:href="#aE"/></g><g id="z"><use transform="matrix(0.05,0,0,0.05,0,0)" xlink:href="#aB"/><use transform="matrix(0.05,0,0,0.05,14.950000000000001,0)" xlink:href="#as"/><use transform="matrix(0.05,0,0,0.05,24.950000000000003,0)" xlink:href="#ax"/><use transform="matrix(0.05,0,0,0.05,29.950000000000003,0)" xlink:href="#az"/><use transform="matrix(0.05,0,0,0.05,35.900000000000006,0)" xlink:href="#aD"/><use transform="matrix(0.05,0,0,0.05,39.85000000000001,0)" xlink:href="#aw"/></g><path d="M108 0H70L1-190h34L89-25l56-165h34" id="bd"/><g id="A"><use transform="matrix(0.05,0,0,0.05,0,0)" xlink:href="#at"/><use transform="matrix(0.05,0,0,0.05,12.950000000000001,0)" xlink:href="#ay"/><use transform="matrix(0.05,0,0,0.05,22.950000000000003,0)" xlink:href="#aE"/><use transform="matrix(0.05,0,0,0.05,32.95,0)" xlink:href="#bd"/><use transform="matrix(0.05,0,0,0.05,41.95,0)" xlink:href="#as"/><use transform="matrix(0.05,0,0,0.05,51.95,0)" xlink:href="#az"/><use transform="matrix(0.05,0,0,0.05,57.900000000000006,0)" xlink:href="#ar"/><use transform="matrix(0.05,0,0,0.05,66.9,0)" xlink:href="#aD"/><use transform="matrix(0.05,0,0,0.05,70.85000000000001,0)" xlink:href="#ay"/><use transform="matrix(0.05,0,0,0.05,80.85000000000001,0)" xlink:href="#aE"/></g><path fill="#3a414a" d="M190 0L58-211 59 0H30v-248h39L202-35l-2-213h31V0h-41" id="be"/><path fill="#3a414a" d="M100-194c62-1 85 37 85 99 1 63-27 99-86 99S16-35 15-95c0-66 28-99 85-99zM99-20c44 1 53-31 53-75 0-43-8-75-51-75s-53 32-53 75 10 74 51 75" id="bf"/><path fill="#3a414a" d="M59-47c-2 24 18 29 38 22v24C64 9 27 4 27-40v-127H5v-23h24l9-43h21v43h35v23H59v120" id="bg"/><path fill="#3a414a" d="M24-231v-30h32v30H24zM24 0v-190h32V0H24" id="bh"/><path fill="#3a414a" d="M101-234c-31-9-42 10-38 44h38v23H63V0H32v-167H5v-23h27c-7-52 17-82 69-68v24" id="bi"/><path fill="#3a414a" d="M96-169c-40 0-48 33-48 73s9 75 48 75c24 0 41-14 43-38l32 2c-6 37-31 61-74 61-59 0-76-41-82-99-10-93 101-131 147-64 4 7 5 14 7 22l-32 3c-4-21-16-35-41-35" id="bj"/><path fill="#3a414a" d="M141-36C126-15 110 5 73 4 37 3 15-17 15-53c-1-64 63-63 125-63 3-35-9-54-41-54-24 1-41 7-42 31l-33-3c5-37 33-52 76-52 45 0 72 20 72 64v82c-1 20 7 32 28 27v20c-31 9-61-2-59-35zM48-53c0 20 12 33 32 33 41-3 63-29 60-74-43 2-92-5-92 41" id="bk"/><path fill="#3a414a" d="M117-194c89-4 53 116 60 194h-32v-121c0-31-8-49-39-48C34-167 62-67 57 0H25l-1-190h30c1 10-1 24 2 32 11-22 29-35 61-36" id="bl"/><g id="B"><use transform="matrix(0.06172839506172839,0,0,0.06172839506172839,0,0)" xlink:href="#be"/><use transform="matrix(0.06172839506172839,0,0,0.06172839506172839,15.987654320987653,0)" xlink:href="#bf"/><use transform="matrix(0.06172839506172839,0,0,0.06172839506172839,28.333333333333332,0)" xlink:href="#bg"/><use transform="matrix(0.06172839506172839,0,0,0.06172839506172839,34.50617283950617,0)" xlink:href="#bh"/><use transform="matrix(0.06172839506172839,0,0,0.06172839506172839,39.382716049382715,0)" xlink:href="#bi"/><use transform="matrix(0.06172839506172839,0,0,0.06172839506172839,45.55555555555556,0)" xlink:href="#bh"/><use transform="matrix(0.06172839506172839,0,0,0.06172839506172839,50.4320987654321,0)" xlink:href="#bj"/><use transform="matrix(0.06172839506172839,0,0,0.06172839506172839,61.543209876543216,0)" xlink:href="#bk"/><use transform="matrix(0.06172839506172839,0,0,0.06172839506172839,73.8888888888889,0)" xlink:href="#bg"/><use transform="matrix(0.06172839506172839,0,0,0.06172839506172839,80.06172839506173,0)" xlink:href="#bh"/><use transform="matrix(0.06172839506172839,0,0,0.06172839506172839,84.93827160493828,0)" xlink:href="#bf"/><use transform="matrix(0.06172839506172839,0,0,0.06172839506172839,97.28395061728396,0)" xlink:href="#bl"/></g><path fill="#3a414a" d="M185-189c-5-48-123-54-124 2 14 75 158 14 163 119 3 78-121 87-175 55-17-10-28-26-33-46l33-7c5 56 141 63 141-1 0-78-155-14-162-118-5-82 145-84 179-34 5 7 8 16 11 25" id="bm"/><path fill="#3a414a" d="M108 0H70L1-190h34L89-25l56-165h34" id="bn"/><g id="C"><use transform="matrix(0.06172839506172839,0,0,0.06172839506172839,0,0)" xlink:href="#bm"/><use transform="matrix(0.06172839506172839,0,0,0.06172839506172839,14.814814814814813,0)" xlink:href="#al"/><use transform="matrix(0.06172839506172839,0,0,0.06172839506172839,27.160493827160494,0)" xlink:href="#am"/><use transform="matrix(0.06172839506172839,0,0,0.06172839506172839,34.50617283950617,0)" xlink:href="#bn"/><use transform="matrix(0.06172839506172839,0,0,0.06172839506172839,45.61728395061728,0)" xlink:href="#bh"/><use transform="matrix(0.06172839506172839,0,0,0.06172839506172839,50.49382716049382,0)" xlink:href="#bj"/><use transform="matrix(0.06172839506172839,0,0,0.06172839506172839,61.60493827160494,0)" xlink:href="#al"/></g><path fill="#3a414a" d="M30-248c118-7 216 8 213 122C240-48 200 0 122 0H30v-248zM63-27c89 8 146-16 146-99s-60-101-146-95v194" id="bo"/><path fill="#3a414a" d="M115-194c53 0 69 39 70 98 0 66-23 100-70 100C84 3 66-7 56-30L54 0H23l1-261h32v101c10-23 28-34 59-34zm-8 174c40 0 45-34 45-75 0-40-5-75-45-74-42 0-51 32-51 76 0 43 10 73 51 73" id="bp"/><g id="D"><use transform="matrix(0.06172839506172839,0,0,0.06172839506172839,0,0)" xlink:href="#bo"/><use transform="matrix(0.06172839506172839,0,0,0.06172839506172839,15.987654320987653,0)" xlink:href="#bk"/><use transform="matrix(0.06172839506172839,0,0,0.06172839506172839,28.333333333333332,0)" xlink:href="#bg"/><use transform="matrix(0.06172839506172839,0,0,0.06172839506172839,34.50617283950617,0)" xlink:href="#bk"/><use transform="matrix(0.06172839506172839,0,0,0.06172839506172839,46.85185185185185,0)" xlink:href="#bp"/><use transform="matrix(0.06172839506172839,0,0,0.06172839506172839,59.197530864197525,0)" xlink:href="#bk"/><use transform="matrix(0.06172839506172839,0,0,0.06172839506172839,71.5432098765432,0)" xlink:href="#ak"/><use transform="matrix(0.06172839506172839,0,0,0.06172839506172839,82.65432098765432,0)" xlink:href="#al"/></g><path d="M206 0h-36l-40-164L89 0H53L-1-190h32L70-26l43-164h34l41 164 42-164h31" id="bq"/><g id="E"><use transform="matrix(0.05,0,0,0.05,0,0)" xlink:href="#bc"/><use transform="matrix(0.05,0,0,0.05,11.65,0)" xlink:href="#aD"/><use transform="matrix(0.05,0,0,0.05,15.600000000000001,0)" xlink:href="#as"/><use transform="matrix(0.05,0,0,0.05,25.6,0)" xlink:href="#bq"/></g><g id="F"><use transform="matrix(0.05,0,0,0.05,0,0)" xlink:href="#aX"/><use transform="matrix(0.05,0,0,0.05,8.950000000000001,0)" xlink:href="#as"/><use transform="matrix(0.05,0,0,0.05,18.950000000000003,0)" xlink:href="#ar"/><use transform="matrix(0.05,0,0,0.05,27.950000000000003,0)" xlink:href="#ax"/></g><g id="G"><use transform="matrix(0.05,0,0,0.05,0,0)" xlink:href="#aF"/><use transform="matrix(0.05,0,0,0.05,12.950000000000001,0)" xlink:href="#as"/><use transform="matrix(0.05,0,0,0.05,22.950000000000003,0)" xlink:href="#ar"/><use transform="matrix(0.05,0,0,0.05,31.950000000000003,0)" xlink:href="#aY"/><use transform="matrix(0.05,0,0,0.05,41.95,0)" xlink:href="#ba"/><use transform="matrix(0.05,0,0,0.05,45.900000000000006,0)" xlink:href="#ax"/><use transform="matrix(0.05,0,0,0.05,50.900000000000006,0)" xlink:href="#ar"/></g><g id="H"><use transform="matrix(0.05,0,0,0.05,0,0)" xlink:href="#aA"/><use transform="matrix(0.05,0,0,0.05,12,0)" xlink:href="#ax"/><use transform="matrix(0.05,0,0,0.05,17,0)" xlink:href="#ay"/><use transform="matrix(0.05,0,0,0.05,27,0)" xlink:href="#az"/><use transform="matrix(0.05,0,0,0.05,32.95,0)" xlink:href="#as"/></g><path d="M106-169C34-169 62-67 57 0H25v-261h32l-1 103c12-21 28-36 61-36 89 0 53 116 60 194h-32v-121c2-32-8-49-39-48" id="br"/><g id="I"><use transform="matrix(0.05,0,0,0.05,0,0)" xlink:href="#aA"/><use transform="matrix(0.05,0,0,0.05,12,0)" xlink:href="#br"/><use transform="matrix(0.05,0,0,0.05,22,0)" xlink:href="#ay"/><use transform="matrix(0.05,0,0,0.05,32,0)" xlink:href="#bq"/></g><g id="J"><use transform="matrix(0.05,0,0,0.05,0,0)" xlink:href="#aW"/><use transform="matrix(0.05,0,0,0.05,12,0)" xlink:href="#au"/><use transform="matrix(0.05,0,0,0.05,22,0)" xlink:href="#ar"/><use transform="matrix(0.05,0,0,0.05,31,0)" xlink:href="#ax"/></g><g id="K"><use transform="matrix(0.05,0,0,0.05,0,0)" xlink:href="#az"/><use transform="matrix(0.05,0,0,0.05,5.95,0)" xlink:href="#as"/><use transform="matrix(0.05,0,0,0.05,15.949999999999998,0)" xlink:href="#ar"/><use transform="matrix(0.05,0,0,0.05,24.95,0)" xlink:href="#aY"/><use transform="matrix(0.05,0,0,0.05,34.95,0)" xlink:href="#ba"/><use transform="matrix(0.05,0,0,0.05,38.900000000000006,0)" xlink:href="#ax"/><use transform="matrix(0.05,0,0,0.05,43.900000000000006,0)" xlink:href="#ar"/></g><g id="L"><use transform="matrix(0.05,0,0,0.05,0,0)" xlink:href="#aD"/><use transform="matrix(0.05,0,0,0.05,3.95,0)" xlink:href="#aE"/></g><g id="M"><use transform="matrix(0.05,0,0,0.05,0,0)" xlink:href="#bc"/><use transform="matrix(0.05,0,0,0.05,11.65,0)" xlink:href="#aD"/><use transform="matrix(0.05,0,0,0.05,15.600000000000001,0)" xlink:href="#ar"/><use transform="matrix(0.05,0,0,0.05,24.6,0)" xlink:href="#aY"/><use transform="matrix(0.05,0,0,0.05,34.6,0)" xlink:href="#au"/><use transform="matrix(0.05,0,0,0.05,44.6,0)" xlink:href="#ba"/><use transform="matrix(0.05,0,0,0.05,48.550000000000004,0)" xlink:href="#aD"/><use transform="matrix(0.05,0,0,0.05,52.5,0)" xlink:href="#ar"/><use transform="matrix(0.05,0,0,0.05,61.5,0)" xlink:href="#au"/><use transform="matrix(0.05,0,0,0.05,71.5,0)" xlink:href="#ax"/><use transform="matrix(0.05,0,0,0.05,76.5,0)" xlink:href="#aD"/><use transform="matrix(0.05,0,0,0.05,80.45,0)" xlink:href="#ay"/><use transform="matrix(0.05,0,0,0.05,90.45,0)" xlink:href="#aE"/></g><path d="M30-248c118-7 216 8 213 122C240-48 200 0 122 0H30v-248zM63-27c89 8 146-16 146-99s-60-101-146-95v194" id="bs"/><path d="M33 0v-248h34V0H33" id="bt"/><g id="N"><use transform="matrix(0.05,0,0,0.05,0,0)" xlink:href="#bs"/><use transform="matrix(0.05,0,0,0.05,12.950000000000001,0)" xlink:href="#bt"/><use transform="matrix(0.05,0,0,0.05,17.950000000000003,0)" xlink:href="#au"/><use transform="matrix(0.05,0,0,0.05,27.950000000000003,0)" xlink:href="#aH"/><use transform="matrix(0.05,0,0,0.05,37.95,0)" xlink:href="#az"/><use transform="matrix(0.05,0,0,0.05,43.900000000000006,0)" xlink:href="#au"/><use transform="matrix(0.05,0,0,0.05,53.900000000000006,0)" xlink:href="#aG"/></g><g id="O"><use transform="matrix(0.05,0,0,0.05,0,0)" xlink:href="#av"/><use transform="matrix(0.05,0,0,0.05,12,0)" xlink:href="#aE"/><use transform="matrix(0.05,0,0,0.05,22,0)" xlink:href="#au"/><use transform="matrix(0.05,0,0,0.05,32,0)" xlink:href="#ba"/><use transform="matrix(0.05,0,0,0.05,35.95,0)" xlink:href="#aK"/><use transform="matrix(0.05,0,0,0.05,44.95,0)" xlink:href="#ar"/><use transform="matrix(0.05,0,0,0.05,53.95,0)" xlink:href="#as"/></g><path d="M115-194c55 1 70 41 70 98S169 2 115 4C84 4 66-9 55-30l1 105H24l-1-265h31l2 30c10-21 28-34 59-34zm-8 174c40 0 45-34 45-75s-6-73-45-74c-42 0-51 32-51 76 0 43 10 73 51 73" id="bu"/><g id="P"><use transform="matrix(0.05,0,0,0.05,0,0)" xlink:href="#bu"/><use transform="matrix(0.05,0,0,0.05,10,0)" xlink:href="#au"/><use transform="matrix(0.05,0,0,0.05,20,0)" xlink:href="#ar"/><use transform="matrix(0.05,0,0,0.05,29,0)" xlink:href="#ax"/></g><g id="Q"><use transform="matrix(0.05,0,0,0.05,0,0)" xlink:href="#ax"/><use transform="matrix(0.05,0,0,0.05,5,0)" xlink:href="#as"/><use transform="matrix(0.05,0,0,0.05,15,0)" xlink:href="#ar"/><use transform="matrix(0.05,0,0,0.05,24,0)" xlink:href="#ax"/></g><g id="R"><use transform="matrix(0.05,0,0,0.05,0,0)" xlink:href="#az"/><use transform="matrix(0.05,0,0,0.05,5.95,0)" xlink:href="#as"/><use transform="matrix(0.05,0,0,0.05,15.949999999999998,0)" xlink:href="#ar"/><use transform="matrix(0.05,0,0,0.05,24.95,0)" xlink:href="#aY"/><use transform="matrix(0.05,0,0,0.05,34.95,0)" xlink:href="#ba"/><use transform="matrix(0.05,0,0,0.05,38.900000000000006,0)" xlink:href="#ax"/><use transform="matrix(0.05,0,0,0.05,43.900000000000006,0)" xlink:href="#ar"/></g></defs></g></svg>