<svg xmlns="http://www.w3.org/2000/svg" xmlns:xlink="http://www.w3.org/1999/xlink" xmlns:lucid="lucid" width="1816.23" height="2130.36"><g transform="translate(961 609.8576669336007)" lucid:page-tab-id="tMW7AIvDjuPb"><path d="M-1000-1000h2000v2500h-2000z" fill="#fff"/><path d="M-284.3-580.86a8 8 0 0 1 8-8H332a8 8 0 0 1 8 8V1492a8 8 0 0 1-8 8h-608.3a8 8 0 0 1-8-8z" stroke="#000" fill-opacity="0"/><use xlink:href="#a" transform="matrix(1,0,0,1,-276.2864190061821,-580.8576669336007) translate(43.895061728395206 17.95555555555555)"/><use xlink:href="#b" transform="matrix(1,0,0,1,-276.2864190061821,-580.8576669336007) translate(90.03086419753099 17.95555555555555)"/><use xlink:href="#c" transform="matrix(1,0,0,1,-276.2864190061821,-580.8576669336007) translate(164.65864197530874 17.95555555555555)"/><use xlink:href="#d" transform="matrix(1,0,0,1,-276.2864190061821,-580.8576669336007) translate(307.741975308642 17.95555555555555)"/><use xlink:href="#e" transform="matrix(1,0,0,1,-276.2864190061821,-580.8576669336007) translate(384.86358024691356 17.95555555555555)"/><use xlink:href="#f" transform="matrix(1,0,0,1,-276.2864190061821,-580.8576669336007) translate(434.553086419753 17.95555555555555)"/><use xlink:href="#g" transform="matrix(1,0,0,1,-276.2864190061821,-580.8576669336007) translate(448.2067901234567 17.95555555555555)"/><use xlink:href="#h" transform="matrix(1,0,0,1,-276.2864190061821,-580.8576669336007) translate(246.61203703703706 44.88888888888887)"/><path d="M212.03 300c0 33.14-82.46 60-184.17 60-101.72 0-184.17-26.86-184.17-60s82.44-60 184.16-60c101.7 0 184.17 26.86 184.17 60z" stroke="#000" fill="#4d9eff"/><use xlink:href="#i" transform="matrix(1,0,0,1,-156.31313947136013,240) translate(83.43709876543213 62.97222222222222)"/><use xlink:href="#j" transform="matrix(1,0,0,1,-156.31313947136013,240) translate(139.68401234567904 62.97222222222222)"/><use xlink:href="#k" transform="matrix(1,0,0,1,-156.31313947136013,240) translate(230.40006172839503 62.97222222222222)"/><path d="M212.03-360c0 33.14-82.46 60-184.17 60-101.72 0-184.17-26.86-184.17-60s82.44-60 184.16-60c101.7 0 184.17 26.86 184.17 60z" stroke="#000" fill="#ff80df"/><use xlink:href="#l" transform="matrix(1,0,0,1,-156.3119171148144,-420) translate(115.16549382716052 62.97222222222222)"/><use xlink:href="#m" transform="matrix(1,0,0,1,-156.3119171148144,-420) translate(167.06672839506174 62.97222222222222)"/><path d="M-739.02-121.42l635.4-195.78M-739-121.42l-3.37 1.03" stroke="#3a414a" fill="none"/><path d="M-102.3-317.08l-1.18.36-.25-.82z" stroke="#3a414a" stroke-width=".05" fill="#3a414a"/><path d="M779.75-380.25c0 10.9-8.84 19.75-19.75 19.75-10.9 0-19.75-8.84-19.75-19.75 0-10.9 8.84-19.75 19.75-19.75 10.9 0 19.75 8.84 19.75 19.75z" stroke="#333" fill="#fff"/><path d="M760-360.5v49.3a20.7 20.7 0 0 0 3.2 11.07L800-242m-40-63.2L720-242m0-98.75h80" stroke="#333" fill="none"/><path d="M720-394a6 6 0 0 1 6-6h68a6 6 0 0 1 6 6v168a6 6 0 0 1-6 6h-68a6 6 0 0 1-6-6z" fill="none"/><use xlink:href="#n" transform="matrix(1,0,0,1,640,-242) translate(72.5 17.77777777777778)"/><path d="M-720.25-180.25c0 10.9-8.84 19.75-19.75 19.75-10.9 0-19.75-8.84-19.75-19.75 0-10.9 8.84-19.75 19.75-19.75 10.9 0 19.75 8.84 19.75 19.75z" stroke="#333" fill="#fff"/><path d="M-740-160.5v49.3a20.7 20.7 0 0 0 3.2 11.07L-700-42m-40-63.2L-780-42m0-98.75h80" stroke="#333" fill="none"/><path d="M-780-194a6 6 0 0 1 6-6h68a6 6 0 0 1 6 6v168a6 6 0 0 1-6 6h-68a6 6 0 0 1-6-6z" fill="none"/><use xlink:href="#o" transform="matrix(1,0,0,1,-860,-42) translate(96.60493827160494 17.77777777777778)"/><path d="M779.75 159.75c0 10.9-8.84 19.75-19.75 19.75-10.9 0-19.75-8.84-19.75-19.75 0-10.9 8.84-19.75 19.75-19.75 10.9 0 19.75 8.84 19.75 19.75z" stroke="#333" fill="#fff"/><path d="M760 179.5v49.3a20.7 20.7 0 0 0 3.2 11.07L800 298m-40-63.2L720 298m0-98.75h80" stroke="#333" fill="none"/><path d="M720 146a6 6 0 0 1 6-6h68a6 6 0 0 1 6 6v168a6 6 0 0 1-6 6h-68a6 6 0 0 1-6-6z" fill="none"/><use xlink:href="#p" transform="matrix(1,0,0,1,640,298) translate(44.81481481481481 17.77777777777778)"/><use xlink:href="#q" transform="matrix(1,0,0,1,640,298) translate(121.23456790123456 17.77777777777778)"/><path d="M759.17-320.7l-546.3 620.33M759.16-320.68l2.32-2.64" stroke="#3a414a" fill="none"/><path d="M213.24 299.95l-.73.82.03-.77v-.43l-.02-.27z" stroke="#3a414a" stroke-width=".05" fill="#3a414a"/><path d="M759-321.1l-545.97-38.86M759-321.1l3.5.25" stroke="#3a414a" fill="none"/><path d="M213.07-360.46l-.07 1-.48-.04v-1z" stroke="#3a414a" stroke-width=".05" fill="#3a414a"/><path d="M-940-576.86a12 12 0 0 1 12-12h296a12 12 0 0 1 12 12v296a12 12 0 0 1-12 12h-296a12 12 0 0 1-12-12z" stroke="#dfe3e8" stroke-width="2" fill="#fff"/><path d="M-861.95-494.08c0 9.23-7.5 16.72-16.73 16.72s-16.72-7.5-16.72-16.72c0-9.24 7.5-16.73 16.72-16.73 9.24 0 16.73 7.48 16.73 16.72z" stroke="#000" stroke-opacity=".25" fill="#ff80df"/><path d="M-861.95-449.5c0 9.25-7.5 16.74-16.73 16.74s-16.72-7.5-16.72-16.73c0-9.22 7.5-16.7 16.72-16.7 9.24 0 16.73 7.48 16.73 16.7z" stroke="#000" stroke-opacity=".25" fill="#4d9eff"/><path d="M-861.95-404.9c0 9.25-7.5 16.74-16.73 16.74s-16.72-7.5-16.72-16.73c0-9.22 7.5-16.7 16.72-16.7 9.24 0 16.73 7.48 16.73 16.7z" stroke="#000" stroke-opacity=".25" fill="#fe7070"/><path d="M-861.95-360.3c0 9.25-7.5 16.74-16.73 16.74s-16.72-7.5-16.72-16.73c0-9.22 7.5-16.7 16.72-16.7 9.24 0 16.73 7.48 16.73 16.7z" stroke="#000" stroke-opacity=".25" fill="#9391ff"/><path d="M-875.58-326.53c0 1.7-1.38 3.1-3.1 3.1-1.7 0-3.1-1.4-3.1-3.1 0-1.7 1.4-3.1 3.1-3.1 1.7 0 3.1 1.4 3.1 3.1z" stroke="#333" fill="#fff"/><path d="M-878.68-323.43v9.6c0 .64.14 1.18.45 1.74l5.75 10.35m-6.2-11.15l-6.2 11.15m0-18.58h12.4" stroke="#333" fill="none"/><path d="M-884.87-328.7c0-.5.42-.92.93-.92h10.53c.5 0 .92.4.92.93v26.02c0 .5-.42.93-.93.93h-10.54c-.5 0-.93-.42-.93-.93z" fill="none"/><use xlink:href="#r" transform="matrix(1,0,0,1,-895.4006968641115,-555.4081895816844) translate(0 20.32706104556923)"/><use xlink:href="#s" transform="matrix(1,0,0,1,-845.226480836237,-510.80888644579585) translate(0 20.387307225313066)"/><use xlink:href="#t" transform="matrix(1,0,0,1,-845.226480836237,-510.80888644579585) translate(46.64259235767546 20.387307225313066)"/><use xlink:href="#u" transform="matrix(1,0,0,1,-845.226480836237,-510.80888644579585) translate(77.80794113916023 20.387307225313066)"/><use xlink:href="#v" transform="matrix(1,0,0,1,-845.226480836237,-466.2095833099073) translate(0 20.387307225313066)"/><use xlink:href="#t" transform="matrix(1,0,0,1,-845.226480836237,-466.2095833099073) translate(79.57917882362892 20.387307225313066)"/><use xlink:href="#u" transform="matrix(1,0,0,1,-845.226480836237,-466.2095833099073) translate(110.7445276051137 20.387307225313066)"/><use xlink:href="#w" transform="matrix(1,0,0,1,-845.226480836237,-421.61028017401884) translate(0 20.387307225313066)"/><use xlink:href="#t" transform="matrix(1,0,0,1,-845.226480836237,-421.61028017401884) translate(62.66807616953502 20.387307225313066)"/><use xlink:href="#u" transform="matrix(1,0,0,1,-845.226480836237,-421.61028017401884) translate(93.8334249510198 20.387307225313066)"/><use xlink:href="#x" transform="matrix(1,0,0,1,-845.226480836237,-377.01097703813036) translate(0 20.387307225313066)"/><use xlink:href="#t" transform="matrix(1,0,0,1,-845.226480836237,-377.01097703813036) translate(89.5740200431308 20.387307225313066)"/><use xlink:href="#u" transform="matrix(1,0,0,1,-845.226480836237,-377.01097703813036) translate(120.7393688246156 20.387307225313066)"/><use xlink:href="#y" transform="matrix(1,0,0,1,-845.226480836237,-332.41167390224183) translate(0 20.387307225313066)"/><path d="M212.03 520c0 33.14-82.46 60-184.17 60-101.72 0-184.17-26.86-184.17-60s82.44-60 184.16-60c101.7 0 184.17 26.86 184.17 60z" stroke="#000" fill="#ff80df"/><use xlink:href="#z" transform="matrix(1,0,0,1,-156.3119171148144,460) translate(110.0543827160494 62.97222222222222)"/><use xlink:href="#A" transform="matrix(1,0,0,1,-156.3119171148144,460) translate(172.22722222222222 62.97222222222222)"/><path d="M212.03 80c0 33.14-82.46 60-184.17 60-101.72 0-184.17-26.86-184.17-60s82.44-60 184.16-60c101.7 0 184.17 26.86 184.17 60z" stroke="#000" fill="#ff80df"/><use xlink:href="#B" transform="matrix(1,0,0,1,-156.31313947136013,20) translate(118.42475308641976 62.97222222222222)"/><use xlink:href="#A" transform="matrix(1,0,0,1,-156.31313947136013,20) translate(163.85685185185184 62.97222222222222)"/><path d="M212.03-140c0 33.14-82.46 60-184.17 60-101.72 0-184.17-26.86-184.17-60s82.44-60 184.16-60c101.7 0 184.17 26.86 184.17 60z" stroke="#000" fill="#fe7070"/><use xlink:href="#C" transform="matrix(1,0,0,1,-156.31313947136013,-200) translate(31.755000000000003 63.15)"/><use xlink:href="#D" transform="matrix(1,0,0,1,-156.31313947136013,-200) translate(116.70500000000001 63.15)"/><use xlink:href="#E" transform="matrix(1,0,0,1,-156.31313947136013,-200) translate(208.555 63.15)"/><use xlink:href="#F" transform="matrix(1,0,0,1,-156.31313947136013,-200) translate(300.355 63.15)"/><use xlink:href="#G" transform="matrix(1,0,0,1,-156.31313947136013,-200) translate(319.305 63.15)"/><path d="M759.08 218.66l-546.13-358.4M759.07 218.65l2.94 1.93" stroke="#3a414a" fill="none"/><path d="M213.23-140.14l-.55.84-.17-.1.03-.6v-.43l-.02-.18zM28.36-201.4h-1v-5.4h1zm0-10.8h-1V-223h1zm0-16.2h-1v-10.8h1zm0-32.5h-1v-10.88h1zm0-16.32h-1v-10.9h1zm0-16.34h-1V-299h1z" stroke="#3a414a" stroke-width=".05" fill="#3a414a"/><path d="M27.86-299.5h.5v.5h-1v-.5z" fill="#3a414a"/><path d="M27.86-299.52h.52v.56h-1.05v-.58zm-.48.5h.95v-.46h-.95zM38.47-218.44l-10.6 17.94-10.62-17.94.86-.5 9.76 16.47 9.75-16.48z" stroke="#3a414a" stroke-width=".05" fill="#3a414a"/><use xlink:href="#H" transform="matrix(1,0,0,1,-23.919764906812283,-260.666673032602) translate(0 14.222222222222223)"/><path d="M212.03 1400c0 33.14-82.46 60-184.17 60-101.72 0-184.17-26.86-184.17-60s82.44-60 184.16-60c101.7 0 184.17 26.86 184.17 60z" stroke="#000" fill="#fe7070"/><use xlink:href="#I" transform="matrix(1,0,0,1,-156.3119171148144,1340) translate(21.27999999999998 63.15)"/><use xlink:href="#D" transform="matrix(1,0,0,1,-156.3119171148144,1340) translate(127.17999999999999 63.15)"/><use xlink:href="#E" transform="matrix(1,0,0,1,-156.3119171148144,1340) translate(219.03 63.15)"/><use xlink:href="#F" transform="matrix(1,0,0,1,-156.3119171148144,1340) translate(310.83000000000004 63.15)"/><use xlink:href="#G" transform="matrix(1,0,0,1,-156.3119171148144,1340) translate(329.78000000000003 63.15)"/><path d="M212.03 960c0 33.14-82.46 60-184.17 60-101.72 0-184.17-26.86-184.17-60s82.44-60 184.16-60c101.7 0 184.17 26.86 184.17 60z" stroke="#000" fill="#ff80df"/><g><use xlink:href="#J" transform="matrix(1,0,0,1,-156.3119171148144,900) translate(113.04203703703705 62.97222222222222)"/><use xlink:href="#A" transform="matrix(1,0,0,1,-156.3119171148144,900) translate(169.23956790123458 62.97222222222222)"/></g><path d="M212.03 740c0 33.14-82.46 60-184.17 60-101.72 0-184.17-26.86-184.17-60s82.44-60 184.16-60c101.7 0 184.17 26.86 184.17 60z" stroke="#000" fill="#4d9eff"/><g><use xlink:href="#K" transform="matrix(1,0,0,1,-156.31313947136016,680) translate(44.94327160493828 51.72222222222222)"/><use xlink:href="#L" transform="matrix(1,0,0,1,-156.31313947136016,680) translate(116.005 51.72222222222222)"/><use xlink:href="#M" transform="matrix(1,0,0,1,-156.31313947136016,680) translate(237.28895061728394 51.72222222222222)"/><use xlink:href="#N" transform="matrix(1,0,0,1,-156.31313947136016,680) translate(146.08524691358025 73.05555555555554)"/></g><path d="M212.03 1180c0 33.14-82.46 60-184.17 60-101.72 0-184.17-26.86-184.17-60s82.44-60 184.16-60c101.7 0 184.17 26.86 184.17 60z" stroke="#000" fill="#4d9eff"/><g><use xlink:href="#O" transform="matrix(1,0,0,1,-156.3119171148144,1120) translate(124.325987654321 62.97222222222222)"/><use xlink:href="#P" transform="matrix(1,0,0,1,-156.3119171148144,1120) translate(204.22722222222222 62.97222222222222)"/></g><path d="M-739.16-120.7l582 640.33M-739.15-120.7l-2.37-2.6" stroke="#3a414a" fill="none"/><path d="M-156.8 520v.76l-.73-.8.73-.67z" stroke="#3a414a" stroke-width=".05" fill="#3a414a"/><path d="M-739.26-120.63l582.2 1080.2M-739.26-120.62l-1.66-3.1" stroke="#3a414a" fill="none"/><path d="M-156.8 960v.43l.02.7-.72-1.34.7-.4z" stroke="#3a414a" stroke-width=".05" fill="#3a414a"/><path d="M-739.03-120.9L-157.3 79.84M-739-120.9l-3.34-1.15" stroke="#3a414a" fill="none"/><path d="M-156.8 79.47v1.06l-.66-.22.33-.94z" stroke="#3a414a" stroke-width=".05" fill="#3a414a"/><path d="M759.3 219.38L212.73 1399.56M759.28 219.4l1.48-3.2" stroke="#3a414a" fill="none"/><path d="M213.2 1399.74l-.72 1.55.03-.44.03-.86V1399.43z" stroke="#3a414a" stroke-width=".05" fill="#3a414a"/><path d="M759.27-320.62L212.77 739.56M759.26-320.6l1.62-3.13" stroke="#3a414a" fill="none"/><path d="M213.2 739.77l-.7 1.4v-.3l.03-.87v-.58z" stroke="#3a414a" stroke-width=".05" fill="#3a414a"/><path d="M759.33-320.6L212.7 1179.53M759.32-320.6l1.2-3.3" stroke="#3a414a" fill="none"/><path d="M213.17 1179.7l-.7 1.95.04-.8.03-.85v-.55z" stroke="#3a414a" stroke-width=".05" fill="#3a414a"/><defs><path fill="#3a414a" d="M24 0v-248h195v40H76v63h132v40H76v65h150V0H24" id="Q"/><path fill="#3a414a" d="M123 10C108 53 80 86 19 72V37c35 8 53-11 59-39L3-190h52l48 148c12-52 28-100 44-148h51" id="R"/><path fill="#3a414a" d="M185-48c-13 30-37 53-82 52C43 2 14-33 14-96s30-98 90-98c62 0 83 45 84 108H66c0 31 8 55 39 56 18 0 30-7 34-22zm-45-69c5-46-57-63-70-21-2 6-4 13-4 21h74" id="S"/><g id="a"><use transform="matrix(0.06234567901234565,0,0,0.06234567901234565,0,0)" xlink:href="#Q"/><use transform="matrix(0.06234567901234565,0,0,0.06234567901234565,14.962962962962957,0)" xlink:href="#R"/><use transform="matrix(0.06234567901234565,0,0,0.06234567901234565,27.432098765432087,0)" xlink:href="#S"/></g><path fill="#3a414a" d="M186 0v-106H76V0H24v-248h52v99h110v-99h50V0h-50" id="T"/><path fill="#3a414a" d="M133-34C117-15 103 5 69 4 32 3 11-16 11-54c-1-60 55-63 116-61 1-26-3-47-28-47-18 1-26 9-28 27l-52-2c7-38 36-58 82-57s74 22 75 68l1 82c-1 14 12 18 25 15v27c-30 8-71 5-69-32zm-48 3c29 0 43-24 42-57-32 0-66-3-65 30 0 17 8 27 23 27" id="U"/><path fill="#3a414a" d="M25 0v-261h50V0H25" id="V"/><path fill="#3a414a" d="M115-3C79 11 28 4 28-45v-112H4v-33h27l15-45h31v45h36v33H77v99c-1 23 16 31 38 25v30" id="W"/><path fill="#3a414a" d="M114-157C55-157 80-60 75 0H25v-261h50l-1 109c12-26 28-41 61-42 86-1 58 113 63 194h-50c-7-57 23-157-34-157" id="X"/><g id="b"><use transform="matrix(0.06234567901234565,0,0,0.06234567901234565,0,0)" xlink:href="#T"/><use transform="matrix(0.06234567901234565,0,0,0.06234567901234565,16.147530864197524,0)" xlink:href="#S"/><use transform="matrix(0.06234567901234565,0,0,0.06234567901234565,28.616666666666653,0)" xlink:href="#U"/><use transform="matrix(0.06234567901234565,0,0,0.06234567901234565,41.085802469135785,0)" xlink:href="#V"/><use transform="matrix(0.06234567901234565,0,0,0.06234567901234565,47.32037037037035,0)" xlink:href="#W"/><use transform="matrix(0.06234567901234565,0,0,0.06234567901234565,54.739506172839484,0)" xlink:href="#X"/></g><path fill="#3a414a" d="M230 0l2-204L168 0h-37L68-204 70 0H24v-248h70l56 185 57-185h69V0h-46" id="Y"/><path fill="#3a414a" d="M135-194c87-1 58 113 63 194h-50c-7-57 23-157-34-157-59 0-34 97-39 157H25l-1-190h47c2 12-1 28 3 38 12-26 28-41 61-42" id="Z"/><path fill="#3a414a" d="M195-6C206 82 75 100 31 46c-4-6-6-13-8-21l49-6c3 16 16 24 34 25 40 0 42-37 40-79-11 22-30 35-61 35-53 0-70-43-70-97 0-56 18-96 73-97 30 0 46 14 59 34l2-30h47zm-90-29c32 0 41-27 41-63 0-35-9-62-40-62-32 0-39 29-40 63 0 36 9 62 39 62" id="aa"/><path fill="#3a414a" d="M220-157c-53 9-28 100-34 157h-49v-107c1-27-5-49-29-50C55-147 81-57 75 0H25l-1-190h47c2 12-1 28 3 38 10-53 101-56 108 0 13-22 24-43 59-42 82 1 51 116 57 194h-49v-107c-1-25-5-48-29-50" id="ab"/><g id="c"><use transform="matrix(0.06234567901234565,0,0,0.06234567901234565,0,0)" xlink:href="#Y"/><use transform="matrix(0.06234567901234565,0,0,0.06234567901234565,18.64135802469135,0)" xlink:href="#U"/><use transform="matrix(0.06234567901234565,0,0,0.06234567901234565,31.110493827160482,0)" xlink:href="#Z"/><use transform="matrix(0.06234567901234565,0,0,0.06234567901234565,44.76419753086418,0)" xlink:href="#U"/><use transform="matrix(0.06234567901234565,0,0,0.06234567901234565,57.23333333333331,0)" xlink:href="#aa"/><use transform="matrix(0.06234567901234565,0,0,0.06234567901234565,70.887037037037,0)" xlink:href="#S"/><use transform="matrix(0.06234567901234565,0,0,0.06234567901234565,83.35617283950613,0)" xlink:href="#ab"/><use transform="matrix(0.06234567901234565,0,0,0.06234567901234565,103.30679012345674,0)" xlink:href="#S"/><use transform="matrix(0.06234567901234565,0,0,0.06234567901234565,115.77592592592586,0)" xlink:href="#Z"/><use transform="matrix(0.06234567901234565,0,0,0.06234567901234565,129.42962962962957,0)" xlink:href="#W"/></g><path fill="#3a414a" d="M110-194c64 0 96 36 96 99 0 64-35 99-97 99-61 0-95-36-95-99 0-62 34-99 96-99zm-1 164c35 0 45-28 45-65 0-40-10-65-43-65-34 0-45 26-45 65 0 36 10 65 43 65" id="ac"/><path fill="#3a414a" d="M135-194c52 0 70 43 70 98 0 56-19 99-73 100-30 1-46-15-58-35L72 0H24l1-261h50v104c11-23 29-37 60-37zM114-30c31 0 40-27 40-66 0-37-7-63-39-63s-41 28-41 65c0 36 8 64 40 64" id="ad"/><path fill="#3a414a" d="M25-224v-37h50v37H25zM25 0v-190h50V0H25" id="ae"/><g id="d"><use transform="matrix(0.06234567901234565,0,0,0.06234567901234565,0,0)" xlink:href="#Y"/><use transform="matrix(0.06234567901234565,0,0,0.06234567901234565,18.64135802469135,0)" xlink:href="#ac"/><use transform="matrix(0.06234567901234565,0,0,0.06234567901234565,32.29506172839505,0)" xlink:href="#ad"/><use transform="matrix(0.06234567901234565,0,0,0.06234567901234565,45.948765432098746,0)" xlink:href="#ae"/><use transform="matrix(0.06234567901234565,0,0,0.06234567901234565,52.18333333333331,0)" xlink:href="#V"/><use transform="matrix(0.06234567901234565,0,0,0.06234567901234565,58.41790123456787,0)" xlink:href="#S"/></g><path fill="#3a414a" d="M199 0l-22-63H83L61 0H9l90-248h61L250 0h-51zm-33-102l-36-108c-10 38-24 72-36 108h72" id="af"/><path fill="#3a414a" d="M135-194c53 0 70 44 70 98 0 56-19 98-73 100-31 1-45-17-59-34 3 33 2 69 2 105H25l-1-265h48c2 10 0 23 3 31 11-24 29-35 60-35zM114-30c33 0 39-31 40-66 0-38-9-64-40-64-56 0-55 130 0 130" id="ag"/><g id="e"><use transform="matrix(0.06234567901234565,0,0,0.06234567901234565,0,0)" xlink:href="#af"/><use transform="matrix(0.06234567901234565,0,0,0.06234567901234565,16.147530864197524,0)" xlink:href="#ag"/><use transform="matrix(0.06234567901234565,0,0,0.06234567901234565,29.801234567901222,0)" xlink:href="#ag"/></g><path fill="#3a414a" d="M14-72v-43h91v43H14" id="ah"/><use transform="matrix(0.06234567901234565,0,0,0.06234567901234565,0,0)" xlink:href="#ah" id="f"/><path fill="#3a414a" d="M88-194c31-1 46 15 58 34l-1-101h50l1 261h-48c-2-10 0-23-3-31C134-8 116 4 84 4 32 4 16-41 15-95c0-56 19-97 73-99zm17 164c33 0 40-30 41-66 1-37-9-64-41-64s-38 30-39 65c0 43 13 65 39 65" id="ai"/><path fill="#3a414a" d="M190-63c-7 42-38 67-86 67-59 0-84-38-90-98-12-110 154-137 174-36l-49 2c-2-19-15-32-35-32-30 0-35 28-38 64-6 74 65 87 74 30" id="aj"/><g id="g"><use transform="matrix(0.06234567901234565,0,0,0.06234567901234565,0,0)" xlink:href="#Y"/><use transform="matrix(0.06234567901234565,0,0,0.06234567901234565,18.64135802469135,0)" xlink:href="#S"/><use transform="matrix(0.06234567901234565,0,0,0.06234567901234565,31.110493827160482,0)" xlink:href="#ai"/><use transform="matrix(0.06234567901234565,0,0,0.06234567901234565,44.76419753086418,0)" xlink:href="#ae"/><use transform="matrix(0.06234567901234565,0,0,0.06234567901234565,50.99876543209874,0)" xlink:href="#aj"/><use transform="matrix(0.06234567901234565,0,0,0.06234567901234565,63.467901234567876,0)" xlink:href="#U"/><use transform="matrix(0.06234567901234565,0,0,0.06234567901234565,75.937037037037,0)" xlink:href="#W"/><use transform="matrix(0.06234567901234565,0,0,0.06234567901234565,83.35617283950613,0)" xlink:href="#ae"/><use transform="matrix(0.06234567901234565,0,0,0.06234567901234565,89.5907407407407,0)" xlink:href="#ac"/><use transform="matrix(0.06234567901234565,0,0,0.06234567901234565,103.2444444444444,0)" xlink:href="#Z"/></g><path fill="#3a414a" d="M240-174c0 40-23 61-54 70L253 0h-59l-57-94H76V0H24v-248c93 4 217-23 216 74zM76-134c48-2 112 12 112-38 0-48-66-32-112-35v73" id="ak"/><path fill="#3a414a" d="M135-150c-39-12-60 13-60 57V0H25l-1-190h47c2 13-1 29 3 40 6-28 27-53 61-41v41" id="al"/><path fill="#3a414a" d="M137-138c1-29-70-34-71-4 15 46 118 7 119 86 1 83-164 76-172 9l43-7c4 19 20 25 44 25 33 8 57-30 24-41C81-84 22-81 20-136c-2-80 154-74 161-7" id="am"/><g id="h"><use transform="matrix(0.06234567901234565,0,0,0.06234567901234565,0,0)" xlink:href="#ak"/><use transform="matrix(0.06234567901234565,0,0,0.06234567901234565,16.147530864197524,0)" xlink:href="#S"/><use transform="matrix(0.06234567901234565,0,0,0.06234567901234565,28.616666666666653,0)" xlink:href="#ab"/><use transform="matrix(0.06234567901234565,0,0,0.06234567901234565,48.567283950617266,0)" xlink:href="#ae"/><use transform="matrix(0.06234567901234565,0,0,0.06234567901234565,54.80185185185183,0)" xlink:href="#Z"/><use transform="matrix(0.06234567901234565,0,0,0.06234567901234565,68.45555555555552,0)" xlink:href="#ai"/><use transform="matrix(0.06234567901234565,0,0,0.06234567901234565,82.10925925925922,0)" xlink:href="#S"/><use transform="matrix(0.06234567901234565,0,0,0.06234567901234565,94.57839506172834,0)" xlink:href="#al"/><use transform="matrix(0.06234567901234565,0,0,0.06234567901234565,103.30679012345674,0)" xlink:href="#am"/></g><path fill="#3a414a" d="M185-189c-5-48-123-54-124 2 14 75 158 14 163 119 3 78-121 87-175 55-17-10-28-26-33-46l33-7c5 56 141 63 141-1 0-78-155-14-162-118-5-82 145-84 179-34 5 7 8 16 11 25" id="an"/><path fill="#3a414a" d="M59-47c-2 24 18 29 38 22v24C64 9 27 4 27-40v-127H5v-23h24l9-43h21v43h35v23H59v120" id="ao"/><path fill="#3a414a" d="M100-194c62-1 85 37 85 99 1 63-27 99-86 99S16-35 15-95c0-66 28-99 85-99zM99-20c44 1 53-31 53-75 0-43-8-75-51-75s-53 32-53 75 10 74 51 75" id="ap"/><path fill="#3a414a" d="M114-163C36-179 61-72 57 0H25l-1-190h30c1 12-1 29 2 39 6-27 23-49 58-41v29" id="aq"/><path fill="#3a414a" d="M100-194c63 0 86 42 84 106H49c0 40 14 67 53 68 26 1 43-12 49-29l28 8c-11 28-37 45-77 45C44 4 14-33 15-96c1-61 26-98 85-98zm52 81c6-60-76-77-97-28-3 7-6 17-6 28h103" id="ar"/><path fill="#3a414a" d="M135-143c-3-34-86-38-87 0 15 53 115 12 119 90S17 21 10-45l28-5c4 36 97 45 98 0-10-56-113-15-118-90-4-57 82-63 122-42 12 7 21 19 24 35" id="as"/><g id="i"><use transform="matrix(0.049382716049382706,0,0,0.049382716049382706,0,0)" xlink:href="#an"/><use transform="matrix(0.049382716049382706,0,0,0.049382716049382706,11.85185185185185,0)" xlink:href="#ao"/><use transform="matrix(0.049382716049382706,0,0,0.049382716049382706,16.79012345679012,0)" xlink:href="#ap"/><use transform="matrix(0.049382716049382706,0,0,0.049382716049382706,26.66666666666666,0)" xlink:href="#aq"/><use transform="matrix(0.049382716049382706,0,0,0.049382716049382706,32.5432098765432,0)" xlink:href="#ar"/><use transform="matrix(0.049382716049382706,0,0,0.049382716049382706,42.419753086419746,0)" xlink:href="#as"/></g><path fill="#3a414a" d="M240 0l2-218c-23 76-54 145-80 218h-23L58-218 59 0H30v-248h44l77 211c21-75 51-140 76-211h43V0h-30" id="at"/><path fill="#3a414a" d="M85-194c31 0 48 13 60 33l-1-100h32l1 261h-30c-2-10 0-23-3-31C134-8 116 4 85 4 32 4 16-35 15-94c0-66 23-100 70-100zm9 24c-40 0-46 34-46 75 0 40 6 74 45 74 42 0 51-32 51-76 0-42-9-74-50-73" id="au"/><path fill="#3a414a" d="M24-231v-30h32v30H24zM24 0v-190h32V0H24" id="av"/><path fill="#3a414a" d="M96-169c-40 0-48 33-48 73s9 75 48 75c24 0 41-14 43-38l32 2c-6 37-31 61-74 61-59 0-76-41-82-99-10-93 101-131 147-64 4 7 5 14 7 22l-32 3c-4-21-16-35-41-35" id="aw"/><path fill="#3a414a" d="M141-36C126-15 110 5 73 4 37 3 15-17 15-53c-1-64 63-63 125-63 3-35-9-54-41-54-24 1-41 7-42 31l-33-3c5-37 33-52 76-52 45 0 72 20 72 64v82c-1 20 7 32 28 27v20c-31 9-61-2-59-35zM48-53c0 20 12 33 32 33 41-3 63-29 60-74-43 2-92-5-92 41" id="ax"/><path fill="#3a414a" d="M117-194c89-4 53 116 60 194h-32v-121c0-31-8-49-39-48C34-167 62-67 57 0H25l-1-190h30c1 10-1 24 2 32 11-22 29-35 61-36" id="ay"/><g id="j"><use transform="matrix(0.049382716049382706,0,0,0.049382716049382706,0,0)" xlink:href="#at"/><use transform="matrix(0.049382716049382706,0,0,0.049382716049382706,14.765432098765428,0)" xlink:href="#ar"/><use transform="matrix(0.049382716049382706,0,0,0.049382716049382706,24.641975308641968,0)" xlink:href="#au"/><use transform="matrix(0.049382716049382706,0,0,0.049382716049382706,34.518518518518505,0)" xlink:href="#av"/><use transform="matrix(0.049382716049382706,0,0,0.049382716049382706,38.41975308641974,0)" xlink:href="#aw"/><use transform="matrix(0.049382716049382706,0,0,0.049382716049382706,47.308641975308625,0)" xlink:href="#ax"/><use transform="matrix(0.049382716049382706,0,0,0.049382716049382706,57.18518518518516,0)" xlink:href="#ao"/><use transform="matrix(0.049382716049382706,0,0,0.049382716049382706,62.123456790123434,0)" xlink:href="#av"/><use transform="matrix(0.049382716049382706,0,0,0.049382716049382706,66.02469135802467,0)" xlink:href="#ap"/><use transform="matrix(0.049382716049382706,0,0,0.049382716049382706,75.90123456790121,0)" xlink:href="#ay"/></g><path fill="#3a414a" d="M30-248c118-7 216 8 213 122C240-48 200 0 122 0H30v-248zM63-27c89 8 146-16 146-99s-60-101-146-95v194" id="az"/><path fill="#3a414a" d="M24 0v-261h32V0H24" id="aA"/><g id="k"><use transform="matrix(0.049382716049382706,0,0,0.049382716049382706,0,0)" xlink:href="#az"/><use transform="matrix(0.049382716049382706,0,0,0.049382716049382706,12.790123456790122,0)" xlink:href="#ar"/><use transform="matrix(0.049382716049382706,0,0,0.049382716049382706,22.666666666666664,0)" xlink:href="#ao"/><use transform="matrix(0.049382716049382706,0,0,0.049382716049382706,27.60493827160494,0)" xlink:href="#ax"/><use transform="matrix(0.049382716049382706,0,0,0.049382716049382706,37.48148148148148,0)" xlink:href="#av"/><use transform="matrix(0.049382716049382706,0,0,0.049382716049382706,41.382716049382715,0)" xlink:href="#aA"/><use transform="matrix(0.049382716049382706,0,0,0.049382716049382706,45.28395061728395,0)" xlink:href="#as"/></g><path fill="#3a414a" d="M137 0h-34L2-248h35l83 218 83-218h36" id="aB"/><path fill="#3a414a" d="M206 0h-36l-40-164L89 0H53L-1-190h32L70-26l43-164h34l41 164 42-164h31" id="aC"/><g id="l"><use transform="matrix(0.049382716049382706,0,0,0.049382716049382706,0,0)" xlink:href="#aB"/><use transform="matrix(0.049382716049382706,0,0,0.049382716049382706,11.50617283950617,0)" xlink:href="#av"/><use transform="matrix(0.049382716049382706,0,0,0.049382716049382706,15.407407407407405,0)" xlink:href="#ar"/><use transform="matrix(0.049382716049382706,0,0,0.049382716049382706,25.283950617283946,0)" xlink:href="#aC"/><use transform="matrix(0.049382716049382706,0,0,0.049382716049382706,38.07407407407407,0)" xlink:href="#as"/></g><g id="m"><use transform="matrix(0.049382716049382706,0,0,0.049382716049382706,0,0)" xlink:href="#at"/><use transform="matrix(0.049382716049382706,0,0,0.049382716049382706,14.765432098765428,0)" xlink:href="#ar"/><use transform="matrix(0.049382716049382706,0,0,0.049382716049382706,24.641975308641968,0)" xlink:href="#au"/><use transform="matrix(0.049382716049382706,0,0,0.049382716049382706,34.518518518518505,0)" xlink:href="#av"/><use transform="matrix(0.049382716049382706,0,0,0.049382716049382706,38.41975308641974,0)" xlink:href="#aw"/><use transform="matrix(0.049382716049382706,0,0,0.049382716049382706,47.308641975308625,0)" xlink:href="#ax"/><use transform="matrix(0.049382716049382706,0,0,0.049382716049382706,57.18518518518516,0)" xlink:href="#ao"/><use transform="matrix(0.049382716049382706,0,0,0.049382716049382706,62.123456790123434,0)" xlink:href="#av"/><use transform="matrix(0.049382716049382706,0,0,0.049382716049382706,66.02469135802467,0)" xlink:href="#ap"/><use transform="matrix(0.049382716049382706,0,0,0.049382716049382706,75.90123456790121,0)" xlink:href="#ay"/></g><path fill="#3a414a" d="M115-194c53 0 69 39 70 98 0 66-23 100-70 100C84 3 66-7 56-30L54 0H23l1-261h32v101c10-23 28-34 59-34zm-8 174c40 0 45-34 45-75 0-40-5-75-45-74-42 0-51 32-51 76 0 43 10 73 51 73" id="aD"/><g id="n"><use transform="matrix(0.06172839506172839,0,0,0.06172839506172839,0,0)" xlink:href="#az"/><use transform="matrix(0.06172839506172839,0,0,0.06172839506172839,15.987654320987653,0)" xlink:href="#ax"/><use transform="matrix(0.06172839506172839,0,0,0.06172839506172839,28.333333333333332,0)" xlink:href="#ao"/><use transform="matrix(0.06172839506172839,0,0,0.06172839506172839,34.50617283950617,0)" xlink:href="#ax"/><use transform="matrix(0.06172839506172839,0,0,0.06172839506172839,46.85185185185185,0)" xlink:href="#aD"/><use transform="matrix(0.06172839506172839,0,0,0.06172839506172839,59.197530864197525,0)" xlink:href="#ax"/><use transform="matrix(0.06172839506172839,0,0,0.06172839506172839,71.5432098765432,0)" xlink:href="#as"/><use transform="matrix(0.06172839506172839,0,0,0.06172839506172839,82.65432098765432,0)" xlink:href="#ar"/></g><path fill="#3a414a" d="M232-93c-1 65-40 97-104 97C67 4 28-28 28-90v-158h33c8 89-33 224 67 224 102 0 64-133 71-224h33v155" id="aE"/><g id="o"><use transform="matrix(0.06172839506172839,0,0,0.06172839506172839,0,0)" xlink:href="#aE"/><use transform="matrix(0.06172839506172839,0,0,0.06172839506172839,15.987654320987653,0)" xlink:href="#as"/><use transform="matrix(0.06172839506172839,0,0,0.06172839506172839,27.098765432098766,0)" xlink:href="#ar"/><use transform="matrix(0.06172839506172839,0,0,0.06172839506172839,39.44444444444444,0)" xlink:href="#aq"/></g><path fill="#3a414a" d="M205 0l-28-72H64L36 0H1l101-248h38L239 0h-34zm-38-99l-47-123c-12 45-31 82-46 123h93" id="aF"/><path fill="#3a414a" d="M108 0H70L1-190h34L89-25l56-165h34" id="aG"/><path fill="#3a414a" d="M179-190L93 31C79 59 56 82 12 73V49c39 6 53-20 64-50L1-190h34L92-34l54-156h33" id="aH"/><g id="p"><use transform="matrix(0.06172839506172839,0,0,0.06172839506172839,0,0)" xlink:href="#aF"/><use transform="matrix(0.06172839506172839,0,0,0.06172839506172839,14.814814814814813,0)" xlink:href="#aw"/><use transform="matrix(0.06172839506172839,0,0,0.06172839506172839,25.925925925925924,0)" xlink:href="#ao"/><use transform="matrix(0.06172839506172839,0,0,0.06172839506172839,32.098765432098766,0)" xlink:href="#av"/><use transform="matrix(0.06172839506172839,0,0,0.06172839506172839,36.97530864197531,0)" xlink:href="#aG"/><use transform="matrix(0.06172839506172839,0,0,0.06172839506172839,48.08641975308642,0)" xlink:href="#av"/><use transform="matrix(0.06172839506172839,0,0,0.06172839506172839,52.96296296296296,0)" xlink:href="#ao"/><use transform="matrix(0.06172839506172839,0,0,0.06172839506172839,59.135802469135804,0)" xlink:href="#aH"/></g><g id="q"><use transform="matrix(0.06172839506172839,0,0,0.06172839506172839,0,0)" xlink:href="#an"/><use transform="matrix(0.06172839506172839,0,0,0.06172839506172839,14.814814814814813,0)" xlink:href="#ar"/><use transform="matrix(0.06172839506172839,0,0,0.06172839506172839,27.160493827160494,0)" xlink:href="#aq"/><use transform="matrix(0.06172839506172839,0,0,0.06172839506172839,34.50617283950617,0)" xlink:href="#aG"/><use transform="matrix(0.06172839506172839,0,0,0.06172839506172839,45.61728395061728,0)" xlink:href="#av"/><use transform="matrix(0.06172839506172839,0,0,0.06172839506172839,50.49382716049382,0)" xlink:href="#aw"/><use transform="matrix(0.06172839506172839,0,0,0.06172839506172839,61.60493827160494,0)" xlink:href="#ar"/></g><path d="M195 0l-88-114-31 24V0H24v-248h52v113l112-113h60L142-143 257 0h-62" id="aI"/><path d="M185-48c-13 30-37 53-82 52C43 2 14-33 14-96s30-98 90-98c62 0 83 45 84 108H66c0 31 8 55 39 56 18 0 30-7 34-22zm-45-69c5-46-57-63-70-21-2 6-4 13-4 21h74" id="aJ"/><path d="M123 10C108 53 80 86 19 72V37c35 8 53-11 59-39L3-190h52l48 148c12-52 28-100 44-148h51" id="aK"/><g id="r"><use transform="matrix(0.04217232582068305,0,0,0.04217232582068305,0,0)" xlink:href="#aI"/><use transform="matrix(0.04217232582068305,0,0,0.04217232582068305,10.922632387556911,0)" xlink:href="#aJ"/><use transform="matrix(0.04217232582068305,0,0,0.04217232582068305,19.35709755169352,0)" xlink:href="#aK"/></g><path d="M232-93c-1 65-40 97-104 97C67 4 28-28 28-90v-158h33c8 89-33 224 67 224 102 0 64-133 71-224h33v155" id="aL"/><path d="M135-143c-3-34-86-38-87 0 15 53 115 12 119 90S17 21 10-45l28-5c4 36 97 45 98 0-10-56-113-15-118-90-4-57 82-63 122-42 12 7 21 19 24 35" id="aM"/><path d="M100-194c63 0 86 42 84 106H49c0 40 14 67 53 68 26 1 43-12 49-29l28 8c-11 28-37 45-77 45C44 4 14-33 15-96c1-61 26-98 85-98zm52 81c6-60-76-77-97-28-3 7-6 17-6 28h103" id="aN"/><path d="M114-163C36-179 61-72 57 0H25l-1-190h30c1 12-1 29 2 39 6-27 23-49 58-41v29" id="aO"/><path d="M47-170H22l-4-78h33" id="aP"/><g id="s"><use transform="matrix(0.04217232582068305,0,0,0.04217232582068305,0,0)" xlink:href="#aL"/><use transform="matrix(0.04217232582068305,0,0,0.04217232582068305,10.922632387556913,0)" xlink:href="#aM"/><use transform="matrix(0.04217232582068305,0,0,0.04217232582068305,18.513651035279864,0)" xlink:href="#aN"/><use transform="matrix(0.04217232582068305,0,0,0.04217232582068305,26.948116199416475,0)" xlink:href="#aO"/><use transform="matrix(0.04217232582068305,0,0,0.04217232582068305,31.966622972077765,0)" xlink:href="#aP"/><use transform="matrix(0.04217232582068305,0,0,0.04217232582068305,34.83434112788421,0)" xlink:href="#aM"/></g><g id="t"><use transform="matrix(0.04217232582068305,0,0,0.04217232582068305,0,0)" xlink:href="#aL"/><use transform="matrix(0.04217232582068305,0,0,0.04217232582068305,10.922632387556913,0)" xlink:href="#aM"/><use transform="matrix(0.04217232582068305,0,0,0.04217232582068305,18.513651035279864,0)" xlink:href="#aN"/></g><path d="M212-179c-10-28-35-45-73-45-59 0-87 40-87 99 0 60 29 101 89 101 43 0 62-24 78-52l27 14C228-24 195 4 139 4 59 4 22-46 18-125c-6-104 99-153 187-111 19 9 31 26 39 46" id="aQ"/><path d="M141-36C126-15 110 5 73 4 37 3 15-17 15-53c-1-64 63-63 125-63 3-35-9-54-41-54-24 1-41 7-42 31l-33-3c5-37 33-52 76-52 45 0 72 20 72 64v82c-1 20 7 32 28 27v20c-31 9-61-2-59-35zM48-53c0 20 12 33 32 33 41-3 63-29 60-74-43 2-92-5-92 41" id="aR"/><g id="u"><use transform="matrix(0.04217232582068305,0,0,0.04217232582068305,0,0)" xlink:href="#aQ"/><use transform="matrix(0.04217232582068305,0,0,0.04217232582068305,10.922632387556913,0)" xlink:href="#aR"/><use transform="matrix(0.04217232582068305,0,0,0.04217232582068305,19.357097551693524,0)" xlink:href="#aM"/><use transform="matrix(0.04217232582068305,0,0,0.04217232582068305,26.948116199416475,0)" xlink:href="#aN"/></g><path d="M30-248c118-7 216 8 213 122C240-48 200 0 122 0H30v-248zM63-27c89 8 146-16 146-99s-60-101-146-95v194" id="aS"/><path d="M59-47c-2 24 18 29 38 22v24C64 9 27 4 27-40v-127H5v-23h24l9-43h21v43h35v23H59v120" id="aT"/><path d="M115-194c53 0 69 39 70 98 0 66-23 100-70 100C84 3 66-7 56-30L54 0H23l1-261h32v101c10-23 28-34 59-34zm-8 174c40 0 45-34 45-75 0-40-5-75-45-74-42 0-51 32-51 76 0 43 10 73 51 73" id="aU"/><g id="v"><use transform="matrix(0.04217232582068305,0,0,0.04217232582068305,0,0)" xlink:href="#aS"/><use transform="matrix(0.04217232582068305,0,0,0.04217232582068305,10.922632387556913,0)" xlink:href="#aR"/><use transform="matrix(0.04217232582068305,0,0,0.04217232582068305,19.357097551693524,0)" xlink:href="#aT"/><use transform="matrix(0.04217232582068305,0,0,0.04217232582068305,23.57433013376183,0)" xlink:href="#aR"/><use transform="matrix(0.04217232582068305,0,0,0.04217232582068305,32.008795297898445,0)" xlink:href="#aU"/><use transform="matrix(0.04217232582068305,0,0,0.04217232582068305,40.44326046203505,0)" xlink:href="#aR"/><use transform="matrix(0.04217232582068305,0,0,0.04217232582068305,48.87772562617166,0)" xlink:href="#aM"/><use transform="matrix(0.04217232582068305,0,0,0.04217232582068305,56.468744273894615,0)" xlink:href="#aN"/><use transform="matrix(0.04217232582068305,0,0,0.04217232582068305,64.90320943803123,0)" xlink:href="#aP"/><use transform="matrix(0.04217232582068305,0,0,0.04217232582068305,67.77092759383767,0)" xlink:href="#aM"/></g><path d="M205 0l-28-72H64L36 0H1l101-248h38L239 0h-34zm-38-99l-47-123c-12 45-31 82-46 123h93" id="aV"/><path d="M96-169c-40 0-48 33-48 73s9 75 48 75c24 0 41-14 43-38l32 2c-6 37-31 61-74 61-59 0-76-41-82-99-10-93 101-131 147-64 4 7 5 14 7 22l-32 3c-4-21-16-35-41-35" id="aW"/><path d="M24-231v-30h32v30H24zM24 0v-190h32V0H24" id="aX"/><path d="M108 0H70L1-190h34L89-25l56-165h34" id="aY"/><path d="M179-190L93 31C79 59 56 82 12 73V49c39 6 53-20 64-50L1-190h34L92-34l54-156h33" id="aZ"/><g id="w"><use transform="matrix(0.04217232582068305,0,0,0.04217232582068305,0,0)" xlink:href="#aV"/><use transform="matrix(0.04217232582068305,0,0,0.04217232582068305,10.121358196963934,0)" xlink:href="#aW"/><use transform="matrix(0.04217232582068305,0,0,0.04217232582068305,17.712376844686887,0)" xlink:href="#aT"/><use transform="matrix(0.04217232582068305,0,0,0.04217232582068305,21.929609426755192,0)" xlink:href="#aX"/><use transform="matrix(0.04217232582068305,0,0,0.04217232582068305,25.261223166589154,0)" xlink:href="#aY"/><use transform="matrix(0.04217232582068305,0,0,0.04217232582068305,32.8522418143121,0)" xlink:href="#aX"/><use transform="matrix(0.04217232582068305,0,0,0.04217232582068305,36.183855554146064,0)" xlink:href="#aT"/><use transform="matrix(0.04217232582068305,0,0,0.04217232582068305,40.40108813621436,0)" xlink:href="#aZ"/><use transform="matrix(0.04217232582068305,0,0,0.04217232582068305,47.99210678393732,0)" xlink:href="#aP"/><use transform="matrix(0.04217232582068305,0,0,0.04217232582068305,50.859824939743774,0)" xlink:href="#aM"/></g><path d="M190 0L58-211 59 0H30v-248h39L202-35l-2-213h31V0h-41" id="ba"/><path d="M100-194c62-1 85 37 85 99 1 63-27 99-86 99S16-35 15-95c0-66 28-99 85-99zM99-20c44 1 53-31 53-75 0-43-8-75-51-75s-53 32-53 75 10 74 51 75" id="bb"/><path d="M101-234c-31-9-42 10-38 44h38v23H63V0H32v-167H5v-23h27c-7-52 17-82 69-68v24" id="bc"/><path d="M117-194c89-4 53 116 60 194h-32v-121c0-31-8-49-39-48C34-167 62-67 57 0H25l-1-190h30c1 10-1 24 2 32 11-22 29-35 61-36" id="bd"/><g id="x"><use transform="matrix(0.04217232582068305,0,0,0.04217232582068305,0,0)" xlink:href="#ba"/><use transform="matrix(0.04217232582068305,0,0,0.04217232582068305,10.922632387556913,0)" xlink:href="#bb"/><use transform="matrix(0.04217232582068305,0,0,0.04217232582068305,19.357097551693524,0)" xlink:href="#aT"/><use transform="matrix(0.04217232582068305,0,0,0.04217232582068305,23.57433013376183,0)" xlink:href="#aX"/><use transform="matrix(0.04217232582068305,0,0,0.04217232582068305,26.905943873595792,0)" xlink:href="#bc"/><use transform="matrix(0.04217232582068305,0,0,0.04217232582068305,31.123176455664098,0)" xlink:href="#aX"/><use transform="matrix(0.04217232582068305,0,0,0.04217232582068305,34.45479019549806,0)" xlink:href="#aW"/><use transform="matrix(0.04217232582068305,0,0,0.04217232582068305,42.04580884322101,0)" xlink:href="#aR"/><use transform="matrix(0.04217232582068305,0,0,0.04217232582068305,50.48027400735762,0)" xlink:href="#aT"/><use transform="matrix(0.04217232582068305,0,0,0.04217232582068305,54.69750658942593,0)" xlink:href="#aX"/><use transform="matrix(0.04217232582068305,0,0,0.04217232582068305,58.02912032925989,0)" xlink:href="#bb"/><use transform="matrix(0.04217232582068305,0,0,0.04217232582068305,66.4635854933965,0)" xlink:href="#bd"/><use transform="matrix(0.04217232582068305,0,0,0.04217232582068305,74.8980506575331,0)" xlink:href="#aP"/><use transform="matrix(0.04217232582068305,0,0,0.04217232582068305,77.76576881333955,0)" xlink:href="#aM"/></g><g id="y"><use transform="matrix(0.04217232582068305,0,0,0.04217232582068305,0,0)" xlink:href="#aV"/><use transform="matrix(0.04217232582068305,0,0,0.04217232582068305,10.121358196963934,0)" xlink:href="#aW"/><use transform="matrix(0.04217232582068305,0,0,0.04217232582068305,17.712376844686887,0)" xlink:href="#aT"/><use transform="matrix(0.04217232582068305,0,0,0.04217232582068305,21.929609426755192,0)" xlink:href="#bb"/><use transform="matrix(0.04217232582068305,0,0,0.04217232582068305,30.364074590891803,0)" xlink:href="#aO"/></g><path fill="#3a414a" d="M115-194c55 1 70 41 70 98S169 2 115 4C84 4 66-9 55-30l1 105H24l-1-265h31l2 30c10-21 28-34 59-34zm-8 174c40 0 45-34 45-75s-6-73-45-74c-42 0-51 32-51 76 0 43 10 73 51 73" id="be"/><g id="z"><use transform="matrix(0.049382716049382706,0,0,0.049382716049382706,0,0)" xlink:href="#aE"/><use transform="matrix(0.049382716049382706,0,0,0.049382716049382706,12.790123456790122,0)" xlink:href="#be"/><use transform="matrix(0.049382716049382706,0,0,0.049382716049382706,22.666666666666664,0)" xlink:href="#au"/><use transform="matrix(0.049382716049382706,0,0,0.049382716049382706,32.5432098765432,0)" xlink:href="#ax"/><use transform="matrix(0.049382716049382706,0,0,0.049382716049382706,42.419753086419746,0)" xlink:href="#ao"/><use transform="matrix(0.049382716049382706,0,0,0.049382716049382706,47.35802469135802,0)" xlink:href="#ar"/></g><path fill="#3a414a" d="M233-177c-1 41-23 64-60 70L243 0h-38l-65-103H63V0H30v-248c88 3 205-21 203 71zM63-129c60-2 137 13 137-47 0-61-80-42-137-45v92" id="bf"/><path fill="#3a414a" d="M210-169c-67 3-38 105-44 169h-31v-121c0-29-5-50-35-48C34-165 62-65 56 0H25l-1-190h30c1 10-1 24 2 32 10-44 99-50 107 0 11-21 27-35 58-36 85-2 47 119 55 194h-31v-121c0-29-5-49-35-48" id="bg"/><g id="A"><use transform="matrix(0.049382716049382706,0,0,0.049382716049382706,0,0)" xlink:href="#bf"/><use transform="matrix(0.049382716049382706,0,0,0.049382716049382706,12.790123456790122,0)" xlink:href="#ar"/><use transform="matrix(0.049382716049382706,0,0,0.049382716049382706,22.666666666666664,0)" xlink:href="#bg"/><use transform="matrix(0.049382716049382706,0,0,0.049382716049382706,37.432098765432094,0)" xlink:href="#av"/><use transform="matrix(0.049382716049382706,0,0,0.049382716049382706,41.33333333333333,0)" xlink:href="#ay"/><use transform="matrix(0.049382716049382706,0,0,0.049382716049382706,51.20987654320988,0)" xlink:href="#au"/><use transform="matrix(0.049382716049382706,0,0,0.049382716049382706,61.08641975308642,0)" xlink:href="#ar"/><use transform="matrix(0.049382716049382706,0,0,0.049382716049382706,70.96296296296296,0)" xlink:href="#aq"/><use transform="matrix(0.049382716049382706,0,0,0.049382716049382706,76.8395061728395,0)" xlink:href="#as"/></g><g id="B"><use transform="matrix(0.049382716049382706,0,0,0.049382716049382706,0,0)" xlink:href="#aF"/><use transform="matrix(0.049382716049382706,0,0,0.049382716049382706,11.85185185185185,0)" xlink:href="#au"/><use transform="matrix(0.049382716049382706,0,0,0.049382716049382706,21.728395061728392,0)" xlink:href="#au"/><use transform="matrix(0.049382716049382706,0,0,0.049382716049382706,31.604938271604933,0)" xlink:href="#as"/></g><path d="M30-248c87 1 191-15 191 75 0 78-77 80-158 76V0H30v-248zm33 125c57 0 124 11 124-50 0-59-68-47-124-48v98" id="bh"/><path d="M115-194c55 1 70 41 70 98S169 2 115 4C84 4 66-9 55-30l1 105H24l-1-265h31l2 30c10-21 28-34 59-34zm-8 174c40 0 45-34 45-75s-6-73-45-74c-42 0-51 32-51 76 0 43 10 73 51 73" id="bi"/><path d="M84 4C-5 8 30-112 23-190h32v120c0 31 7 50 39 49 72-2 45-101 50-169h31l1 190h-30c-1-10 1-25-2-33-11 22-28 36-60 37" id="bj"/><path d="M24 0v-261h32V0H24" id="bk"/><g id="C"><use transform="matrix(0.05,0,0,0.05,0,0)" xlink:href="#bh"/><use transform="matrix(0.05,0,0,0.05,12,0)" xlink:href="#bb"/><use transform="matrix(0.05,0,0,0.05,22,0)" xlink:href="#bi"/><use transform="matrix(0.05,0,0,0.05,32,0)" xlink:href="#bj"/><use transform="matrix(0.05,0,0,0.05,42,0)" xlink:href="#bk"/><use transform="matrix(0.05,0,0,0.05,45.95,0)" xlink:href="#aR"/><use transform="matrix(0.05,0,0,0.05,55.95,0)" xlink:href="#aT"/><use transform="matrix(0.05,0,0,0.05,60.95,0)" xlink:href="#aN"/><use transform="matrix(0.05,0,0,0.05,70.95,0)" xlink:href="#aM"/></g><path d="M240 0l2-218c-23 76-54 145-80 218h-23L58-218 59 0H30v-248h44l77 211c21-75 51-140 76-211h43V0h-30" id="bl"/><path d="M85-194c31 0 48 13 60 33l-1-100h32l1 261h-30c-2-10 0-23-3-31C134-8 116 4 85 4 32 4 16-35 15-94c0-66 23-100 70-100zm9 24c-40 0-46 34-46 75 0 40 6 74 45 74 42 0 51-32 51-76 0-42-9-74-50-73" id="bm"/><g id="D"><use transform="matrix(0.05,0,0,0.05,0,0)" xlink:href="#bl"/><use transform="matrix(0.05,0,0,0.05,14.950000000000001,0)" xlink:href="#aN"/><use transform="matrix(0.05,0,0,0.05,24.950000000000003,0)" xlink:href="#bm"/><use transform="matrix(0.05,0,0,0.05,34.95,0)" xlink:href="#aX"/><use transform="matrix(0.05,0,0,0.05,38.900000000000006,0)" xlink:href="#aW"/><use transform="matrix(0.05,0,0,0.05,47.900000000000006,0)" xlink:href="#aR"/><use transform="matrix(0.05,0,0,0.05,57.900000000000006,0)" xlink:href="#aT"/><use transform="matrix(0.05,0,0,0.05,62.900000000000006,0)" xlink:href="#aX"/><use transform="matrix(0.05,0,0,0.05,66.85000000000001,0)" xlink:href="#bb"/><use transform="matrix(0.05,0,0,0.05,76.85000000000001,0)" xlink:href="#bd"/></g><path d="M233-177c-1 41-23 64-60 70L243 0h-38l-65-103H63V0H30v-248c88 3 205-21 203 71zM63-129c60-2 137 13 137-47 0-61-80-42-137-45v92" id="bn"/><path d="M210-169c-67 3-38 105-44 169h-31v-121c0-29-5-50-35-48C34-165 62-65 56 0H25l-1-190h30c1 10-1 24 2 32 10-44 99-50 107 0 11-21 27-35 58-36 85-2 47 119 55 194h-31v-121c0-29-5-49-35-48" id="bo"/><g id="E"><use transform="matrix(0.05,0,0,0.05,0,0)" xlink:href="#bn"/><use transform="matrix(0.05,0,0,0.05,12.950000000000001,0)" xlink:href="#aN"/><use transform="matrix(0.05,0,0,0.05,22.950000000000003,0)" xlink:href="#bo"/><use transform="matrix(0.05,0,0,0.05,37.900000000000006,0)" xlink:href="#aX"/><use transform="matrix(0.05,0,0,0.05,41.85000000000001,0)" xlink:href="#bd"/><use transform="matrix(0.05,0,0,0.05,51.85,0)" xlink:href="#bm"/><use transform="matrix(0.05,0,0,0.05,61.85,0)" xlink:href="#aN"/><use transform="matrix(0.05,0,0,0.05,71.85000000000001,0)" xlink:href="#aO"/><use transform="matrix(0.05,0,0,0.05,77.80000000000001,0)" xlink:href="#aM"/></g><g id="F"><use transform="matrix(0.05,0,0,0.05,0,0)" xlink:href="#aX"/><use transform="matrix(0.05,0,0,0.05,3.95,0)" xlink:href="#bd"/></g><path d="M33 0v-248h34V0H33" id="bp"/><g id="G"><use transform="matrix(0.05,0,0,0.05,0,0)" xlink:href="#aL"/><use transform="matrix(0.05,0,0,0.05,12.950000000000001,0)" xlink:href="#bp"/></g><path fill="#333" d="M15-91v-56l181-69v40L49-119l147 57v40" id="bq"/><path fill="#333" d="M25-224v-37h50v37H25zM25 0v-190h50V0H25" id="br"/><path fill="#333" d="M135-194c87-1 58 113 63 194h-50c-7-57 23-157-34-157-59 0-34 97-39 157H25l-1-190h47c2 12-1 28 3 38 12-26 28-41 61-42" id="bs"/><path fill="#333" d="M190-63c-7 42-38 67-86 67-59 0-84-38-90-98-12-110 154-137 174-36l-49 2c-2-19-15-32-35-32-30 0-35 28-38 64-6 74 65 87 74 30" id="bt"/><path fill="#333" d="M25 0v-261h50V0H25" id="bu"/><path fill="#333" d="M85 4C-2 5 27-109 22-190h50c7 57-23 150 33 157 60-5 35-97 40-157h50l1 190h-47c-2-12 1-28-3-38-12 25-28 42-61 42" id="bv"/><path fill="#333" d="M88-194c31-1 46 15 58 34l-1-101h50l1 261h-48c-2-10 0-23-3-31C134-8 116 4 84 4 32 4 16-41 15-95c0-56 19-97 73-99zm17 164c33 0 40-30 41-66 1-37-9-64-41-64s-38 30-39 65c0 43 13 65 39 65" id="bw"/><path fill="#333" d="M185-48c-13 30-37 53-82 52C43 2 14-33 14-96s30-98 90-98c62 0 83 45 84 108H66c0 31 8 55 39 56 18 0 30-7 34-22zm-45-69c5-46-57-63-70-21-2 6-4 13-4 21h74" id="bx"/><path fill="#333" d="M15-22v-40l146-57-146-57v-40l181 69v56" id="by"/><g id="H"><use transform="matrix(0.04938271604938272,0,0,0.04938271604938272,0,0)" xlink:href="#bq"/><use transform="matrix(0.04938271604938272,0,0,0.04938271604938272,10.370370370370372,0)" xlink:href="#bq"/><use transform="matrix(0.04938271604938272,0,0,0.04938271604938272,20.740740740740744,0)" xlink:href="#br"/><use transform="matrix(0.04938271604938272,0,0,0.04938271604938272,25.679012345679016,0)" xlink:href="#bs"/><use transform="matrix(0.04938271604938272,0,0,0.04938271604938272,36.49382716049383,0)" xlink:href="#bt"/><use transform="matrix(0.04938271604938272,0,0,0.04938271604938272,46.370370370370374,0)" xlink:href="#bu"/><use transform="matrix(0.04938271604938272,0,0,0.04938271604938272,51.308641975308646,0)" xlink:href="#bv"/><use transform="matrix(0.04938271604938272,0,0,0.04938271604938272,62.12345679012346,0)" xlink:href="#bw"/><use transform="matrix(0.04938271604938272,0,0,0.04938271604938272,72.93827160493828,0)" xlink:href="#bx"/><use transform="matrix(0.04938271604938272,0,0,0.04938271604938272,82.81481481481482,0)" xlink:href="#by"/><use transform="matrix(0.04938271604938272,0,0,0.04938271604938272,93.18518518518519,0)" xlink:href="#by"/></g><g id="I"><use transform="matrix(0.05,0,0,0.05,0,0)" xlink:href="#bn"/><use transform="matrix(0.05,0,0,0.05,12.950000000000001,0)" xlink:href="#aN"/><use transform="matrix(0.05,0,0,0.05,22.950000000000003,0)" xlink:href="#bi"/><use transform="matrix(0.05,0,0,0.05,32.95,0)" xlink:href="#bb"/><use transform="matrix(0.05,0,0,0.05,42.95,0)" xlink:href="#bi"/><use transform="matrix(0.05,0,0,0.05,52.95,0)" xlink:href="#bj"/><use transform="matrix(0.05,0,0,0.05,62.95,0)" xlink:href="#bk"/><use transform="matrix(0.05,0,0,0.05,66.9,0)" xlink:href="#aR"/><use transform="matrix(0.05,0,0,0.05,76.9,0)" xlink:href="#aT"/><use transform="matrix(0.05,0,0,0.05,81.9,0)" xlink:href="#aN"/><use transform="matrix(0.05,0,0,0.05,91.9,0)" xlink:href="#aM"/></g><g id="J"><use transform="matrix(0.049382716049382706,0,0,0.049382716049382706,0,0)" xlink:href="#az"/><use transform="matrix(0.049382716049382706,0,0,0.049382716049382706,12.790123456790122,0)" xlink:href="#ar"/><use transform="matrix(0.049382716049382706,0,0,0.049382716049382706,22.666666666666664,0)" xlink:href="#aA"/><use transform="matrix(0.049382716049382706,0,0,0.049382716049382706,26.567901234567895,0)" xlink:href="#ar"/><use transform="matrix(0.049382716049382706,0,0,0.049382716049382706,36.44444444444444,0)" xlink:href="#ao"/><use transform="matrix(0.049382716049382706,0,0,0.049382716049382706,41.382716049382715,0)" xlink:href="#ar"/></g><g id="K"><use transform="matrix(0.049382716049382706,0,0,0.049382716049382706,0,0)" xlink:href="#aE"/><use transform="matrix(0.049382716049382706,0,0,0.049382716049382706,12.790123456790122,0)" xlink:href="#be"/><use transform="matrix(0.049382716049382706,0,0,0.049382716049382706,22.666666666666664,0)" xlink:href="#au"/><use transform="matrix(0.049382716049382706,0,0,0.049382716049382706,32.5432098765432,0)" xlink:href="#ax"/><use transform="matrix(0.049382716049382706,0,0,0.049382716049382706,42.419753086419746,0)" xlink:href="#ao"/><use transform="matrix(0.049382716049382706,0,0,0.049382716049382706,47.35802469135802,0)" xlink:href="#ar"/><use transform="matrix(0.049382716049382706,0,0,0.049382716049382706,57.234567901234556,0)" xlink:href="#as"/></g><path fill="#3a414a" d="M212-179c-10-28-35-45-73-45-59 0-87 40-87 99 0 60 29 101 89 101 43 0 62-24 78-52l27 14C228-24 195 4 139 4 59 4 22-46 18-125c-6-104 99-153 187-111 19 9 31 26 39 46" id="bz"/><path fill="#3a414a" d="M177-190C167-65 218 103 67 71c-23-6-38-20-44-43l32-5c15 47 100 32 89-28v-30C133-14 115 1 83 1 29 1 15-40 15-95c0-56 16-97 71-98 29-1 48 16 59 35 1-10 0-23 2-32h30zM94-22c36 0 50-32 50-73 0-42-14-75-50-75-39 0-46 34-46 75s6 73 46 73" id="bA"/><g id="L"><use transform="matrix(0.049382716049382706,0,0,0.049382716049382706,0,0)" xlink:href="#bz"/><use transform="matrix(0.049382716049382706,0,0,0.049382716049382706,12.790123456790122,0)" xlink:href="#ap"/><use transform="matrix(0.049382716049382706,0,0,0.049382716049382706,22.666666666666664,0)" xlink:href="#aq"/><use transform="matrix(0.049382716049382706,0,0,0.049382716049382706,28.543209876543205,0)" xlink:href="#aq"/><use transform="matrix(0.049382716049382706,0,0,0.049382716049382706,34.419753086419746,0)" xlink:href="#ar"/><use transform="matrix(0.049382716049382706,0,0,0.049382716049382706,44.29629629629629,0)" xlink:href="#as"/><use transform="matrix(0.049382716049382706,0,0,0.049382716049382706,53.185185185185176,0)" xlink:href="#be"/><use transform="matrix(0.049382716049382706,0,0,0.049382716049382706,63.061728395061714,0)" xlink:href="#ap"/><use transform="matrix(0.049382716049382706,0,0,0.049382716049382706,72.93827160493827,0)" xlink:href="#ay"/><use transform="matrix(0.049382716049382706,0,0,0.049382716049382706,82.81481481481481,0)" xlink:href="#au"/><use transform="matrix(0.049382716049382706,0,0,0.049382716049382706,92.69135802469135,0)" xlink:href="#av"/><use transform="matrix(0.049382716049382706,0,0,0.049382716049382706,96.59259259259258,0)" xlink:href="#ay"/><use transform="matrix(0.049382716049382706,0,0,0.049382716049382706,106.46913580246911,0)" xlink:href="#bA"/></g><g id="M"><use transform="matrix(0.049382716049382706,0,0,0.049382716049382706,0,0)" xlink:href="#at"/><use transform="matrix(0.049382716049382706,0,0,0.049382716049382706,14.765432098765428,0)" xlink:href="#ar"/><use transform="matrix(0.049382716049382706,0,0,0.049382716049382706,24.641975308641968,0)" xlink:href="#au"/><use transform="matrix(0.049382716049382706,0,0,0.049382716049382706,34.518518518518505,0)" xlink:href="#av"/><use transform="matrix(0.049382716049382706,0,0,0.049382716049382706,38.41975308641974,0)" xlink:href="#aw"/><use transform="matrix(0.049382716049382706,0,0,0.049382716049382706,47.308641975308625,0)" xlink:href="#ax"/><use transform="matrix(0.049382716049382706,0,0,0.049382716049382706,57.18518518518516,0)" xlink:href="#ao"/><use transform="matrix(0.049382716049382706,0,0,0.049382716049382706,62.123456790123434,0)" xlink:href="#av"/><use transform="matrix(0.049382716049382706,0,0,0.049382716049382706,66.02469135802467,0)" xlink:href="#ap"/><use transform="matrix(0.049382716049382706,0,0,0.049382716049382706,75.90123456790121,0)" xlink:href="#ay"/></g><g id="N"><use transform="matrix(0.049382716049382706,0,0,0.049382716049382706,0,0)" xlink:href="#bf"/><use transform="matrix(0.049382716049382706,0,0,0.049382716049382706,12.790123456790122,0)" xlink:href="#ar"/><use transform="matrix(0.049382716049382706,0,0,0.049382716049382706,22.666666666666664,0)" xlink:href="#bg"/><use transform="matrix(0.049382716049382706,0,0,0.049382716049382706,37.432098765432094,0)" xlink:href="#av"/><use transform="matrix(0.049382716049382706,0,0,0.049382716049382706,41.33333333333333,0)" xlink:href="#ay"/><use transform="matrix(0.049382716049382706,0,0,0.049382716049382706,51.20987654320988,0)" xlink:href="#au"/><use transform="matrix(0.049382716049382706,0,0,0.049382716049382706,61.08641975308642,0)" xlink:href="#ar"/><use transform="matrix(0.049382716049382706,0,0,0.049382716049382706,70.96296296296296,0)" xlink:href="#aq"/></g><g id="O"><use transform="matrix(0.049382716049382706,0,0,0.049382716049382706,0,0)" xlink:href="#bf"/><use transform="matrix(0.049382716049382706,0,0,0.049382716049382706,12.790123456790122,0)" xlink:href="#ar"/><use transform="matrix(0.049382716049382706,0,0,0.049382716049382706,22.666666666666664,0)" xlink:href="#bg"/><use transform="matrix(0.049382716049382706,0,0,0.049382716049382706,37.432098765432094,0)" xlink:href="#ap"/><use transform="matrix(0.049382716049382706,0,0,0.049382716049382706,47.30864197530863,0)" xlink:href="#aG"/><use transform="matrix(0.049382716049382706,0,0,0.049382716049382706,56.19753086419752,0)" xlink:href="#ar"/><use transform="matrix(0.049382716049382706,0,0,0.049382716049382706,66.07407407407406,0)" xlink:href="#as"/></g><g id="P"><use transform="matrix(0.049382716049382706,0,0,0.049382716049382706,0,0)" xlink:href="#ar"/><use transform="matrix(0.049382716049382706,0,0,0.049382716049382706,9.87654320987654,0)" xlink:href="#ay"/><use transform="matrix(0.049382716049382706,0,0,0.049382716049382706,19.75308641975308,0)" xlink:href="#ao"/><use transform="matrix(0.049382716049382706,0,0,0.049382716049382706,24.691358024691354,0)" xlink:href="#aq"/><use transform="matrix(0.049382716049382706,0,0,0.049382716049382706,30.567901234567895,0)" xlink:href="#aH"/></g></defs></g></svg>