<svg xmlns="http://www.w3.org/2000/svg" xmlns:xlink="http://www.w3.org/1999/xlink" xmlns:lucid="lucid" width="1765.53" height="2150.36"><g transform="translate(961 609.8576669336007)" lucid:page-tab-id="H2UjPWUCz4dR"><path d="M-1000-1000h2000v3000h-2000z" fill="#fff"/><path d="M-284.3-580.86a8 8 0 0 1 8-8H352a8 8 0 0 1 8 8V1512a8 8 0 0 1-8 8h-628.3a8 8 0 0 1-8-8z" stroke="#000" fill-opacity="0"/><use xlink:href="#a" transform="matrix(1,0,0,1,-276.2864190061821,-580.8576669336007) translate(8.93765432098786 21.511111111111102)"/><use xlink:href="#b" transform="matrix(1,0,0,1,-276.2864190061821,-580.8576669336007) translate(64.20925925925944 21.511111111111102)"/><use xlink:href="#c" transform="matrix(1,0,0,1,-276.2864190061821,-580.8576669336007) translate(153.61481481481493 21.511111111111102)"/><use xlink:href="#d" transform="matrix(1,0,0,1,-276.2864190061821,-580.8576669336007) translate(325.03148148148153 21.511111111111102)"/><use xlink:href="#e" transform="matrix(1,0,0,1,-276.2864190061821,-580.8576669336007) translate(417.4246913580247 21.511111111111102)"/><use xlink:href="#f" transform="matrix(1,0,0,1,-276.2864190061821,-580.8576669336007) translate(476.95370370370364 21.511111111111102)"/><use xlink:href="#g" transform="matrix(1,0,0,1,-276.2864190061821,-580.8576669336007) translate(493.311111111111 21.511111111111102)"/><use xlink:href="#h" transform="matrix(1,0,0,1,-276.2864190061821,-580.8576669336007) translate(36.05061728395083 53.77777777777776)"/><use xlink:href="#i" transform="matrix(1,0,0,1,-276.2864190061821,-580.8576669336007) translate(91.172839506173 53.77777777777776)"/><use xlink:href="#j" transform="matrix(1,0,0,1,-276.2864190061821,-580.8576669336007) translate(214.71234567901243 53.77777777777776)"/><use xlink:href="#k" transform="matrix(1,0,0,1,-276.2864190061821,-580.8576669336007) translate(306.7320987654321 53.77777777777776)"/><use xlink:href="#l" transform="matrix(1,0,0,1,-276.2864190061821,-580.8576669336007) translate(454.2475308641975 53.77777777777776)"/><path d="M689.73-219.18c0 10.9-8.85 19.75-19.75 19.75s-19.75-8.84-19.75-19.75c0-10.9 8.84-19.75 19.75-19.75 10.9 0 19.75 8.84 19.75 19.75z" stroke="#333" fill="#fff"/><path d="M669.98-199.43v49.3a20.7 20.7 0 0 0 3.2 11.07l36.8 58.13m-40-63.2l-40 63.2m0-98.75h80" stroke="#333" fill="none"/><path d="M629.98-232.93a6 6 0 0 1 6-6h68a6 6 0 0 1 6 6v168a6 6 0 0 1-6 6h-68a6 6 0 0 1-6-6z" fill="none"/><use xlink:href="#m" transform="matrix(1,0,0,1,549.9763305452396,-80.93162490104856) translate(63.00000000000002 21.33333333333333)"/><path d="M-562.44 839.75c0 10.9-8.84 19.75-19.75 19.75-10.9 0-19.74-8.84-19.74-19.75 0-10.9 8.84-19.75 19.75-19.75 10.92 0 19.76 8.84 19.76 19.75z" stroke="#333" fill="#fff"/><path d="M-582.2 859.5v49.3a20.7 20.7 0 0 0 3.22 11.07l36.8 58.13m-40-63.2l-40 63.2m0-98.75h80" stroke="#333" fill="none"/><path d="M-622.2 826a6 6 0 0 1 6-6h68a6 6 0 0 1 6 6v168a6 6 0 0 1-6 6h-68a6 6 0 0 1-6-6z" fill="none"/><use xlink:href="#n" transform="matrix(1,0,0,1,-702.1931189544149,978) translate(91.92592592592594 21.33333333333333)"/><path d="M201.05 1160c0 33.14-76.12 60-170 60-93.9 0-170-26.86-170-60s76.1-60 170-60c93.89 0 170 26.86 170 60z" stroke="#000" fill="#ff80df"/><use xlink:href="#o" transform="matrix(1,0,0,1,-138.95334997411635,1100) translate(72.30932098765437 62.95555555555555)"/><use xlink:href="#p" transform="matrix(1,0,0,1,-138.95334997411635,1100) translate(170.6908024691358 62.95555555555555)"/><path d="M677.66 900.82c0 10.9-8.85 19.75-19.75 19.75s-19.74-8.84-19.74-19.75c0-10.9 8.84-19.75 19.75-19.75 10.9 0 19.76 8.84 19.76 19.75z" stroke="#333" fill="#fff"/><path d="M657.9 920.57v49.3a20.7 20.7 0 0 0 3.22 11.07l36.8 58.13m-40-63.2l-40 63.2m0-98.75h80" stroke="#333" fill="none"/><path d="M617.9 887.07a6 6 0 0 1 6-6h68a6 6 0 0 1 6 6v168a6 6 0 0 1-6 6h-68a6 6 0 0 1-6-6z" fill="none"/><use xlink:href="#q" transform="matrix(1,0,0,1,537.9066999482328,1039.0683750989515) translate(6.148148148148209 21.33333333333333)"/><use xlink:href="#r" transform="matrix(1,0,0,1,537.9066999482328,1039.0683750989515) translate(145.1111111111111 21.33333333333333)"/><path d="M689.73 100.8c0 10.9-8.85 19.75-19.75 19.75s-19.75-8.84-19.75-19.75c0-10.9 8.84-19.75 19.75-19.75 10.9 0 19.75 8.85 19.75 19.75z" stroke="#333" fill="#fff"/><path d="M669.98 120.55v49.3a20.7 20.7 0 0 0 3.2 11.07l36.8 58.13m-40-63.2l-40 63.2m0-98.75h80" stroke="#333" fill="none"/><path d="M629.98 87.05a6 6 0 0 1 6-6h68a6 6 0 0 1 6 6v168a6 6 0 0 1-6 6h-68a6 6 0 0 1-6-6z" fill="none"/><use xlink:href="#s" transform="matrix(1,0,0,1,549.9763305452396,239.05337045772626) translate(29.777777777777814 21.33333333333333)"/><use xlink:href="#r" transform="matrix(1,0,0,1,549.9763305452396,239.05337045772626) translate(121.48148148148148 21.33333333333333)"/><path d="M211.05-420c0 33.14-80.6 60-180 60s-180-26.86-180-60 80.58-60 180-60c99.4 0 180 26.86 180 60z" stroke="#000" fill="#fe7070"/><use xlink:href="#t" transform="matrix(1,0,0,1,-148.95334997411635,-480) translate(99.08030864197536 62.95555555555555)"/><use xlink:href="#u" transform="matrix(1,0,0,1,-148.95334997411635,-480) translate(152.69759259259263 62.95555555555555)"/><path d="M205.52-220c0 33.14-78.1 60-174.47 60-96.36 0-174.48-26.86-174.48-60s78.12-60 174.48-60c96.36 0 174.47 26.86 174.47 60z" fill="#fe7070"/><path d="M203.26-210.33l-.23.5-.55 1.05-.62 1.08-.72 1.12-.8 1.17-.94 1.22-1.07 1.28-.72.8m-3.53 3.53l-1.84 1.6-2.18 1.7-2.53 1.84-1.4.94m-4.25 2.67l-.82.5-4.14 2.26-3.87 1.93m-4.56 2.08l-2.32 1.03-6.95 2.75m-4.73 1.64l-3.63 1.26-5.9 1.78m-4.82 1.4l-9.7 2.5m-4.9 1.1l-9.8 2.07m-4.92.84l-9.88 1.67m-4.96.68l-9.94 1.25m-4.97.58l-10 .83m-4.98.43l-3.44.3-6.55.26m-5 .2l-9.28.4h-.74m-5 .05l-5 .05h-.02l-5-.1m-5-.1L11-160.43m-5-.26l-10-.62m-5-.32l-1.5-.1-8.46-.88m-4.98-.52l-5.2-.54-4.74-.7m-4.96-.73l-7.04-1.03-2.85-.54m-4.93-.94l-6.93-1.33-2.88-.67m-4.88-1.14l-4.92-1.15-4.78-1.32m-4.82-1.35l-1.18-.33-8.37-2.7m-4.7-1.72l-3.63-1.35-5.66-2.38m-4.53-2.1l-1.55-.72-4.5-2.35-2.8-1.62m-4.25-2.64l-2.72-1.88-2.34-1.78-2-1.67-.86-.78m-3.57-3.52l-.12-.13-1.14-1.32-.98-1.25-.88-1.2-.76-1.15-.67-1.1-.57-1.06-.5-1.02m-1.67-4.72l-.02-.07-.2-.9-.14-.9-.1-.9-.1-.88-.03-.88v-.44l.02-.88.04-.88.1-.9.13-.88.17-.9.12-.52m1.67-4.7l.24-.5.54-1.06.64-1.08.7-1.12.83-1.17.93-1.22 1.06-1.28.72-.8m3.55-3.53l1.84-1.6 2.17-1.7 2.53-1.84 1.4-.94m4.25-2.67l.82-.5 4.14-2.26 3.88-1.93m4.56-2.08l2.32-1.03 6.96-2.75m4.73-1.64l3.62-1.26 5.92-1.78m4.8-1.42l9.7-2.48m4.9-1.1l9.8-2.07m4.93-.84l9.87-1.67m4.97-.68l9.93-1.25m4.98-.58l9.98-.83m5-.43l3.44-.3 6.55-.26m5-.2l9.28-.4h.73m5-.05l5.02-.05 5 .1m5 .1l10.03.22m5 .26l10 .62m5 .32l1.5.1 8.46.88m4.98.52l5.2.54 4.73.7m4.96.73l7.05 1.03 2.85.54m4.92.94l6.94 1.33 2.87.67m4.88 1.14l4.93 1.15 4.78 1.32m4.84 1.35l1.17.33 8.38 2.7m4.7 1.72l3.64 1.35 5.66 2.38m4.55 2.1l1.54.72 4.5 2.35 2.8 1.62m4.25 2.64l2.72 1.88 2.34 1.78 2.02 1.67.86.78m3.56 3.52l.13.13 1.13 1.32 1 1.25.87 1.2.76 1.15.68 1.1.58 1.06.5 1.02m1.67 4.72l.02.07.2.9.15.9.1.9.08.88.04.88v.44l-.02.88-.05.88-.1.9-.13.88-.17.9-.12.52" stroke="#000" fill="none"/><use xlink:href="#v" transform="matrix(1,0,0,1,-143.4300249611746,-280) translate(16.27166666666671 62.95555555555555)"/><use xlink:href="#w" transform="matrix(1,0,0,1,-143.4300249611746,-280) translate(82.3580864197531 62.95555555555555)"/><use xlink:href="#x" transform="matrix(1,0,0,1,-143.4300249611746,-280) translate(114.7154938271605 62.95555555555555)"/><use xlink:href="#y" transform="matrix(1,0,0,1,-143.4300249611746,-280) translate(240.4667283950617 62.95555555555555)"/><use xlink:href="#z" transform="matrix(1,0,0,1,-143.4300249611746,-280) translate(277.8741358024691 62.95555555555555)"/><path d="M205.52 0c0 33.14-78.1 60-174.47 60-96.36 0-174.48-26.86-174.48-60S-65.3-60 31.05-60c96.36 0 174.47 26.86 174.47 60z" stroke="#000" fill="#ffe342"/><use xlink:href="#A" transform="matrix(1,0,0,1,-143.43002496117452,-60) translate(92.98802469135806 62.95555555555555)"/><use xlink:href="#B" transform="matrix(1,0,0,1,-143.43002496117452,-60) translate(166.43123456790124 62.95555555555555)"/><use xlink:href="#C" transform="matrix(1,0,0,1,-143.43002496117452,-60) translate(197.60407407407408 62.95555555555555)"/><path d="M205.52 220c0 33.14-77.34 60-172.76 60-95.4 0-172.76-26.86-172.76-60s77.35-60 172.76-60c95.42 0 172.76 26.86 172.76 60z" stroke="#000" fill="#ffe342"/><use xlink:href="#D" transform="matrix(1,0,0,1,-139.99999999999994,160) translate(62.06086419753091 62.95555555555555)"/><use xlink:href="#E" transform="matrix(1,0,0,1,-139.99999999999994,160) translate(120.66580246913583 62.95555555555555)"/><use xlink:href="#F" transform="matrix(1,0,0,1,-139.99999999999994,160) translate(139.36950617283952 62.95555555555555)"/><use xlink:href="#G" transform="matrix(1,0,0,1,-139.99999999999994,160) translate(227.838024691358 62.95555555555555)"/><path d="M-581.26 899.2l441.38 260.55M-581.25 899.2l-3.03-1.8" stroke="#3a414a" fill="none"/><path d="M-139.44 1159.45v1.12l-.7-.42.5-.82z" stroke="#3a414a" stroke-width=".05" fill="#3a414a"/><path d="M669.17 159.6l-457.3-579.2M669.16 159.58l2.18 2.76" stroke="#3a414a" fill="none"/><path d="M212.24-419.9l-.7.56V-420.8z" stroke="#3a414a" stroke-width=".05" fill="#3a414a"/><path d="M669.04-160.25l-457.06-259.5M669.03-160.25l3.06 1.73" stroke="#3a414a" fill="none"/><path d="M212.23-420.16l-.47.83-.22-.13v-1.08zM31.52-281.4h-.95v-5.18h.95zm0-10.36h-.95v-10.34h.95zm0-46.55h-.95v-10.35h.95zm0-15.53h-.95V-359h.95z" stroke="#3a414a" stroke-width=".05" fill="#3a414a"/><path d="M31.04-359.5h.48v.5h-.95v-.5z" fill="#3a414a"/><path stroke="#3a414a" stroke-width=".05" fill="#3a414a"/><path d="M41.64-298.45l-10.6 17.9-10.58-17.9.8-.5 9.8 16.53 9.76-16.52z" stroke="#3a414a" stroke-width=".05" fill="#3a414a"/><use xlink:href="#H" transform="matrix(1,0,0,1,-33.675572196338564,-333.3333333380999) translate(0 17.777777777777775)"/><path d="M202.76 960c0 33.14-76.1 60-170 60s-170-26.86-170-60 76.1-60 170-60 170 26.86 170 60z" stroke="#000" fill="#9391ff"/><use xlink:href="#I" transform="matrix(1,0,0,1,-137.23833749352914,900.0000000000001) translate(79.7284567901235 62.95555555555555)"/><use xlink:href="#J" transform="matrix(1,0,0,1,-137.23833749352914,900.0000000000001) translate(149.55561728395065 62.95555555555555)"/><path d="M668 457.15L206.38.35M668 457.14l2.5 2.47" stroke="#3a414a" fill="none"/><path d="M206.72.02l-.67.68-.04-.04.02-.66v-.68zM31.52-61.4h-.95v-5.4h.95zm0-10.8h-.95V-83h.95zm0-16.2h-.95v-8.27h.95zm0-34.93h-.95v-8.45h.95zm0-13.9h-.95v-10.88h.95zm0-16.33h-.95V-159h.95z" stroke="#3a414a" stroke-width=".05" fill="#3a414a"/><path d="M31.04-159.5h.48v.5h-.95v-.5z" fill="#3a414a"/><path stroke="#3a414a" stroke-width=".05" fill="#3a414a"/><path d="M41.64-78.46l-10.6 17.9-10.58-17.9.8-.48 9.8 16.52 9.76-16.52z" stroke="#3a414a" stroke-width=".05" fill="#3a414a"/><use xlink:href="#H" transform="matrix(1,0,0,1,-33.67557219633865,-123.33333333319847) translate(0 17.777777777777775)"/><path d="M33.22 158.58l-.95.02-.08-4.65h.94zm-.16-9.3l-.95.03-.15-9.3h.95zm-.24-13.93h-.95l-.16-9.28.96-.02zm-.24-13.94l-.95.02-.16-9.3h.95zm-.24-13.94l-.96.02-.13-7.64h.95zm-.6-34.28h-.95l-.06-2.88h.95zm-.13-7.54l-.94.02-.08-4.65h.95z" stroke="#3a414a" stroke-width=".05" fill="#3a414a"/><path d="M31.04 60.5h.48v.5l-.94.02v-.53z" fill="#3a414a"/><path stroke="#3a414a" stroke-width=".05" fill="#3a414a"/><path d="M43.04 141.36l-10.28 18.1-10.9-17.73.8-.5 10.07 16.36 9.48-16.7z" stroke="#3a414a" stroke-width=".05" fill="#3a414a"/><use xlink:href="#H" transform="matrix(1,0,0,1,-33.22501812908332,73.17515071790791) translate(0 17.777777777777775)"/><path d="M656.9 960H203.77M656.9 960h3.5" stroke="#3a414a" fill="none"/><path d="M203.78 960.48h-.53v-.95h.53zM32.1 1093.43l-.05 5.18h-.95l.04-5.18zm.04-5.17h-.95l.07-9.3h.95zm.35-41.4l-.05 5.44h-.96l.04-5.44zm.13-15.52l-.1 10.35-.94-.02.07-10.35zm.08-10.35l-.03 5.17h-.95l.04-5.2z" stroke="#3a414a" stroke-width=".05" fill="#3a414a"/><path d="M32.72 1020.5v.5h-.96v-.52z" fill="#3a414a"/><path stroke="#3a414a" stroke-width=".05" fill="#3a414a"/><path d="M31.58 1097.6l9.9-16.44.83.5-10.73 17.8-10.44-18 .82-.47z" stroke="#3a414a" stroke-width=".05" fill="#3a414a"/><use xlink:href="#H" transform="matrix(1,0,0,1,-32.86639302269677,1052.3024351755087) translate(0 17.777777777777775)"/><path d="M205.52 800c0 33.14-76.73 60-171.38 60-94.65 0-171.38-26.86-171.38-60s76.73-60 171.38-60c94.65 0 171.38 26.86 171.38 60z" stroke="#000" fill="#ff80df"/><use xlink:href="#o" transform="matrix(1,0,0,1,-137.23833749352914,740) translate(66.95129629629635 51.70555555555555)"/><use xlink:href="#K" transform="matrix(1,0,0,1,-137.23833749352914,740) translate(165.33277777777778 51.70555555555555)"/><use xlink:href="#L" transform="matrix(1,0,0,1,-137.23833749352914,740) translate(76.92660493827165 78.63888888888887)"/><use xlink:href="#M" transform="matrix(1,0,0,1,-137.23833749352914,740) translate(193.88709876543209 78.63888888888887)"/><path d="M-581.2 898.82l442.97-98.7M-581.2 898.82l-3.42.76" stroke="#3a414a" fill="none"/><path d="M-137.74 800V800.48l-.4.1-.2-.93.6-.14z" stroke="#3a414a" stroke-width=".05" fill="#3a414a"/><path d="M-940-576.86a12 12 0 0 1 12-12h436a12 12 0 0 1 12 12V-152a12 12 0 0 1-12 12h-436a12 12 0 0 1-12-12z" stroke="#dfe3e8" stroke-width="2" fill="#fff"/><path d="M-861.32-493.32c0 9.3-7.55 16.86-16.86 16.86-9.3 0-16.86-7.55-16.86-16.86 0-9.3 7.55-16.86 16.86-16.86 9.3 0 16.86 7.55 16.86 16.86z" stroke="#000" stroke-opacity=".25" fill="#ff80df"/><path d="M-861.32-444.23c0 9.3-7.55 16.86-16.86 16.86-9.3 0-16.86-7.55-16.86-16.86 0-9.32 7.55-16.86 16.86-16.86 9.3 0 16.86 7.55 16.86 16.87z" stroke="#000" stroke-opacity=".25" fill="#4d9eff"/><path d="M-861.32-395.15c0 9.3-7.55 16.86-16.86 16.86-9.3 0-16.86-7.54-16.86-16.85 0-9.3 7.55-16.86 16.86-16.86 9.3 0 16.86 7.54 16.86 16.85z" stroke="#000" stroke-opacity=".25" fill="#fe7070"/><path d="M-861.32-346.07c0 9.3-7.55 16.86-16.86 16.86-9.3 0-16.86-7.56-16.86-16.87 0-9.3 7.55-16.86 16.86-16.86 9.3 0 16.86 7.55 16.86 16.86z" stroke="#000" stroke-opacity=".25" fill="#9391ff"/><path d="M-864.13-297c0 5.83-6.3 10.55-14.05 10.55-7.76 0-14.05-4.72-14.05-10.54 0-5.8 6.3-10.52 14.05-10.52 7.76 0 14.05 4.7 14.05 10.53z" stroke="#000" fill="#ffe342"/><path d="M-864.13-247.9c0 5.8-6.3 10.53-14.05 10.53-7.76 0-14.05-4.72-14.05-10.54 0-5.82 6.3-10.54 14.05-10.54 7.76 0 14.05 4.72 14.05 10.53z" stroke="#000" fill="#ffd9d9"/><path d="M-875.06-209.75c0 1.72-1.4 3.12-3.12 3.12-1.72 0-3.12-1.4-3.12-3.12 0-1.73 1.4-3.12 3.12-3.12 1.73 0 3.12 1.4 3.12 3.12z" stroke="#333" fill="#fff"/><path d="M-878.18-206.63v9.68c0 .64.14 1.2.46 1.76l5.8 10.43M-878.2-196l-6.24 11.23m0-18.74h12.5" stroke="#333" fill="none"/><path d="M-884.42-211.94c0-.5.42-.93.93-.93h10.63c.52 0 .94.42.94.93v26.23c0 .5-.42.93-.94.93h-10.62c-.5 0-.92-.42-.92-.94z" fill="none"/><use xlink:href="#N" transform="matrix(1,0,0,1,-895.0392988046476,-555.1371410370865) translate(0 21.488888888888887)"/><use xlink:href="#O" transform="matrix(1,0,0,1,-844.4585099598762,-510.1764398417341) translate(0 23.488888888888887)"/><use xlink:href="#P" transform="matrix(1,0,0,1,-844.4585099598762,-510.1764398417341) translate(68.9543209876543 23.488888888888887)"/><use xlink:href="#Q" transform="matrix(1,0,0,1,-844.4585099598762,-510.1764398417341) translate(115.02777777777774 23.488888888888887)"/><use xlink:href="#R" transform="matrix(1,0,0,1,-844.4585099598762,-461.09434103680786) translate(0 23.488888888888887)"/><use xlink:href="#P" transform="matrix(1,0,0,1,-844.4585099598762,-461.09434103680786) translate(117.64629629629623 23.488888888888887)"/><use xlink:href="#Q" transform="matrix(1,0,0,1,-844.4585099598762,-461.09434103680786) translate(163.71975308641967 23.488888888888887)"/><use xlink:href="#S" transform="matrix(1,0,0,1,-844.4585099598762,-412.01224223188154) translate(0 23.488888888888887)"/><use xlink:href="#P" transform="matrix(1,0,0,1,-844.4585099598762,-412.01224223188154) translate(92.64567901234564 23.488888888888887)"/><use xlink:href="#Q" transform="matrix(1,0,0,1,-844.4585099598762,-412.01224223188154) translate(138.71913580246908 23.488888888888887)"/><use xlink:href="#T" transform="matrix(1,0,0,1,-844.4585099598762,-362.9301434269552) translate(0 23.488888888888887)"/><use xlink:href="#P" transform="matrix(1,0,0,1,-844.4585099598762,-362.9301434269552) translate(132.42222222222213 23.488888888888887)"/><use xlink:href="#Q" transform="matrix(1,0,0,1,-844.4585099598762,-362.9301434269552) translate(178.49567901234556 23.488888888888887)"/><use xlink:href="#U" transform="matrix(1,0,0,1,-844.4585099598762,-215.68384701217627) translate(0 23.488888888888887)"/><g><use xlink:href="#V" transform="matrix(1,0,0,1,-844.4585099598762,-313.8480446220289) translate(0 23.488888888888887)"/><use xlink:href="#P" transform="matrix(1,0,0,1,-844.4585099598762,-313.8480446220289) translate(168.52037037037027 23.488888888888887)"/><use xlink:href="#Q" transform="matrix(1,0,0,1,-844.4585099598762,-313.8480446220289) translate(214.5938271604937 23.488888888888887)"/></g><g><use xlink:href="#W" transform="matrix(1,0,0,1,-844.4585099598762,-264.7659458171026) translate(0 23.488888888888887)"/><use xlink:href="#P" transform="matrix(1,0,0,1,-844.4585099598762,-264.7659458171026) translate(210.97777777777773 23.488888888888887)"/><use xlink:href="#Q" transform="matrix(1,0,0,1,-844.4585099598762,-264.7659458171026) translate(257.0512345679012 23.488888888888887)"/></g><path d="M196.57 1360c0 33.14-76.1 60-170 60s-170-26.86-170-60 76.1-60 170-60 170 26.86 170 60z" stroke="#000" fill="#ff80df"/><g><use xlink:href="#X" transform="matrix(1,0,0,1,-143.4300249611746,1300) translate(37.36456790123465 51.70555555555555)"/><use xlink:href="#Y" transform="matrix(1,0,0,1,-143.4300249611746,1300) translate(90.91950617283956 51.70555555555555)"/><use xlink:href="#Z" transform="matrix(1,0,0,1,-143.4300249611746,1300) translate(207.88 51.70555555555555)"/><use xlink:href="#aa" transform="matrix(1,0,0,1,-143.4300249611746,1300) translate(251.52197530864194 51.70555555555555)"/><use xlink:href="#u" transform="matrix(1,0,0,1,-143.4300249611746,1300) translate(115.888950617284 78.63888888888887)"/></g><path d="M30.48 1298.66h-.96v-4.23h.96zm0-8.47h-.96v-8.47h.96zm0-12.7h-.96v-8.47h.96zm0-12.7h-.96v-1.8h.96zm1.04-28.45h-.95v-6.8h.95zm0-11.07h-.95V1221h.95z" stroke="#3a414a" stroke-width=".05" fill="#3a414a"/><path d="M31.04 1220.5h.48v.5h-.95v-.5z" fill="#3a414a"/><path stroke="#3a414a" stroke-width=".05" fill="#3a414a"/><path d="M40.6 1281.62l-10.6 17.9-10.6-17.9.83-.5 9.77 16.54 9.77-16.53z" stroke="#3a414a" stroke-width=".05" fill="#3a414a"/><g><use xlink:href="#ab" transform="matrix(1,0,0,1,-30.589152443252146,1236.345716986687) translate(0 17.777777777777775)"/></g><path d="M689.73 380.82c0 10.9-8.85 19.75-19.75 19.75s-19.75-8.84-19.75-19.75c0-10.9 8.84-19.75 19.75-19.75 10.9 0 19.75 8.84 19.75 19.75z" stroke="#333" fill="#fff"/><path d="M669.98 400.57v49.3a20.7 20.7 0 0 0 3.2 11.07l36.8 58.13m-40-63.2l-40 63.2m0-98.75h80" stroke="#333" fill="none"/><path d="M629.98 367.07a6 6 0 0 1 6-6h68a6 6 0 0 1 6 6v168a6 6 0 0 1-6 6h-68a6 6 0 0 1-6-6z" fill="none"/><g><use xlink:href="#ac" transform="matrix(1,0,0,1,549.9763305452396,519.0683750989515) translate(32.777777777777814 21.33333333333333)"/></g><path d="M689.73 640.82c0 10.9-8.85 19.75-19.75 19.75s-19.75-8.84-19.75-19.75c0-10.9 8.84-19.75 19.75-19.75 10.9 0 19.75 8.84 19.75 19.75z" stroke="#333" fill="#fff"/><path d="M669.98 660.57v49.3a20.7 20.7 0 0 0 3.2 11.07l36.8 58.13m-40-63.2l-40 63.2m0-98.75h80" stroke="#333" fill="none"/><path d="M629.98 627.07a6 6 0 0 1 6-6h68a6 6 0 0 1 6 6v168a6 6 0 0 1-6 6h-68a6 6 0 0 1-6-6z" fill="none"/><g><use xlink:href="#ad" transform="matrix(1,0,0,1,549.9763305452396,779.0683750989515) translate(7.555555555555614 21.33333333333333)"/><use xlink:href="#ae" transform="matrix(1,0,0,1,549.9763305452396,779.0683750989515) translate(75.62962962962965 53.33333333333332)"/></g><path d="M199.33 380c0 33.14-77.35 60-172.76 60-95.4 0-172.76-26.86-172.76-60s77.36-60 172.77-60c95.4 0 172.76 26.86 172.76 60z" stroke="#000" fill="#ffd9d9"/><g><use xlink:href="#af" transform="matrix(1,0,0,1,-146.1916874676455,320) translate(57.75901234567906 62.95555555555555)"/><use xlink:href="#F" transform="matrix(1,0,0,1,-146.1916874676455,320) translate(143.67135802469136 62.95555555555555)"/><use xlink:href="#G" transform="matrix(1,0,0,1,-146.1916874676455,320) translate(232.13987654320985 62.95555555555555)"/></g><path d="M199.33 560c0 33.14-76.73 60-171.38 60-94.65 0-171.38-26.86-171.38-60s76.73-60 171.38-60c94.65 0 171.38 26.86 171.38 60z" stroke="#000" fill="#ff80df"/><g><use xlink:href="#ag" transform="matrix(1,0,0,1,-143.4300249611746,500) translate(73.80932098765437 62.95555555555555)"/><use xlink:href="#J" transform="matrix(1,0,0,1,-143.4300249611746,500) translate(158.47475308641975 62.95555555555555)"/></g><path d="M200.2 560.33l457.83 402.9" stroke="#3a414a" fill="none"/><path d="M200.53 559.98l-.63.72-.08-.08v-1.26z" stroke="#3a414a" stroke-width=".05" fill="#3a414a"/><path d="M658.02 963.22l2.64 2.32" stroke="#3a414a" fill="none"/><path d="M27.82 728.86l-.06 9.8h-.95l.07-9.8zm.16-29.42l-.1 19.6h-.96l.1-19.6zm.06-9.8h-.95l.04-8.97h.95zm.27-49.03l-.06 13.4h-.95l.06-13.4zm.12-19.6l-.05 9.8h-.95l.05-9.8z" stroke="#3a414a" stroke-width=".05" fill="#3a414a"/><path d="M27.95 620.5h.48v.52h-.96v-.53z" fill="#3a414a"/><path stroke="#3a414a" stroke-width=".05" fill="#3a414a"/><path d="M27.3 737.66l9.86-16.47.8.48-10.68 17.84-10.5-17.96.83-.48z" stroke="#3a414a" stroke-width=".05" fill="#3a414a"/><g><use xlink:href="#H" transform="matrix(1,0,0,1,-37.03433304419307,654.006448126998) translate(0 17.777777777777775)"/></g><path d="M669.06 699.72l-468.8-319.44M669.05 699.7l2.9 2" stroke="#3a414a" fill="none"/><path d="M200.52 379.9l-.53.78-.18-.1V379.4z" stroke="#3a414a" stroke-width=".05" fill="#3a414a"/><path d="M667.9 457.27L206.48 220.23M667.9 457.26l3.12 1.6" stroke="#3a414a" fill="none"/><path d="M206.7 219.8l-.44.86-.25-.13.02-.53v-.54z" stroke="#3a414a" stroke-width=".05" fill="#3a414a"/><defs><path fill="#3a414a" d="M24 0v-248h195v40H76v63h132v40H76v65h150V0H24" id="ah"/><path fill="#3a414a" d="M123 10C108 53 80 86 19 72V37c35 8 53-11 59-39L3-190h52l48 148c12-52 28-100 44-148h51" id="ai"/><path fill="#3a414a" d="M185-48c-13 30-37 53-82 52C43 2 14-33 14-96s30-98 90-98c62 0 83 45 84 108H66c0 31 8 55 39 56 18 0 30-7 34-22zm-45-69c5-46-57-63-70-21-2 6-4 13-4 21h74" id="aj"/><g id="a"><use transform="matrix(0.07469135802469132,0,0,0.07469135802469132,0,0)" xlink:href="#ah"/><use transform="matrix(0.07469135802469132,0,0,0.07469135802469132,17.925925925925917,0)" xlink:href="#ai"/><use transform="matrix(0.07469135802469132,0,0,0.07469135802469132,32.86419753086418,0)" xlink:href="#aj"/></g><path fill="#3a414a" d="M186 0v-106H76V0H24v-248h52v99h110v-99h50V0h-50" id="ak"/><path fill="#3a414a" d="M133-34C117-15 103 5 69 4 32 3 11-16 11-54c-1-60 55-63 116-61 1-26-3-47-28-47-18 1-26 9-28 27l-52-2c7-38 36-58 82-57s74 22 75 68l1 82c-1 14 12 18 25 15v27c-30 8-71 5-69-32zm-48 3c29 0 43-24 42-57-32 0-66-3-65 30 0 17 8 27 23 27" id="al"/><path fill="#3a414a" d="M25 0v-261h50V0H25" id="am"/><path fill="#3a414a" d="M115-3C79 11 28 4 28-45v-112H4v-33h27l15-45h31v45h36v33H77v99c-1 23 16 31 38 25v30" id="an"/><path fill="#3a414a" d="M114-157C55-157 80-60 75 0H25v-261h50l-1 109c12-26 28-41 61-42 86-1 58 113 63 194h-50c-7-57 23-157-34-157" id="ao"/><g id="b"><use transform="matrix(0.07469135802469132,0,0,0.07469135802469132,0,0)" xlink:href="#ak"/><use transform="matrix(0.07469135802469132,0,0,0.07469135802469132,19.345061728395052,0)" xlink:href="#aj"/><use transform="matrix(0.07469135802469132,0,0,0.07469135802469132,34.28333333333332,0)" xlink:href="#al"/><use transform="matrix(0.07469135802469132,0,0,0.07469135802469132,49.221604938271575,0)" xlink:href="#am"/><use transform="matrix(0.07469135802469132,0,0,0.07469135802469132,56.69074074074072,0)" xlink:href="#an"/><use transform="matrix(0.07469135802469132,0,0,0.07469135802469132,65.57901234567898,0)" xlink:href="#ao"/></g><path fill="#3a414a" d="M230 0l2-204L168 0h-37L68-204 70 0H24v-248h70l56 185 57-185h69V0h-46" id="ap"/><path fill="#3a414a" d="M135-194c87-1 58 113 63 194h-50c-7-57 23-157-34-157-59 0-34 97-39 157H25l-1-190h47c2 12-1 28 3 38 12-26 28-41 61-42" id="aq"/><path fill="#3a414a" d="M195-6C206 82 75 100 31 46c-4-6-6-13-8-21l49-6c3 16 16 24 34 25 40 0 42-37 40-79-11 22-30 35-61 35-53 0-70-43-70-97 0-56 18-96 73-97 30 0 46 14 59 34l2-30h47zm-90-29c32 0 41-27 41-63 0-35-9-62-40-62-32 0-39 29-40 63 0 36 9 62 39 62" id="ar"/><path fill="#3a414a" d="M220-157c-53 9-28 100-34 157h-49v-107c1-27-5-49-29-50C55-147 81-57 75 0H25l-1-190h47c2 12-1 28 3 38 10-53 101-56 108 0 13-22 24-43 59-42 82 1 51 116 57 194h-49v-107c-1-25-5-48-29-50" id="as"/><g id="c"><use transform="matrix(0.07469135802469132,0,0,0.07469135802469132,0,0)" xlink:href="#ap"/><use transform="matrix(0.07469135802469132,0,0,0.07469135802469132,22.332716049382704,0)" xlink:href="#al"/><use transform="matrix(0.07469135802469132,0,0,0.07469135802469132,37.27098765432097,0)" xlink:href="#aq"/><use transform="matrix(0.07469135802469132,0,0,0.07469135802469132,53.62839506172837,0)" xlink:href="#al"/><use transform="matrix(0.07469135802469132,0,0,0.07469135802469132,68.56666666666663,0)" xlink:href="#ar"/><use transform="matrix(0.07469135802469132,0,0,0.07469135802469132,84.92407407407403,0)" xlink:href="#aj"/><use transform="matrix(0.07469135802469132,0,0,0.07469135802469132,99.8623456790123,0)" xlink:href="#as"/><use transform="matrix(0.07469135802469132,0,0,0.07469135802469132,123.76358024691352,0)" xlink:href="#aj"/><use transform="matrix(0.07469135802469132,0,0,0.07469135802469132,138.70185185185176,0)" xlink:href="#aq"/><use transform="matrix(0.07469135802469132,0,0,0.07469135802469132,155.05925925925916,0)" xlink:href="#an"/></g><path fill="#3a414a" d="M110-194c64 0 96 36 96 99 0 64-35 99-97 99-61 0-95-36-95-99 0-62 34-99 96-99zm-1 164c35 0 45-28 45-65 0-40-10-65-43-65-34 0-45 26-45 65 0 36 10 65 43 65" id="at"/><path fill="#3a414a" d="M135-194c52 0 70 43 70 98 0 56-19 99-73 100-30 1-46-15-58-35L72 0H24l1-261h50v104c11-23 29-37 60-37zM114-30c31 0 40-27 40-66 0-37-7-63-39-63s-41 28-41 65c0 36 8 64 40 64" id="au"/><path fill="#3a414a" d="M25-224v-37h50v37H25zM25 0v-190h50V0H25" id="av"/><g id="d"><use transform="matrix(0.07469135802469132,0,0,0.07469135802469132,0,0)" xlink:href="#ap"/><use transform="matrix(0.07469135802469132,0,0,0.07469135802469132,22.332716049382704,0)" xlink:href="#at"/><use transform="matrix(0.07469135802469132,0,0,0.07469135802469132,38.690123456790104,0)" xlink:href="#au"/><use transform="matrix(0.07469135802469132,0,0,0.07469135802469132,55.047530864197505,0)" xlink:href="#av"/><use transform="matrix(0.07469135802469132,0,0,0.07469135802469132,62.51666666666663,0)" xlink:href="#am"/><use transform="matrix(0.07469135802469132,0,0,0.07469135802469132,69.98580246913576,0)" xlink:href="#aj"/></g><path fill="#3a414a" d="M199 0l-22-63H83L61 0H9l90-248h61L250 0h-51zm-33-102l-36-108c-10 38-24 72-36 108h72" id="aw"/><path fill="#3a414a" d="M135-194c53 0 70 44 70 98 0 56-19 98-73 100-31 1-45-17-59-34 3 33 2 69 2 105H25l-1-265h48c2 10 0 23 3 31 11-24 29-35 60-35zM114-30c33 0 39-31 40-66 0-38-9-64-40-64-56 0-55 130 0 130" id="ax"/><g id="e"><use transform="matrix(0.07469135802469132,0,0,0.07469135802469132,0,0)" xlink:href="#aw"/><use transform="matrix(0.07469135802469132,0,0,0.07469135802469132,19.345061728395052,0)" xlink:href="#ax"/><use transform="matrix(0.07469135802469132,0,0,0.07469135802469132,35.702469135802446,0)" xlink:href="#ax"/></g><path fill="#3a414a" d="M14-72v-43h91v43H14" id="ay"/><use transform="matrix(0.07469135802469132,0,0,0.07469135802469132,0,0)" xlink:href="#ay" id="f"/><path fill="#3a414a" d="M240-174c0 40-23 61-54 70L253 0h-59l-57-94H76V0H24v-248c93 4 217-23 216 74zM76-134c48-2 112 12 112-38 0-48-66-32-112-35v73" id="az"/><path fill="#3a414a" d="M190-63c-7 42-38 67-86 67-59 0-84-38-90-98-12-110 154-137 174-36l-49 2c-2-19-15-32-35-32-30 0-35 28-38 64-6 74 65 87 74 30" id="aA"/><path fill="#3a414a" d="M128 0H69L1-190h53L99-40l48-150h52" id="aB"/><g id="g"><use transform="matrix(0.07469135802469132,0,0,0.07469135802469132,0,0)" xlink:href="#az"/><use transform="matrix(0.07469135802469132,0,0,0.07469135802469132,19.345061728395052,0)" xlink:href="#aj"/><use transform="matrix(0.07469135802469132,0,0,0.07469135802469132,34.28333333333332,0)" xlink:href="#aA"/><use transform="matrix(0.07469135802469132,0,0,0.07469135802469132,49.221604938271575,0)" xlink:href="#aj"/><use transform="matrix(0.07469135802469132,0,0,0.07469135802469132,64.15987654320985,0)" xlink:href="#av"/><use transform="matrix(0.07469135802469132,0,0,0.07469135802469132,71.62901234567897,0)" xlink:href="#aB"/><use transform="matrix(0.07469135802469132,0,0,0.07469135802469132,86.56728395061724,0)" xlink:href="#av"/><use transform="matrix(0.07469135802469132,0,0,0.07469135802469132,94.03641975308636,0)" xlink:href="#aq"/><use transform="matrix(0.07469135802469132,0,0,0.07469135802469132,110.39382716049376,0)" xlink:href="#ar"/></g><path fill="#3a414a" d="M88-194c31-1 46 15 58 34l-1-101h50l1 261h-48c-2-10 0-23-3-31C134-8 116 4 84 4 32 4 16-41 15-95c0-56 19-97 73-99zm17 164c33 0 40-30 41-66 1-37-9-64-41-64s-38 30-39 65c0 43 13 65 39 65" id="aC"/><g id="h"><use transform="matrix(0.07469135802469132,0,0,0.07469135802469132,0,0)" xlink:href="#al"/><use transform="matrix(0.07469135802469132,0,0,0.07469135802469132,14.938271604938263,0)" xlink:href="#aq"/><use transform="matrix(0.07469135802469132,0,0,0.07469135802469132,31.29567901234566,0)" xlink:href="#aC"/></g><path fill="#3a414a" d="M175 0L67-191c6 58 2 128 3 191H24v-248h59L193-55c-6-58-2-129-3-193h46V0h-61" id="aD"/><path fill="#3a414a" d="M121-226c-27-7-43 5-38 36h38v33H83V0H34v-157H6v-33h28c-9-59 32-81 87-68v32" id="aE"/><g id="i"><use transform="matrix(0.07469135802469132,0,0,0.07469135802469132,0,0)" xlink:href="#aD"/><use transform="matrix(0.07469135802469132,0,0,0.07469135802469132,19.345061728395052,0)" xlink:href="#at"/><use transform="matrix(0.07469135802469132,0,0,0.07469135802469132,35.702469135802446,0)" xlink:href="#an"/><use transform="matrix(0.07469135802469132,0,0,0.07469135802469132,44.59074074074071,0)" xlink:href="#av"/><use transform="matrix(0.07469135802469132,0,0,0.07469135802469132,52.059876543209846,0)" xlink:href="#aE"/><use transform="matrix(0.07469135802469132,0,0,0.07469135802469132,60.948148148148114,0)" xlink:href="#ai"/><use transform="matrix(0.07469135802469132,0,0,0.07469135802469132,75.88641975308637,0)" xlink:href="#av"/><use transform="matrix(0.07469135802469132,0,0,0.07469135802469132,83.3555555555555,0)" xlink:href="#aq"/><use transform="matrix(0.07469135802469132,0,0,0.07469135802469132,99.71296296296289,0)" xlink:href="#ar"/></g><path fill="#3a414a" d="M136-208V0H84v-208H4v-40h212v40h-80" id="aF"/><g id="j"><use transform="matrix(0.07469135802469132,0,0,0.07469135802469132,0,0)" xlink:href="#aF"/><use transform="matrix(0.07469135802469132,0,0,0.07469135802469132,15.834567901234557,0)" xlink:href="#av"/><use transform="matrix(0.07469135802469132,0,0,0.07469135802469132,23.30370370370369,0)" xlink:href="#as"/><use transform="matrix(0.07469135802469132,0,0,0.07469135802469132,47.20493827160491,0)" xlink:href="#aj"/><use transform="matrix(0.07469135802469132,0,0,0.07469135802469132,62.143209876543175,0)" xlink:href="#am"/><use transform="matrix(0.07469135802469132,0,0,0.07469135802469132,69.61234567901231,0)" xlink:href="#ai"/></g><g id="k"><use transform="matrix(0.07469135802469132,0,0,0.07469135802469132,0,0)" xlink:href="#ap"/><use transform="matrix(0.07469135802469132,0,0,0.07469135802469132,22.332716049382704,0)" xlink:href="#aj"/><use transform="matrix(0.07469135802469132,0,0,0.07469135802469132,37.27098765432097,0)" xlink:href="#aC"/><use transform="matrix(0.07469135802469132,0,0,0.07469135802469132,53.62839506172837,0)" xlink:href="#av"/><use transform="matrix(0.07469135802469132,0,0,0.07469135802469132,61.097530864197495,0)" xlink:href="#aA"/><use transform="matrix(0.07469135802469132,0,0,0.07469135802469132,76.03580246913576,0)" xlink:href="#al"/><use transform="matrix(0.07469135802469132,0,0,0.07469135802469132,90.97407407407403,0)" xlink:href="#an"/><use transform="matrix(0.07469135802469132,0,0,0.07469135802469132,99.8623456790123,0)" xlink:href="#av"/><use transform="matrix(0.07469135802469132,0,0,0.07469135802469132,107.33148148148142,0)" xlink:href="#at"/><use transform="matrix(0.07469135802469132,0,0,0.07469135802469132,123.68888888888881,0)" xlink:href="#aq"/></g><path fill="#3a414a" d="M135-150c-39-12-60 13-60 57V0H25l-1-190h47c2 13-1 29 3 40 6-28 27-53 61-41v41" id="aG"/><path fill="#3a414a" d="M137-138c1-29-70-34-71-4 15 46 118 7 119 86 1 83-164 76-172 9l43-7c4 19 20 25 44 25 33 8 57-30 24-41C81-84 22-81 20-136c-2-80 154-74 161-7" id="aH"/><g id="l"><use transform="matrix(0.07469135802469132,0,0,0.07469135802469132,0,0)" xlink:href="#az"/><use transform="matrix(0.07469135802469132,0,0,0.07469135802469132,19.345061728395052,0)" xlink:href="#aj"/><use transform="matrix(0.07469135802469132,0,0,0.07469135802469132,34.28333333333332,0)" xlink:href="#as"/><use transform="matrix(0.07469135802469132,0,0,0.07469135802469132,58.18456790123454,0)" xlink:href="#av"/><use transform="matrix(0.07469135802469132,0,0,0.07469135802469132,65.65370370370367,0)" xlink:href="#aq"/><use transform="matrix(0.07469135802469132,0,0,0.07469135802469132,82.01111111111106,0)" xlink:href="#aC"/><use transform="matrix(0.07469135802469132,0,0,0.07469135802469132,98.36851851851844,0)" xlink:href="#aj"/><use transform="matrix(0.07469135802469132,0,0,0.07469135802469132,113.30679012345674,0)" xlink:href="#aG"/><use transform="matrix(0.07469135802469132,0,0,0.07469135802469132,123.76358024691352,0)" xlink:href="#aH"/></g><path fill="#3a414a" d="M30-248c118-7 216 8 213 122C240-48 200 0 122 0H30v-248zM63-27c89 8 146-16 146-99s-60-101-146-95v194" id="aI"/><path fill="#3a414a" d="M141-36C126-15 110 5 73 4 37 3 15-17 15-53c-1-64 63-63 125-63 3-35-9-54-41-54-24 1-41 7-42 31l-33-3c5-37 33-52 76-52 45 0 72 20 72 64v82c-1 20 7 32 28 27v20c-31 9-61-2-59-35zM48-53c0 20 12 33 32 33 41-3 63-29 60-74-43 2-92-5-92 41" id="aJ"/><path fill="#3a414a" d="M59-47c-2 24 18 29 38 22v24C64 9 27 4 27-40v-127H5v-23h24l9-43h21v43h35v23H59v120" id="aK"/><path fill="#3a414a" d="M115-194c53 0 69 39 70 98 0 66-23 100-70 100C84 3 66-7 56-30L54 0H23l1-261h32v101c10-23 28-34 59-34zm-8 174c40 0 45-34 45-75 0-40-5-75-45-74-42 0-51 32-51 76 0 43 10 73 51 73" id="aL"/><path fill="#3a414a" d="M135-143c-3-34-86-38-87 0 15 53 115 12 119 90S17 21 10-45l28-5c4 36 97 45 98 0-10-56-113-15-118-90-4-57 82-63 122-42 12 7 21 19 24 35" id="aM"/><path fill="#3a414a" d="M100-194c63 0 86 42 84 106H49c0 40 14 67 53 68 26 1 43-12 49-29l28 8c-11 28-37 45-77 45C44 4 14-33 15-96c1-61 26-98 85-98zm52 81c6-60-76-77-97-28-3 7-6 17-6 28h103" id="aN"/><g id="m"><use transform="matrix(0.07407407407407404,0,0,0.07407407407407404,0,0)" xlink:href="#aI"/><use transform="matrix(0.07407407407407404,0,0,0.07407407407407404,19.185185185185176,0)" xlink:href="#aJ"/><use transform="matrix(0.07407407407407404,0,0,0.07407407407407404,33.999999999999986,0)" xlink:href="#aK"/><use transform="matrix(0.07407407407407404,0,0,0.07407407407407404,41.40740740740739,0)" xlink:href="#aJ"/><use transform="matrix(0.07407407407407404,0,0,0.07407407407407404,56.2222222222222,0)" xlink:href="#aL"/><use transform="matrix(0.07407407407407404,0,0,0.07407407407407404,71.03703703703701,0)" xlink:href="#aJ"/><use transform="matrix(0.07407407407407404,0,0,0.07407407407407404,85.85185185185182,0)" xlink:href="#aM"/><use transform="matrix(0.07407407407407404,0,0,0.07407407407407404,99.18518518518515,0)" xlink:href="#aN"/></g><path fill="#3a414a" d="M232-93c-1 65-40 97-104 97C67 4 28-28 28-90v-158h33c8 89-33 224 67 224 102 0 64-133 71-224h33v155" id="aO"/><path fill="#3a414a" d="M114-163C36-179 61-72 57 0H25l-1-190h30c1 12-1 29 2 39 6-27 23-49 58-41v29" id="aP"/><g id="n"><use transform="matrix(0.07407407407407404,0,0,0.07407407407407404,0,0)" xlink:href="#aO"/><use transform="matrix(0.07407407407407404,0,0,0.07407407407407404,19.185185185185176,0)" xlink:href="#aM"/><use transform="matrix(0.07407407407407404,0,0,0.07407407407407404,32.518518518518505,0)" xlink:href="#aN"/><use transform="matrix(0.07407407407407404,0,0,0.07407407407407404,47.333333333333314,0)" xlink:href="#aP"/></g><path d="M233-177c-1 41-23 64-60 70L243 0h-38l-65-103H63V0H30v-248c88 3 205-21 203 71zM63-129c60-2 137 13 137-47 0-61-80-42-137-45v92" id="aQ"/><path d="M100-194c63 0 86 42 84 106H49c0 40 14 67 53 68 26 1 43-12 49-29l28 8c-11 28-37 45-77 45C44 4 14-33 15-96c1-61 26-98 85-98zm52 81c6-60-76-77-97-28-3 7-6 17-6 28h103" id="aR"/><path d="M96-169c-40 0-48 33-48 73s9 75 48 75c24 0 41-14 43-38l32 2c-6 37-31 61-74 61-59 0-76-41-82-99-10-93 101-131 147-64 4 7 5 14 7 22l-32 3c-4-21-16-35-41-35" id="aS"/><path d="M24-231v-30h32v30H24zM24 0v-190h32V0H24" id="aT"/><path d="M108 0H70L1-190h34L89-25l56-165h34" id="aU"/><path d="M135-143c-3-34-86-38-87 0 15 53 115 12 119 90S17 21 10-45l28-5c4 36 97 45 98 0-10-56-113-15-118-90-4-57 82-63 122-42 12 7 21 19 24 35" id="aV"/><g id="o"><use transform="matrix(0.06234567901234565,0,0,0.06234567901234565,0,0)" xlink:href="#aQ"/><use transform="matrix(0.06234567901234565,0,0,0.06234567901234565,16.147530864197524,0)" xlink:href="#aR"/><use transform="matrix(0.06234567901234565,0,0,0.06234567901234565,28.616666666666653,0)" xlink:href="#aS"/><use transform="matrix(0.06234567901234565,0,0,0.06234567901234565,39.838888888888874,0)" xlink:href="#aT"/><use transform="matrix(0.06234567901234565,0,0,0.06234567901234565,44.76419753086418,0)" xlink:href="#aR"/><use transform="matrix(0.06234567901234565,0,0,0.06234567901234565,57.23333333333331,0)" xlink:href="#aU"/><use transform="matrix(0.06234567901234565,0,0,0.06234567901234565,68.45555555555553,0)" xlink:href="#aR"/><use transform="matrix(0.06234567901234565,0,0,0.06234567901234565,80.92469135802466,0)" xlink:href="#aV"/></g><path d="M210-169c-67 3-38 105-44 169h-31v-121c0-29-5-50-35-48C34-165 62-65 56 0H25l-1-190h30c1 10-1 24 2 32 10-44 99-50 107 0 11-21 27-35 58-36 85-2 47 119 55 194h-31v-121c0-29-5-49-35-48" id="aW"/><path d="M117-194c89-4 53 116 60 194h-32v-121c0-31-8-49-39-48C34-167 62-67 57 0H25l-1-190h30c1 10-1 24 2 32 11-22 29-35 61-36" id="aX"/><path d="M85-194c31 0 48 13 60 33l-1-100h32l1 261h-30c-2-10 0-23-3-31C134-8 116 4 85 4 32 4 16-35 15-94c0-66 23-100 70-100zm9 24c-40 0-46 34-46 75 0 40 6 74 45 74 42 0 51-32 51-76 0-42-9-74-50-73" id="aY"/><path d="M114-163C36-179 61-72 57 0H25l-1-190h30c1 12-1 29 2 39 6-27 23-49 58-41v29" id="aZ"/><g id="p"><use transform="matrix(0.06234567901234565,0,0,0.06234567901234565,0,0)" xlink:href="#aQ"/><use transform="matrix(0.06234567901234565,0,0,0.06234567901234565,16.147530864197524,0)" xlink:href="#aR"/><use transform="matrix(0.06234567901234565,0,0,0.06234567901234565,28.616666666666653,0)" xlink:href="#aW"/><use transform="matrix(0.06234567901234565,0,0,0.06234567901234565,47.258024691358,0)" xlink:href="#aT"/><use transform="matrix(0.06234567901234565,0,0,0.06234567901234565,52.18333333333331,0)" xlink:href="#aX"/><use transform="matrix(0.06234567901234565,0,0,0.06234567901234565,64.65246913580243,0)" xlink:href="#aY"/><use transform="matrix(0.06234567901234565,0,0,0.06234567901234565,77.12160493827156,0)" xlink:href="#aR"/><use transform="matrix(0.06234567901234565,0,0,0.06234567901234565,89.59074074074069,0)" xlink:href="#aZ"/></g><path fill="#3a414a" d="M190 0L58-211 59 0H30v-248h39L202-35l-2-213h31V0h-41" id="ba"/><path fill="#3a414a" d="M100-194c62-1 85 37 85 99 1 63-27 99-86 99S16-35 15-95c0-66 28-99 85-99zM99-20c44 1 53-31 53-75 0-43-8-75-51-75s-53 32-53 75 10 74 51 75" id="bb"/><path fill="#3a414a" d="M24-231v-30h32v30H24zM24 0v-190h32V0H24" id="bc"/><path fill="#3a414a" d="M101-234c-31-9-42 10-38 44h38v23H63V0H32v-167H5v-23h27c-7-52 17-82 69-68v24" id="bd"/><path fill="#3a414a" d="M96-169c-40 0-48 33-48 73s9 75 48 75c24 0 41-14 43-38l32 2c-6 37-31 61-74 61-59 0-76-41-82-99-10-93 101-131 147-64 4 7 5 14 7 22l-32 3c-4-21-16-35-41-35" id="be"/><path fill="#3a414a" d="M117-194c89-4 53 116 60 194h-32v-121c0-31-8-49-39-48C34-167 62-67 57 0H25l-1-190h30c1 10-1 24 2 32 11-22 29-35 61-36" id="bf"/><g id="q"><use transform="matrix(0.07407407407407404,0,0,0.07407407407407404,0,0)" xlink:href="#ba"/><use transform="matrix(0.07407407407407404,0,0,0.07407407407407404,19.185185185185176,0)" xlink:href="#bb"/><use transform="matrix(0.07407407407407404,0,0,0.07407407407407404,33.999999999999986,0)" xlink:href="#aK"/><use transform="matrix(0.07407407407407404,0,0,0.07407407407407404,41.40740740740739,0)" xlink:href="#bc"/><use transform="matrix(0.07407407407407404,0,0,0.07407407407407404,47.25925925925924,0)" xlink:href="#bd"/><use transform="matrix(0.07407407407407404,0,0,0.07407407407407404,54.66666666666664,0)" xlink:href="#bc"/><use transform="matrix(0.07407407407407404,0,0,0.07407407407407404,60.51851851851849,0)" xlink:href="#be"/><use transform="matrix(0.07407407407407404,0,0,0.07407407407407404,73.85185185185182,0)" xlink:href="#aJ"/><use transform="matrix(0.07407407407407404,0,0,0.07407407407407404,88.66666666666663,0)" xlink:href="#aK"/><use transform="matrix(0.07407407407407404,0,0,0.07407407407407404,96.07407407407403,0)" xlink:href="#bc"/><use transform="matrix(0.07407407407407404,0,0,0.07407407407407404,101.92592592592588,0)" xlink:href="#bb"/><use transform="matrix(0.07407407407407404,0,0,0.07407407407407404,116.74074074074069,0)" xlink:href="#bf"/></g><path fill="#3a414a" d="M185-189c-5-48-123-54-124 2 14 75 158 14 163 119 3 78-121 87-175 55-17-10-28-26-33-46l33-7c5 56 141 63 141-1 0-78-155-14-162-118-5-82 145-84 179-34 5 7 8 16 11 25" id="bg"/><path fill="#3a414a" d="M108 0H70L1-190h34L89-25l56-165h34" id="bh"/><g id="r"><use transform="matrix(0.07407407407407404,0,0,0.07407407407407404,0,0)" xlink:href="#bg"/><use transform="matrix(0.07407407407407404,0,0,0.07407407407407404,17.77777777777777,0)" xlink:href="#aN"/><use transform="matrix(0.07407407407407404,0,0,0.07407407407407404,32.59259259259258,0)" xlink:href="#aP"/><use transform="matrix(0.07407407407407404,0,0,0.07407407407407404,41.40740740740739,0)" xlink:href="#bh"/><use transform="matrix(0.07407407407407404,0,0,0.07407407407407404,54.74074074074072,0)" xlink:href="#bc"/><use transform="matrix(0.07407407407407404,0,0,0.07407407407407404,60.59259259259257,0)" xlink:href="#be"/><use transform="matrix(0.07407407407407404,0,0,0.07407407407407404,73.9259259259259,0)" xlink:href="#aN"/></g><path fill="#3a414a" d="M205 0l-28-72H64L36 0H1l101-248h38L239 0h-34zm-38-99l-47-123c-12 45-31 82-46 123h93" id="bi"/><path fill="#3a414a" d="M179-190L93 31C79 59 56 82 12 73V49c39 6 53-20 64-50L1-190h34L92-34l54-156h33" id="bj"/><g id="s"><use transform="matrix(0.07407407407407404,0,0,0.07407407407407404,0,0)" xlink:href="#bi"/><use transform="matrix(0.07407407407407404,0,0,0.07407407407407404,17.77777777777777,0)" xlink:href="#be"/><use transform="matrix(0.07407407407407404,0,0,0.07407407407407404,31.111111111111104,0)" xlink:href="#aK"/><use transform="matrix(0.07407407407407404,0,0,0.07407407407407404,38.518518518518505,0)" xlink:href="#bc"/><use transform="matrix(0.07407407407407404,0,0,0.07407407407407404,44.37037037037035,0)" xlink:href="#bh"/><use transform="matrix(0.07407407407407404,0,0,0.07407407407407404,57.70370370370368,0)" xlink:href="#bc"/><use transform="matrix(0.07407407407407404,0,0,0.07407407407407404,63.55555555555553,0)" xlink:href="#aK"/><use transform="matrix(0.07407407407407404,0,0,0.07407407407407404,70.96296296296293,0)" xlink:href="#bj"/></g><path d="M143 4C61 4 22-44 18-125c-5-107 100-154 193-111 17 8 29 25 37 43l-32 9c-13-25-37-40-76-40-61 0-88 39-88 99 0 61 29 100 91 101 35 0 62-11 79-27v-45h-74v-28h105v86C228-13 192 4 143 4" id="bk"/><path d="M59-47c-2 24 18 29 38 22v24C64 9 27 4 27-40v-127H5v-23h24l9-43h21v43h35v23H59v120" id="bl"/><g id="t"><use transform="matrix(0.06234567901234565,0,0,0.06234567901234565,0,0)" xlink:href="#bk"/><use transform="matrix(0.06234567901234565,0,0,0.06234567901234565,17.456790123456784,0)" xlink:href="#aR"/><use transform="matrix(0.06234567901234565,0,0,0.06234567901234565,29.925925925925917,0)" xlink:href="#bl"/><use transform="matrix(0.06234567901234565,0,0,0.06234567901234565,36.16049382716048,0)" xlink:href="#aV"/></g><g id="u"><use transform="matrix(0.06234567901234565,0,0,0.06234567901234565,0,0)" xlink:href="#aQ"/><use transform="matrix(0.06234567901234565,0,0,0.06234567901234565,16.147530864197524,0)" xlink:href="#aR"/><use transform="matrix(0.06234567901234565,0,0,0.06234567901234565,28.616666666666653,0)" xlink:href="#aW"/><use transform="matrix(0.06234567901234565,0,0,0.06234567901234565,47.258024691358,0)" xlink:href="#aT"/><use transform="matrix(0.06234567901234565,0,0,0.06234567901234565,52.18333333333331,0)" xlink:href="#aX"/><use transform="matrix(0.06234567901234565,0,0,0.06234567901234565,64.65246913580243,0)" xlink:href="#aY"/><use transform="matrix(0.06234567901234565,0,0,0.06234567901234565,77.12160493827156,0)" xlink:href="#aR"/><use transform="matrix(0.06234567901234565,0,0,0.06234567901234565,89.59074074074069,0)" xlink:href="#aZ"/><use transform="matrix(0.06234567901234565,0,0,0.06234567901234565,97.00987654320981,0)" xlink:href="#aV"/></g><path d="M30 0v-248h33v221h125V0H30" id="bm"/><path d="M100-194c62-1 85 37 85 99 1 63-27 99-86 99S16-35 15-95c0-66 28-99 85-99zM99-20c44 1 53-31 53-75 0-43-8-75-51-75s-53 32-53 75 10 74 51 75" id="bn"/><path d="M143 0L79-87 56-68V0H24v-261h32v163l83-92h37l-77 82L181 0h-38" id="bo"/><g id="v"><use transform="matrix(0.06234567901234565,0,0,0.06234567901234565,0,0)" xlink:href="#bm"/><use transform="matrix(0.06234567901234565,0,0,0.06234567901234565,12.46913580246913,0)" xlink:href="#bn"/><use transform="matrix(0.06234567901234565,0,0,0.06234567901234565,24.93827160493826,0)" xlink:href="#bn"/><use transform="matrix(0.06234567901234565,0,0,0.06234567901234565,37.40740740740739,0)" xlink:href="#bo"/><use transform="matrix(0.06234567901234565,0,0,0.06234567901234565,48.629629629629605,0)" xlink:href="#aV"/></g><path d="M101-234c-31-9-42 10-38 44h38v23H63V0H32v-167H5v-23h27c-7-52 17-82 69-68v24" id="bp"/><g id="w"><use transform="matrix(0.06234567901234565,0,0,0.06234567901234565,0,0)" xlink:href="#bp"/><use transform="matrix(0.06234567901234565,0,0,0.06234567901234565,6.234567901234565,0)" xlink:href="#bn"/><use transform="matrix(0.06234567901234565,0,0,0.06234567901234565,18.703703703703695,0)" xlink:href="#aZ"/></g><path d="M240 0l2-218c-23 76-54 145-80 218h-23L58-218 59 0H30v-248h44l77 211c21-75 51-140 76-211h43V0h-30" id="bq"/><path d="M141-36C126-15 110 5 73 4 37 3 15-17 15-53c-1-64 63-63 125-63 3-35-9-54-41-54-24 1-41 7-42 31l-33-3c5-37 33-52 76-52 45 0 72 20 72 64v82c-1 20 7 32 28 27v20c-31 9-61-2-59-35zM48-53c0 20 12 33 32 33 41-3 63-29 60-74-43 2-92-5-92 41" id="br"/><g id="x"><use transform="matrix(0.06234567901234565,0,0,0.06234567901234565,0,0)" xlink:href="#bq"/><use transform="matrix(0.06234567901234565,0,0,0.06234567901234565,18.64135802469135,0)" xlink:href="#aR"/><use transform="matrix(0.06234567901234565,0,0,0.06234567901234565,31.110493827160482,0)" xlink:href="#aY"/><use transform="matrix(0.06234567901234565,0,0,0.06234567901234565,43.579629629629615,0)" xlink:href="#aT"/><use transform="matrix(0.06234567901234565,0,0,0.06234567901234565,48.50493827160492,0)" xlink:href="#aS"/><use transform="matrix(0.06234567901234565,0,0,0.06234567901234565,59.72716049382714,0)" xlink:href="#br"/><use transform="matrix(0.06234567901234565,0,0,0.06234567901234565,72.19629629629627,0)" xlink:href="#bl"/><use transform="matrix(0.06234567901234565,0,0,0.06234567901234565,78.43086419753084,0)" xlink:href="#aT"/><use transform="matrix(0.06234567901234565,0,0,0.06234567901234565,83.35617283950614,0)" xlink:href="#bn"/><use transform="matrix(0.06234567901234565,0,0,0.06234567901234565,95.82530864197527,0)" xlink:href="#aX"/><use transform="matrix(0.06234567901234565,0,0,0.06234567901234565,108.2944444444444,0)" xlink:href="#aV"/></g><g id="y"><use transform="matrix(0.06234567901234565,0,0,0.06234567901234565,0,0)" xlink:href="#aX"/><use transform="matrix(0.06234567901234565,0,0,0.06234567901234565,12.46913580246913,0)" xlink:href="#bn"/><use transform="matrix(0.06234567901234565,0,0,0.06234567901234565,24.93827160493826,0)" xlink:href="#bl"/></g><g id="z"><use transform="matrix(0.06234567901234565,0,0,0.06234567901234565,0,0)" xlink:href="#bl"/><use transform="matrix(0.06234567901234565,0,0,0.06234567901234565,6.234567901234565,0)" xlink:href="#br"/><use transform="matrix(0.06234567901234565,0,0,0.06234567901234565,18.703703703703695,0)" xlink:href="#bo"/><use transform="matrix(0.06234567901234565,0,0,0.06234567901234565,29.925925925925913,0)" xlink:href="#aR"/><use transform="matrix(0.06234567901234565,0,0,0.06234567901234565,42.39506172839504,0)" xlink:href="#aX"/></g><path d="M212-179c-10-28-35-45-73-45-59 0-87 40-87 99 0 60 29 101 89 101 43 0 62-24 78-52l27 14C228-24 195 4 139 4 59 4 22-46 18-125c-6-104 99-153 187-111 19 9 31 26 39 46" id="bs"/><g id="A"><use transform="matrix(0.06234567901234565,0,0,0.06234567901234565,0,0)" xlink:href="#bs"/><use transform="matrix(0.06234567901234565,0,0,0.06234567901234565,16.147530864197524,0)" xlink:href="#aZ"/><use transform="matrix(0.06234567901234565,0,0,0.06234567901234565,23.566666666666656,0)" xlink:href="#aR"/><use transform="matrix(0.06234567901234565,0,0,0.06234567901234565,36.03580246913579,0)" xlink:href="#br"/><use transform="matrix(0.06234567901234565,0,0,0.06234567901234565,48.50493827160492,0)" xlink:href="#bl"/><use transform="matrix(0.06234567901234565,0,0,0.06234567901234565,54.739506172839484,0)" xlink:href="#aR"/></g><g id="B"><use transform="matrix(0.06234567901234565,0,0,0.06234567901234565,0,0)" xlink:href="#br"/><use transform="matrix(0.06234567901234565,0,0,0.06234567901234565,12.46913580246913,0)" xlink:href="#aX"/></g><path d="M205 0l-28-72H64L36 0H1l101-248h38L239 0h-34zm-38-99l-47-123c-12 45-31 82-46 123h93" id="bt"/><path d="M24 0v-261h32V0H24" id="bu"/><g id="C"><use transform="matrix(0.06234567901234565,0,0,0.06234567901234565,0,0)" xlink:href="#bt"/><use transform="matrix(0.06234567901234565,0,0,0.06234567901234565,14.962962962962957,0)" xlink:href="#bu"/><use transform="matrix(0.06234567901234565,0,0,0.06234567901234565,19.888271604938264,0)" xlink:href="#br"/><use transform="matrix(0.06234567901234565,0,0,0.06234567901234565,32.35740740740739,0)" xlink:href="#aZ"/><use transform="matrix(0.06234567901234565,0,0,0.06234567901234565,39.77654320987653,0)" xlink:href="#aW"/></g><path d="M185-189c-5-48-123-54-124 2 14 75 158 14 163 119 3 78-121 87-175 55-17-10-28-26-33-46l33-7c5 56 141 63 141-1 0-78-155-14-162-118-5-82 145-84 179-34 5 7 8 16 11 25" id="bv"/><g id="D"><use transform="matrix(0.06234567901234565,0,0,0.06234567901234565,0,0)" xlink:href="#bv"/><use transform="matrix(0.06234567901234565,0,0,0.06234567901234565,14.962962962962957,0)" xlink:href="#aR"/><use transform="matrix(0.06234567901234565,0,0,0.06234567901234565,27.432098765432087,0)" xlink:href="#aX"/><use transform="matrix(0.06234567901234565,0,0,0.06234567901234565,39.90123456790122,0)" xlink:href="#aY"/></g><use transform="matrix(0.06234567901234565,0,0,0.06234567901234565,0,0)" xlink:href="#br" id="E"/><path d="M30-248c87 1 191-15 191 75 0 78-77 80-158 76V0H30v-248zm33 125c57 0 124 11 124-50 0-59-68-47-124-48v98" id="bw"/><path d="M177-190C167-65 218 103 67 71c-23-6-38-20-44-43l32-5c15 47 100 32 89-28v-30C133-14 115 1 83 1 29 1 15-40 15-95c0-56 16-97 71-98 29-1 48 16 59 35 1-10 0-23 2-32h30zM94-22c36 0 50-32 50-73 0-42-14-75-50-75-39 0-46 34-46 75s6 73 46 73" id="bx"/><g id="F"><use transform="matrix(0.06234567901234565,0,0,0.06234567901234565,0,0)" xlink:href="#bw"/><use transform="matrix(0.06234567901234565,0,0,0.06234567901234565,14.962962962962957,0)" xlink:href="#aR"/><use transform="matrix(0.06234567901234565,0,0,0.06234567901234565,27.432098765432087,0)" xlink:href="#aX"/><use transform="matrix(0.06234567901234565,0,0,0.06234567901234565,39.90123456790122,0)" xlink:href="#aY"/><use transform="matrix(0.06234567901234565,0,0,0.06234567901234565,52.37037037037035,0)" xlink:href="#aT"/><use transform="matrix(0.06234567901234565,0,0,0.06234567901234565,57.29567901234566,0)" xlink:href="#aX"/><use transform="matrix(0.06234567901234565,0,0,0.06234567901234565,69.76481481481478,0)" xlink:href="#bx"/></g><path d="M33 0v-248h34V0H33" id="by"/><g id="G"><use transform="matrix(0.06234567901234565,0,0,0.06234567901234565,0,0)" xlink:href="#by"/><use transform="matrix(0.06234567901234565,0,0,0.06234567901234565,6.234567901234565,0)" xlink:href="#aX"/><use transform="matrix(0.06234567901234565,0,0,0.06234567901234565,18.703703703703695,0)" xlink:href="#bl"/><use transform="matrix(0.06234567901234565,0,0,0.06234567901234565,24.93827160493826,0)" xlink:href="#aR"/><use transform="matrix(0.06234567901234565,0,0,0.06234567901234565,37.40740740740739,0)" xlink:href="#aX"/><use transform="matrix(0.06234567901234565,0,0,0.06234567901234565,49.87654320987652,0)" xlink:href="#bl"/></g><path fill="#333" d="M15-91v-56l181-69v40L49-119l147 57v40" id="bz"/><path fill="#333" d="M25-224v-37h50v37H25zM25 0v-190h50V0H25" id="bA"/><path fill="#333" d="M135-194c87-1 58 113 63 194h-50c-7-57 23-157-34-157-59 0-34 97-39 157H25l-1-190h47c2 12-1 28 3 38 12-26 28-41 61-42" id="bB"/><path fill="#333" d="M190-63c-7 42-38 67-86 67-59 0-84-38-90-98-12-110 154-137 174-36l-49 2c-2-19-15-32-35-32-30 0-35 28-38 64-6 74 65 87 74 30" id="bC"/><path fill="#333" d="M25 0v-261h50V0H25" id="bD"/><path fill="#333" d="M85 4C-2 5 27-109 22-190h50c7 57-23 150 33 157 60-5 35-97 40-157h50l1 190h-47c-2-12 1-28-3-38-12 25-28 42-61 42" id="bE"/><path fill="#333" d="M88-194c31-1 46 15 58 34l-1-101h50l1 261h-48c-2-10 0-23-3-31C134-8 116 4 84 4 32 4 16-41 15-95c0-56 19-97 73-99zm17 164c33 0 40-30 41-66 1-37-9-64-41-64s-38 30-39 65c0 43 13 65 39 65" id="bF"/><path fill="#333" d="M185-48c-13 30-37 53-82 52C43 2 14-33 14-96s30-98 90-98c62 0 83 45 84 108H66c0 31 8 55 39 56 18 0 30-7 34-22zm-45-69c5-46-57-63-70-21-2 6-4 13-4 21h74" id="bG"/><path fill="#333" d="M15-22v-40l146-57-146-57v-40l181 69v56" id="bH"/><g id="H"><use transform="matrix(0.061728395061728385,0,0,0.061728395061728385,0,0)" xlink:href="#bz"/><use transform="matrix(0.061728395061728385,0,0,0.061728395061728385,12.96296296296296,0)" xlink:href="#bz"/><use transform="matrix(0.061728395061728385,0,0,0.061728395061728385,25.92592592592592,0)" xlink:href="#bA"/><use transform="matrix(0.061728395061728385,0,0,0.061728395061728385,32.09876543209876,0)" xlink:href="#bB"/><use transform="matrix(0.061728395061728385,0,0,0.061728395061728385,45.61728395061728,0)" xlink:href="#bC"/><use transform="matrix(0.061728395061728385,0,0,0.061728395061728385,57.962962962962955,0)" xlink:href="#bD"/><use transform="matrix(0.061728395061728385,0,0,0.061728395061728385,64.1358024691358,0)" xlink:href="#bE"/><use transform="matrix(0.061728395061728385,0,0,0.061728395061728385,77.65432098765432,0)" xlink:href="#bF"/><use transform="matrix(0.061728395061728385,0,0,0.061728395061728385,91.17283950617283,0)" xlink:href="#bG"/><use transform="matrix(0.061728395061728385,0,0,0.061728395061728385,103.5185185185185,0)" xlink:href="#bH"/><use transform="matrix(0.061728395061728385,0,0,0.061728395061728385,116.48148148148147,0)" xlink:href="#bH"/></g><g id="I"><use transform="matrix(0.06234567901234565,0,0,0.06234567901234565,0,0)" xlink:href="#bv"/><use transform="matrix(0.06234567901234565,0,0,0.06234567901234565,14.962962962962957,0)" xlink:href="#aR"/><use transform="matrix(0.06234567901234565,0,0,0.06234567901234565,27.432098765432087,0)" xlink:href="#aX"/><use transform="matrix(0.06234567901234565,0,0,0.06234567901234565,39.90123456790122,0)" xlink:href="#aY"/><use transform="matrix(0.06234567901234565,0,0,0.06234567901234565,52.37037037037035,0)" xlink:href="#aV"/></g><path d="M190 0L58-211 59 0H30v-248h39L202-35l-2-213h31V0h-41" id="bI"/><g id="J"><use transform="matrix(0.06234567901234565,0,0,0.06234567901234565,0,0)" xlink:href="#bI"/><use transform="matrix(0.06234567901234565,0,0,0.06234567901234565,16.147530864197524,0)" xlink:href="#bn"/><use transform="matrix(0.06234567901234565,0,0,0.06234567901234565,28.616666666666653,0)" xlink:href="#bl"/><use transform="matrix(0.06234567901234565,0,0,0.06234567901234565,34.851234567901216,0)" xlink:href="#aT"/><use transform="matrix(0.06234567901234565,0,0,0.06234567901234565,39.77654320987652,0)" xlink:href="#bp"/><use transform="matrix(0.06234567901234565,0,0,0.06234567901234565,46.011111111111084,0)" xlink:href="#aT"/><use transform="matrix(0.06234567901234565,0,0,0.06234567901234565,50.93641975308639,0)" xlink:href="#aS"/><use transform="matrix(0.06234567901234565,0,0,0.06234567901234565,62.15864197530861,0)" xlink:href="#br"/><use transform="matrix(0.06234567901234565,0,0,0.06234567901234565,74.62777777777774,0)" xlink:href="#bl"/><use transform="matrix(0.06234567901234565,0,0,0.06234567901234565,80.86234567901231,0)" xlink:href="#aT"/><use transform="matrix(0.06234567901234565,0,0,0.06234567901234565,85.78765432098761,0)" xlink:href="#bn"/><use transform="matrix(0.06234567901234565,0,0,0.06234567901234565,98.25679012345674,0)" xlink:href="#aX"/></g><g id="K"><use transform="matrix(0.06234567901234565,0,0,0.06234567901234565,0,0)" xlink:href="#bI"/><use transform="matrix(0.06234567901234565,0,0,0.06234567901234565,16.147530864197524,0)" xlink:href="#bn"/><use transform="matrix(0.06234567901234565,0,0,0.06234567901234565,28.616666666666653,0)" xlink:href="#bl"/><use transform="matrix(0.06234567901234565,0,0,0.06234567901234565,34.851234567901216,0)" xlink:href="#aT"/><use transform="matrix(0.06234567901234565,0,0,0.06234567901234565,39.77654320987652,0)" xlink:href="#bp"/><use transform="matrix(0.06234567901234565,0,0,0.06234567901234565,46.011111111111084,0)" xlink:href="#aT"/><use transform="matrix(0.06234567901234565,0,0,0.06234567901234565,50.93641975308639,0)" xlink:href="#aS"/><use transform="matrix(0.06234567901234565,0,0,0.06234567901234565,62.15864197530861,0)" xlink:href="#br"/><use transform="matrix(0.06234567901234565,0,0,0.06234567901234565,74.62777777777774,0)" xlink:href="#bl"/><use transform="matrix(0.06234567901234565,0,0,0.06234567901234565,80.86234567901231,0)" xlink:href="#aT"/><use transform="matrix(0.06234567901234565,0,0,0.06234567901234565,85.78765432098761,0)" xlink:href="#bn"/><use transform="matrix(0.06234567901234565,0,0,0.06234567901234565,98.25679012345674,0)" xlink:href="#aX"/></g><g id="L"><use transform="matrix(0.06234567901234565,0,0,0.06234567901234565,0,0)" xlink:href="#bw"/><use transform="matrix(0.06234567901234565,0,0,0.06234567901234565,14.962962962962957,0)" xlink:href="#aR"/><use transform="matrix(0.06234567901234565,0,0,0.06234567901234565,27.432098765432087,0)" xlink:href="#aZ"/><use transform="matrix(0.06234567901234565,0,0,0.06234567901234565,34.85123456790122,0)" xlink:href="#aW"/><use transform="matrix(0.06234567901234565,0,0,0.06234567901234565,53.49259259259257,0)" xlink:href="#aT"/><use transform="matrix(0.06234567901234565,0,0,0.06234567901234565,58.41790123456788,0)" xlink:href="#aV"/><use transform="matrix(0.06234567901234565,0,0,0.06234567901234565,69.64012345679009,0)" xlink:href="#aV"/><use transform="matrix(0.06234567901234565,0,0,0.06234567901234565,80.86234567901231,0)" xlink:href="#aT"/><use transform="matrix(0.06234567901234565,0,0,0.06234567901234565,85.78765432098761,0)" xlink:href="#bn"/><use transform="matrix(0.06234567901234565,0,0,0.06234567901234565,98.25679012345674,0)" xlink:href="#aX"/></g><path d="M115-194c55 1 70 41 70 98S169 2 115 4C84 4 66-9 55-30l1 105H24l-1-265h31l2 30c10-21 28-34 59-34zm-8 174c40 0 45-34 45-75s-6-73-45-74c-42 0-51 32-51 76 0 43 10 73 51 73" id="bJ"/><g id="M"><use transform="matrix(0.06234567901234565,0,0,0.06234567901234565,0,0)" xlink:href="#bw"/><use transform="matrix(0.06234567901234565,0,0,0.06234567901234565,14.962962962962957,0)" xlink:href="#aZ"/><use transform="matrix(0.06234567901234565,0,0,0.06234567901234565,22.38209876543209,0)" xlink:href="#bn"/><use transform="matrix(0.06234567901234565,0,0,0.06234567901234565,34.85123456790122,0)" xlink:href="#aW"/><use transform="matrix(0.06234567901234565,0,0,0.06234567901234565,53.49259259259257,0)" xlink:href="#bJ"/><use transform="matrix(0.06234567901234565,0,0,0.06234567901234565,65.9617283950617,0)" xlink:href="#bl"/></g><path d="M195 0l-88-114-31 24V0H24v-248h52v113l112-113h60L142-143 257 0h-62" id="bK"/><path d="M185-48c-13 30-37 53-82 52C43 2 14-33 14-96s30-98 90-98c62 0 83 45 84 108H66c0 31 8 55 39 56 18 0 30-7 34-22zm-45-69c5-46-57-63-70-21-2 6-4 13-4 21h74" id="bL"/><path d="M123 10C108 53 80 86 19 72V37c35 8 53-11 59-39L3-190h52l48 148c12-52 28-100 44-148h51" id="bM"/><g id="N"><use transform="matrix(0.06234567901234565,0,0,0.06234567901234565,0,0)" xlink:href="#bK"/><use transform="matrix(0.06234567901234565,0,0,0.06234567901234565,16.147530864197524,0)" xlink:href="#bL"/><use transform="matrix(0.06234567901234565,0,0,0.06234567901234565,28.616666666666653,0)" xlink:href="#bM"/></g><path d="M232-93c-1 65-40 97-104 97C67 4 28-28 28-90v-158h33c8 89-33 224 67 224 102 0 64-133 71-224h33v155" id="bN"/><path d="M47-170H22l-4-78h33" id="bO"/><g id="O"><use transform="matrix(0.06234567901234565,0,0,0.06234567901234565,0,0)" xlink:href="#bN"/><use transform="matrix(0.06234567901234565,0,0,0.06234567901234565,16.147530864197524,0)" xlink:href="#aV"/><use transform="matrix(0.06234567901234565,0,0,0.06234567901234565,27.369753086419742,0)" xlink:href="#aR"/><use transform="matrix(0.06234567901234565,0,0,0.06234567901234565,39.838888888888874,0)" xlink:href="#aZ"/><use transform="matrix(0.06234567901234565,0,0,0.06234567901234565,47.25802469135801,0)" xlink:href="#bO"/><use transform="matrix(0.06234567901234565,0,0,0.06234567901234565,51.497530864197515,0)" xlink:href="#aV"/></g><g id="P"><use transform="matrix(0.06234567901234565,0,0,0.06234567901234565,0,0)" xlink:href="#bN"/><use transform="matrix(0.06234567901234565,0,0,0.06234567901234565,16.147530864197524,0)" xlink:href="#aV"/><use transform="matrix(0.06234567901234565,0,0,0.06234567901234565,27.369753086419742,0)" xlink:href="#aR"/></g><g id="Q"><use transform="matrix(0.06234567901234565,0,0,0.06234567901234565,0,0)" xlink:href="#bs"/><use transform="matrix(0.06234567901234565,0,0,0.06234567901234565,16.147530864197524,0)" xlink:href="#br"/><use transform="matrix(0.06234567901234565,0,0,0.06234567901234565,28.616666666666653,0)" xlink:href="#aV"/><use transform="matrix(0.06234567901234565,0,0,0.06234567901234565,39.838888888888874,0)" xlink:href="#aR"/></g><path d="M30-248c118-7 216 8 213 122C240-48 200 0 122 0H30v-248zM63-27c89 8 146-16 146-99s-60-101-146-95v194" id="bP"/><path d="M115-194c53 0 69 39 70 98 0 66-23 100-70 100C84 3 66-7 56-30L54 0H23l1-261h32v101c10-23 28-34 59-34zm-8 174c40 0 45-34 45-75 0-40-5-75-45-74-42 0-51 32-51 76 0 43 10 73 51 73" id="bQ"/><g id="R"><use transform="matrix(0.06234567901234565,0,0,0.06234567901234565,0,0)" xlink:href="#bP"/><use transform="matrix(0.06234567901234565,0,0,0.06234567901234565,16.147530864197524,0)" xlink:href="#br"/><use transform="matrix(0.06234567901234565,0,0,0.06234567901234565,28.616666666666653,0)" xlink:href="#bl"/><use transform="matrix(0.06234567901234565,0,0,0.06234567901234565,34.851234567901216,0)" xlink:href="#br"/><use transform="matrix(0.06234567901234565,0,0,0.06234567901234565,47.32037037037035,0)" xlink:href="#bQ"/><use transform="matrix(0.06234567901234565,0,0,0.06234567901234565,59.78950617283948,0)" xlink:href="#br"/><use transform="matrix(0.06234567901234565,0,0,0.06234567901234565,72.2586419753086,0)" xlink:href="#aV"/><use transform="matrix(0.06234567901234565,0,0,0.06234567901234565,83.48086419753082,0)" xlink:href="#aR"/><use transform="matrix(0.06234567901234565,0,0,0.06234567901234565,95.94999999999995,0)" xlink:href="#bO"/><use transform="matrix(0.06234567901234565,0,0,0.06234567901234565,100.18950617283944,0)" xlink:href="#aV"/></g><path d="M179-190L93 31C79 59 56 82 12 73V49c39 6 53-20 64-50L1-190h34L92-34l54-156h33" id="bR"/><g id="S"><use transform="matrix(0.06234567901234565,0,0,0.06234567901234565,0,0)" xlink:href="#bt"/><use transform="matrix(0.06234567901234565,0,0,0.06234567901234565,14.962962962962957,0)" xlink:href="#aS"/><use transform="matrix(0.06234567901234565,0,0,0.06234567901234565,26.185185185185176,0)" xlink:href="#bl"/><use transform="matrix(0.06234567901234565,0,0,0.06234567901234565,32.41975308641974,0)" xlink:href="#aT"/><use transform="matrix(0.06234567901234565,0,0,0.06234567901234565,37.345061728395045,0)" xlink:href="#aU"/><use transform="matrix(0.06234567901234565,0,0,0.06234567901234565,48.567283950617266,0)" xlink:href="#aT"/><use transform="matrix(0.06234567901234565,0,0,0.06234567901234565,53.49259259259257,0)" xlink:href="#bl"/><use transform="matrix(0.06234567901234565,0,0,0.06234567901234565,59.727160493827135,0)" xlink:href="#bR"/><use transform="matrix(0.06234567901234565,0,0,0.06234567901234565,70.94938271604936,0)" xlink:href="#bO"/><use transform="matrix(0.06234567901234565,0,0,0.06234567901234565,75.18888888888885,0)" xlink:href="#aV"/></g><g id="T"><use transform="matrix(0.06234567901234565,0,0,0.06234567901234565,0,0)" xlink:href="#bI"/><use transform="matrix(0.06234567901234565,0,0,0.06234567901234565,16.147530864197524,0)" xlink:href="#bn"/><use transform="matrix(0.06234567901234565,0,0,0.06234567901234565,28.616666666666653,0)" xlink:href="#bl"/><use transform="matrix(0.06234567901234565,0,0,0.06234567901234565,34.851234567901216,0)" xlink:href="#aT"/><use transform="matrix(0.06234567901234565,0,0,0.06234567901234565,39.77654320987652,0)" xlink:href="#bp"/><use transform="matrix(0.06234567901234565,0,0,0.06234567901234565,46.011111111111084,0)" xlink:href="#aT"/><use transform="matrix(0.06234567901234565,0,0,0.06234567901234565,50.93641975308639,0)" xlink:href="#aS"/><use transform="matrix(0.06234567901234565,0,0,0.06234567901234565,62.15864197530861,0)" xlink:href="#br"/><use transform="matrix(0.06234567901234565,0,0,0.06234567901234565,74.62777777777774,0)" xlink:href="#bl"/><use transform="matrix(0.06234567901234565,0,0,0.06234567901234565,80.86234567901231,0)" xlink:href="#aT"/><use transform="matrix(0.06234567901234565,0,0,0.06234567901234565,85.78765432098761,0)" xlink:href="#bn"/><use transform="matrix(0.06234567901234565,0,0,0.06234567901234565,98.25679012345674,0)" xlink:href="#aX"/><use transform="matrix(0.06234567901234565,0,0,0.06234567901234565,110.72592592592586,0)" xlink:href="#bO"/><use transform="matrix(0.06234567901234565,0,0,0.06234567901234565,114.96543209876536,0)" xlink:href="#aV"/></g><g id="U"><use transform="matrix(0.06234567901234565,0,0,0.06234567901234565,0,0)" xlink:href="#bt"/><use transform="matrix(0.06234567901234565,0,0,0.06234567901234565,14.962962962962957,0)" xlink:href="#aS"/><use transform="matrix(0.06234567901234565,0,0,0.06234567901234565,26.185185185185176,0)" xlink:href="#bl"/><use transform="matrix(0.06234567901234565,0,0,0.06234567901234565,32.41975308641974,0)" xlink:href="#bn"/><use transform="matrix(0.06234567901234565,0,0,0.06234567901234565,44.88888888888887,0)" xlink:href="#aZ"/></g><g id="V"><use transform="matrix(0.06234567901234565,0,0,0.06234567901234565,0,0)" xlink:href="#bt"/><use transform="matrix(0.06234567901234565,0,0,0.06234567901234565,14.962962962962957,0)" xlink:href="#bu"/><use transform="matrix(0.06234567901234565,0,0,0.06234567901234565,19.888271604938264,0)" xlink:href="#br"/><use transform="matrix(0.06234567901234565,0,0,0.06234567901234565,32.35740740740739,0)" xlink:href="#aZ"/><use transform="matrix(0.06234567901234565,0,0,0.06234567901234565,39.77654320987653,0)" xlink:href="#aW"/><use transform="matrix(0.06234567901234565,0,0,0.06234567901234565,58.41790123456788,0)" xlink:href="#bq"/><use transform="matrix(0.06234567901234565,0,0,0.06234567901234565,77.05925925925922,0)" xlink:href="#br"/><use transform="matrix(0.06234567901234565,0,0,0.06234567901234565,89.52839506172835,0)" xlink:href="#aX"/><use transform="matrix(0.06234567901234565,0,0,0.06234567901234565,101.99753086419747,0)" xlink:href="#br"/><use transform="matrix(0.06234567901234565,0,0,0.06234567901234565,114.4666666666666,0)" xlink:href="#bx"/><use transform="matrix(0.06234567901234565,0,0,0.06234567901234565,126.93580246913572,0)" xlink:href="#aR"/><use transform="matrix(0.06234567901234565,0,0,0.06234567901234565,139.40493827160486,0)" xlink:href="#aZ"/><use transform="matrix(0.06234567901234565,0,0,0.06234567901234565,146.824074074074,0)" xlink:href="#bO"/><use transform="matrix(0.06234567901234565,0,0,0.06234567901234565,151.0635802469135,0)" xlink:href="#aV"/></g><path d="M160-131c35 5 61 23 61 61C221 17 115-2 30 0v-248c76 3 177-17 177 60 0 33-19 50-47 57zm-97-11c50-1 110 9 110-42 0-47-63-36-110-37v79zm0 115c55-2 124 14 124-45 0-56-70-42-124-44v89" id="bS"/><g id="W"><use transform="matrix(0.06234567901234565,0,0,0.06234567901234565,0,0)" xlink:href="#bS"/><use transform="matrix(0.06234567901234565,0,0,0.06234567901234565,14.962962962962957,0)" xlink:href="#aZ"/><use transform="matrix(0.06234567901234565,0,0,0.06234567901234565,22.38209876543209,0)" xlink:href="#bn"/><use transform="matrix(0.06234567901234565,0,0,0.06234567901234565,34.85123456790122,0)" xlink:href="#br"/><use transform="matrix(0.06234567901234565,0,0,0.06234567901234565,47.320370370370355,0)" xlink:href="#aY"/><use transform="matrix(0.06234567901234565,0,0,0.06234567901234565,59.78950617283949,0)" xlink:href="#aS"/><use transform="matrix(0.06234567901234565,0,0,0.06234567901234565,71.01172839506171,0)" xlink:href="#br"/><use transform="matrix(0.06234567901234565,0,0,0.06234567901234565,83.48086419753083,0)" xlink:href="#aV"/><use transform="matrix(0.06234567901234565,0,0,0.06234567901234565,94.70308641975305,0)" xlink:href="#bl"/><use transform="matrix(0.06234567901234565,0,0,0.06234567901234565,100.93765432098762,0)" xlink:href="#aQ"/><use transform="matrix(0.06234567901234565,0,0,0.06234567901234565,117.08518518518514,0)" xlink:href="#aR"/><use transform="matrix(0.06234567901234565,0,0,0.06234567901234565,129.55432098765428,0)" xlink:href="#aS"/><use transform="matrix(0.06234567901234565,0,0,0.06234567901234565,140.7765432098765,0)" xlink:href="#aT"/><use transform="matrix(0.06234567901234565,0,0,0.06234567901234565,145.7018518518518,0)" xlink:href="#aR"/><use transform="matrix(0.06234567901234565,0,0,0.06234567901234565,158.17098765432095,0)" xlink:href="#aU"/><use transform="matrix(0.06234567901234565,0,0,0.06234567901234565,169.39320987654318,0)" xlink:href="#aR"/><use transform="matrix(0.06234567901234565,0,0,0.06234567901234565,181.86234567901232,0)" xlink:href="#aZ"/><use transform="matrix(0.06234567901234565,0,0,0.06234567901234565,189.28148148148145,0)" xlink:href="#bO"/><use transform="matrix(0.06234567901234565,0,0,0.06234567901234565,193.52098765432095,0)" xlink:href="#aV"/></g><path d="M127-220V0H93v-220H8v-28h204v28h-85" id="bT"/><g id="X"><use transform="matrix(0.06234567901234565,0,0,0.06234567901234565,0,0)" xlink:href="#bT"/><use transform="matrix(0.06234567901234565,0,0,0.06234567901234565,11.159876543209872,0)" xlink:href="#br"/><use transform="matrix(0.06234567901234565,0,0,0.06234567901234565,23.629012345679,0)" xlink:href="#bJ"/><use transform="matrix(0.06234567901234565,0,0,0.06234567901234565,36.098148148148134,0)" xlink:href="#aV"/></g><g id="Y"><use transform="matrix(0.06234567901234565,0,0,0.06234567901234565,0,0)" xlink:href="#bI"/><use transform="matrix(0.06234567901234565,0,0,0.06234567901234565,16.147530864197524,0)" xlink:href="#bn"/><use transform="matrix(0.06234567901234565,0,0,0.06234567901234565,28.616666666666653,0)" xlink:href="#bl"/><use transform="matrix(0.06234567901234565,0,0,0.06234567901234565,34.851234567901216,0)" xlink:href="#aT"/><use transform="matrix(0.06234567901234565,0,0,0.06234567901234565,39.77654320987652,0)" xlink:href="#bp"/><use transform="matrix(0.06234567901234565,0,0,0.06234567901234565,46.011111111111084,0)" xlink:href="#aT"/><use transform="matrix(0.06234567901234565,0,0,0.06234567901234565,50.93641975308639,0)" xlink:href="#aS"/><use transform="matrix(0.06234567901234565,0,0,0.06234567901234565,62.15864197530861,0)" xlink:href="#br"/><use transform="matrix(0.06234567901234565,0,0,0.06234567901234565,74.62777777777774,0)" xlink:href="#bl"/><use transform="matrix(0.06234567901234565,0,0,0.06234567901234565,80.86234567901231,0)" xlink:href="#aT"/><use transform="matrix(0.06234567901234565,0,0,0.06234567901234565,85.78765432098761,0)" xlink:href="#bn"/><use transform="matrix(0.06234567901234565,0,0,0.06234567901234565,98.25679012345674,0)" xlink:href="#aX"/></g><g id="Z"><use transform="matrix(0.06234567901234565,0,0,0.06234567901234565,0,0)" xlink:href="#br"/><use transform="matrix(0.06234567901234565,0,0,0.06234567901234565,12.46913580246913,0)" xlink:href="#aX"/><use transform="matrix(0.06234567901234565,0,0,0.06234567901234565,24.93827160493826,0)" xlink:href="#aY"/></g><g id="aa"><use transform="matrix(0.06234567901234565,0,0,0.06234567901234565,0,0)" xlink:href="#bv"/><use transform="matrix(0.06234567901234565,0,0,0.06234567901234565,14.962962962962957,0)" xlink:href="#aR"/><use transform="matrix(0.06234567901234565,0,0,0.06234567901234565,27.432098765432087,0)" xlink:href="#aR"/><use transform="matrix(0.06234567901234565,0,0,0.06234567901234565,39.90123456790122,0)" xlink:href="#aV"/></g><path fill="#333" d="M144 0l-44-69L55 0H2l70-98-66-92h53l41 62 40-62h54l-67 91 71 99h-54" id="bU"/><path fill="#333" d="M115-3C79 11 28 4 28-45v-112H4v-33h27l15-45h31v45h36v33H77v99c-1 23 16 31 38 25v30" id="bV"/><g id="ab"><use transform="matrix(0.061728395061728385,0,0,0.061728395061728385,0,0)" xlink:href="#bz"/><use transform="matrix(0.061728395061728385,0,0,0.061728395061728385,12.96296296296296,0)" xlink:href="#bz"/><use transform="matrix(0.061728395061728385,0,0,0.061728395061728385,25.92592592592592,0)" xlink:href="#bG"/><use transform="matrix(0.061728395061728385,0,0,0.061728395061728385,38.271604938271594,0)" xlink:href="#bU"/><use transform="matrix(0.061728395061728385,0,0,0.061728395061728385,50.61728395061727,0)" xlink:href="#bV"/><use transform="matrix(0.061728395061728385,0,0,0.061728395061728385,57.96296296296295,0)" xlink:href="#bG"/><use transform="matrix(0.061728395061728385,0,0,0.061728395061728385,70.30864197530863,0)" xlink:href="#bB"/><use transform="matrix(0.061728395061728385,0,0,0.061728395061728385,83.82716049382715,0)" xlink:href="#bF"/><use transform="matrix(0.061728395061728385,0,0,0.061728395061728385,97.34567901234567,0)" xlink:href="#bH"/><use transform="matrix(0.061728395061728385,0,0,0.061728395061728385,110.30864197530863,0)" xlink:href="#bH"/></g><path fill="#3a414a" d="M24 0v-261h32V0H24" id="bW"/><path fill="#3a414a" d="M210-169c-67 3-38 105-44 169h-31v-121c0-29-5-50-35-48C34-165 62-65 56 0H25l-1-190h30c1 10-1 24 2 32 10-44 99-50 107 0 11-21 27-35 58-36 85-2 47 119 55 194h-31v-121c0-29-5-49-35-48" id="bX"/><path fill="#3a414a" d="M240 0l2-218c-23 76-54 145-80 218h-23L58-218 59 0H30v-248h44l77 211c21-75 51-140 76-211h43V0h-30" id="bY"/><path fill="#3a414a" d="M177-190C167-65 218 103 67 71c-23-6-38-20-44-43l32-5c15 47 100 32 89-28v-30C133-14 115 1 83 1 29 1 15-40 15-95c0-56 16-97 71-98 29-1 48 16 59 35 1-10 0-23 2-32h30zM94-22c36 0 50-32 50-73 0-42-14-75-50-75-39 0-46 34-46 75s6 73 46 73" id="bZ"/><g id="ac"><use transform="matrix(0.07407407407407404,0,0,0.07407407407407404,0,0)" xlink:href="#bi"/><use transform="matrix(0.07407407407407404,0,0,0.07407407407407404,17.77777777777777,0)" xlink:href="#bW"/><use transform="matrix(0.07407407407407404,0,0,0.07407407407407404,23.62962962962962,0)" xlink:href="#aJ"/><use transform="matrix(0.07407407407407404,0,0,0.07407407407407404,38.44444444444443,0)" xlink:href="#aP"/><use transform="matrix(0.07407407407407404,0,0,0.07407407407407404,47.25925925925924,0)" xlink:href="#bX"/><use transform="matrix(0.07407407407407404,0,0,0.07407407407407404,69.40740740740738,0)" xlink:href="#bY"/><use transform="matrix(0.07407407407407404,0,0,0.07407407407407404,91.55555555555551,0)" xlink:href="#aJ"/><use transform="matrix(0.07407407407407404,0,0,0.07407407407407404,106.37037037037032,0)" xlink:href="#bf"/><use transform="matrix(0.07407407407407404,0,0,0.07407407407407404,121.18518518518513,0)" xlink:href="#aJ"/><use transform="matrix(0.07407407407407404,0,0,0.07407407407407404,135.99999999999994,0)" xlink:href="#bZ"/><use transform="matrix(0.07407407407407404,0,0,0.07407407407407404,150.81481481481475,0)" xlink:href="#aN"/><use transform="matrix(0.07407407407407404,0,0,0.07407407407407404,165.62962962962956,0)" xlink:href="#aP"/></g><path fill="#3a414a" d="M160-131c35 5 61 23 61 61C221 17 115-2 30 0v-248c76 3 177-17 177 60 0 33-19 50-47 57zm-97-11c50-1 110 9 110-42 0-47-63-36-110-37v79zm0 115c55-2 124 14 124-45 0-56-70-42-124-44v89" id="ca"/><path fill="#3a414a" d="M85-194c31 0 48 13 60 33l-1-100h32l1 261h-30c-2-10 0-23-3-31C134-8 116 4 85 4 32 4 16-35 15-94c0-66 23-100 70-100zm9 24c-40 0-46 34-46 75 0 40 6 74 45 74 42 0 51-32 51-76 0-42-9-74-50-73" id="cb"/><path fill="#3a414a" d="M233-177c-1 41-23 64-60 70L243 0h-38l-65-103H63V0H30v-248c88 3 205-21 203 71zM63-129c60-2 137 13 137-47 0-61-80-42-137-45v92" id="cc"/><g id="ad"><use transform="matrix(0.07407407407407404,0,0,0.07407407407407404,0,0)" xlink:href="#ca"/><use transform="matrix(0.07407407407407404,0,0,0.07407407407407404,17.77777777777777,0)" xlink:href="#aP"/><use transform="matrix(0.07407407407407404,0,0,0.07407407407407404,26.59259259259258,0)" xlink:href="#bb"/><use transform="matrix(0.07407407407407404,0,0,0.07407407407407404,41.40740740740739,0)" xlink:href="#aJ"/><use transform="matrix(0.07407407407407404,0,0,0.07407407407407404,56.2222222222222,0)" xlink:href="#cb"/><use transform="matrix(0.07407407407407404,0,0,0.07407407407407404,71.03703703703701,0)" xlink:href="#be"/><use transform="matrix(0.07407407407407404,0,0,0.07407407407407404,84.37037037037034,0)" xlink:href="#aJ"/><use transform="matrix(0.07407407407407404,0,0,0.07407407407407404,99.18518518518515,0)" xlink:href="#aM"/><use transform="matrix(0.07407407407407404,0,0,0.07407407407407404,112.51851851851848,0)" xlink:href="#aK"/><use transform="matrix(0.07407407407407404,0,0,0.07407407407407404,119.92592592592588,0)" xlink:href="#cc"/><use transform="matrix(0.07407407407407404,0,0,0.07407407407407404,139.11111111111106,0)" xlink:href="#aN"/><use transform="matrix(0.07407407407407404,0,0,0.07407407407407404,153.92592592592587,0)" xlink:href="#be"/><use transform="matrix(0.07407407407407404,0,0,0.07407407407407404,167.25925925925918,0)" xlink:href="#bc"/><use transform="matrix(0.07407407407407404,0,0,0.07407407407407404,173.11111111111103,0)" xlink:href="#aN"/><use transform="matrix(0.07407407407407404,0,0,0.07407407407407404,187.92592592592584,0)" xlink:href="#bh"/><use transform="matrix(0.07407407407407404,0,0,0.07407407407407404,201.25925925925915,0)" xlink:href="#aN"/><use transform="matrix(0.07407407407407404,0,0,0.07407407407407404,216.07407407407393,0)" xlink:href="#aP"/></g><g id="ae"><use transform="matrix(0.07407407407407404,0,0,0.07407407407407404,0,0)" xlink:href="#bg"/><use transform="matrix(0.07407407407407404,0,0,0.07407407407407404,17.77777777777777,0)" xlink:href="#aN"/><use transform="matrix(0.07407407407407404,0,0,0.07407407407407404,32.59259259259258,0)" xlink:href="#aP"/><use transform="matrix(0.07407407407407404,0,0,0.07407407407407404,41.40740740740739,0)" xlink:href="#bh"/><use transform="matrix(0.07407407407407404,0,0,0.07407407407407404,54.74074074074072,0)" xlink:href="#bc"/><use transform="matrix(0.07407407407407404,0,0,0.07407407407407404,60.59259259259257,0)" xlink:href="#be"/><use transform="matrix(0.07407407407407404,0,0,0.07407407407407404,73.9259259259259,0)" xlink:href="#aN"/></g><g id="af"><use transform="matrix(0.06234567901234565,0,0,0.06234567901234565,0,0)" xlink:href="#aQ"/><use transform="matrix(0.06234567901234565,0,0,0.06234567901234565,16.147530864197524,0)" xlink:href="#aR"/><use transform="matrix(0.06234567901234565,0,0,0.06234567901234565,28.616666666666653,0)" xlink:href="#aS"/><use transform="matrix(0.06234567901234565,0,0,0.06234567901234565,39.838888888888874,0)" xlink:href="#aT"/><use transform="matrix(0.06234567901234565,0,0,0.06234567901234565,44.76419753086418,0)" xlink:href="#aU"/><use transform="matrix(0.06234567901234565,0,0,0.06234567901234565,55.986419753086395,0)" xlink:href="#aR"/><use transform="matrix(0.06234567901234565,0,0,0.06234567901234565,68.45555555555552,0)" xlink:href="#aV"/></g><g id="ag"><use transform="matrix(0.06234567901234565,0,0,0.06234567901234565,0,0)" xlink:href="#bs"/><use transform="matrix(0.06234567901234565,0,0,0.06234567901234565,16.147530864197524,0)" xlink:href="#aZ"/><use transform="matrix(0.06234567901234565,0,0,0.06234567901234565,23.566666666666656,0)" xlink:href="#aR"/><use transform="matrix(0.06234567901234565,0,0,0.06234567901234565,36.03580246913579,0)" xlink:href="#br"/><use transform="matrix(0.06234567901234565,0,0,0.06234567901234565,48.50493827160492,0)" xlink:href="#bl"/><use transform="matrix(0.06234567901234565,0,0,0.06234567901234565,54.739506172839484,0)" xlink:href="#aR"/><use transform="matrix(0.06234567901234565,0,0,0.06234567901234565,67.20864197530861,0)" xlink:href="#aV"/></g></defs></g></svg>