<svg xmlns="http://www.w3.org/2000/svg" xmlns:xlink="http://www.w3.org/1999/xlink" xmlns:lucid="lucid" width="1608" height="1790.36"><g transform="translate(961 609.8576669336007)" lucid:page-tab-id="0_0"><path d="M-1000-1000h2000v2500h-2000z" fill="#fff"/><path d="M-284.3-580.86a8 8 0 0 1 8-8H332a8 8 0 0 1 8 8V1152a8 8 0 0 1-8 8h-608.3a8 8 0 0 1-8-8z" stroke="#000" fill-opacity="0"/><use xlink:href="#a" transform="matrix(1,0,0,1,-276.2864190061821,-580.8576669336007) translate(26.438271604938393 17.95555555555555)"/><use xlink:href="#b" transform="matrix(1,0,0,1,-276.2864190061821,-580.8576669336007) translate(72.57407407407418 17.95555555555555)"/><use xlink:href="#c" transform="matrix(1,0,0,1,-276.2864190061821,-580.8576669336007) translate(147.20185185185193 17.95555555555555)"/><use xlink:href="#d" transform="matrix(1,0,0,1,-276.2864190061821,-580.8576669336007) translate(290.2851851851852 17.95555555555555)"/><use xlink:href="#e" transform="matrix(1,0,0,1,-276.2864190061821,-580.8576669336007) translate(367.40679012345674 17.95555555555555)"/><use xlink:href="#f" transform="matrix(1,0,0,1,-276.2864190061821,-580.8576669336007) translate(417.0962962962962 17.95555555555555)"/><use xlink:href="#g" transform="matrix(1,0,0,1,-276.2864190061821,-580.8576669336007) translate(430.7499999999999 17.95555555555555)"/><use xlink:href="#h" transform="matrix(1,0,0,1,-276.2864190061821,-580.8576669336007) translate(542.7851851851851 17.95555555555555)"/><use xlink:href="#i" transform="matrix(1,0,0,1,-276.2864190061821,-580.8576669336007) translate(133.48580246913588 44.88888888888887)"/><use xlink:href="#j" transform="matrix(1,0,0,1,-276.2864190061821,-580.8576669336007) translate(236.6055555555556 44.88888888888887)"/><use xlink:href="#k" transform="matrix(1,0,0,1,-276.2864190061821,-580.8576669336007) translate(359.7382716049383 44.88888888888887)"/><path d="M551.82-500.25c0 10.9-8.84 19.75-19.75 19.75-10.9 0-19.75-8.84-19.75-19.75 0-10.9 8.84-19.75 19.75-19.75 10.9 0 19.75 8.84 19.75 19.75z" stroke="#333" fill="#fff"/><path d="M532.07-480.5v49.3a20.7 20.7 0 0 0 3.2 11.07l36.8 58.13m-40-63.2l-40 63.2m0-98.75h80" stroke="#333" fill="none"/><path d="M492.07-514a6 6 0 0 1 6-6h68a6 6 0 0 1 6 6v168a6 6 0 0 1-6 6h-68a6 6 0 0 1-6-6z" fill="none"/><use xlink:href="#l" transform="matrix(1,0,0,1,412.06963059700684,-362) translate(72.5 17.77777777777778)"/><path d="M-450.23-389.1c0 10.9-8.84 19.74-19.75 19.74-10.9 0-19.75-8.84-19.75-19.75 0-10.9 8.85-19.76 19.75-19.76s19.75 8.85 19.75 19.75z" stroke="#333" fill="#fff"/><path d="M-469.98-369.36v49.3a20.7 20.7 0 0 0 3.2 11.07l36.8 58.14m-40-63.2l-40 63.2m0-98.75h80" stroke="#333" fill="none"/><path d="M-509.98-402.86a6 6 0 0 1 6-6h68a6 6 0 0 1 6 6v168a6 6 0 0 1-6 6h-68a6 6 0 0 1-6-6z" fill="none"/><use xlink:href="#m" transform="matrix(1,0,0,1,-589.9763305452395,-250.85766693360074) translate(96.60493827160494 17.77777777777778)"/><path d="M200 840.03c0 33.14-76.1 60-170 60s-170-26.86-170-60 76.1-60 170-60 170 26.86 170 60z" stroke="#000" fill="#ff80df"/><use xlink:href="#n" transform="matrix(1,0,0,1,-140,780.0300092824502) translate(91.65499999999999 63.15)"/><use xlink:href="#o" transform="matrix(1,0,0,1,-140,780.0300092824502) translate(170.555 63.15)"/><path d="M551.82 99.73c0 10.9-8.84 19.75-19.75 19.75-10.9 0-19.75-8.84-19.75-19.75 0-10.9 8.84-19.75 19.75-19.75 10.9 0 19.75 8.85 19.75 19.75z" stroke="#333" fill="#fff"/><path d="M532.07 119.48v49.3a20.7 20.7 0 0 0 3.2 11.07l36.8 58.14m-40-63.22l-40 63.2m0-98.74h80" stroke="#333" fill="none"/><path d="M492.07 85.98a6 6 0 0 1 6-6h68a6 6 0 0 1 6 6v168a6 6 0 0 1-6 6h-68a6 6 0 0 1-6-6z" fill="none"/><use xlink:href="#p" transform="matrix(1,0,0,1,412.06963059700684,237.98499535877488) translate(25.12345679012344 17.77777777777778)"/><use xlink:href="#q" transform="matrix(1,0,0,1,412.06963059700684,237.98499535877488) translate(140.92592592592592 17.77777777777778)"/><path d="M551.82-180.26c0 10.9-8.84 19.75-19.75 19.75-10.9 0-19.75-8.86-19.75-19.76 0-10.9 8.84-19.75 19.75-19.75 10.9 0 19.75 8.83 19.75 19.74z" stroke="#333" fill="#fff"/><path d="M532.07-160.5v49.28a20.7 20.7 0 0 0 3.2 11.08L572.08-42m-40-63.22l-40 63.2m0-98.74h80" stroke="#333" fill="none"/><path d="M492.07-194a6 6 0 0 1 6-6h68a6 6 0 0 1 6 6v168a6 6 0 0 1-6 5.98h-68a6 6 0 0 1-6-6z" fill="none"/><use xlink:href="#r" transform="matrix(1,0,0,1,412.06963059700684,-42.01500464122512) translate(44.81481481481481 17.77777777777778)"/><use xlink:href="#q" transform="matrix(1,0,0,1,412.06963059700684,-42.01500464122512) translate(121.23456790123456 17.77777777777778)"/><path d="M211.05-420c0 33.14-80.6 60-180 60s-180-26.86-180-60 80.58-60 180-60c99.4 0 180 26.86 180 60z" stroke="#000" fill="#fe7070"/><use xlink:href="#s" transform="matrix(1,0,0,1,-148.95334997411635,-480) translate(115.105 63.15)"/><use xlink:href="#t" transform="matrix(1,0,0,1,-148.95334997411635,-480) translate(158.105 63.15)"/><path d="M205.52-220c0 33.14-78.1 60-174.47 60-96.36 0-174.48-26.86-174.48-60s78.12-60 174.48-60c96.36 0 174.47 26.86 174.47 60z" fill="#fe7070"/><path d="M203.26-210.33l-.23.5-.55 1.05-.62 1.08-.72 1.12-.8 1.17-.94 1.22-1.07 1.28-.72.8m-3.53 3.53l-1.84 1.6-2.18 1.7-2.53 1.84-1.4.94m-4.25 2.67l-.82.5-4.14 2.26-3.87 1.93m-4.56 2.08l-2.32 1.03-6.95 2.75m-4.73 1.64l-3.63 1.26-5.9 1.78m-4.82 1.4l-9.7 2.5m-4.9 1.1l-9.8 2.07m-4.92.84l-9.88 1.67m-4.96.68l-9.94 1.25m-4.97.58l-10 .83m-4.98.43l-3.44.3-6.55.26m-5 .2l-9.28.4h-.74m-5 .05l-5 .05h-.02l-5-.1m-5-.1L11-160.43m-5-.26l-10-.62m-5-.32l-1.5-.1-8.46-.88m-4.98-.52l-5.2-.54-4.74-.7m-4.96-.73l-7.04-1.03-2.85-.54m-4.93-.94l-6.93-1.33-2.88-.67m-4.88-1.14l-4.92-1.15-4.78-1.32m-4.82-1.35l-1.18-.33-8.37-2.7m-4.7-1.72l-3.63-1.35-5.66-2.38m-4.53-2.1l-1.55-.72-4.5-2.35-2.8-1.62m-4.25-2.64l-2.72-1.88-2.34-1.78-2-1.67-.86-.78m-3.57-3.52l-.12-.13-1.14-1.32-.98-1.25-.88-1.2-.76-1.15-.67-1.1-.57-1.06-.5-1.02m-1.67-4.72l-.02-.07-.2-.9-.14-.9-.1-.9-.1-.88-.03-.88v-.44l.02-.88.04-.88.1-.9.13-.88.17-.9.12-.52m1.67-4.7l.24-.5.54-1.06.64-1.08.7-1.12.83-1.17.93-1.22 1.06-1.28.72-.8m3.55-3.53l1.84-1.6 2.17-1.7 2.53-1.84 1.4-.94m4.25-2.67l.82-.5 4.14-2.26 3.88-1.93m4.56-2.08l2.32-1.03 6.96-2.75m4.73-1.64l3.62-1.26 5.92-1.78m4.8-1.42l9.7-2.48m4.9-1.1l9.8-2.07m4.93-.84l9.87-1.67m4.97-.68l9.93-1.25m4.98-.58l9.98-.83m5-.43l3.44-.3 6.55-.26m5-.2l9.28-.4h.73m5-.05l5.02-.05 5 .1m5 .1l10.03.22m5 .26l10 .62m5 .32l1.5.1 8.46.88m4.98.52l5.2.54 4.73.7m4.96.73l7.05 1.03 2.85.54m4.92.94l6.94 1.33 2.87.67m4.88 1.14l4.93 1.15 4.78 1.32m4.84 1.35l1.17.33 8.38 2.7m4.7 1.72l3.64 1.35 5.66 2.38m4.55 2.1l1.54.72 4.5 2.35 2.8 1.62m4.25 2.64l2.72 1.88 2.34 1.78 2.02 1.67.86.78m3.56 3.52l.13.13 1.13 1.32 1 1.25.87 1.2.76 1.15.68 1.1.58 1.06.5 1.02m1.67 4.72l.02.07.2.9.15.9.1.9.08.88.04.88v.44l-.02.88-.05.88-.1.9-.13.88-.17.9-.12.52" stroke="#000" fill="none"/><use xlink:href="#u" transform="matrix(1,0,0,1,-143.4300249611746,-280) translate(47.605 63.15)"/><use xlink:href="#v" transform="matrix(1,0,0,1,-143.4300249611746,-280) translate(100.605 63.15)"/><use xlink:href="#w" transform="matrix(1,0,0,1,-143.4300249611746,-280) translate(126.555 63.15)"/><use xlink:href="#x" transform="matrix(1,0,0,1,-143.4300249611746,-280) translate(227.405 63.15)"/><use xlink:href="#y" transform="matrix(1,0,0,1,-143.4300249611746,-280) translate(257.405 63.15)"/><path d="M205.52 0c0 33.14-78.1 60-174.47 60-96.36 0-174.48-26.86-174.48-60S-65.3-60 31.05-60c96.36 0 174.47 26.86 174.47 60z" stroke="#000" fill="#9391ff"/><use xlink:href="#z" transform="matrix(1,0,0,1,-143.43002496117452,-60) translate(95.13 63.15)"/><use xlink:href="#A" transform="matrix(1,0,0,1,-143.43002496117452,-60) translate(163.03 63.15)"/><path d="M205.52 220c0 33.14-77.34 60-172.76 60-95.4 0-172.76-26.86-172.76-60s77.35-60 172.76-60c95.42 0 172.76 26.86 172.76 60z" stroke="#000" fill="#9391ff"/><use xlink:href="#B" transform="matrix(1,0,0,1,-140,160) translate(45.23 63.15)"/><use xlink:href="#C" transform="matrix(1,0,0,1,-140,160) translate(117.18 63.15)"/><use xlink:href="#D" transform="matrix(1,0,0,1,-140,160) translate(210.98000000000002 63.15)"/><path d="M-469.34-329.44l328.7 1169M-469.34-329.43l-.95-3.38" stroke="#3a414a" fill="none"/><path d="M-140.5 840.03v.47l.04.92.08.87-.74-2.63.63-.18z" stroke="#3a414a" stroke-width=".05" fill="#3a414a"/><path d="M531.2-121.42L211.9-419.67M531.2-121.43l2.56 2.4" stroke="#3a414a" fill="none"/><path d="M212.26-420l-.68.7-.05-.03.02-.67v-.44l-.02-.26z" stroke="#3a414a" stroke-width=".05" fill="#3a414a"/><path d="M531.07-441.1L31.54-480.47M531.06-441.1l3.5.27" stroke="#3a414a" fill="none"/><path d="M31.6-480.96l-.04.47h-.5l-3.02.03.05-.76zM31.55-281.4h-1v-5.18h1zm0-10.36h-1v-10.34h1zm0-15.5h-1v-2.07h1zm0-23.4h-1v-2.48h1zm0-7.65h-1v-10.35h1zm0-15.53h-1V-359h1z" stroke="#3a414a" stroke-width=".05" fill="#3a414a"/><path d="M31.04-359.5h.5v.5h-1v-.5z" fill="#3a414a"/><path d="M31.04-359.52h.53v.56h-1.05v-.58zm-.47.5h.95v-.46h-.95zM41.66-298.44l-10.6 17.94-10.63-17.94.87-.5 9.75 16.48 9.75-16.5z" stroke="#3a414a" stroke-width=".05" fill="#3a414a"/><use xlink:href="#E" transform="matrix(1,0,0,1,-20.731127751894128,-330.6666666714333) translate(0 14.222222222222223)"/><path d="M200 640c0 33.15-76.1 60-170 60s-170-26.85-170-60c0-33.12 76.1-60 170-60s170 26.88 170 60z" stroke="#000" fill="#9391ff"/><use xlink:href="#F" transform="matrix(1,0,0,1,-140,580.0150046412251) translate(97.605 63.15)"/><use xlink:href="#G" transform="matrix(1,0,0,1,-140,580.0150046412251) translate(153.60500000000002 63.15)"/><path d="M531.12 158.7L206.47.22M531.1 158.7l3.17 1.53" stroke="#3a414a" fill="none"/><path d="M206.7-.22l-.44.9-.25-.13.02-.55v-.55zM31.55-61.4h-1v-5.4h1zm0-10.8h-1V-83h1zm0-16.2h-1v-10.8h1zm0-32.5h-1v-10.88h1zm0-16.32h-1v-10.9h1zm0-16.34h-1V-159h1z" stroke="#3a414a" stroke-width=".05" fill="#3a414a"/><path d="M31.04-159.5h.5v.5h-1v-.5z" fill="#3a414a"/><path d="M31.04-159.53h.53v.57h-1.05v-.58zm-.47.52h.95v-.48h-.95zM41.66-78.44L31.06-60.5 20.42-78.44l.87-.5 9.75 16.47 9.75-16.48z" stroke="#3a414a" stroke-width=".05" fill="#3a414a"/><use xlink:href="#E" transform="matrix(1,0,0,1,-20.731127751894213,-120.66666666653181) translate(0 14.222222222222223)"/><path d="M33.25 158.58l-1 .02-.1-4.65h1.02zm-.16-9.3l-1.02.03-.16-9.3h1zm-.26-13.93h-1l-.16-9.28 1-.02zm-.24-13.94l-1 .02-.16-9.3h1zm-.24-13.94l-1 .02-.16-9.3h1zm-.55-31.62h-1l-.08-5.54h1zm-.16-10.2l-1 .02-.1-4.65h1.02z" stroke="#3a414a" stroke-width=".05" fill="#3a414a"/><path d="M31.04 60.5h.5l.02.5-1 .02v-.53z" fill="#3a414a"/><path d="M31.04 60.48h.53v.55l-1.04.02v-.6zm-.46.52l.95-.02v-.46h-.96zM43.06 141.38l-10.3 18.12-10.92-17.76.85-.52 10.03 16.32 9.46-16.66z" stroke="#3a414a" stroke-width=".05" fill="#3a414a"/><use xlink:href="#H" transform="matrix(1,0,0,1,-17.811437882169756,75.84181738457457) translate(0 14.222222222222223)"/><path d="M531.3 159.33L200.77 639.6M531.28 159.34l2-2.9" stroke="#3a414a" fill="none"/><path d="M201.2 639.88l-.72 1.04.02-.9v-.64zM30.5 778.62h-1v-5.17h1zm0-10.35h-1v-10.34h1zm0-33.28h-1v-8.12h1zm0-13.3h-1v-10.34h1zm0-15.5h-1V701h1z" stroke="#3a414a" stroke-width=".05" fill="#3a414a"/><path d="M30 700.5h.5v.53h-1v-.52z" fill="#3a414a"/><path d="M30 700.5h.52v.55h-1.04v-.57zm-.48.5h.96v-.47h-.96zM40.6 761.6L30 779.52 19.4 761.6l.85-.52 9.75 16.5 9.75-16.5z" stroke="#3a414a" stroke-width=".05" fill="#3a414a"/><use xlink:href="#E" transform="matrix(1,0,0,1,-21.77777777777775,734.9911504136695) translate(0 14.222222222222223)"/><path d="M205.52 440c0 33.14-76.73 60-171.38 60-94.65 0-171.38-26.86-171.38-60s76.73-60 171.38-60c94.65 0 171.38 26.86 171.38 60z" stroke="#000" fill="#ff80df"/><use xlink:href="#n" transform="matrix(1,0,0,1,-137.23833749352914,380) translate(40.25499999999998 51.9)"/><use xlink:href="#C" transform="matrix(1,0,0,1,-137.23833749352914,380) translate(119.15499999999999 51.9)"/><use xlink:href="#I" transform="matrix(1,0,0,1,-137.23833749352914,380) translate(212.955 51.9)"/><use xlink:href="#J" transform="matrix(1,0,0,1,-137.23833749352914,380) translate(142.555 73.5)"/><path d="M34.63 378.58l-1 .02-.07-4.65h1zm-.13-9.3l-1 .02-.13-9.3h1zm-.2-13.93h-1l-.1-6.88h1zm-.4-28.22h-1l-.1-8.95h1zm-.18-13.6h-1l-.13-9.3h1zm-.2-13.95l-1 .02-.12-9.3h1zm-.2-13.94h-1l-.05-4.63h1z" stroke="#3a414a" stroke-width=".05" fill="#3a414a"/><path d="M32.76 280.5h.5v.5l-1 .02v-.53z" fill="#3a414a"/><path d="M32.76 280.48h.53v.55l-1.06.02v-.6zm-.47.5h.94v-.46h-.95zM44.5 361.4l-10.36 18.1-10.86-17.8.86-.5 9.98 16.34 9.52-16.63z" stroke="#3a414a" stroke-width=".05" fill="#3a414a"/><use xlink:href="#E" transform="matrix(1,0,0,1,-18.216879768231053,327.13527280681143) translate(0 14.222222222222223)"/><path d="M-469.28-329.47l331.34 769M-469.27-329.45l-1.4-3.23" stroke="#3a414a" fill="none"/><path d="M-137.74 440v.46l.04.9-.7-1.63.67-.3z" stroke="#3a414a" stroke-width=".05" fill="#3a414a"/><path d="M-940-576.86a12 12 0 0 1 12-12h296a12 12 0 0 1 12 12v296a12 12 0 0 1-12 12h-296a12 12 0 0 1-12-12z" stroke="#dfe3e8" stroke-width="2" fill="#fff"/><path d="M-861.95-494.08c0 9.23-7.5 16.72-16.73 16.72s-16.72-7.5-16.72-16.72c0-9.24 7.5-16.73 16.72-16.73 9.24 0 16.73 7.48 16.73 16.72z" stroke="#000" stroke-opacity=".25" fill="#ff80df"/><path d="M-861.95-449.5c0 9.25-7.5 16.74-16.73 16.74s-16.72-7.5-16.72-16.73c0-9.22 7.5-16.7 16.72-16.7 9.24 0 16.73 7.48 16.73 16.7z" stroke="#000" stroke-opacity=".25" fill="#4d9eff"/><path d="M-861.95-404.9c0 9.25-7.5 16.74-16.73 16.74s-16.72-7.5-16.72-16.73c0-9.22 7.5-16.7 16.72-16.7 9.24 0 16.73 7.48 16.73 16.7z" stroke="#000" stroke-opacity=".25" fill="#fe7070"/><path d="M-861.95-360.3c0 9.25-7.5 16.74-16.73 16.74s-16.72-7.5-16.72-16.73c0-9.22 7.5-16.7 16.72-16.7 9.24 0 16.73 7.48 16.73 16.7z" stroke="#000" stroke-opacity=".25" fill="#9391ff"/><path d="M-875.58-326.53c0 1.7-1.38 3.1-3.1 3.1-1.7 0-3.1-1.4-3.1-3.1 0-1.7 1.4-3.1 3.1-3.1 1.7 0 3.1 1.4 3.1 3.1z" stroke="#333" fill="#fff"/><path d="M-878.68-323.43v9.6c0 .64.14 1.18.45 1.74l5.75 10.35m-6.2-11.15l-6.2 11.15m0-18.58h12.4" stroke="#333" fill="none"/><path d="M-884.87-328.7c0-.5.42-.92.93-.92h10.53c.5 0 .92.4.92.93v26.02c0 .5-.42.93-.93.93h-10.54c-.5 0-.93-.42-.93-.93z" fill="none"/><g><use xlink:href="#K" transform="matrix(1,0,0,1,-895.4006968641115,-555.4081895816844) translate(0 20.32706104556923)"/></g><g><use xlink:href="#L" transform="matrix(1,0,0,1,-845.226480836237,-510.80888644579585) translate(0 20.387307225313066)"/><use xlink:href="#M" transform="matrix(1,0,0,1,-845.226480836237,-510.80888644579585) translate(46.64259235767546 20.387307225313066)"/><use xlink:href="#N" transform="matrix(1,0,0,1,-845.226480836237,-510.80888644579585) translate(77.80794113916023 20.387307225313066)"/></g><g><use xlink:href="#O" transform="matrix(1,0,0,1,-845.226480836237,-466.2095833099073) translate(0 20.387307225313066)"/><use xlink:href="#M" transform="matrix(1,0,0,1,-845.226480836237,-466.2095833099073) translate(79.57917882362892 20.387307225313066)"/><use xlink:href="#N" transform="matrix(1,0,0,1,-845.226480836237,-466.2095833099073) translate(110.7445276051137 20.387307225313066)"/></g><g><use xlink:href="#P" transform="matrix(1,0,0,1,-845.226480836237,-421.61028017401884) translate(0 20.387307225313066)"/><use xlink:href="#M" transform="matrix(1,0,0,1,-845.226480836237,-421.61028017401884) translate(62.66807616953502 20.387307225313066)"/><use xlink:href="#N" transform="matrix(1,0,0,1,-845.226480836237,-421.61028017401884) translate(93.8334249510198 20.387307225313066)"/></g><g><use xlink:href="#Q" transform="matrix(1,0,0,1,-845.226480836237,-377.01097703813036) translate(0 20.387307225313066)"/><use xlink:href="#M" transform="matrix(1,0,0,1,-845.226480836237,-377.01097703813036) translate(89.5740200431308 20.387307225313066)"/><use xlink:href="#N" transform="matrix(1,0,0,1,-845.226480836237,-377.01097703813036) translate(120.7393688246156 20.387307225313066)"/></g><g><use xlink:href="#R" transform="matrix(1,0,0,1,-845.226480836237,-332.41167390224183) translate(0 20.387307225313066)"/></g><path d="M196.57 1040.05c0 33.13-76.1 60-170 60s-170-26.87-170-60c0-33.14 76.1-60 170-60s170 26.86 170 60z" stroke="#000" fill="#ff80df"/><g><use xlink:href="#S" transform="matrix(1,0,0,1,-143.4300249611746,980.0450139236754) translate(17.72999999999997 63.15)"/><use xlink:href="#C" transform="matrix(1,0,0,1,-143.4300249611746,980.0450139236754) translate(60.67999999999997 63.15)"/><use xlink:href="#T" transform="matrix(1,0,0,1,-143.4300249611746,980.0450139236754) translate(154.48 63.15)"/><use xlink:href="#U" transform="matrix(1,0,0,1,-143.4300249611746,980.0450139236754) translate(189.48 63.15)"/><use xlink:href="#t" transform="matrix(1,0,0,1,-143.4300249611746,980.0450139236754) translate(235.48 63.15)"/></g><path d="M30.5 978.7h-1v-4.3h1zm0-8.58h-1v-8.58h1zm0-12.88h-1v-8.58h1zm0-12.87h-1V940h1zm0-26h-1v-8.66h1zm0-13h-1v-4.34h1z" stroke="#3a414a" stroke-width=".05" fill="#3a414a"/><path d="M30 900.53h.5v.5h-1v-.5z" fill="#3a414a"/><path d="M30 900.5h.52v.57h-1.04v-.58zm-.48.52h.96v-.47h-.96zM40.6 961.67L30 979.62l-10.6-17.95.85-.5L30 977.64l9.75-16.5z" stroke="#3a414a" stroke-width=".05" fill="#3a414a"/><g><use xlink:href="#H" transform="matrix(1,0,0,1,-19.30864197530864,918.6666666666671) translate(0 14.222222222222223)"/></g><defs><path fill="#3a414a" d="M24 0v-248h195v40H76v63h132v40H76v65h150V0H24" id="V"/><path fill="#3a414a" d="M123 10C108 53 80 86 19 72V37c35 8 53-11 59-39L3-190h52l48 148c12-52 28-100 44-148h51" id="W"/><path fill="#3a414a" d="M185-48c-13 30-37 53-82 52C43 2 14-33 14-96s30-98 90-98c62 0 83 45 84 108H66c0 31 8 55 39 56 18 0 30-7 34-22zm-45-69c5-46-57-63-70-21-2 6-4 13-4 21h74" id="X"/><g id="a"><use transform="matrix(0.06234567901234565,0,0,0.06234567901234565,0,0)" xlink:href="#V"/><use transform="matrix(0.06234567901234565,0,0,0.06234567901234565,14.962962962962957,0)" xlink:href="#W"/><use transform="matrix(0.06234567901234565,0,0,0.06234567901234565,27.432098765432087,0)" xlink:href="#X"/></g><path fill="#3a414a" d="M186 0v-106H76V0H24v-248h52v99h110v-99h50V0h-50" id="Y"/><path fill="#3a414a" d="M133-34C117-15 103 5 69 4 32 3 11-16 11-54c-1-60 55-63 116-61 1-26-3-47-28-47-18 1-26 9-28 27l-52-2c7-38 36-58 82-57s74 22 75 68l1 82c-1 14 12 18 25 15v27c-30 8-71 5-69-32zm-48 3c29 0 43-24 42-57-32 0-66-3-65 30 0 17 8 27 23 27" id="Z"/><path fill="#3a414a" d="M25 0v-261h50V0H25" id="aa"/><path fill="#3a414a" d="M115-3C79 11 28 4 28-45v-112H4v-33h27l15-45h31v45h36v33H77v99c-1 23 16 31 38 25v30" id="ab"/><path fill="#3a414a" d="M114-157C55-157 80-60 75 0H25v-261h50l-1 109c12-26 28-41 61-42 86-1 58 113 63 194h-50c-7-57 23-157-34-157" id="ac"/><g id="b"><use transform="matrix(0.06234567901234565,0,0,0.06234567901234565,0,0)" xlink:href="#Y"/><use transform="matrix(0.06234567901234565,0,0,0.06234567901234565,16.147530864197524,0)" xlink:href="#X"/><use transform="matrix(0.06234567901234565,0,0,0.06234567901234565,28.616666666666653,0)" xlink:href="#Z"/><use transform="matrix(0.06234567901234565,0,0,0.06234567901234565,41.085802469135785,0)" xlink:href="#aa"/><use transform="matrix(0.06234567901234565,0,0,0.06234567901234565,47.32037037037035,0)" xlink:href="#ab"/><use transform="matrix(0.06234567901234565,0,0,0.06234567901234565,54.739506172839484,0)" xlink:href="#ac"/></g><path fill="#3a414a" d="M230 0l2-204L168 0h-37L68-204 70 0H24v-248h70l56 185 57-185h69V0h-46" id="ad"/><path fill="#3a414a" d="M135-194c87-1 58 113 63 194h-50c-7-57 23-157-34-157-59 0-34 97-39 157H25l-1-190h47c2 12-1 28 3 38 12-26 28-41 61-42" id="ae"/><path fill="#3a414a" d="M195-6C206 82 75 100 31 46c-4-6-6-13-8-21l49-6c3 16 16 24 34 25 40 0 42-37 40-79-11 22-30 35-61 35-53 0-70-43-70-97 0-56 18-96 73-97 30 0 46 14 59 34l2-30h47zm-90-29c32 0 41-27 41-63 0-35-9-62-40-62-32 0-39 29-40 63 0 36 9 62 39 62" id="af"/><path fill="#3a414a" d="M220-157c-53 9-28 100-34 157h-49v-107c1-27-5-49-29-50C55-147 81-57 75 0H25l-1-190h47c2 12-1 28 3 38 10-53 101-56 108 0 13-22 24-43 59-42 82 1 51 116 57 194h-49v-107c-1-25-5-48-29-50" id="ag"/><g id="c"><use transform="matrix(0.06234567901234565,0,0,0.06234567901234565,0,0)" xlink:href="#ad"/><use transform="matrix(0.06234567901234565,0,0,0.06234567901234565,18.64135802469135,0)" xlink:href="#Z"/><use transform="matrix(0.06234567901234565,0,0,0.06234567901234565,31.110493827160482,0)" xlink:href="#ae"/><use transform="matrix(0.06234567901234565,0,0,0.06234567901234565,44.76419753086418,0)" xlink:href="#Z"/><use transform="matrix(0.06234567901234565,0,0,0.06234567901234565,57.23333333333331,0)" xlink:href="#af"/><use transform="matrix(0.06234567901234565,0,0,0.06234567901234565,70.887037037037,0)" xlink:href="#X"/><use transform="matrix(0.06234567901234565,0,0,0.06234567901234565,83.35617283950613,0)" xlink:href="#ag"/><use transform="matrix(0.06234567901234565,0,0,0.06234567901234565,103.30679012345674,0)" xlink:href="#X"/><use transform="matrix(0.06234567901234565,0,0,0.06234567901234565,115.77592592592586,0)" xlink:href="#ae"/><use transform="matrix(0.06234567901234565,0,0,0.06234567901234565,129.42962962962957,0)" xlink:href="#ab"/></g><path fill="#3a414a" d="M110-194c64 0 96 36 96 99 0 64-35 99-97 99-61 0-95-36-95-99 0-62 34-99 96-99zm-1 164c35 0 45-28 45-65 0-40-10-65-43-65-34 0-45 26-45 65 0 36 10 65 43 65" id="ah"/><path fill="#3a414a" d="M135-194c52 0 70 43 70 98 0 56-19 99-73 100-30 1-46-15-58-35L72 0H24l1-261h50v104c11-23 29-37 60-37zM114-30c31 0 40-27 40-66 0-37-7-63-39-63s-41 28-41 65c0 36 8 64 40 64" id="ai"/><path fill="#3a414a" d="M25-224v-37h50v37H25zM25 0v-190h50V0H25" id="aj"/><g id="d"><use transform="matrix(0.06234567901234565,0,0,0.06234567901234565,0,0)" xlink:href="#ad"/><use transform="matrix(0.06234567901234565,0,0,0.06234567901234565,18.64135802469135,0)" xlink:href="#ah"/><use transform="matrix(0.06234567901234565,0,0,0.06234567901234565,32.29506172839505,0)" xlink:href="#ai"/><use transform="matrix(0.06234567901234565,0,0,0.06234567901234565,45.948765432098746,0)" xlink:href="#aj"/><use transform="matrix(0.06234567901234565,0,0,0.06234567901234565,52.18333333333331,0)" xlink:href="#aa"/><use transform="matrix(0.06234567901234565,0,0,0.06234567901234565,58.41790123456787,0)" xlink:href="#X"/></g><path fill="#3a414a" d="M199 0l-22-63H83L61 0H9l90-248h61L250 0h-51zm-33-102l-36-108c-10 38-24 72-36 108h72" id="ak"/><path fill="#3a414a" d="M135-194c53 0 70 44 70 98 0 56-19 98-73 100-31 1-45-17-59-34 3 33 2 69 2 105H25l-1-265h48c2 10 0 23 3 31 11-24 29-35 60-35zM114-30c33 0 39-31 40-66 0-38-9-64-40-64-56 0-55 130 0 130" id="al"/><g id="e"><use transform="matrix(0.06234567901234565,0,0,0.06234567901234565,0,0)" xlink:href="#ak"/><use transform="matrix(0.06234567901234565,0,0,0.06234567901234565,16.147530864197524,0)" xlink:href="#al"/><use transform="matrix(0.06234567901234565,0,0,0.06234567901234565,29.801234567901222,0)" xlink:href="#al"/></g><path fill="#3a414a" d="M14-72v-43h91v43H14" id="am"/><use transform="matrix(0.06234567901234565,0,0,0.06234567901234565,0,0)" xlink:href="#am" id="f"/><path fill="#3a414a" d="M240-174c0 40-23 61-54 70L253 0h-59l-57-94H76V0H24v-248c93 4 217-23 216 74zM76-134c48-2 112 12 112-38 0-48-66-32-112-35v73" id="an"/><path fill="#3a414a" d="M190-63c-7 42-38 67-86 67-59 0-84-38-90-98-12-110 154-137 174-36l-49 2c-2-19-15-32-35-32-30 0-35 28-38 64-6 74 65 87 74 30" id="ao"/><path fill="#3a414a" d="M128 0H69L1-190h53L99-40l48-150h52" id="ap"/><g id="g"><use transform="matrix(0.06234567901234565,0,0,0.06234567901234565,0,0)" xlink:href="#an"/><use transform="matrix(0.06234567901234565,0,0,0.06234567901234565,16.147530864197524,0)" xlink:href="#X"/><use transform="matrix(0.06234567901234565,0,0,0.06234567901234565,28.616666666666653,0)" xlink:href="#ao"/><use transform="matrix(0.06234567901234565,0,0,0.06234567901234565,41.085802469135785,0)" xlink:href="#X"/><use transform="matrix(0.06234567901234565,0,0,0.06234567901234565,53.55493827160492,0)" xlink:href="#aj"/><use transform="matrix(0.06234567901234565,0,0,0.06234567901234565,59.78950617283948,0)" xlink:href="#ap"/><use transform="matrix(0.06234567901234565,0,0,0.06234567901234565,72.2586419753086,0)" xlink:href="#aj"/><use transform="matrix(0.06234567901234565,0,0,0.06234567901234565,78.49320987654318,0)" xlink:href="#ae"/><use transform="matrix(0.06234567901234565,0,0,0.06234567901234565,92.14691358024687,0)" xlink:href="#af"/></g><path fill="#3a414a" d="M88-194c31-1 46 15 58 34l-1-101h50l1 261h-48c-2-10 0-23-3-31C134-8 116 4 84 4 32 4 16-41 15-95c0-56 19-97 73-99zm17 164c33 0 40-30 41-66 1-37-9-64-41-64s-38 30-39 65c0 43 13 65 39 65" id="aq"/><g id="h"><use transform="matrix(0.06234567901234565,0,0,0.06234567901234565,0,0)" xlink:href="#Z"/><use transform="matrix(0.06234567901234565,0,0,0.06234567901234565,12.46913580246913,0)" xlink:href="#ae"/><use transform="matrix(0.06234567901234565,0,0,0.06234567901234565,26.12283950617283,0)" xlink:href="#aq"/></g><path fill="#3a414a" d="M175 0L67-191c6 58 2 128 3 191H24v-248h59L193-55c-6-58-2-129-3-193h46V0h-61" id="ar"/><path fill="#3a414a" d="M121-226c-27-7-43 5-38 36h38v33H83V0H34v-157H6v-33h28c-9-59 32-81 87-68v32" id="as"/><g id="i"><use transform="matrix(0.06234567901234565,0,0,0.06234567901234565,0,0)" xlink:href="#ar"/><use transform="matrix(0.06234567901234565,0,0,0.06234567901234565,16.147530864197524,0)" xlink:href="#ah"/><use transform="matrix(0.06234567901234565,0,0,0.06234567901234565,29.801234567901222,0)" xlink:href="#ab"/><use transform="matrix(0.06234567901234565,0,0,0.06234567901234565,37.220370370370354,0)" xlink:href="#aj"/><use transform="matrix(0.06234567901234565,0,0,0.06234567901234565,43.45493827160492,0)" xlink:href="#as"/><use transform="matrix(0.06234567901234565,0,0,0.06234567901234565,50.87407407407405,0)" xlink:href="#W"/><use transform="matrix(0.06234567901234565,0,0,0.06234567901234565,63.343209876543185,0)" xlink:href="#aj"/><use transform="matrix(0.06234567901234565,0,0,0.06234567901234565,69.57777777777775,0)" xlink:href="#ae"/><use transform="matrix(0.06234567901234565,0,0,0.06234567901234565,83.23148148148145,0)" xlink:href="#af"/></g><g id="j"><use transform="matrix(0.06234567901234565,0,0,0.06234567901234565,0,0)" xlink:href="#ad"/><use transform="matrix(0.06234567901234565,0,0,0.06234567901234565,18.64135802469135,0)" xlink:href="#X"/><use transform="matrix(0.06234567901234565,0,0,0.06234567901234565,31.110493827160482,0)" xlink:href="#aq"/><use transform="matrix(0.06234567901234565,0,0,0.06234567901234565,44.76419753086418,0)" xlink:href="#aj"/><use transform="matrix(0.06234567901234565,0,0,0.06234567901234565,50.99876543209874,0)" xlink:href="#ao"/><use transform="matrix(0.06234567901234565,0,0,0.06234567901234565,63.467901234567876,0)" xlink:href="#Z"/><use transform="matrix(0.06234567901234565,0,0,0.06234567901234565,75.937037037037,0)" xlink:href="#ab"/><use transform="matrix(0.06234567901234565,0,0,0.06234567901234565,83.35617283950613,0)" xlink:href="#aj"/><use transform="matrix(0.06234567901234565,0,0,0.06234567901234565,89.5907407407407,0)" xlink:href="#ah"/><use transform="matrix(0.06234567901234565,0,0,0.06234567901234565,103.2444444444444,0)" xlink:href="#ae"/></g><path fill="#3a414a" d="M135-150c-39-12-60 13-60 57V0H25l-1-190h47c2 13-1 29 3 40 6-28 27-53 61-41v41" id="at"/><path fill="#3a414a" d="M137-138c1-29-70-34-71-4 15 46 118 7 119 86 1 83-164 76-172 9l43-7c4 19 20 25 44 25 33 8 57-30 24-41C81-84 22-81 20-136c-2-80 154-74 161-7" id="au"/><g id="k"><use transform="matrix(0.06234567901234565,0,0,0.06234567901234565,0,0)" xlink:href="#an"/><use transform="matrix(0.06234567901234565,0,0,0.06234567901234565,16.147530864197524,0)" xlink:href="#X"/><use transform="matrix(0.06234567901234565,0,0,0.06234567901234565,28.616666666666653,0)" xlink:href="#ag"/><use transform="matrix(0.06234567901234565,0,0,0.06234567901234565,48.567283950617266,0)" xlink:href="#aj"/><use transform="matrix(0.06234567901234565,0,0,0.06234567901234565,54.80185185185183,0)" xlink:href="#ae"/><use transform="matrix(0.06234567901234565,0,0,0.06234567901234565,68.45555555555552,0)" xlink:href="#aq"/><use transform="matrix(0.06234567901234565,0,0,0.06234567901234565,82.10925925925922,0)" xlink:href="#X"/><use transform="matrix(0.06234567901234565,0,0,0.06234567901234565,94.57839506172834,0)" xlink:href="#at"/><use transform="matrix(0.06234567901234565,0,0,0.06234567901234565,103.30679012345674,0)" xlink:href="#au"/></g><path fill="#3a414a" d="M30-248c118-7 216 8 213 122C240-48 200 0 122 0H30v-248zM63-27c89 8 146-16 146-99s-60-101-146-95v194" id="av"/><path fill="#3a414a" d="M141-36C126-15 110 5 73 4 37 3 15-17 15-53c-1-64 63-63 125-63 3-35-9-54-41-54-24 1-41 7-42 31l-33-3c5-37 33-52 76-52 45 0 72 20 72 64v82c-1 20 7 32 28 27v20c-31 9-61-2-59-35zM48-53c0 20 12 33 32 33 41-3 63-29 60-74-43 2-92-5-92 41" id="aw"/><path fill="#3a414a" d="M59-47c-2 24 18 29 38 22v24C64 9 27 4 27-40v-127H5v-23h24l9-43h21v43h35v23H59v120" id="ax"/><path fill="#3a414a" d="M115-194c53 0 69 39 70 98 0 66-23 100-70 100C84 3 66-7 56-30L54 0H23l1-261h32v101c10-23 28-34 59-34zm-8 174c40 0 45-34 45-75 0-40-5-75-45-74-42 0-51 32-51 76 0 43 10 73 51 73" id="ay"/><path fill="#3a414a" d="M135-143c-3-34-86-38-87 0 15 53 115 12 119 90S17 21 10-45l28-5c4 36 97 45 98 0-10-56-113-15-118-90-4-57 82-63 122-42 12 7 21 19 24 35" id="az"/><path fill="#3a414a" d="M100-194c63 0 86 42 84 106H49c0 40 14 67 53 68 26 1 43-12 49-29l28 8c-11 28-37 45-77 45C44 4 14-33 15-96c1-61 26-98 85-98zm52 81c6-60-76-77-97-28-3 7-6 17-6 28h103" id="aA"/><g id="l"><use transform="matrix(0.06172839506172839,0,0,0.06172839506172839,0,0)" xlink:href="#av"/><use transform="matrix(0.06172839506172839,0,0,0.06172839506172839,15.987654320987653,0)" xlink:href="#aw"/><use transform="matrix(0.06172839506172839,0,0,0.06172839506172839,28.333333333333332,0)" xlink:href="#ax"/><use transform="matrix(0.06172839506172839,0,0,0.06172839506172839,34.50617283950617,0)" xlink:href="#aw"/><use transform="matrix(0.06172839506172839,0,0,0.06172839506172839,46.85185185185185,0)" xlink:href="#ay"/><use transform="matrix(0.06172839506172839,0,0,0.06172839506172839,59.197530864197525,0)" xlink:href="#aw"/><use transform="matrix(0.06172839506172839,0,0,0.06172839506172839,71.5432098765432,0)" xlink:href="#az"/><use transform="matrix(0.06172839506172839,0,0,0.06172839506172839,82.65432098765432,0)" xlink:href="#aA"/></g><path fill="#3a414a" d="M232-93c-1 65-40 97-104 97C67 4 28-28 28-90v-158h33c8 89-33 224 67 224 102 0 64-133 71-224h33v155" id="aB"/><path fill="#3a414a" d="M114-163C36-179 61-72 57 0H25l-1-190h30c1 12-1 29 2 39 6-27 23-49 58-41v29" id="aC"/><g id="m"><use transform="matrix(0.06172839506172839,0,0,0.06172839506172839,0,0)" xlink:href="#aB"/><use transform="matrix(0.06172839506172839,0,0,0.06172839506172839,15.987654320987653,0)" xlink:href="#az"/><use transform="matrix(0.06172839506172839,0,0,0.06172839506172839,27.098765432098766,0)" xlink:href="#aA"/><use transform="matrix(0.06172839506172839,0,0,0.06172839506172839,39.44444444444444,0)" xlink:href="#aC"/></g><path d="M233-177c-1 41-23 64-60 70L243 0h-38l-65-103H63V0H30v-248c88 3 205-21 203 71zM63-129c60-2 137 13 137-47 0-61-80-42-137-45v92" id="aD"/><path d="M100-194c63 0 86 42 84 106H49c0 40 14 67 53 68 26 1 43-12 49-29l28 8c-11 28-37 45-77 45C44 4 14-33 15-96c1-61 26-98 85-98zm52 81c6-60-76-77-97-28-3 7-6 17-6 28h103" id="aE"/><path d="M96-169c-40 0-48 33-48 73s9 75 48 75c24 0 41-14 43-38l32 2c-6 37-31 61-74 61-59 0-76-41-82-99-10-93 101-131 147-64 4 7 5 14 7 22l-32 3c-4-21-16-35-41-35" id="aF"/><path d="M24-231v-30h32v30H24zM24 0v-190h32V0H24" id="aG"/><path d="M108 0H70L1-190h34L89-25l56-165h34" id="aH"/><path d="M135-143c-3-34-86-38-87 0 15 53 115 12 119 90S17 21 10-45l28-5c4 36 97 45 98 0-10-56-113-15-118-90-4-57 82-63 122-42 12 7 21 19 24 35" id="aI"/><g id="n"><use transform="matrix(0.05,0,0,0.05,0,0)" xlink:href="#aD"/><use transform="matrix(0.05,0,0,0.05,12.950000000000001,0)" xlink:href="#aE"/><use transform="matrix(0.05,0,0,0.05,22.950000000000003,0)" xlink:href="#aF"/><use transform="matrix(0.05,0,0,0.05,31.950000000000003,0)" xlink:href="#aG"/><use transform="matrix(0.05,0,0,0.05,35.900000000000006,0)" xlink:href="#aE"/><use transform="matrix(0.05,0,0,0.05,45.900000000000006,0)" xlink:href="#aH"/><use transform="matrix(0.05,0,0,0.05,54.900000000000006,0)" xlink:href="#aE"/><use transform="matrix(0.05,0,0,0.05,64.9,0)" xlink:href="#aI"/></g><path d="M210-169c-67 3-38 105-44 169h-31v-121c0-29-5-50-35-48C34-165 62-65 56 0H25l-1-190h30c1 10-1 24 2 32 10-44 99-50 107 0 11-21 27-35 58-36 85-2 47 119 55 194h-31v-121c0-29-5-49-35-48" id="aJ"/><path d="M117-194c89-4 53 116 60 194h-32v-121c0-31-8-49-39-48C34-167 62-67 57 0H25l-1-190h30c1 10-1 24 2 32 11-22 29-35 61-36" id="aK"/><path d="M85-194c31 0 48 13 60 33l-1-100h32l1 261h-30c-2-10 0-23-3-31C134-8 116 4 85 4 32 4 16-35 15-94c0-66 23-100 70-100zm9 24c-40 0-46 34-46 75 0 40 6 74 45 74 42 0 51-32 51-76 0-42-9-74-50-73" id="aL"/><path d="M114-163C36-179 61-72 57 0H25l-1-190h30c1 12-1 29 2 39 6-27 23-49 58-41v29" id="aM"/><g id="o"><use transform="matrix(0.05,0,0,0.05,0,0)" xlink:href="#aD"/><use transform="matrix(0.05,0,0,0.05,12.950000000000001,0)" xlink:href="#aE"/><use transform="matrix(0.05,0,0,0.05,22.950000000000003,0)" xlink:href="#aJ"/><use transform="matrix(0.05,0,0,0.05,37.900000000000006,0)" xlink:href="#aG"/><use transform="matrix(0.05,0,0,0.05,41.85000000000001,0)" xlink:href="#aK"/><use transform="matrix(0.05,0,0,0.05,51.85,0)" xlink:href="#aL"/><use transform="matrix(0.05,0,0,0.05,61.85,0)" xlink:href="#aE"/><use transform="matrix(0.05,0,0,0.05,71.85000000000001,0)" xlink:href="#aM"/></g><path fill="#3a414a" d="M190 0L58-211 59 0H30v-248h39L202-35l-2-213h31V0h-41" id="aN"/><path fill="#3a414a" d="M100-194c62-1 85 37 85 99 1 63-27 99-86 99S16-35 15-95c0-66 28-99 85-99zM99-20c44 1 53-31 53-75 0-43-8-75-51-75s-53 32-53 75 10 74 51 75" id="aO"/><path fill="#3a414a" d="M24-231v-30h32v30H24zM24 0v-190h32V0H24" id="aP"/><path fill="#3a414a" d="M101-234c-31-9-42 10-38 44h38v23H63V0H32v-167H5v-23h27c-7-52 17-82 69-68v24" id="aQ"/><path fill="#3a414a" d="M96-169c-40 0-48 33-48 73s9 75 48 75c24 0 41-14 43-38l32 2c-6 37-31 61-74 61-59 0-76-41-82-99-10-93 101-131 147-64 4 7 5 14 7 22l-32 3c-4-21-16-35-41-35" id="aR"/><path fill="#3a414a" d="M117-194c89-4 53 116 60 194h-32v-121c0-31-8-49-39-48C34-167 62-67 57 0H25l-1-190h30c1 10-1 24 2 32 11-22 29-35 61-36" id="aS"/><g id="p"><use transform="matrix(0.06172839506172839,0,0,0.06172839506172839,0,0)" xlink:href="#aN"/><use transform="matrix(0.06172839506172839,0,0,0.06172839506172839,15.987654320987653,0)" xlink:href="#aO"/><use transform="matrix(0.06172839506172839,0,0,0.06172839506172839,28.333333333333332,0)" xlink:href="#ax"/><use transform="matrix(0.06172839506172839,0,0,0.06172839506172839,34.50617283950617,0)" xlink:href="#aP"/><use transform="matrix(0.06172839506172839,0,0,0.06172839506172839,39.382716049382715,0)" xlink:href="#aQ"/><use transform="matrix(0.06172839506172839,0,0,0.06172839506172839,45.55555555555556,0)" xlink:href="#aP"/><use transform="matrix(0.06172839506172839,0,0,0.06172839506172839,50.4320987654321,0)" xlink:href="#aR"/><use transform="matrix(0.06172839506172839,0,0,0.06172839506172839,61.543209876543216,0)" xlink:href="#aw"/><use transform="matrix(0.06172839506172839,0,0,0.06172839506172839,73.8888888888889,0)" xlink:href="#ax"/><use transform="matrix(0.06172839506172839,0,0,0.06172839506172839,80.06172839506173,0)" xlink:href="#aP"/><use transform="matrix(0.06172839506172839,0,0,0.06172839506172839,84.93827160493828,0)" xlink:href="#aO"/><use transform="matrix(0.06172839506172839,0,0,0.06172839506172839,97.28395061728396,0)" xlink:href="#aS"/></g><path fill="#3a414a" d="M185-189c-5-48-123-54-124 2 14 75 158 14 163 119 3 78-121 87-175 55-17-10-28-26-33-46l33-7c5 56 141 63 141-1 0-78-155-14-162-118-5-82 145-84 179-34 5 7 8 16 11 25" id="aT"/><path fill="#3a414a" d="M108 0H70L1-190h34L89-25l56-165h34" id="aU"/><g id="q"><use transform="matrix(0.06172839506172839,0,0,0.06172839506172839,0,0)" xlink:href="#aT"/><use transform="matrix(0.06172839506172839,0,0,0.06172839506172839,14.814814814814813,0)" xlink:href="#aA"/><use transform="matrix(0.06172839506172839,0,0,0.06172839506172839,27.160493827160494,0)" xlink:href="#aC"/><use transform="matrix(0.06172839506172839,0,0,0.06172839506172839,34.50617283950617,0)" xlink:href="#aU"/><use transform="matrix(0.06172839506172839,0,0,0.06172839506172839,45.61728395061728,0)" xlink:href="#aP"/><use transform="matrix(0.06172839506172839,0,0,0.06172839506172839,50.49382716049382,0)" xlink:href="#aR"/><use transform="matrix(0.06172839506172839,0,0,0.06172839506172839,61.60493827160494,0)" xlink:href="#aA"/></g><path fill="#3a414a" d="M205 0l-28-72H64L36 0H1l101-248h38L239 0h-34zm-38-99l-47-123c-12 45-31 82-46 123h93" id="aV"/><path fill="#3a414a" d="M179-190L93 31C79 59 56 82 12 73V49c39 6 53-20 64-50L1-190h34L92-34l54-156h33" id="aW"/><g id="r"><use transform="matrix(0.06172839506172839,0,0,0.06172839506172839,0,0)" xlink:href="#aV"/><use transform="matrix(0.06172839506172839,0,0,0.06172839506172839,14.814814814814813,0)" xlink:href="#aR"/><use transform="matrix(0.06172839506172839,0,0,0.06172839506172839,25.925925925925924,0)" xlink:href="#ax"/><use transform="matrix(0.06172839506172839,0,0,0.06172839506172839,32.098765432098766,0)" xlink:href="#aP"/><use transform="matrix(0.06172839506172839,0,0,0.06172839506172839,36.97530864197531,0)" xlink:href="#aU"/><use transform="matrix(0.06172839506172839,0,0,0.06172839506172839,48.08641975308642,0)" xlink:href="#aP"/><use transform="matrix(0.06172839506172839,0,0,0.06172839506172839,52.96296296296296,0)" xlink:href="#ax"/><use transform="matrix(0.06172839506172839,0,0,0.06172839506172839,59.135802469135804,0)" xlink:href="#aW"/></g><path d="M143 4C61 4 22-44 18-125c-5-107 100-154 193-111 17 8 29 25 37 43l-32 9c-13-25-37-40-76-40-61 0-88 39-88 99 0 61 29 100 91 101 35 0 62-11 79-27v-45h-74v-28h105v86C228-13 192 4 143 4" id="aX"/><path d="M59-47c-2 24 18 29 38 22v24C64 9 27 4 27-40v-127H5v-23h24l9-43h21v43h35v23H59v120" id="aY"/><g id="s"><use transform="matrix(0.05,0,0,0.05,0,0)" xlink:href="#aX"/><use transform="matrix(0.05,0,0,0.05,14,0)" xlink:href="#aE"/><use transform="matrix(0.05,0,0,0.05,24,0)" xlink:href="#aY"/><use transform="matrix(0.05,0,0,0.05,29,0)" xlink:href="#aI"/></g><g id="t"><use transform="matrix(0.05,0,0,0.05,0,0)" xlink:href="#aD"/><use transform="matrix(0.05,0,0,0.05,12.950000000000001,0)" xlink:href="#aE"/><use transform="matrix(0.05,0,0,0.05,22.950000000000003,0)" xlink:href="#aJ"/><use transform="matrix(0.05,0,0,0.05,37.900000000000006,0)" xlink:href="#aG"/><use transform="matrix(0.05,0,0,0.05,41.85000000000001,0)" xlink:href="#aK"/><use transform="matrix(0.05,0,0,0.05,51.85,0)" xlink:href="#aL"/><use transform="matrix(0.05,0,0,0.05,61.85,0)" xlink:href="#aE"/><use transform="matrix(0.05,0,0,0.05,71.85000000000001,0)" xlink:href="#aM"/><use transform="matrix(0.05,0,0,0.05,77.80000000000001,0)" xlink:href="#aI"/></g><path d="M30 0v-248h33v221h125V0H30" id="aZ"/><path d="M100-194c62-1 85 37 85 99 1 63-27 99-86 99S16-35 15-95c0-66 28-99 85-99zM99-20c44 1 53-31 53-75 0-43-8-75-51-75s-53 32-53 75 10 74 51 75" id="ba"/><path d="M143 0L79-87 56-68V0H24v-261h32v163l83-92h37l-77 82L181 0h-38" id="bb"/><g id="u"><use transform="matrix(0.05,0,0,0.05,0,0)" xlink:href="#aZ"/><use transform="matrix(0.05,0,0,0.05,10,0)" xlink:href="#ba"/><use transform="matrix(0.05,0,0,0.05,20,0)" xlink:href="#ba"/><use transform="matrix(0.05,0,0,0.05,30,0)" xlink:href="#bb"/><use transform="matrix(0.05,0,0,0.05,39,0)" xlink:href="#aI"/></g><path d="M101-234c-31-9-42 10-38 44h38v23H63V0H32v-167H5v-23h27c-7-52 17-82 69-68v24" id="bc"/><g id="v"><use transform="matrix(0.05,0,0,0.05,0,0)" xlink:href="#bc"/><use transform="matrix(0.05,0,0,0.05,5,0)" xlink:href="#ba"/><use transform="matrix(0.05,0,0,0.05,15,0)" xlink:href="#aM"/></g><path d="M240 0l2-218c-23 76-54 145-80 218h-23L58-218 59 0H30v-248h44l77 211c21-75 51-140 76-211h43V0h-30" id="bd"/><path d="M141-36C126-15 110 5 73 4 37 3 15-17 15-53c-1-64 63-63 125-63 3-35-9-54-41-54-24 1-41 7-42 31l-33-3c5-37 33-52 76-52 45 0 72 20 72 64v82c-1 20 7 32 28 27v20c-31 9-61-2-59-35zM48-53c0 20 12 33 32 33 41-3 63-29 60-74-43 2-92-5-92 41" id="be"/><g id="w"><use transform="matrix(0.05,0,0,0.05,0,0)" xlink:href="#bd"/><use transform="matrix(0.05,0,0,0.05,14.950000000000001,0)" xlink:href="#aE"/><use transform="matrix(0.05,0,0,0.05,24.950000000000003,0)" xlink:href="#aL"/><use transform="matrix(0.05,0,0,0.05,34.95,0)" xlink:href="#aG"/><use transform="matrix(0.05,0,0,0.05,38.900000000000006,0)" xlink:href="#aF"/><use transform="matrix(0.05,0,0,0.05,47.900000000000006,0)" xlink:href="#be"/><use transform="matrix(0.05,0,0,0.05,57.900000000000006,0)" xlink:href="#aY"/><use transform="matrix(0.05,0,0,0.05,62.900000000000006,0)" xlink:href="#aG"/><use transform="matrix(0.05,0,0,0.05,66.85000000000001,0)" xlink:href="#ba"/><use transform="matrix(0.05,0,0,0.05,76.85000000000001,0)" xlink:href="#aK"/><use transform="matrix(0.05,0,0,0.05,86.85000000000001,0)" xlink:href="#aI"/></g><g id="x"><use transform="matrix(0.05,0,0,0.05,0,0)" xlink:href="#aK"/><use transform="matrix(0.05,0,0,0.05,10,0)" xlink:href="#ba"/><use transform="matrix(0.05,0,0,0.05,20,0)" xlink:href="#aY"/></g><g id="y"><use transform="matrix(0.05,0,0,0.05,0,0)" xlink:href="#aY"/><use transform="matrix(0.05,0,0,0.05,5,0)" xlink:href="#be"/><use transform="matrix(0.05,0,0,0.05,15,0)" xlink:href="#bb"/><use transform="matrix(0.05,0,0,0.05,24,0)" xlink:href="#aE"/><use transform="matrix(0.05,0,0,0.05,34,0)" xlink:href="#aK"/></g><path d="M212-179c-10-28-35-45-73-45-59 0-87 40-87 99 0 60 29 101 89 101 43 0 62-24 78-52l27 14C228-24 195 4 139 4 59 4 22-46 18-125c-6-104 99-153 187-111 19 9 31 26 39 46" id="bf"/><g id="z"><use transform="matrix(0.05,0,0,0.05,0,0)" xlink:href="#bf"/><use transform="matrix(0.05,0,0,0.05,12.950000000000001,0)" xlink:href="#aM"/><use transform="matrix(0.05,0,0,0.05,18.900000000000002,0)" xlink:href="#aE"/><use transform="matrix(0.05,0,0,0.05,28.900000000000002,0)" xlink:href="#be"/><use transform="matrix(0.05,0,0,0.05,38.900000000000006,0)" xlink:href="#aY"/><use transform="matrix(0.05,0,0,0.05,43.900000000000006,0)" xlink:href="#aE"/><use transform="matrix(0.05,0,0,0.05,53.900000000000006,0)" xlink:href="#aI"/></g><path d="M33 0v-38h34V0H33" id="bg"/><g id="A"><use transform="matrix(0.05,0,0,0.05,0,0)" xlink:href="#aK"/><use transform="matrix(0.05,0,0,0.05,10,0)" xlink:href="#ba"/><use transform="matrix(0.05,0,0,0.05,20,0)" xlink:href="#aY"/><use transform="matrix(0.05,0,0,0.05,25,0)" xlink:href="#aG"/><use transform="matrix(0.05,0,0,0.05,28.950000000000003,0)" xlink:href="#bc"/><use transform="matrix(0.05,0,0,0.05,33.95,0)" xlink:href="#aG"/><use transform="matrix(0.05,0,0,0.05,37.900000000000006,0)" xlink:href="#aF"/><use transform="matrix(0.05,0,0,0.05,46.900000000000006,0)" xlink:href="#be"/><use transform="matrix(0.05,0,0,0.05,56.900000000000006,0)" xlink:href="#aY"/><use transform="matrix(0.05,0,0,0.05,61.900000000000006,0)" xlink:href="#aG"/><use transform="matrix(0.05,0,0,0.05,65.85000000000001,0)" xlink:href="#ba"/><use transform="matrix(0.05,0,0,0.05,75.85000000000001,0)" xlink:href="#aK"/><use transform="matrix(0.05,0,0,0.05,85.85000000000001,0)" xlink:href="#bg"/></g><path d="M145-31C134-9 116 4 85 4 32 4 16-35 15-94c0-59 17-99 70-100 32-1 48 14 60 33 0-11-1-24 2-32h30l-1 268h-32zM93-21c41 0 51-33 51-76s-8-73-50-73c-40 0-46 35-46 75s5 74 45 74" id="bh"/><path d="M84 4C-5 8 30-112 23-190h32v120c0 31 7 50 39 49 72-2 45-101 50-169h31l1 190h-30c-1-10 1-25-2-33-11 22-28 36-60 37" id="bi"/><g id="B"><use transform="matrix(0.05,0,0,0.05,0,0)" xlink:href="#aD"/><use transform="matrix(0.05,0,0,0.05,12.950000000000001,0)" xlink:href="#aE"/><use transform="matrix(0.05,0,0,0.05,22.950000000000003,0)" xlink:href="#bh"/><use transform="matrix(0.05,0,0,0.05,32.95,0)" xlink:href="#bi"/><use transform="matrix(0.05,0,0,0.05,42.95,0)" xlink:href="#aE"/><use transform="matrix(0.05,0,0,0.05,52.95,0)" xlink:href="#aI"/><use transform="matrix(0.05,0,0,0.05,61.95,0)" xlink:href="#aY"/></g><path d="M190 0L58-211 59 0H30v-248h39L202-35l-2-213h31V0h-41" id="bj"/><g id="C"><use transform="matrix(0.05,0,0,0.05,0,0)" xlink:href="#bj"/><use transform="matrix(0.05,0,0,0.05,12.950000000000001,0)" xlink:href="#ba"/><use transform="matrix(0.05,0,0,0.05,22.950000000000003,0)" xlink:href="#aY"/><use transform="matrix(0.05,0,0,0.05,27.950000000000003,0)" xlink:href="#aG"/><use transform="matrix(0.05,0,0,0.05,31.900000000000002,0)" xlink:href="#bc"/><use transform="matrix(0.05,0,0,0.05,36.900000000000006,0)" xlink:href="#aG"/><use transform="matrix(0.05,0,0,0.05,40.85000000000001,0)" xlink:href="#aF"/><use transform="matrix(0.05,0,0,0.05,49.85000000000001,0)" xlink:href="#be"/><use transform="matrix(0.05,0,0,0.05,59.85,0)" xlink:href="#aY"/><use transform="matrix(0.05,0,0,0.05,64.85000000000001,0)" xlink:href="#aG"/><use transform="matrix(0.05,0,0,0.05,68.80000000000001,0)" xlink:href="#ba"/><use transform="matrix(0.05,0,0,0.05,78.80000000000001,0)" xlink:href="#aK"/></g><path d="M30-248c87 1 191-15 191 75 0 78-77 80-158 76V0H30v-248zm33 125c57 0 124 11 124-50 0-59-68-47-124-48v98" id="bk"/><g id="D"><use transform="matrix(0.05,0,0,0.05,0,0)" xlink:href="#bk"/><use transform="matrix(0.05,0,0,0.05,12,0)" xlink:href="#aE"/><use transform="matrix(0.05,0,0,0.05,22,0)" xlink:href="#aM"/><use transform="matrix(0.05,0,0,0.05,27.950000000000003,0)" xlink:href="#aJ"/><use transform="matrix(0.05,0,0,0.05,42.9,0)" xlink:href="#aG"/><use transform="matrix(0.05,0,0,0.05,46.85,0)" xlink:href="#aI"/><use transform="matrix(0.05,0,0,0.05,55.85,0)" xlink:href="#aI"/><use transform="matrix(0.05,0,0,0.05,64.85,0)" xlink:href="#aG"/><use transform="matrix(0.05,0,0,0.05,68.8,0)" xlink:href="#ba"/><use transform="matrix(0.05,0,0,0.05,78.8,0)" xlink:href="#aK"/></g><path fill="#333" d="M15-91v-56l181-69v40L49-119l147 57v40" id="bl"/><path fill="#333" d="M25-224v-37h50v37H25zM25 0v-190h50V0H25" id="bm"/><path fill="#333" d="M135-194c87-1 58 113 63 194h-50c-7-57 23-157-34-157-59 0-34 97-39 157H25l-1-190h47c2 12-1 28 3 38 12-26 28-41 61-42" id="bn"/><path fill="#333" d="M190-63c-7 42-38 67-86 67-59 0-84-38-90-98-12-110 154-137 174-36l-49 2c-2-19-15-32-35-32-30 0-35 28-38 64-6 74 65 87 74 30" id="bo"/><path fill="#333" d="M25 0v-261h50V0H25" id="bp"/><path fill="#333" d="M85 4C-2 5 27-109 22-190h50c7 57-23 150 33 157 60-5 35-97 40-157h50l1 190h-47c-2-12 1-28-3-38-12 25-28 42-61 42" id="bq"/><path fill="#333" d="M88-194c31-1 46 15 58 34l-1-101h50l1 261h-48c-2-10 0-23-3-31C134-8 116 4 84 4 32 4 16-41 15-95c0-56 19-97 73-99zm17 164c33 0 40-30 41-66 1-37-9-64-41-64s-38 30-39 65c0 43 13 65 39 65" id="br"/><path fill="#333" d="M185-48c-13 30-37 53-82 52C43 2 14-33 14-96s30-98 90-98c62 0 83 45 84 108H66c0 31 8 55 39 56 18 0 30-7 34-22zm-45-69c5-46-57-63-70-21-2 6-4 13-4 21h74" id="bs"/><path fill="#333" d="M15-22v-40l146-57-146-57v-40l181 69v56" id="bt"/><g id="E"><use transform="matrix(0.04938271604938272,0,0,0.04938271604938272,0,0)" xlink:href="#bl"/><use transform="matrix(0.04938271604938272,0,0,0.04938271604938272,10.370370370370372,0)" xlink:href="#bl"/><use transform="matrix(0.04938271604938272,0,0,0.04938271604938272,20.740740740740744,0)" xlink:href="#bm"/><use transform="matrix(0.04938271604938272,0,0,0.04938271604938272,25.679012345679016,0)" xlink:href="#bn"/><use transform="matrix(0.04938271604938272,0,0,0.04938271604938272,36.49382716049383,0)" xlink:href="#bo"/><use transform="matrix(0.04938271604938272,0,0,0.04938271604938272,46.370370370370374,0)" xlink:href="#bp"/><use transform="matrix(0.04938271604938272,0,0,0.04938271604938272,51.308641975308646,0)" xlink:href="#bq"/><use transform="matrix(0.04938271604938272,0,0,0.04938271604938272,62.12345679012346,0)" xlink:href="#br"/><use transform="matrix(0.04938271604938272,0,0,0.04938271604938272,72.93827160493828,0)" xlink:href="#bs"/><use transform="matrix(0.04938271604938272,0,0,0.04938271604938272,82.81481481481482,0)" xlink:href="#bt"/><use transform="matrix(0.04938271604938272,0,0,0.04938271604938272,93.18518518518519,0)" xlink:href="#bt"/></g><path d="M185-189c-5-48-123-54-124 2 14 75 158 14 163 119 3 78-121 87-175 55-17-10-28-26-33-46l33-7c5 56 141 63 141-1 0-78-155-14-162-118-5-82 145-84 179-34 5 7 8 16 11 25" id="bu"/><g id="F"><use transform="matrix(0.05,0,0,0.05,0,0)" xlink:href="#bu"/><use transform="matrix(0.05,0,0,0.05,12,0)" xlink:href="#aE"/><use transform="matrix(0.05,0,0,0.05,22,0)" xlink:href="#aK"/><use transform="matrix(0.05,0,0,0.05,32,0)" xlink:href="#aL"/><use transform="matrix(0.05,0,0,0.05,42,0)" xlink:href="#aI"/></g><g id="G"><use transform="matrix(0.05,0,0,0.05,0,0)" xlink:href="#bj"/><use transform="matrix(0.05,0,0,0.05,12.950000000000001,0)" xlink:href="#ba"/><use transform="matrix(0.05,0,0,0.05,22.950000000000003,0)" xlink:href="#aY"/><use transform="matrix(0.05,0,0,0.05,27.950000000000003,0)" xlink:href="#aG"/><use transform="matrix(0.05,0,0,0.05,31.900000000000002,0)" xlink:href="#bc"/><use transform="matrix(0.05,0,0,0.05,36.900000000000006,0)" xlink:href="#aG"/><use transform="matrix(0.05,0,0,0.05,40.85000000000001,0)" xlink:href="#aF"/><use transform="matrix(0.05,0,0,0.05,49.85000000000001,0)" xlink:href="#be"/><use transform="matrix(0.05,0,0,0.05,59.85,0)" xlink:href="#aY"/><use transform="matrix(0.05,0,0,0.05,64.85000000000001,0)" xlink:href="#aG"/><use transform="matrix(0.05,0,0,0.05,68.80000000000001,0)" xlink:href="#ba"/><use transform="matrix(0.05,0,0,0.05,78.80000000000001,0)" xlink:href="#aK"/></g><path fill="#333" d="M144 0l-44-69L55 0H2l70-98-66-92h53l41 62 40-62h54l-67 91 71 99h-54" id="bv"/><path fill="#333" d="M115-3C79 11 28 4 28-45v-112H4v-33h27l15-45h31v45h36v33H77v99c-1 23 16 31 38 25v30" id="bw"/><g id="H"><use transform="matrix(0.04938271604938272,0,0,0.04938271604938272,0,0)" xlink:href="#bl"/><use transform="matrix(0.04938271604938272,0,0,0.04938271604938272,10.370370370370372,0)" xlink:href="#bl"/><use transform="matrix(0.04938271604938272,0,0,0.04938271604938272,20.740740740740744,0)" xlink:href="#bs"/><use transform="matrix(0.04938271604938272,0,0,0.04938271604938272,30.617283950617285,0)" xlink:href="#bv"/><use transform="matrix(0.04938271604938272,0,0,0.04938271604938272,40.49382716049384,0)" xlink:href="#bw"/><use transform="matrix(0.04938271604938272,0,0,0.04938271604938272,46.37037037037038,0)" xlink:href="#bs"/><use transform="matrix(0.04938271604938272,0,0,0.04938271604938272,56.24691358024693,0)" xlink:href="#bn"/><use transform="matrix(0.04938271604938272,0,0,0.04938271604938272,67.06172839506173,0)" xlink:href="#br"/><use transform="matrix(0.04938271604938272,0,0,0.04938271604938272,77.87654320987654,0)" xlink:href="#bt"/><use transform="matrix(0.04938271604938272,0,0,0.04938271604938272,88.24691358024691,0)" xlink:href="#bt"/></g><g id="I"><use transform="matrix(0.05,0,0,0.05,0,0)" xlink:href="#bk"/><use transform="matrix(0.05,0,0,0.05,12,0)" xlink:href="#aE"/><use transform="matrix(0.05,0,0,0.05,22,0)" xlink:href="#aM"/><use transform="matrix(0.05,0,0,0.05,27.950000000000003,0)" xlink:href="#aJ"/><use transform="matrix(0.05,0,0,0.05,42.9,0)" xlink:href="#aG"/><use transform="matrix(0.05,0,0,0.05,46.85,0)" xlink:href="#aI"/><use transform="matrix(0.05,0,0,0.05,55.85,0)" xlink:href="#aI"/><use transform="matrix(0.05,0,0,0.05,64.85,0)" xlink:href="#aG"/><use transform="matrix(0.05,0,0,0.05,68.8,0)" xlink:href="#ba"/><use transform="matrix(0.05,0,0,0.05,78.8,0)" xlink:href="#aK"/></g><path d="M115-194c55 1 70 41 70 98S169 2 115 4C84 4 66-9 55-30l1 105H24l-1-265h31l2 30c10-21 28-34 59-34zm-8 174c40 0 45-34 45-75s-6-73-45-74c-42 0-51 32-51 76 0 43 10 73 51 73" id="bx"/><g id="J"><use transform="matrix(0.05,0,0,0.05,0,0)" xlink:href="#bk"/><use transform="matrix(0.05,0,0,0.05,12,0)" xlink:href="#aM"/><use transform="matrix(0.05,0,0,0.05,17.95,0)" xlink:href="#ba"/><use transform="matrix(0.05,0,0,0.05,27.950000000000003,0)" xlink:href="#aJ"/><use transform="matrix(0.05,0,0,0.05,42.9,0)" xlink:href="#bx"/><use transform="matrix(0.05,0,0,0.05,52.900000000000006,0)" xlink:href="#aY"/></g><path d="M195 0l-88-114-31 24V0H24v-248h52v113l112-113h60L142-143 257 0h-62" id="by"/><path d="M185-48c-13 30-37 53-82 52C43 2 14-33 14-96s30-98 90-98c62 0 83 45 84 108H66c0 31 8 55 39 56 18 0 30-7 34-22zm-45-69c5-46-57-63-70-21-2 6-4 13-4 21h74" id="bz"/><path d="M123 10C108 53 80 86 19 72V37c35 8 53-11 59-39L3-190h52l48 148c12-52 28-100 44-148h51" id="bA"/><g id="K"><use transform="matrix(0.04217232582068305,0,0,0.04217232582068305,0,0)" xlink:href="#by"/><use transform="matrix(0.04217232582068305,0,0,0.04217232582068305,10.922632387556911,0)" xlink:href="#bz"/><use transform="matrix(0.04217232582068305,0,0,0.04217232582068305,19.35709755169352,0)" xlink:href="#bA"/></g><path d="M232-93c-1 65-40 97-104 97C67 4 28-28 28-90v-158h33c8 89-33 224 67 224 102 0 64-133 71-224h33v155" id="bB"/><path d="M47-170H22l-4-78h33" id="bC"/><g id="L"><use transform="matrix(0.04217232582068305,0,0,0.04217232582068305,0,0)" xlink:href="#bB"/><use transform="matrix(0.04217232582068305,0,0,0.04217232582068305,10.922632387556913,0)" xlink:href="#aI"/><use transform="matrix(0.04217232582068305,0,0,0.04217232582068305,18.513651035279864,0)" xlink:href="#aE"/><use transform="matrix(0.04217232582068305,0,0,0.04217232582068305,26.948116199416475,0)" xlink:href="#aM"/><use transform="matrix(0.04217232582068305,0,0,0.04217232582068305,31.966622972077765,0)" xlink:href="#bC"/><use transform="matrix(0.04217232582068305,0,0,0.04217232582068305,34.83434112788421,0)" xlink:href="#aI"/></g><g id="M"><use transform="matrix(0.04217232582068305,0,0,0.04217232582068305,0,0)" xlink:href="#bB"/><use transform="matrix(0.04217232582068305,0,0,0.04217232582068305,10.922632387556913,0)" xlink:href="#aI"/><use transform="matrix(0.04217232582068305,0,0,0.04217232582068305,18.513651035279864,0)" xlink:href="#aE"/></g><g id="N"><use transform="matrix(0.04217232582068305,0,0,0.04217232582068305,0,0)" xlink:href="#bf"/><use transform="matrix(0.04217232582068305,0,0,0.04217232582068305,10.922632387556913,0)" xlink:href="#be"/><use transform="matrix(0.04217232582068305,0,0,0.04217232582068305,19.357097551693524,0)" xlink:href="#aI"/><use transform="matrix(0.04217232582068305,0,0,0.04217232582068305,26.948116199416475,0)" xlink:href="#aE"/></g><path d="M30-248c118-7 216 8 213 122C240-48 200 0 122 0H30v-248zM63-27c89 8 146-16 146-99s-60-101-146-95v194" id="bD"/><path d="M115-194c53 0 69 39 70 98 0 66-23 100-70 100C84 3 66-7 56-30L54 0H23l1-261h32v101c10-23 28-34 59-34zm-8 174c40 0 45-34 45-75 0-40-5-75-45-74-42 0-51 32-51 76 0 43 10 73 51 73" id="bE"/><g id="O"><use transform="matrix(0.04217232582068305,0,0,0.04217232582068305,0,0)" xlink:href="#bD"/><use transform="matrix(0.04217232582068305,0,0,0.04217232582068305,10.922632387556913,0)" xlink:href="#be"/><use transform="matrix(0.04217232582068305,0,0,0.04217232582068305,19.357097551693524,0)" xlink:href="#aY"/><use transform="matrix(0.04217232582068305,0,0,0.04217232582068305,23.57433013376183,0)" xlink:href="#be"/><use transform="matrix(0.04217232582068305,0,0,0.04217232582068305,32.008795297898445,0)" xlink:href="#bE"/><use transform="matrix(0.04217232582068305,0,0,0.04217232582068305,40.44326046203505,0)" xlink:href="#be"/><use transform="matrix(0.04217232582068305,0,0,0.04217232582068305,48.87772562617166,0)" xlink:href="#aI"/><use transform="matrix(0.04217232582068305,0,0,0.04217232582068305,56.468744273894615,0)" xlink:href="#aE"/><use transform="matrix(0.04217232582068305,0,0,0.04217232582068305,64.90320943803123,0)" xlink:href="#bC"/><use transform="matrix(0.04217232582068305,0,0,0.04217232582068305,67.77092759383767,0)" xlink:href="#aI"/></g><path d="M205 0l-28-72H64L36 0H1l101-248h38L239 0h-34zm-38-99l-47-123c-12 45-31 82-46 123h93" id="bF"/><path d="M179-190L93 31C79 59 56 82 12 73V49c39 6 53-20 64-50L1-190h34L92-34l54-156h33" id="bG"/><g id="P"><use transform="matrix(0.04217232582068305,0,0,0.04217232582068305,0,0)" xlink:href="#bF"/><use transform="matrix(0.04217232582068305,0,0,0.04217232582068305,10.121358196963934,0)" xlink:href="#aF"/><use transform="matrix(0.04217232582068305,0,0,0.04217232582068305,17.712376844686887,0)" xlink:href="#aY"/><use transform="matrix(0.04217232582068305,0,0,0.04217232582068305,21.929609426755192,0)" xlink:href="#aG"/><use transform="matrix(0.04217232582068305,0,0,0.04217232582068305,25.261223166589154,0)" xlink:href="#aH"/><use transform="matrix(0.04217232582068305,0,0,0.04217232582068305,32.8522418143121,0)" xlink:href="#aG"/><use transform="matrix(0.04217232582068305,0,0,0.04217232582068305,36.183855554146064,0)" xlink:href="#aY"/><use transform="matrix(0.04217232582068305,0,0,0.04217232582068305,40.40108813621436,0)" xlink:href="#bG"/><use transform="matrix(0.04217232582068305,0,0,0.04217232582068305,47.99210678393732,0)" xlink:href="#bC"/><use transform="matrix(0.04217232582068305,0,0,0.04217232582068305,50.859824939743774,0)" xlink:href="#aI"/></g><g id="Q"><use transform="matrix(0.04217232582068305,0,0,0.04217232582068305,0,0)" xlink:href="#bj"/><use transform="matrix(0.04217232582068305,0,0,0.04217232582068305,10.922632387556913,0)" xlink:href="#ba"/><use transform="matrix(0.04217232582068305,0,0,0.04217232582068305,19.357097551693524,0)" xlink:href="#aY"/><use transform="matrix(0.04217232582068305,0,0,0.04217232582068305,23.57433013376183,0)" xlink:href="#aG"/><use transform="matrix(0.04217232582068305,0,0,0.04217232582068305,26.905943873595792,0)" xlink:href="#bc"/><use transform="matrix(0.04217232582068305,0,0,0.04217232582068305,31.123176455664098,0)" xlink:href="#aG"/><use transform="matrix(0.04217232582068305,0,0,0.04217232582068305,34.45479019549806,0)" xlink:href="#aF"/><use transform="matrix(0.04217232582068305,0,0,0.04217232582068305,42.04580884322101,0)" xlink:href="#be"/><use transform="matrix(0.04217232582068305,0,0,0.04217232582068305,50.48027400735762,0)" xlink:href="#aY"/><use transform="matrix(0.04217232582068305,0,0,0.04217232582068305,54.69750658942593,0)" xlink:href="#aG"/><use transform="matrix(0.04217232582068305,0,0,0.04217232582068305,58.02912032925989,0)" xlink:href="#ba"/><use transform="matrix(0.04217232582068305,0,0,0.04217232582068305,66.4635854933965,0)" xlink:href="#aK"/><use transform="matrix(0.04217232582068305,0,0,0.04217232582068305,74.8980506575331,0)" xlink:href="#bC"/><use transform="matrix(0.04217232582068305,0,0,0.04217232582068305,77.76576881333955,0)" xlink:href="#aI"/></g><g id="R"><use transform="matrix(0.04217232582068305,0,0,0.04217232582068305,0,0)" xlink:href="#bF"/><use transform="matrix(0.04217232582068305,0,0,0.04217232582068305,10.121358196963934,0)" xlink:href="#aF"/><use transform="matrix(0.04217232582068305,0,0,0.04217232582068305,17.712376844686887,0)" xlink:href="#aY"/><use transform="matrix(0.04217232582068305,0,0,0.04217232582068305,21.929609426755192,0)" xlink:href="#ba"/><use transform="matrix(0.04217232582068305,0,0,0.04217232582068305,30.364074590891803,0)" xlink:href="#aM"/></g><path d="M127-220V0H93v-220H8v-28h204v28h-85" id="bH"/><g id="S"><use transform="matrix(0.05,0,0,0.05,0,0)" xlink:href="#bH"/><use transform="matrix(0.05,0,0,0.05,8.950000000000001,0)" xlink:href="#be"/><use transform="matrix(0.05,0,0,0.05,18.950000000000003,0)" xlink:href="#bx"/><use transform="matrix(0.05,0,0,0.05,28.950000000000003,0)" xlink:href="#aI"/></g><g id="T"><use transform="matrix(0.05,0,0,0.05,0,0)" xlink:href="#be"/><use transform="matrix(0.05,0,0,0.05,10,0)" xlink:href="#aK"/><use transform="matrix(0.05,0,0,0.05,20,0)" xlink:href="#aL"/></g><g id="U"><use transform="matrix(0.05,0,0,0.05,0,0)" xlink:href="#bu"/><use transform="matrix(0.05,0,0,0.05,12,0)" xlink:href="#aE"/><use transform="matrix(0.05,0,0,0.05,22,0)" xlink:href="#aE"/><use transform="matrix(0.05,0,0,0.05,32,0)" xlink:href="#aI"/></g></defs></g></svg>