<svg xmlns="http://www.w3.org/2000/svg" xmlns:xlink="http://www.w3.org/1999/xlink" xmlns:lucid="lucid" width="1731.95" height="1930.36"><g transform="translate(961 609.8576669336007)" lucid:page-tab-id="lvW7vXXhHgqA"><path d="M-1000-1000h2000v2500h-2000z" fill="#fff"/><path d="M-284.3-580.86a8 8 0 0 1 8-8H332a8 8 0 0 1 8 8V1292a8 8 0 0 1-8 8h-608.3a8 8 0 0 1-8-8z" stroke="#000" fill-opacity="0"/><use xlink:href="#a" transform="matrix(1,0,0,1,-276.2864190061821,-580.8576669336007) translate(11.506481481481615 17.95555555555555)"/><use xlink:href="#b" transform="matrix(1,0,0,1,-276.2864190061821,-580.8576669336007) translate(57.6422839506174 17.95555555555555)"/><use xlink:href="#c" transform="matrix(1,0,0,1,-276.2864190061821,-580.8576669336007) translate(132.27006172839515 17.95555555555555)"/><use xlink:href="#d" transform="matrix(1,0,0,1,-276.2864190061821,-580.8576669336007) translate(275.3533950617284 17.95555555555555)"/><use xlink:href="#e" transform="matrix(1,0,0,1,-276.2864190061821,-580.8576669336007) translate(352.47499999999997 17.95555555555555)"/><use xlink:href="#f" transform="matrix(1,0,0,1,-276.2864190061821,-580.8576669336007) translate(402.1645061728394 17.95555555555555)"/><use xlink:href="#g" transform="matrix(1,0,0,1,-276.2864190061821,-580.8576669336007) translate(415.8182098765431 17.95555555555555)"/><use xlink:href="#h" transform="matrix(1,0,0,1,-276.2864190061821,-580.8576669336007) translate(480.59537037037023 17.95555555555555)"/><use xlink:href="#i" transform="matrix(1,0,0,1,-276.2864190061821,-580.8576669336007) translate(246.61203703703706 44.88888888888887)"/><path d="M-600.25 379.75c0 10.9-8.84 19.75-19.75 19.75-10.9 0-19.75-8.84-19.75-19.75 0-10.9 8.84-19.75 19.75-19.75 10.9 0 19.75 8.84 19.75 19.75z" stroke="#333" fill="#fff"/><path d="M-620 399.5v49.3a20.7 20.7 0 0 0 3.2 11.07L-580 518m-40-63.2l-40 63.2m0-98.75h80" stroke="#333" fill="none"/><path d="M-660 366a6 6 0 0 1 6-6h68a6 6 0 0 1 6 6v168a6 6 0 0 1-6 6h-68a6 6 0 0 1-6-6z" fill="none"/><use xlink:href="#j" transform="matrix(1,0,0,1,-740,518) translate(72.5 17.77777777777778)"/><path d="M-600.25-180.25c0 10.9-8.84 19.75-19.75 19.75-10.9 0-19.75-8.84-19.75-19.75 0-10.9 8.84-19.75 19.75-19.75 10.9 0 19.75 8.84 19.75 19.75z" stroke="#333" fill="#fff"/><path d="M-620-160.5v49.3a20.7 20.7 0 0 0 3.2 11.07L-580-42m-40-63.2L-660-42m0-98.75h80" stroke="#333" fill="none"/><path d="M-660-194a6 6 0 0 1 6-6h68a6 6 0 0 1 6 6v168a6 6 0 0 1-6 6h-68a6 6 0 0 1-6-6z" fill="none"/><use xlink:href="#k" transform="matrix(1,0,0,1,-740,-42) translate(96.60493827160494 17.77777777777778)"/><path d="M695.46 219.75c0 10.9-8.84 19.75-19.75 19.75-10.9 0-19.74-8.84-19.74-19.75 0-10.9 8.85-19.75 19.75-19.75 10.92 0 19.76 8.84 19.76 19.75z" stroke="#333" fill="#fff"/><path d="M675.7 239.5v49.3a20.7 20.7 0 0 0 3.22 11.07l36.8 58.13m-40-63.2l-40 63.2m0-98.75h80" stroke="#333" fill="none"/><path d="M635.7 206a6 6 0 0 1 6-6h68a6 6 0 0 1 6 6v168a6 6 0 0 1-6 6h-68a6 6 0 0 1-6-6z" fill="none"/><use xlink:href="#l" transform="matrix(1,0,0,1,555.7135809938179,358) translate(44.81481481481481 17.77777777777778)"/><use xlink:href="#m" transform="matrix(1,0,0,1,555.7135809938179,358) translate(121.23456790123456 17.77777777777778)"/><path d="M-940-576.86a12 12 0 0 1 12-12h296a12 12 0 0 1 12 12v296a12 12 0 0 1-12 12h-296a12 12 0 0 1-12-12z" stroke="#dfe3e8" stroke-width="2" fill="#fff"/><path d="M-849.3-478.74c0 10.74-8.7 19.44-19.45 19.44-10.73 0-19.43-8.7-19.43-19.44 0-10.73 8.7-19.43 19.43-19.43 10.74 0 19.44 8.7 19.44 19.43z" stroke="#000" stroke-opacity=".25" fill="#ff80df"/><path d="M-849.3-426.9c0 10.72-8.7 19.42-19.45 19.42-10.73 0-19.43-8.7-19.43-19.43 0-10.75 8.7-19.45 19.43-19.45 10.74 0 19.44 8.7 19.44 19.44z" stroke="#000" stroke-opacity=".25" fill="#4d9eff"/><path d="M-849.3-375.1c0 10.74-8.7 19.44-19.45 19.44-10.73 0-19.43-8.7-19.43-19.43 0-10.72 8.7-19.43 19.43-19.43 10.74 0 19.44 8.7 19.44 19.44z" stroke="#000" stroke-opacity=".25" fill="#fe7070"/><path d="M-865.15-335.87c0 2-1.6 3.6-3.6 3.6-1.98 0-3.6-1.6-3.6-3.6 0-1.98 1.62-3.6 3.6-3.6 2 0 3.6 1.62 3.6 3.6z" stroke="#333" fill="#fff"/><path d="M-868.75-332.27v11.16c0 .73.17 1.36.53 2l6.67 12.02m-7.2-12.95l-7.2 12.95m0-21.6h14.4" stroke="#333" fill="none"/><path d="M-875.94-338.4c0-.58.48-1.06 1.08-1.06h12.23c.6 0 1.08.48 1.08 1.07v30.24c0 .6-.48 1.08-1.08 1.08h-12.23c-.6 0-1.08-.48-1.08-1.08z" fill="none"/><use xlink:href="#n" transform="matrix(1,0,0,1,-888.1781376518219,-549.9912701724671) translate(0 23.075579607650212)"/><use xlink:href="#o" transform="matrix(1,0,0,1,-829.8785425101214,-498.169407824289) translate(0 23.276586398657614)"/><use xlink:href="#p" transform="matrix(1,0,0,1,-829.8785425101214,-498.169407824289) translate(51.87315253264457 23.276586398657614)"/><use xlink:href="#q" transform="matrix(1,0,0,1,-829.8785425101214,-498.169407824289) translate(86.53342352868827 23.276586398657614)"/><use xlink:href="#r" transform="matrix(1,0,0,1,-829.8785425101214,-446.3475454761109) translate(0 22.672171758876964)"/><use xlink:href="#s" transform="matrix(1,0,0,1,-829.8785425101214,-446.3475454761109) translate(72.97190954264272 22.672171758876964)"/><use xlink:href="#t" transform="matrix(1,0,0,1,-829.8785425101214,-446.3475454761109) translate(101.54967379914139 22.672171758876964)"/><use xlink:href="#u" transform="matrix(1,0,0,1,-829.8785425101214,-394.5256831279328) translate(0 23.276586398657614)"/><use xlink:href="#p" transform="matrix(1,0,0,1,-829.8785425101214,-394.5256831279328) translate(69.69575466863455 23.276586398657614)"/><use xlink:href="#q" transform="matrix(1,0,0,1,-829.8785425101214,-394.5256831279328) translate(104.35602566467826 23.276586398657614)"/><use xlink:href="#v" transform="matrix(1,0,0,1,-829.8785425101214,-342.70382077975466) translate(0 23.276586398657614)"/><path d="M217.86-20c0 33.14-85.07 60-190 60-104.94 0-190-26.86-190-60s85.06-60 190-60c104.93 0 190 26.86 190 60z" stroke="#000" fill="#ff80df"/><use xlink:href="#w" transform="matrix(1,0,0,1,-162.14320950309116,-80.00000000000006) translate(123.605 63.15)"/><use xlink:href="#x" transform="matrix(1,0,0,1,-162.14320950309116,-80.00000000000006) translate(169.605 63.15)"/><path d="M222.14 360c0 33.14-85.06 60-190 60-104.93 0-190-26.86-190-60s85.07-60 190-60c104.94 0 190 26.86 190 60z" stroke="#000" fill="#ff80df"/><use xlink:href="#y" transform="matrix(1,0,0,1,-157.85679049690907,299.9999999999999) translate(119.13 63.15)"/><use xlink:href="#z" transform="matrix(1,0,0,1,-157.85679049690907,299.9999999999999) translate(183.07999999999998 63.15)"/><path d="M222.14 560c0 33.14-85.06 60-190 60-104.93 0-190-26.86-190-60s85.07-60 190-60c104.94 0 190 26.86 190 60z" stroke="#000" fill="#ff80df"/><use xlink:href="#A" transform="matrix(1,0,0,1,-157.85679049690907,500) translate(122.13000000000001 63.15)"/><use xlink:href="#B" transform="matrix(1,0,0,1,-157.85679049690907,500) translate(187.08 63.15)"/><path d="M217.86 760c0 33.14-85.07 60-190 60-104.94 0-190-26.86-190-60s85.06-60 190-60c104.93 0 190 26.86 190 60z" stroke="#000" fill="#ff80df"/><use xlink:href="#C" transform="matrix(1,0,0,1,-162.14320950309116,700) translate(112.605 63.15)"/><use xlink:href="#D" transform="matrix(1,0,0,1,-162.14320950309116,700) translate(187.60500000000002 63.15)"/><path d="M217.86-440c0 33.14-85.07 60-190 60-104.94 0-190-26.86-190-60s85.06-60 190-60c104.93 0 190 26.86 190 60z" stroke="#000" fill="#4d9eff"/><use xlink:href="#E" transform="matrix(1,0,0,1,-162.14320950309116,-500) translate(125.105 63.15)"/><use xlink:href="#x" transform="matrix(1,0,0,1,-162.14320950309116,-500) translate(168.105 63.15)"/><path d="M217.86-228.86c0 33.14-85.07 60-190 60-104.94 0-190-26.86-190-60 0-33.13 85.06-60 190-60 104.93 0 190 26.87 190 60z" stroke="#000" fill="#fe7070"/><use xlink:href="#F" transform="matrix(1,0,0,1,-162.14320950309116,-288.85766693360074) translate(83.17999999999999 63.15)"/><use xlink:href="#G" transform="matrix(1,0,0,1,-162.14320950309116,-288.85766693360074) translate(168.13 63.15)"/><use xlink:href="#H" transform="matrix(1,0,0,1,-162.14320950309116,-288.85766693360074) translate(259.93 63.15)"/><use xlink:href="#I" transform="matrix(1,0,0,1,-162.14320950309116,-288.85766693360074) translate(278.88 63.15)"/><path d="M675.25 278.23l-.74.66-456.18-507.05.74-.67z" stroke="#3a414a" stroke-width=".05" fill="#3a414a"/><path d="M677.6 280.83l-.75.67-2.35-2.62.74-.66z" stroke="#3a414a" stroke-width=".05" fill="#3a414a"/><path d="M219.07-228.8l-.73.65.02-.7v-.43l-.02-.35z" fill="#3a414a"/><path d="M219.1-228.8l-.78.7v-1.58zm-.72-.48v1.07l.66-.6-.67-.76z" stroke="#3a414a" stroke-width=".05" fill="#3a414a"/><path d="M-620.27 438.5l457.4-878.06M-620.26 438.48l-1.63 3.1" stroke="#3a414a" fill="none"/><path d="M-162.63-440.83v1.41l-.7-.36.72-1.38zM28.36-290.27h-1v-4.93h1zm0-9.86h-1V-310h1zm0-14.8h-1v-9.84h1zm0-14.77h-1v-8.63h1zm0-29.97h-1v-9.47h1zm0-14.4h-1V-379h1z" stroke="#3a414a" stroke-width=".05" fill="#3a414a"/><path d="M27.85-379.5h.5v.5h-1v-.5z" fill="#3a414a"/><path d="M27.85-379.52h.53v.56h-1.05v-.58zm-.47.5h.95v-.46h-.95zM38.47-307.3l-10.6 17.94-10.62-17.94.86-.5 9.76 16.48 9.75-16.5z" stroke="#3a414a" stroke-width=".05" fill="#3a414a"/><use xlink:href="#J" transform="matrix(1,0,0,1,-23.920987280868935,-359.6666666666667) translate(0 14.222222222222223)"/><path d="M28.36-81.4h-1v-4.8h1zm0-9.6l-1-.02v-9.6h1zm0-14.42h-1v-9.6h1zm0-14.4h-1v-9.62h1zm0-34.85h-1v-3.58h1zm0-8.4h-1v-4.8h1z" stroke="#3a414a" stroke-width=".05" fill="#3a414a"/><path d="M27.85-168.36h.5v.52h-1v-.53z" fill="#3a414a"/><path d="M27.85-168.38h.53v.56h-1.05v-.57zm-.47.5h.95v-.46h-.95zM38.47-98.44L27.87-80.5 17.24-98.44l.86-.5 9.76 16.48 9.75-16.5z" stroke="#3a414a" stroke-width=".05" fill="#3a414a"/><use xlink:href="#J" transform="matrix(1,0,0,1,-23.920987280868935,-154.66666666666666) translate(0 14.222222222222223)"/><path d="M-619-120.96L-163.14-20.1M-619-120.96l-3.43-.76" stroke="#3a414a" fill="none"/><path d="M-162.63-20.5v1.02l-.62-.14.2-.98z" stroke="#3a414a" stroke-width=".05" fill="#3a414a"/><path d="M222.14 160c0 33.14-85.06 60-190 60-104.93 0-190-26.86-190-60s85.07-60 190-60c104.94 0 190 26.86 190 60z" stroke="#000" fill="#ff80df"/><use xlink:href="#K" transform="matrix(1,0,0,1,-157.85679049690907,100) translate(119.705 63.15)"/><use xlink:href="#x" transform="matrix(1,0,0,1,-157.85679049690907,100) translate(173.505 63.15)"/><path d="M28.36 98.64h-1v-4.8h1zm0-9.6h-1V79.4h1zm0-33.04h-1v-5.4h1zm0-10.2h-1V41h1z" stroke="#3a414a" stroke-width=".05" fill="#3a414a"/><path d="M27.85 40.5h.5v.5h-1v-.5z" fill="#3a414a"/><path d="M27.85 40.48h.53v.56h-1.05v-.58zm-.47.5h.95v-.46h-.95zM38.47 81.6l-10.6 17.95L17.24 81.6l.86-.5 9.76 16.48 9.75-16.5z" stroke="#3a414a" stroke-width=".05" fill="#3a414a"/><use xlink:href="#J" transform="matrix(1,0,0,1,-23.920987280868935,56.00000000000004) translate(0 14.222222222222223)"/><path d="M32.64 298.6h-1v-5.18h1zm0-10.36h-1V277.9h1zm0-15.5h-1v-2.07h1zm0-23.4h-1v-2.48h1zm0-7.65h-1v-10.35h1zm0-15.53h-1V221h1z" stroke="#3a414a" stroke-width=".05" fill="#3a414a"/><path d="M32.14 220.5h.5v.5h-1v-.5z" fill="#3a414a"/><path d="M32.14 220.47h.53v.57h-1.05v-.58zm-.47.52h.95v-.48h-.95zM32.14 297.54l9.75-16.5.85.52-10.6 17.94-10.62-17.94.86-.5z" stroke="#3a414a" stroke-width=".05" fill="#3a414a"/><use xlink:href="#J" transform="matrix(1,0,0,1,-19.63456827468685,249.3333333333333) translate(0 14.222222222222223)"/><path d="M263.14 354.02l-.07 1-.24 1-.4.93-.53.87-.66.78-.78.66-.86.53-.95.38-1 .24-1 .08h-5.52v-1h5.5l.87-.07.84-.2.8-.33.74-.45.65-.56.56-.67.44-.73.33-.8.2-.84.07-.88v-4.9h1zm-17.53 6.48H234.6v-1h11.03zm-16.53 0h-5.52v-1h5.52zm34.07-16.3h-1v-9.83h1zm0-14.73h-1v-9.82h1zm0-14.72h-1v-9.82h1zm0-14.72h-1v-9.82h1zm0-14.72h-1v-9.8h1zm0-14.7h-1v-9.83h1zm0-14.73h-1v-9.82h1zm0-14.72h-1v-9.82h1zm0-14.72h-1v-9.82h1zm0-14.72h-1v-9.8h1zm0-14.7h-1v-9.83h1zm0-14.73h-1v-9.82h1zm0-14.72h-1v-9.82h1zm0-14.72h-1v-9.7h1zm0-31.02h-1v-8.23h1zm0-13.13h-1v-9.82h1zm0-14.72h-1v-9.82h1zm0-14.72h-1V69.4h1zm0-14.72h-1v-9.8h1zm0-14.7h-1v-9.83h1zm0-14.73h-1v-9.82h1zm0-14.72h-1v-9.82h1zm0-14.72h-1V-4.2h1zm-5.48-26.05l1 .24.94.4.86.52.78.66.66.78.54.87.4.94.23.98.07 1v4.93h-1v-4.88l-.07-.88-.2-.84-.33-.8-.45-.73-.57-.66-.65-.55-.74-.45-.8-.33-.84-.2-.88-.07h-4.18v-1h4.22zm-34.6.92h-4.2v-1h4.2zm12.6 0h-8.4v-1h8.4zm12.6 0h-8.4v-1h8.4z" stroke="#3a414a" stroke-width=".05" fill="#3a414a"/><path d="M218.87-19.5h-.52V-20.42l.52-.08z" fill="#3a414a"/><path d="M218.9-19.48h-.58v-.96l.58-.1zm-.52-.92v.88h.47v-.95zM241.1 350.25L224.6 360l16.5 9.75-.5.86-17.96-10.6 17.95-10.6z" stroke="#3a414a" stroke-width=".05" fill="#3a414a"/><use xlink:href="#L" transform="matrix(1,0,0,1,213.3345949293607,121.80923585708616) translate(0 14.222222222222223)"/><path d="M32.64 498.6h-1v-5.18h1zm0-10.36h-1V477.9h1zm0-15.5h-1v-2.07h1zm0-23.4h-1v-2.48h1zm0-7.65h-1v-10.35h1zm0-15.53h-1V421h1z" stroke="#3a414a" stroke-width=".05" fill="#3a414a"/><path d="M32.14 420.5h.5v.5h-1v-.5z" fill="#3a414a"/><path d="M32.14 420.48h.53v.56h-1.05v-.58zm-.47.5h.95v-.46h-.95zM32.14 497.54l9.75-16.5.85.52-10.6 17.94-10.62-17.94.86-.5z" stroke="#3a414a" stroke-width=".05" fill="#3a414a"/><use xlink:href="#J" transform="matrix(1,0,0,1,-19.63456827468685,449.33333333333326) translate(0 14.222222222222223)"/><path d="M-219.5 753.98l.07.88.2.84.33.8.45.73.56.66.67.55.73.45.8.33.84.2.88.07h5.58v1h-5.62l-1-.08-1-.24-.93-.4-.87-.52-.78-.66-.66-.78-.53-.87-.38-.94-.24-.98-.08-1v-5h1zm27.92 6.52h-11.2v-1h11.2zm16.82 0h-11.2v-1h11.2zm11.2 0h-5.6v-1h5.6zm-55.94-16.45h-1v-9.95h1zm0-14.92h-1v-9.95h1zm0-14.92h-1v-9.94h1zm0-14.92h-1v-9.95h1zm0-14.92h-1v-9.95h1zm0-14.92h-1v-9.95h1zm0-14.93h-1v-9.94h1zm0-14.9h-1v-9.96h1zm0-14.93h-1v-9.95h1zm0-14.93h-1v-9.95h1zm0-14.92h-1v-9.95h1zm0-14.92h-1v-9.95h1zm0-32.7h-1v-7.1h1zm0-12.07h-1v-9.95h1zm0-14.92h-1v-9.94h1zm0-14.92h-1v-9.95h1zm0-14.92h-1v-9.95h1zm0-14.92h-1v-9.95h1zm0-14.93h-1v-9.94h1zm0-14.9h-1v-9.96h1zm0-14.93h-1v-9.95h1zm0-14.93h-1v-9.94h1zm0-14.92h-1v-9.95h1zm0-14.92h-1v-9.95h1zm10.1-25.4H-214l-.88.07-.84.2-.8.33-.73.45-.66.56-.55.67-.45.73-.33.8-.2.84-.07.88v4.95h-1v-5l.08-1 .24-.98.4-.95.52-.87.66-.78.78-.66.87-.53.94-.38.98-.24 1-.08h4.62zm50.54 0h-4.6v-1h4.6zm-9.2 0h-9.18v-1h9.2zm-13.77 0h-9.2v-1h9.2zm-13.8 0h-9.18v-1h9.18z" stroke="#3a414a" stroke-width=".05" fill="#3a414a"/><path d="M-158.36 360v.42l-.5.08v-1h.5z" fill="#3a414a"/><path d="M-158.33 360v.44l-.56.1v-1.06h.58zm-.5-.48v.95l.45-.07v-.88zM-162.64 760l-17.95 10.6-.5-.85 16.5-9.75-16.5-9.75.5-.86z" stroke="#3a414a" stroke-width=".05" fill="#3a414a"/><g><use xlink:href="#M" transform="matrix(1,0,0,1,-274.2469135802469,547.1901238302423) translate(0 14.222222222222223)"/></g><path d="M217.86 940c0 33.14-85.07 60-190 60-104.94 0-190-26.86-190-60s85.06-60 190-60c104.93 0 190 26.86 190 60z" stroke="#000" fill="#4d9eff"/><g><use xlink:href="#N" transform="matrix(1,0,0,1,-162.14320950309116,880) translate(91.63000000000001 63.15)"/><use xlink:href="#O" transform="matrix(1,0,0,1,-162.14320950309116,880) translate(148.58 63.15)"/><use xlink:href="#P" transform="matrix(1,0,0,1,-162.14320950309116,880) translate(172.58 63.15)"/><use xlink:href="#Q" transform="matrix(1,0,0,1,-162.14320950309116,880) translate(264.43 63.15)"/></g><path d="M280.5 934.02l-.08 1-.24 1-.4.93-.52.87-.66.78-.78.66-.87.53-.94.38-.98.24-1 .08h-4.58v-1h4.54l.88-.07.84-.2.8-.33.73-.45.66-.56.55-.67.45-.73.33-.8.2-.84.07-.88v-4.9h1zm-15.62 6.48h-9.13v-1h9.13zm-13.7 0h-9.1v-1h9.1zm-13.67 0h-9.1v-1h9.1zm-13.67 0h-4.56v-1h4.56zm56.67-16.3h-1v-9.83h1zm0-14.73h-1v-9.82h1zm0-14.72h-1v-9.82h1zm0-14.72h-1v-9.82h1zm0-14.72h-1v-9.8h1zm0-14.7h-1v-9.83h1zm0-14.73h-1v-9.82h1zm0-14.72h-1v-9.82h1zm0-14.72h-1v-9.82h1zm0-14.72h-1v-9.8h1zm0-14.7h-1v-9.83h1zm0-35.52h-1v-3.75h1zm0-8.65h-1V723h1zm0-14.72h-1v-9.8h1zm0-14.7h-1v-9.83h1zm0-14.73h-1v-9.82h1zm0-14.72h-1v-9.82h1zm0-14.72h-1v-9.82h1zm0-14.72h-1v-9.8h1zm0-14.7h-1v-9.83h1zm0-14.73h-1v-9.82h1zm0-14.72h-1v-9.82h1zm0-14.72h-1v-9.82h1zm-5.48-26.05l1 .24.93.4.87.52.78.66.66.78.53.87.38.94.24.98.08 1v4.93h-1v-4.88l-.07-.88-.2-.84-.33-.8-.45-.73-.56-.66-.67-.55-.73-.45-.8-.33-.84-.2-.88-.07h-5.63v-1h5.67zm-46.23.92h-5.66v-1h5.65zm16.95 0h-11.3v-1h11.3zm16.95 0h-11.3v-1h11.3z" stroke="#3a414a" stroke-width=".05" fill="#3a414a"/><path d="M223.16 560.5h-.53V559.58l.53-.08z" fill="#3a414a"/><path d="M223.18 560.52h-.57l.02-.52v-.44l.56-.1zm-.52-.92v.88h.47v-.95zM236.8 930.25L220.33 940l16.5 9.75-.52.86-17.94-10.6 17.94-10.6z" stroke="#3a414a" stroke-width=".05" fill="#3a414a"/><g><use xlink:href="#J" transform="matrix(1,0,0,1,228.22222222222223,741.4765428364244) translate(0 14.222222222222223)"/></g><path d="M217.86 1140c0 33.14-85.07 60-190 60-104.94 0-190-26.86-190-60s85.06-60 190-60c104.93 0 190 26.86 190 60z" stroke="#000" fill="#fe7070"/><g><use xlink:href="#R" transform="matrix(1,0,0,1,-162.14320950309116,1080.0000000000002) translate(63.20499999999999 63.15)"/><use xlink:href="#S" transform="matrix(1,0,0,1,-162.14320950309116,1080.0000000000002) translate(135.155 63.15)"/><use xlink:href="#T" transform="matrix(1,0,0,1,-162.14320950309116,1080.0000000000002) translate(168.10500000000002 63.15)"/><use xlink:href="#G" transform="matrix(1,0,0,1,-162.14320950309116,1080.0000000000002) translate(188.10500000000002 63.15)"/><use xlink:href="#H" transform="matrix(1,0,0,1,-162.14320950309116,1080.0000000000002) translate(279.90500000000003 63.15)"/><use xlink:href="#I" transform="matrix(1,0,0,1,-162.14320950309116,1080.0000000000002) translate(298.855 63.15)"/></g><path d="M28.36 1078.6h-1v-5.18h1zm0-10.36h-1v-10.34h1zm0-15.5h-1v-10.36h1zm0-36.74h-1v-4.65h1zm0-9.83h-1V1001h1z" stroke="#3a414a" stroke-width=".05" fill="#3a414a"/><path d="M27.85 1000.5h.5v.5h-1v-.5z" fill="#3a414a"/><path d="M27.85 1000.48h.53v.56h-1.05v-.58zm-.47.5h.95v-.46h-.95zM38.47 1061.56l-10.6 17.94-10.62-17.94.86-.5 9.76 16.48 9.75-16.5z" stroke="#3a414a" stroke-width=".05" fill="#3a414a"/><g><use xlink:href="#J" transform="matrix(1,0,0,1,-23.920987280868935,1016.0000000000008) translate(0 14.222222222222223)"/></g><path d="M675.42 279.6l-456.4 860.2-.87-.48 456.4-860.18z" stroke="#3a414a" stroke-width=".05" fill="#3a414a"/><path d="M677.06 276.52l-1.64 3.1-.9-.47 1.66-3.1z" stroke="#3a414a" stroke-width=".05" fill="#3a414a"/><path d="M219.04 1139.78l-.72 1.36.02-.3.02-.84v-.42l-.02-.17z" fill="#3a414a"/><path d="M219.07 1139.77l-.78 1.48v-.42l.03-.83v-.62zm-.7-.2v1.26l-.02.2.66-1.24-.63-.34zM-162.6 939.3l-.75.67-457.18-500.33.74-.68z" stroke="#3a414a" stroke-width=".05" fill="#3a414a"/><path d="M-619.8 438.97l-.72.68-2.37-2.6.75-.67z" stroke="#3a414a" stroke-width=".05" fill="#3a414a"/><path d="M-162.64 940v.42l.02.34-.74-.8.73-.67z" fill="#3a414a"/><path d="M-162.62 940v.42l.02.4-.8-.86.8-.73zm-.7-.04l.67.73v-.28l-.02-.42v-.65z" stroke="#3a414a" stroke-width=".05" fill="#3a414a"/><defs><path fill="#3a414a" d="M24 0v-248h195v40H76v63h132v40H76v65h150V0H24" id="U"/><path fill="#3a414a" d="M123 10C108 53 80 86 19 72V37c35 8 53-11 59-39L3-190h52l48 148c12-52 28-100 44-148h51" id="V"/><path fill="#3a414a" d="M185-48c-13 30-37 53-82 52C43 2 14-33 14-96s30-98 90-98c62 0 83 45 84 108H66c0 31 8 55 39 56 18 0 30-7 34-22zm-45-69c5-46-57-63-70-21-2 6-4 13-4 21h74" id="W"/><g id="a"><use transform="matrix(0.06234567901234565,0,0,0.06234567901234565,0,0)" xlink:href="#U"/><use transform="matrix(0.06234567901234565,0,0,0.06234567901234565,14.962962962962957,0)" xlink:href="#V"/><use transform="matrix(0.06234567901234565,0,0,0.06234567901234565,27.432098765432087,0)" xlink:href="#W"/></g><path fill="#3a414a" d="M186 0v-106H76V0H24v-248h52v99h110v-99h50V0h-50" id="X"/><path fill="#3a414a" d="M133-34C117-15 103 5 69 4 32 3 11-16 11-54c-1-60 55-63 116-61 1-26-3-47-28-47-18 1-26 9-28 27l-52-2c7-38 36-58 82-57s74 22 75 68l1 82c-1 14 12 18 25 15v27c-30 8-71 5-69-32zm-48 3c29 0 43-24 42-57-32 0-66-3-65 30 0 17 8 27 23 27" id="Y"/><path fill="#3a414a" d="M25 0v-261h50V0H25" id="Z"/><path fill="#3a414a" d="M115-3C79 11 28 4 28-45v-112H4v-33h27l15-45h31v45h36v33H77v99c-1 23 16 31 38 25v30" id="aa"/><path fill="#3a414a" d="M114-157C55-157 80-60 75 0H25v-261h50l-1 109c12-26 28-41 61-42 86-1 58 113 63 194h-50c-7-57 23-157-34-157" id="ab"/><g id="b"><use transform="matrix(0.06234567901234565,0,0,0.06234567901234565,0,0)" xlink:href="#X"/><use transform="matrix(0.06234567901234565,0,0,0.06234567901234565,16.147530864197524,0)" xlink:href="#W"/><use transform="matrix(0.06234567901234565,0,0,0.06234567901234565,28.616666666666653,0)" xlink:href="#Y"/><use transform="matrix(0.06234567901234565,0,0,0.06234567901234565,41.085802469135785,0)" xlink:href="#Z"/><use transform="matrix(0.06234567901234565,0,0,0.06234567901234565,47.32037037037035,0)" xlink:href="#aa"/><use transform="matrix(0.06234567901234565,0,0,0.06234567901234565,54.739506172839484,0)" xlink:href="#ab"/></g><path fill="#3a414a" d="M230 0l2-204L168 0h-37L68-204 70 0H24v-248h70l56 185 57-185h69V0h-46" id="ac"/><path fill="#3a414a" d="M135-194c87-1 58 113 63 194h-50c-7-57 23-157-34-157-59 0-34 97-39 157H25l-1-190h47c2 12-1 28 3 38 12-26 28-41 61-42" id="ad"/><path fill="#3a414a" d="M195-6C206 82 75 100 31 46c-4-6-6-13-8-21l49-6c3 16 16 24 34 25 40 0 42-37 40-79-11 22-30 35-61 35-53 0-70-43-70-97 0-56 18-96 73-97 30 0 46 14 59 34l2-30h47zm-90-29c32 0 41-27 41-63 0-35-9-62-40-62-32 0-39 29-40 63 0 36 9 62 39 62" id="ae"/><path fill="#3a414a" d="M220-157c-53 9-28 100-34 157h-49v-107c1-27-5-49-29-50C55-147 81-57 75 0H25l-1-190h47c2 12-1 28 3 38 10-53 101-56 108 0 13-22 24-43 59-42 82 1 51 116 57 194h-49v-107c-1-25-5-48-29-50" id="af"/><g id="c"><use transform="matrix(0.06234567901234565,0,0,0.06234567901234565,0,0)" xlink:href="#ac"/><use transform="matrix(0.06234567901234565,0,0,0.06234567901234565,18.64135802469135,0)" xlink:href="#Y"/><use transform="matrix(0.06234567901234565,0,0,0.06234567901234565,31.110493827160482,0)" xlink:href="#ad"/><use transform="matrix(0.06234567901234565,0,0,0.06234567901234565,44.76419753086418,0)" xlink:href="#Y"/><use transform="matrix(0.06234567901234565,0,0,0.06234567901234565,57.23333333333331,0)" xlink:href="#ae"/><use transform="matrix(0.06234567901234565,0,0,0.06234567901234565,70.887037037037,0)" xlink:href="#W"/><use transform="matrix(0.06234567901234565,0,0,0.06234567901234565,83.35617283950613,0)" xlink:href="#af"/><use transform="matrix(0.06234567901234565,0,0,0.06234567901234565,103.30679012345674,0)" xlink:href="#W"/><use transform="matrix(0.06234567901234565,0,0,0.06234567901234565,115.77592592592586,0)" xlink:href="#ad"/><use transform="matrix(0.06234567901234565,0,0,0.06234567901234565,129.42962962962957,0)" xlink:href="#aa"/></g><path fill="#3a414a" d="M110-194c64 0 96 36 96 99 0 64-35 99-97 99-61 0-95-36-95-99 0-62 34-99 96-99zm-1 164c35 0 45-28 45-65 0-40-10-65-43-65-34 0-45 26-45 65 0 36 10 65 43 65" id="ag"/><path fill="#3a414a" d="M135-194c52 0 70 43 70 98 0 56-19 99-73 100-30 1-46-15-58-35L72 0H24l1-261h50v104c11-23 29-37 60-37zM114-30c31 0 40-27 40-66 0-37-7-63-39-63s-41 28-41 65c0 36 8 64 40 64" id="ah"/><path fill="#3a414a" d="M25-224v-37h50v37H25zM25 0v-190h50V0H25" id="ai"/><g id="d"><use transform="matrix(0.06234567901234565,0,0,0.06234567901234565,0,0)" xlink:href="#ac"/><use transform="matrix(0.06234567901234565,0,0,0.06234567901234565,18.64135802469135,0)" xlink:href="#ag"/><use transform="matrix(0.06234567901234565,0,0,0.06234567901234565,32.29506172839505,0)" xlink:href="#ah"/><use transform="matrix(0.06234567901234565,0,0,0.06234567901234565,45.948765432098746,0)" xlink:href="#ai"/><use transform="matrix(0.06234567901234565,0,0,0.06234567901234565,52.18333333333331,0)" xlink:href="#Z"/><use transform="matrix(0.06234567901234565,0,0,0.06234567901234565,58.41790123456787,0)" xlink:href="#W"/></g><path fill="#3a414a" d="M199 0l-22-63H83L61 0H9l90-248h61L250 0h-51zm-33-102l-36-108c-10 38-24 72-36 108h72" id="aj"/><path fill="#3a414a" d="M135-194c53 0 70 44 70 98 0 56-19 98-73 100-31 1-45-17-59-34 3 33 2 69 2 105H25l-1-265h48c2 10 0 23 3 31 11-24 29-35 60-35zM114-30c33 0 39-31 40-66 0-38-9-64-40-64-56 0-55 130 0 130" id="ak"/><g id="e"><use transform="matrix(0.06234567901234565,0,0,0.06234567901234565,0,0)" xlink:href="#aj"/><use transform="matrix(0.06234567901234565,0,0,0.06234567901234565,16.147530864197524,0)" xlink:href="#ak"/><use transform="matrix(0.06234567901234565,0,0,0.06234567901234565,29.801234567901222,0)" xlink:href="#ak"/></g><path fill="#3a414a" d="M14-72v-43h91v43H14" id="al"/><use transform="matrix(0.06234567901234565,0,0,0.06234567901234565,0,0)" xlink:href="#al" id="f"/><path fill="#3a414a" d="M136-208V0H84v-208H4v-40h212v40h-80" id="am"/><path fill="#3a414a" d="M135-150c-39-12-60 13-60 57V0H25l-1-190h47c2 13-1 29 3 40 6-28 27-53 61-41v41" id="an"/><path fill="#3a414a" d="M190-63c-7 42-38 67-86 67-59 0-84-38-90-98-12-110 154-137 174-36l-49 2c-2-19-15-32-35-32-30 0-35 28-38 64-6 74 65 87 74 30" id="ao"/><path fill="#3a414a" d="M147 0L96-86 75-71V0H25v-261h50v150l67-79h53l-66 74L201 0h-54" id="ap"/><g id="g"><use transform="matrix(0.06234567901234565,0,0,0.06234567901234565,0,0)" xlink:href="#am"/><use transform="matrix(0.06234567901234565,0,0,0.06234567901234565,12.406790123456785,0)" xlink:href="#an"/><use transform="matrix(0.06234567901234565,0,0,0.06234567901234565,21.13518518518518,0)" xlink:href="#Y"/><use transform="matrix(0.06234567901234565,0,0,0.06234567901234565,33.60432098765431,0)" xlink:href="#ao"/><use transform="matrix(0.06234567901234565,0,0,0.06234567901234565,46.073456790123444,0)" xlink:href="#ap"/></g><path fill="#3a414a" d="M88-194c31-1 46 15 58 34l-1-101h50l1 261h-48c-2-10 0-23-3-31C134-8 116 4 84 4 32 4 16-41 15-95c0-56 19-97 73-99zm17 164c33 0 40-30 41-66 1-37-9-64-41-64s-38 30-39 65c0 43 13 65 39 65" id="aq"/><g id="h"><use transform="matrix(0.06234567901234565,0,0,0.06234567901234565,0,0)" xlink:href="#ac"/><use transform="matrix(0.06234567901234565,0,0,0.06234567901234565,18.64135802469135,0)" xlink:href="#W"/><use transform="matrix(0.06234567901234565,0,0,0.06234567901234565,31.110493827160482,0)" xlink:href="#aq"/><use transform="matrix(0.06234567901234565,0,0,0.06234567901234565,44.76419753086418,0)" xlink:href="#ai"/><use transform="matrix(0.06234567901234565,0,0,0.06234567901234565,50.99876543209874,0)" xlink:href="#ao"/><use transform="matrix(0.06234567901234565,0,0,0.06234567901234565,63.467901234567876,0)" xlink:href="#Y"/><use transform="matrix(0.06234567901234565,0,0,0.06234567901234565,75.937037037037,0)" xlink:href="#aa"/><use transform="matrix(0.06234567901234565,0,0,0.06234567901234565,83.35617283950613,0)" xlink:href="#ai"/><use transform="matrix(0.06234567901234565,0,0,0.06234567901234565,89.5907407407407,0)" xlink:href="#ag"/><use transform="matrix(0.06234567901234565,0,0,0.06234567901234565,103.2444444444444,0)" xlink:href="#ad"/></g><path fill="#3a414a" d="M240-174c0 40-23 61-54 70L253 0h-59l-57-94H76V0H24v-248c93 4 217-23 216 74zM76-134c48-2 112 12 112-38 0-48-66-32-112-35v73" id="ar"/><path fill="#3a414a" d="M137-138c1-29-70-34-71-4 15 46 118 7 119 86 1 83-164 76-172 9l43-7c4 19 20 25 44 25 33 8 57-30 24-41C81-84 22-81 20-136c-2-80 154-74 161-7" id="as"/><g id="i"><use transform="matrix(0.06234567901234565,0,0,0.06234567901234565,0,0)" xlink:href="#ar"/><use transform="matrix(0.06234567901234565,0,0,0.06234567901234565,16.147530864197524,0)" xlink:href="#W"/><use transform="matrix(0.06234567901234565,0,0,0.06234567901234565,28.616666666666653,0)" xlink:href="#af"/><use transform="matrix(0.06234567901234565,0,0,0.06234567901234565,48.567283950617266,0)" xlink:href="#ai"/><use transform="matrix(0.06234567901234565,0,0,0.06234567901234565,54.80185185185183,0)" xlink:href="#ad"/><use transform="matrix(0.06234567901234565,0,0,0.06234567901234565,68.45555555555552,0)" xlink:href="#aq"/><use transform="matrix(0.06234567901234565,0,0,0.06234567901234565,82.10925925925922,0)" xlink:href="#W"/><use transform="matrix(0.06234567901234565,0,0,0.06234567901234565,94.57839506172834,0)" xlink:href="#an"/><use transform="matrix(0.06234567901234565,0,0,0.06234567901234565,103.30679012345674,0)" xlink:href="#as"/></g><path fill="#3a414a" d="M30-248c118-7 216 8 213 122C240-48 200 0 122 0H30v-248zM63-27c89 8 146-16 146-99s-60-101-146-95v194" id="at"/><path fill="#3a414a" d="M141-36C126-15 110 5 73 4 37 3 15-17 15-53c-1-64 63-63 125-63 3-35-9-54-41-54-24 1-41 7-42 31l-33-3c5-37 33-52 76-52 45 0 72 20 72 64v82c-1 20 7 32 28 27v20c-31 9-61-2-59-35zM48-53c0 20 12 33 32 33 41-3 63-29 60-74-43 2-92-5-92 41" id="au"/><path fill="#3a414a" d="M59-47c-2 24 18 29 38 22v24C64 9 27 4 27-40v-127H5v-23h24l9-43h21v43h35v23H59v120" id="av"/><path fill="#3a414a" d="M115-194c53 0 69 39 70 98 0 66-23 100-70 100C84 3 66-7 56-30L54 0H23l1-261h32v101c10-23 28-34 59-34zm-8 174c40 0 45-34 45-75 0-40-5-75-45-74-42 0-51 32-51 76 0 43 10 73 51 73" id="aw"/><path fill="#3a414a" d="M135-143c-3-34-86-38-87 0 15 53 115 12 119 90S17 21 10-45l28-5c4 36 97 45 98 0-10-56-113-15-118-90-4-57 82-63 122-42 12 7 21 19 24 35" id="ax"/><path fill="#3a414a" d="M100-194c63 0 86 42 84 106H49c0 40 14 67 53 68 26 1 43-12 49-29l28 8c-11 28-37 45-77 45C44 4 14-33 15-96c1-61 26-98 85-98zm52 81c6-60-76-77-97-28-3 7-6 17-6 28h103" id="ay"/><g id="j"><use transform="matrix(0.06172839506172839,0,0,0.06172839506172839,0,0)" xlink:href="#at"/><use transform="matrix(0.06172839506172839,0,0,0.06172839506172839,15.987654320987653,0)" xlink:href="#au"/><use transform="matrix(0.06172839506172839,0,0,0.06172839506172839,28.333333333333332,0)" xlink:href="#av"/><use transform="matrix(0.06172839506172839,0,0,0.06172839506172839,34.50617283950617,0)" xlink:href="#au"/><use transform="matrix(0.06172839506172839,0,0,0.06172839506172839,46.85185185185185,0)" xlink:href="#aw"/><use transform="matrix(0.06172839506172839,0,0,0.06172839506172839,59.197530864197525,0)" xlink:href="#au"/><use transform="matrix(0.06172839506172839,0,0,0.06172839506172839,71.5432098765432,0)" xlink:href="#ax"/><use transform="matrix(0.06172839506172839,0,0,0.06172839506172839,82.65432098765432,0)" xlink:href="#ay"/></g><path fill="#3a414a" d="M232-93c-1 65-40 97-104 97C67 4 28-28 28-90v-158h33c8 89-33 224 67 224 102 0 64-133 71-224h33v155" id="az"/><path fill="#3a414a" d="M114-163C36-179 61-72 57 0H25l-1-190h30c1 12-1 29 2 39 6-27 23-49 58-41v29" id="aA"/><g id="k"><use transform="matrix(0.06172839506172839,0,0,0.06172839506172839,0,0)" xlink:href="#az"/><use transform="matrix(0.06172839506172839,0,0,0.06172839506172839,15.987654320987653,0)" xlink:href="#ax"/><use transform="matrix(0.06172839506172839,0,0,0.06172839506172839,27.098765432098766,0)" xlink:href="#ay"/><use transform="matrix(0.06172839506172839,0,0,0.06172839506172839,39.44444444444444,0)" xlink:href="#aA"/></g><path fill="#3a414a" d="M205 0l-28-72H64L36 0H1l101-248h38L239 0h-34zm-38-99l-47-123c-12 45-31 82-46 123h93" id="aB"/><path fill="#3a414a" d="M96-169c-40 0-48 33-48 73s9 75 48 75c24 0 41-14 43-38l32 2c-6 37-31 61-74 61-59 0-76-41-82-99-10-93 101-131 147-64 4 7 5 14 7 22l-32 3c-4-21-16-35-41-35" id="aC"/><path fill="#3a414a" d="M24-231v-30h32v30H24zM24 0v-190h32V0H24" id="aD"/><path fill="#3a414a" d="M108 0H70L1-190h34L89-25l56-165h34" id="aE"/><path fill="#3a414a" d="M179-190L93 31C79 59 56 82 12 73V49c39 6 53-20 64-50L1-190h34L92-34l54-156h33" id="aF"/><g id="l"><use transform="matrix(0.06172839506172839,0,0,0.06172839506172839,0,0)" xlink:href="#aB"/><use transform="matrix(0.06172839506172839,0,0,0.06172839506172839,14.814814814814813,0)" xlink:href="#aC"/><use transform="matrix(0.06172839506172839,0,0,0.06172839506172839,25.925925925925924,0)" xlink:href="#av"/><use transform="matrix(0.06172839506172839,0,0,0.06172839506172839,32.098765432098766,0)" xlink:href="#aD"/><use transform="matrix(0.06172839506172839,0,0,0.06172839506172839,36.97530864197531,0)" xlink:href="#aE"/><use transform="matrix(0.06172839506172839,0,0,0.06172839506172839,48.08641975308642,0)" xlink:href="#aD"/><use transform="matrix(0.06172839506172839,0,0,0.06172839506172839,52.96296296296296,0)" xlink:href="#av"/><use transform="matrix(0.06172839506172839,0,0,0.06172839506172839,59.135802469135804,0)" xlink:href="#aF"/></g><path fill="#3a414a" d="M185-189c-5-48-123-54-124 2 14 75 158 14 163 119 3 78-121 87-175 55-17-10-28-26-33-46l33-7c5 56 141 63 141-1 0-78-155-14-162-118-5-82 145-84 179-34 5 7 8 16 11 25" id="aG"/><g id="m"><use transform="matrix(0.06172839506172839,0,0,0.06172839506172839,0,0)" xlink:href="#aG"/><use transform="matrix(0.06172839506172839,0,0,0.06172839506172839,14.814814814814813,0)" xlink:href="#ay"/><use transform="matrix(0.06172839506172839,0,0,0.06172839506172839,27.160493827160494,0)" xlink:href="#aA"/><use transform="matrix(0.06172839506172839,0,0,0.06172839506172839,34.50617283950617,0)" xlink:href="#aE"/><use transform="matrix(0.06172839506172839,0,0,0.06172839506172839,45.61728395061728,0)" xlink:href="#aD"/><use transform="matrix(0.06172839506172839,0,0,0.06172839506172839,50.49382716049382,0)" xlink:href="#aC"/><use transform="matrix(0.06172839506172839,0,0,0.06172839506172839,61.60493827160494,0)" xlink:href="#ay"/></g><path d="M195 0l-88-114-31 24V0H24v-248h52v113l112-113h60L142-143 257 0h-62" id="aH"/><path d="M185-48c-13 30-37 53-82 52C43 2 14-33 14-96s30-98 90-98c62 0 83 45 84 108H66c0 31 8 55 39 56 18 0 30-7 34-22zm-45-69c5-46-57-63-70-21-2 6-4 13-4 21h74" id="aI"/><path d="M123 10C108 53 80 86 19 72V37c35 8 53-11 59-39L3-190h52l48 148c12-52 28-100 44-148h51" id="aJ"/><g id="n"><use transform="matrix(0.04690158456839474,0,0,0.04690158456839474,0,0)" xlink:href="#aH"/><use transform="matrix(0.04690158456839474,0,0,0.04690158456839474,12.147510403214238,0)" xlink:href="#aI"/><use transform="matrix(0.04690158456839474,0,0,0.04690158456839474,21.527827316893188,0)" xlink:href="#aJ"/></g><path d="M232-93c-1 65-40 97-104 97C67 4 28-28 28-90v-158h33c8 89-33 224 67 224 102 0 64-133 71-224h33v155" id="aK"/><path d="M135-143c-3-34-86-38-87 0 15 53 115 12 119 90S17 21 10-45l28-5c4 36 97 45 98 0-10-56-113-15-118-90-4-57 82-63 122-42 12 7 21 19 24 35" id="aL"/><path d="M100-194c63 0 86 42 84 106H49c0 40 14 67 53 68 26 1 43-12 49-29l28 8c-11 28-37 45-77 45C44 4 14-33 15-96c1-61 26-98 85-98zm52 81c6-60-76-77-97-28-3 7-6 17-6 28h103" id="aM"/><path d="M114-163C36-179 61-72 57 0H25l-1-190h30c1 12-1 29 2 39 6-27 23-49 58-41v29" id="aN"/><path d="M47-170H22l-4-78h33" id="aO"/><g id="o"><use transform="matrix(0.04690158456839472,0,0,0.04690158456839472,0,0)" xlink:href="#aK"/><use transform="matrix(0.04690158456839472,0,0,0.04690158456839472,12.147510403214234,0)" xlink:href="#aL"/><use transform="matrix(0.04690158456839472,0,0,0.04690158456839472,20.589795625525284,0)" xlink:href="#aM"/><use transform="matrix(0.04690158456839472,0,0,0.04690158456839472,29.970112539204226,0)" xlink:href="#aN"/><use transform="matrix(0.04690158456839472,0,0,0.04690158456839472,35.55140110284321,0)" xlink:href="#aO"/><use transform="matrix(0.04690158456839472,0,0,0.04690158456839472,38.74070885349405,0)" xlink:href="#aL"/></g><g id="p"><use transform="matrix(0.04690158456839472,0,0,0.04690158456839472,0,0)" xlink:href="#aK"/><use transform="matrix(0.04690158456839472,0,0,0.04690158456839472,12.147510403214234,0)" xlink:href="#aL"/><use transform="matrix(0.04690158456839472,0,0,0.04690158456839472,20.589795625525284,0)" xlink:href="#aM"/></g><path d="M212-179c-10-28-35-45-73-45-59 0-87 40-87 99 0 60 29 101 89 101 43 0 62-24 78-52l27 14C228-24 195 4 139 4 59 4 22-46 18-125c-6-104 99-153 187-111 19 9 31 26 39 46" id="aP"/><path d="M141-36C126-15 110 5 73 4 37 3 15-17 15-53c-1-64 63-63 125-63 3-35-9-54-41-54-24 1-41 7-42 31l-33-3c5-37 33-52 76-52 45 0 72 20 72 64v82c-1 20 7 32 28 27v20c-31 9-61-2-59-35zM48-53c0 20 12 33 32 33 41-3 63-29 60-74-43 2-92-5-92 41" id="aQ"/><g id="q"><use transform="matrix(0.04690158456839472,0,0,0.04690158456839472,0,0)" xlink:href="#aP"/><use transform="matrix(0.04690158456839472,0,0,0.04690158456839472,12.147510403214234,0)" xlink:href="#aQ"/><use transform="matrix(0.04690158456839472,0,0,0.04690158456839472,21.52782731689318,0)" xlink:href="#aL"/><use transform="matrix(0.04690158456839472,0,0,0.04690158456839472,29.970112539204226,0)" xlink:href="#aM"/></g><path d="M30-248c118-7 216 8 213 122C240-48 200 0 122 0H30v-248zM63-27c89 8 146-16 146-99s-60-101-146-95v194" id="aR"/><path d="M59-47c-2 24 18 29 38 22v24C64 9 27 4 27-40v-127H5v-23h24l9-43h21v43h35v23H59v120" id="aS"/><path d="M115-194c53 0 69 39 70 98 0 66-23 100-70 100C84 3 66-7 56-30L54 0H23l1-261h32v101c10-23 28-34 59-34zm-8 174c40 0 45-34 45-75 0-40-5-75-45-74-42 0-51 32-51 76 0 43 10 73 51 73" id="aT"/><g id="r"><use transform="matrix(0.0386708582631917,0,0,0.0386708582631917,0,0)" xlink:href="#aR"/><use transform="matrix(0.0386708582631917,0,0,0.0386708582631917,10.01575229016665,0)" xlink:href="#aQ"/><use transform="matrix(0.0386708582631917,0,0,0.0386708582631917,17.74992394280499,0)" xlink:href="#aS"/><use transform="matrix(0.0386708582631917,0,0,0.0386708582631917,21.61700976912416,0)" xlink:href="#aQ"/><use transform="matrix(0.0386708582631917,0,0,0.0386708582631917,29.3511814217625,0)" xlink:href="#aT"/><use transform="matrix(0.0386708582631917,0,0,0.0386708582631917,37.085353074400835,0)" xlink:href="#aQ"/><use transform="matrix(0.0386708582631917,0,0,0.0386708582631917,44.81952472703918,0)" xlink:href="#aL"/><use transform="matrix(0.0386708582631917,0,0,0.0386708582631917,51.780279214413675,0)" xlink:href="#aM"/><use transform="matrix(0.0386708582631917,0,0,0.0386708582631917,59.51445086705202,0)" xlink:href="#aO"/><use transform="matrix(0.0386708582631917,0,0,0.0386708582631917,62.14406922894905,0)" xlink:href="#aL"/></g><g id="s"><use transform="matrix(0.0386708582631917,0,0,0.0386708582631917,0,0)" xlink:href="#aK"/><use transform="matrix(0.0386708582631917,0,0,0.0386708582631917,10.01575229016665,0)" xlink:href="#aL"/><use transform="matrix(0.0386708582631917,0,0,0.0386708582631917,16.976506777541154,0)" xlink:href="#aM"/></g><g id="t"><use transform="matrix(0.0386708582631917,0,0,0.0386708582631917,0,0)" xlink:href="#aP"/><use transform="matrix(0.0386708582631917,0,0,0.0386708582631917,10.01575229016665,0)" xlink:href="#aQ"/><use transform="matrix(0.0386708582631917,0,0,0.0386708582631917,17.74992394280499,0)" xlink:href="#aL"/><use transform="matrix(0.0386708582631917,0,0,0.0386708582631917,24.710678430179495,0)" xlink:href="#aM"/></g><path d="M205 0l-28-72H64L36 0H1l101-248h38L239 0h-34zm-38-99l-47-123c-12 45-31 82-46 123h93" id="aU"/><path d="M96-169c-40 0-48 33-48 73s9 75 48 75c24 0 41-14 43-38l32 2c-6 37-31 61-74 61-59 0-76-41-82-99-10-93 101-131 147-64 4 7 5 14 7 22l-32 3c-4-21-16-35-41-35" id="aV"/><path d="M24-231v-30h32v30H24zM24 0v-190h32V0H24" id="aW"/><path d="M108 0H70L1-190h34L89-25l56-165h34" id="aX"/><path d="M179-190L93 31C79 59 56 82 12 73V49c39 6 53-20 64-50L1-190h34L92-34l54-156h33" id="aY"/><g id="u"><use transform="matrix(0.04690158456839472,0,0,0.04690158456839472,0,0)" xlink:href="#aU"/><use transform="matrix(0.04690158456839472,0,0,0.04690158456839472,11.256380296414735,0)" xlink:href="#aV"/><use transform="matrix(0.04690158456839472,0,0,0.04690158456839472,19.698665518725786,0)" xlink:href="#aS"/><use transform="matrix(0.04690158456839472,0,0,0.04690158456839472,24.388823975565263,0)" xlink:href="#aW"/><use transform="matrix(0.04690158456839472,0,0,0.04690158456839472,28.094049156468444,0)" xlink:href="#aX"/><use transform="matrix(0.04690158456839472,0,0,0.04690158456839472,36.53633437877949,0)" xlink:href="#aW"/><use transform="matrix(0.04690158456839472,0,0,0.04690158456839472,40.24155955968268,0)" xlink:href="#aS"/><use transform="matrix(0.04690158456839472,0,0,0.04690158456839472,44.93171801652214,0)" xlink:href="#aY"/><use transform="matrix(0.04690158456839472,0,0,0.04690158456839472,53.3740032388332,0)" xlink:href="#aO"/><use transform="matrix(0.04690158456839472,0,0,0.04690158456839472,56.56331098948404,0)" xlink:href="#aL"/></g><path d="M100-194c62-1 85 37 85 99 1 63-27 99-86 99S16-35 15-95c0-66 28-99 85-99zM99-20c44 1 53-31 53-75 0-43-8-75-51-75s-53 32-53 75 10 74 51 75" id="aZ"/><g id="v"><use transform="matrix(0.04690158456839472,0,0,0.04690158456839472,0,0)" xlink:href="#aU"/><use transform="matrix(0.04690158456839472,0,0,0.04690158456839472,11.256380296414735,0)" xlink:href="#aV"/><use transform="matrix(0.04690158456839472,0,0,0.04690158456839472,19.698665518725786,0)" xlink:href="#aS"/><use transform="matrix(0.04690158456839472,0,0,0.04690158456839472,24.388823975565263,0)" xlink:href="#aZ"/><use transform="matrix(0.04690158456839472,0,0,0.04690158456839472,33.769140889244206,0)" xlink:href="#aN"/></g><path d="M185-189c-5-48-123-54-124 2 14 75 158 14 163 119 3 78-121 87-175 55-17-10-28-26-33-46l33-7c5 56 141 63 141-1 0-78-155-14-162-118-5-82 145-84 179-34 5 7 8 16 11 25" id="ba"/><g id="w"><use transform="matrix(0.05,0,0,0.05,0,0)" xlink:href="#ba"/><use transform="matrix(0.05,0,0,0.05,12,0)" xlink:href="#aM"/><use transform="matrix(0.05,0,0,0.05,22,0)" xlink:href="#aM"/><use transform="matrix(0.05,0,0,0.05,32,0)" xlink:href="#aL"/></g><path d="M233-177c-1 41-23 64-60 70L243 0h-38l-65-103H63V0H30v-248c88 3 205-21 203 71zM63-129c60-2 137 13 137-47 0-61-80-42-137-45v92" id="bb"/><path d="M210-169c-67 3-38 105-44 169h-31v-121c0-29-5-50-35-48C34-165 62-65 56 0H25l-1-190h30c1 10-1 24 2 32 10-44 99-50 107 0 11-21 27-35 58-36 85-2 47 119 55 194h-31v-121c0-29-5-49-35-48" id="bc"/><path d="M117-194c89-4 53 116 60 194h-32v-121c0-31-8-49-39-48C34-167 62-67 57 0H25l-1-190h30c1 10-1 24 2 32 11-22 29-35 61-36" id="bd"/><path d="M85-194c31 0 48 13 60 33l-1-100h32l1 261h-30c-2-10 0-23-3-31C134-8 116 4 85 4 32 4 16-35 15-94c0-66 23-100 70-100zm9 24c-40 0-46 34-46 75 0 40 6 74 45 74 42 0 51-32 51-76 0-42-9-74-50-73" id="be"/><g id="x"><use transform="matrix(0.05,0,0,0.05,0,0)" xlink:href="#bb"/><use transform="matrix(0.05,0,0,0.05,12.950000000000001,0)" xlink:href="#aM"/><use transform="matrix(0.05,0,0,0.05,22.950000000000003,0)" xlink:href="#bc"/><use transform="matrix(0.05,0,0,0.05,37.900000000000006,0)" xlink:href="#aW"/><use transform="matrix(0.05,0,0,0.05,41.85000000000001,0)" xlink:href="#bd"/><use transform="matrix(0.05,0,0,0.05,51.85,0)" xlink:href="#be"/><use transform="matrix(0.05,0,0,0.05,61.85,0)" xlink:href="#aM"/><use transform="matrix(0.05,0,0,0.05,71.85000000000001,0)" xlink:href="#aN"/><use transform="matrix(0.05,0,0,0.05,77.80000000000001,0)" xlink:href="#aL"/></g><path d="M24 0v-261h32V0H24" id="bf"/><g id="y"><use transform="matrix(0.05,0,0,0.05,0,0)" xlink:href="#ba"/><use transform="matrix(0.05,0,0,0.05,12,0)" xlink:href="#aM"/><use transform="matrix(0.05,0,0,0.05,22,0)" xlink:href="#bf"/><use transform="matrix(0.05,0,0,0.05,25.950000000000003,0)" xlink:href="#aM"/><use transform="matrix(0.05,0,0,0.05,35.95,0)" xlink:href="#aV"/><use transform="matrix(0.05,0,0,0.05,44.95,0)" xlink:href="#aS"/><use transform="matrix(0.05,0,0,0.05,49.95,0)" xlink:href="#aL"/></g><g id="z"><use transform="matrix(0.05,0,0,0.05,0,0)" xlink:href="#bb"/><use transform="matrix(0.05,0,0,0.05,12.950000000000001,0)" xlink:href="#aM"/><use transform="matrix(0.05,0,0,0.05,22.950000000000003,0)" xlink:href="#bc"/><use transform="matrix(0.05,0,0,0.05,37.900000000000006,0)" xlink:href="#aW"/><use transform="matrix(0.05,0,0,0.05,41.85000000000001,0)" xlink:href="#bd"/><use transform="matrix(0.05,0,0,0.05,51.85,0)" xlink:href="#be"/><use transform="matrix(0.05,0,0,0.05,61.85,0)" xlink:href="#aM"/><use transform="matrix(0.05,0,0,0.05,71.85000000000001,0)" xlink:href="#aN"/></g><path d="M106-169C34-169 62-67 57 0H25v-261h32l-1 103c12-21 28-36 61-36 89 0 53 116 60 194h-32v-121c2-32-8-49-39-48" id="bg"/><path d="M143 0L79-87 56-68V0H24v-261h32v163l83-92h37l-77 82L181 0h-38" id="bh"/><g id="A"><use transform="matrix(0.05,0,0,0.05,0,0)" xlink:href="#aP"/><use transform="matrix(0.05,0,0,0.05,12.950000000000001,0)" xlink:href="#bg"/><use transform="matrix(0.05,0,0,0.05,22.950000000000003,0)" xlink:href="#aM"/><use transform="matrix(0.05,0,0,0.05,32.95,0)" xlink:href="#aV"/><use transform="matrix(0.05,0,0,0.05,41.95,0)" xlink:href="#bh"/><use transform="matrix(0.05,0,0,0.05,50.95,0)" xlink:href="#aL"/></g><g id="B"><use transform="matrix(0.05,0,0,0.05,0,0)" xlink:href="#aN"/><use transform="matrix(0.05,0,0,0.05,5.95,0)" xlink:href="#aM"/><use transform="matrix(0.05,0,0,0.05,15.949999999999998,0)" xlink:href="#bc"/><use transform="matrix(0.05,0,0,0.05,30.899999999999995,0)" xlink:href="#aW"/><use transform="matrix(0.05,0,0,0.05,34.85,0)" xlink:href="#bd"/><use transform="matrix(0.05,0,0,0.05,44.85,0)" xlink:href="#be"/><use transform="matrix(0.05,0,0,0.05,54.85,0)" xlink:href="#aM"/><use transform="matrix(0.05,0,0,0.05,64.85,0)" xlink:href="#aN"/></g><path d="M9 0v-24l116-142H16v-24h144v24L44-24h123V0H9" id="bi"/><g id="C"><use transform="matrix(0.05,0,0,0.05,0,0)" xlink:href="#ba"/><use transform="matrix(0.05,0,0,0.05,12,0)" xlink:href="#bd"/><use transform="matrix(0.05,0,0,0.05,22,0)" xlink:href="#aZ"/><use transform="matrix(0.05,0,0,0.05,32,0)" xlink:href="#aZ"/><use transform="matrix(0.05,0,0,0.05,42,0)" xlink:href="#bi"/><use transform="matrix(0.05,0,0,0.05,51,0)" xlink:href="#aM"/><use transform="matrix(0.05,0,0,0.05,61,0)" xlink:href="#aL"/></g><g id="D"><use transform="matrix(0.05,0,0,0.05,0,0)" xlink:href="#aN"/><use transform="matrix(0.05,0,0,0.05,5.95,0)" xlink:href="#aM"/><use transform="matrix(0.05,0,0,0.05,15.949999999999998,0)" xlink:href="#bc"/><use transform="matrix(0.05,0,0,0.05,30.899999999999995,0)" xlink:href="#aW"/><use transform="matrix(0.05,0,0,0.05,34.85,0)" xlink:href="#bd"/><use transform="matrix(0.05,0,0,0.05,44.85,0)" xlink:href="#be"/><use transform="matrix(0.05,0,0,0.05,54.85,0)" xlink:href="#aM"/><use transform="matrix(0.05,0,0,0.05,64.85,0)" xlink:href="#aN"/><use transform="matrix(0.05,0,0,0.05,70.8,0)" xlink:href="#aL"/></g><path d="M143 4C61 4 22-44 18-125c-5-107 100-154 193-111 17 8 29 25 37 43l-32 9c-13-25-37-40-76-40-61 0-88 39-88 99 0 61 29 100 91 101 35 0 62-11 79-27v-45h-74v-28h105v86C228-13 192 4 143 4" id="bj"/><g id="E"><use transform="matrix(0.05,0,0,0.05,0,0)" xlink:href="#bj"/><use transform="matrix(0.05,0,0,0.05,14,0)" xlink:href="#aM"/><use transform="matrix(0.05,0,0,0.05,24,0)" xlink:href="#aS"/><use transform="matrix(0.05,0,0,0.05,29,0)" xlink:href="#aL"/></g><path d="M30-248c87 1 191-15 191 75 0 78-77 80-158 76V0H30v-248zm33 125c57 0 124 11 124-50 0-59-68-47-124-48v98" id="bk"/><path d="M115-194c55 1 70 41 70 98S169 2 115 4C84 4 66-9 55-30l1 105H24l-1-265h31l2 30c10-21 28-34 59-34zm-8 174c40 0 45-34 45-75s-6-73-45-74c-42 0-51 32-51 76 0 43 10 73 51 73" id="bl"/><path d="M84 4C-5 8 30-112 23-190h32v120c0 31 7 50 39 49 72-2 45-101 50-169h31l1 190h-30c-1-10 1-25-2-33-11 22-28 36-60 37" id="bm"/><g id="F"><use transform="matrix(0.05,0,0,0.05,0,0)" xlink:href="#bk"/><use transform="matrix(0.05,0,0,0.05,12,0)" xlink:href="#aZ"/><use transform="matrix(0.05,0,0,0.05,22,0)" xlink:href="#bl"/><use transform="matrix(0.05,0,0,0.05,32,0)" xlink:href="#bm"/><use transform="matrix(0.05,0,0,0.05,42,0)" xlink:href="#bf"/><use transform="matrix(0.05,0,0,0.05,45.95,0)" xlink:href="#aQ"/><use transform="matrix(0.05,0,0,0.05,55.95,0)" xlink:href="#aS"/><use transform="matrix(0.05,0,0,0.05,60.95,0)" xlink:href="#aM"/><use transform="matrix(0.05,0,0,0.05,70.95,0)" xlink:href="#aL"/></g><g id="G"><use transform="matrix(0.05,0,0,0.05,0,0)" xlink:href="#bb"/><use transform="matrix(0.05,0,0,0.05,12.950000000000001,0)" xlink:href="#aM"/><use transform="matrix(0.05,0,0,0.05,22.950000000000003,0)" xlink:href="#bc"/><use transform="matrix(0.05,0,0,0.05,37.900000000000006,0)" xlink:href="#aW"/><use transform="matrix(0.05,0,0,0.05,41.85000000000001,0)" xlink:href="#bd"/><use transform="matrix(0.05,0,0,0.05,51.85,0)" xlink:href="#be"/><use transform="matrix(0.05,0,0,0.05,61.85,0)" xlink:href="#aM"/><use transform="matrix(0.05,0,0,0.05,71.85000000000001,0)" xlink:href="#aN"/><use transform="matrix(0.05,0,0,0.05,77.80000000000001,0)" xlink:href="#aL"/></g><g id="H"><use transform="matrix(0.05,0,0,0.05,0,0)" xlink:href="#aW"/><use transform="matrix(0.05,0,0,0.05,3.95,0)" xlink:href="#bd"/></g><path d="M33 0v-248h34V0H33" id="bn"/><g id="I"><use transform="matrix(0.05,0,0,0.05,0,0)" xlink:href="#aK"/><use transform="matrix(0.05,0,0,0.05,12.950000000000001,0)" xlink:href="#bn"/></g><path fill="#333" d="M15-91v-56l181-69v40L49-119l147 57v40" id="bo"/><path fill="#333" d="M25-224v-37h50v37H25zM25 0v-190h50V0H25" id="bp"/><path fill="#333" d="M135-194c87-1 58 113 63 194h-50c-7-57 23-157-34-157-59 0-34 97-39 157H25l-1-190h47c2 12-1 28 3 38 12-26 28-41 61-42" id="bq"/><path fill="#333" d="M190-63c-7 42-38 67-86 67-59 0-84-38-90-98-12-110 154-137 174-36l-49 2c-2-19-15-32-35-32-30 0-35 28-38 64-6 74 65 87 74 30" id="br"/><path fill="#333" d="M25 0v-261h50V0H25" id="bs"/><path fill="#333" d="M85 4C-2 5 27-109 22-190h50c7 57-23 150 33 157 60-5 35-97 40-157h50l1 190h-47c-2-12 1-28-3-38-12 25-28 42-61 42" id="bt"/><path fill="#333" d="M88-194c31-1 46 15 58 34l-1-101h50l1 261h-48c-2-10 0-23-3-31C134-8 116 4 84 4 32 4 16-41 15-95c0-56 19-97 73-99zm17 164c33 0 40-30 41-66 1-37-9-64-41-64s-38 30-39 65c0 43 13 65 39 65" id="bu"/><path fill="#333" d="M185-48c-13 30-37 53-82 52C43 2 14-33 14-96s30-98 90-98c62 0 83 45 84 108H66c0 31 8 55 39 56 18 0 30-7 34-22zm-45-69c5-46-57-63-70-21-2 6-4 13-4 21h74" id="bv"/><path fill="#333" d="M15-22v-40l146-57-146-57v-40l181 69v56" id="bw"/><g id="J"><use transform="matrix(0.04938271604938272,0,0,0.04938271604938272,0,0)" xlink:href="#bo"/><use transform="matrix(0.04938271604938272,0,0,0.04938271604938272,10.370370370370372,0)" xlink:href="#bo"/><use transform="matrix(0.04938271604938272,0,0,0.04938271604938272,20.740740740740744,0)" xlink:href="#bp"/><use transform="matrix(0.04938271604938272,0,0,0.04938271604938272,25.679012345679016,0)" xlink:href="#bq"/><use transform="matrix(0.04938271604938272,0,0,0.04938271604938272,36.49382716049383,0)" xlink:href="#br"/><use transform="matrix(0.04938271604938272,0,0,0.04938271604938272,46.370370370370374,0)" xlink:href="#bs"/><use transform="matrix(0.04938271604938272,0,0,0.04938271604938272,51.308641975308646,0)" xlink:href="#bt"/><use transform="matrix(0.04938271604938272,0,0,0.04938271604938272,62.12345679012346,0)" xlink:href="#bu"/><use transform="matrix(0.04938271604938272,0,0,0.04938271604938272,72.93827160493828,0)" xlink:href="#bv"/><use transform="matrix(0.04938271604938272,0,0,0.04938271604938272,82.81481481481482,0)" xlink:href="#bw"/><use transform="matrix(0.04938271604938272,0,0,0.04938271604938272,93.18518518518519,0)" xlink:href="#bw"/></g><path d="M63-220v92h138v28H63V0H30v-248h175v28H63" id="bx"/><g id="K"><use transform="matrix(0.05,0,0,0.05,0,0)" xlink:href="#bx"/><use transform="matrix(0.05,0,0,0.05,10.950000000000001,0)" xlink:href="#aW"/><use transform="matrix(0.05,0,0,0.05,14.9,0)" xlink:href="#bf"/><use transform="matrix(0.05,0,0,0.05,18.85,0)" xlink:href="#aS"/><use transform="matrix(0.05,0,0,0.05,23.85,0)" xlink:href="#aM"/><use transform="matrix(0.05,0,0,0.05,33.85,0)" xlink:href="#aN"/><use transform="matrix(0.05,0,0,0.05,39.800000000000004,0)" xlink:href="#aL"/></g><path fill="#333" d="M144 0l-44-69L55 0H2l70-98-66-92h53l41 62 40-62h54l-67 91 71 99h-54" id="by"/><path fill="#333" d="M115-3C79 11 28 4 28-45v-112H4v-33h27l15-45h31v45h36v33H77v99c-1 23 16 31 38 25v30" id="bz"/><g id="L"><use transform="matrix(0.04938271604938272,0,0,0.04938271604938272,0,0)" xlink:href="#bo"/><use transform="matrix(0.04938271604938272,0,0,0.04938271604938272,10.370370370370372,0)" xlink:href="#bo"/><use transform="matrix(0.04938271604938272,0,0,0.04938271604938272,20.740740740740744,0)" xlink:href="#bv"/><use transform="matrix(0.04938271604938272,0,0,0.04938271604938272,30.617283950617285,0)" xlink:href="#by"/><use transform="matrix(0.04938271604938272,0,0,0.04938271604938272,40.49382716049384,0)" xlink:href="#bz"/><use transform="matrix(0.04938271604938272,0,0,0.04938271604938272,46.37037037037038,0)" xlink:href="#bv"/><use transform="matrix(0.04938271604938272,0,0,0.04938271604938272,56.24691358024693,0)" xlink:href="#bq"/><use transform="matrix(0.04938271604938272,0,0,0.04938271604938272,67.06172839506173,0)" xlink:href="#bu"/><use transform="matrix(0.04938271604938272,0,0,0.04938271604938272,77.87654320987654,0)" xlink:href="#bw"/><use transform="matrix(0.04938271604938272,0,0,0.04938271604938272,88.24691358024691,0)" xlink:href="#bw"/></g><path fill="#333" d="M137-138c1-29-70-34-71-4 15 46 118 7 119 86 1 83-164 76-172 9l43-7c4 19 20 25 44 25 33 8 57-30 24-41C81-84 22-81 20-136c-2-80 154-74 161-7" id="bA"/><g id="M"><use transform="matrix(0.04938271604938272,0,0,0.04938271604938272,0,0)" xlink:href="#bo"/><use transform="matrix(0.04938271604938272,0,0,0.04938271604938272,10.370370370370372,0)" xlink:href="#bo"/><use transform="matrix(0.04938271604938272,0,0,0.04938271604938272,20.740740740740744,0)" xlink:href="#bv"/><use transform="matrix(0.04938271604938272,0,0,0.04938271604938272,30.617283950617285,0)" xlink:href="#by"/><use transform="matrix(0.04938271604938272,0,0,0.04938271604938272,40.49382716049384,0)" xlink:href="#bz"/><use transform="matrix(0.04938271604938272,0,0,0.04938271604938272,46.37037037037038,0)" xlink:href="#bv"/><use transform="matrix(0.04938271604938272,0,0,0.04938271604938272,56.24691358024693,0)" xlink:href="#bq"/><use transform="matrix(0.04938271604938272,0,0,0.04938271604938272,67.06172839506173,0)" xlink:href="#bu"/><use transform="matrix(0.04938271604938272,0,0,0.04938271604938272,77.87654320987654,0)" xlink:href="#bA"/><use transform="matrix(0.04938271604938272,0,0,0.04938271604938272,87.75308641975309,0)" xlink:href="#bw"/><use transform="matrix(0.04938271604938272,0,0,0.04938271604938272,98.12345679012346,0)" xlink:href="#bw"/></g><g id="N"><use transform="matrix(0.05,0,0,0.05,0,0)" xlink:href="#ba"/><use transform="matrix(0.05,0,0,0.05,12,0)" xlink:href="#aS"/><use transform="matrix(0.05,0,0,0.05,17,0)" xlink:href="#aZ"/><use transform="matrix(0.05,0,0,0.05,27,0)" xlink:href="#aN"/><use transform="matrix(0.05,0,0,0.05,32.95,0)" xlink:href="#aM"/><use transform="matrix(0.05,0,0,0.05,42.95,0)" xlink:href="#aL"/></g><g id="O"><use transform="matrix(0.05,0,0,0.05,0,0)" xlink:href="#aQ"/><use transform="matrix(0.05,0,0,0.05,10,0)" xlink:href="#aL"/></g><g id="P"><use transform="matrix(0.05,0,0,0.05,0,0)" xlink:href="#bc"/><use transform="matrix(0.05,0,0,0.05,14.950000000000001,0)" xlink:href="#aM"/><use transform="matrix(0.05,0,0,0.05,24.950000000000003,0)" xlink:href="#be"/><use transform="matrix(0.05,0,0,0.05,34.95,0)" xlink:href="#aW"/><use transform="matrix(0.05,0,0,0.05,38.900000000000006,0)" xlink:href="#aV"/><use transform="matrix(0.05,0,0,0.05,47.900000000000006,0)" xlink:href="#aQ"/><use transform="matrix(0.05,0,0,0.05,57.900000000000006,0)" xlink:href="#aS"/><use transform="matrix(0.05,0,0,0.05,62.900000000000006,0)" xlink:href="#aW"/><use transform="matrix(0.05,0,0,0.05,66.85000000000001,0)" xlink:href="#aZ"/><use transform="matrix(0.05,0,0,0.05,76.85000000000001,0)" xlink:href="#bd"/></g><path d="M177-190C167-65 218 103 67 71c-23-6-38-20-44-43l32-5c15 47 100 32 89-28v-30C133-14 115 1 83 1 29 1 15-40 15-95c0-56 16-97 71-98 29-1 48 16 59 35 1-10 0-23 2-32h30zM94-22c36 0 50-32 50-73 0-42-14-75-50-75-39 0-46 34-46 75s6 73 46 73" id="bB"/><g id="Q"><use transform="matrix(0.05,0,0,0.05,0,0)" xlink:href="#bf"/><use transform="matrix(0.05,0,0,0.05,3.95,0)" xlink:href="#aZ"/><use transform="matrix(0.05,0,0,0.05,13.949999999999998,0)" xlink:href="#bB"/></g><g id="R"><use transform="matrix(0.05,0,0,0.05,0,0)" xlink:href="#aK"/><use transform="matrix(0.05,0,0,0.05,12.950000000000001,0)" xlink:href="#bl"/><use transform="matrix(0.05,0,0,0.05,22.950000000000003,0)" xlink:href="#be"/><use transform="matrix(0.05,0,0,0.05,32.95,0)" xlink:href="#aQ"/><use transform="matrix(0.05,0,0,0.05,42.95,0)" xlink:href="#aS"/><use transform="matrix(0.05,0,0,0.05,47.95,0)" xlink:href="#aM"/><use transform="matrix(0.05,0,0,0.05,57.95,0)" xlink:href="#aL"/></g><path d="M30 0v-248h33v221h125V0H30" id="bC"/><g id="S"><use transform="matrix(0.05,0,0,0.05,0,0)" xlink:href="#bC"/><use transform="matrix(0.05,0,0,0.05,10,0)" xlink:href="#aW"/><use transform="matrix(0.05,0,0,0.05,13.949999999999998,0)" xlink:href="#aL"/><use transform="matrix(0.05,0,0,0.05,22.95,0)" xlink:href="#aS"/></g><path d="M101-234c-31-9-42 10-38 44h38v23H63V0H32v-167H5v-23h27c-7-52 17-82 69-68v24" id="bD"/><g id="T"><use transform="matrix(0.05,0,0,0.05,0,0)" xlink:href="#aZ"/><use transform="matrix(0.05,0,0,0.05,10,0)" xlink:href="#bD"/></g></defs></g></svg>